M48
; DRILL file {KiCad 8.0.6} date 2024-11-17T17:25:59+0100
; FORMAT={-:-/ absolute / inch / decimal}
; #@! TF.CreationDate,2024-11-17T17:25:59+01:00
; #@! TF.GenerationSoftware,Kicad,Pcbnew,8.0.6
; #@! TF.FileFunction,Plated,1,2,PTH
FMAT,2
INCH
; #@! TA.AperFunction,Plated,PTH,ViaDrill
T1C0.0079
; #@! TA.AperFunction,Plated,PTH,ComponentDrill
T2C0.0300
; #@! TA.AperFunction,Plated,PTH,ComponentDrill
T3C0.0315
; #@! TA.AperFunction,Plated,PTH,ComponentDrill
T4C0.0354
; #@! TA.AperFunction,Plated,PTH,ComponentDrill
T5C0.0512
; #@! TA.AperFunction,Plated,PTH,ComponentDrill
T6C0.0591
%
G90
G05
T1
X3.9409Y-2.6693
X4.0453Y-4.0236
X4.2126Y-3.6713
X4.2144Y-3.4252
X4.4232Y-2.8356
X4.4291Y-2.9724
X4.4665Y-2.8366
X4.5079Y-2.9724
X4.5183Y-3.2474
X4.622Y-3.2441
X4.6535Y-3.2008
X4.6555Y-3.3465
X4.6949Y-3.1004
X4.6949Y-3.1988
X4.7953Y-3.9902
X4.8248Y-3.563
X4.872Y-3.0315
X4.8792Y-3.2642
X4.8843Y-3.3134
X4.9124Y-3.6417
X4.9153Y-3.1439
X4.9169Y-3.3713
X4.9177Y-3.289
X4.9213Y-3.0868
X4.9311Y-3.622
X4.939Y-3.4654
X4.939Y-3.8386
X4.9409Y-3.061
X4.9477Y-3.1957
X4.9717Y-3.2504
X4.9717Y-3.3138
X4.9795Y-3.8799
X5.1469Y-3.2189
X5.1504Y-3.4055
X5.1823Y-2.9953
X5.1854Y-3.265
X5.2571Y-3.5504
X5.3543Y-3.9272
X5.4528Y-3.3966
X5.4921Y-3.5433
X5.5754Y-3.6856
X5.7043Y-3.3606
X5.7776Y-3.4154
X5.9203Y-2.9724
X5.9301Y-3.4006
X5.935Y-3.248
X5.936Y-3.1201
T2
X5.4016Y-4.063
X5.5Y-4.063
X5.5984Y-4.063
T3
X4.123Y-3.4252
X4.1732Y-3.7795
X4.1937Y-3.4959
X4.2644Y-3.5666
X4.2717Y-3.7795
X4.3351Y-3.2131
X4.3351Y-3.6373
X4.4016Y-2.5512
X4.4058Y-3.2838
X4.4058Y-3.708
X4.4765Y-3.3545
X4.4765Y-3.7788
X4.5472Y-3.4252
X4.5472Y-3.8495
X4.618Y-3.4959
X4.618Y-3.9202
X4.6887Y-3.5666
X4.7016Y-2.5512
X4.7213Y-4.1142
X4.7594Y-3.6373
X4.7689Y-3.1724
X4.7689Y-3.2724
X4.7689Y-3.3724
X4.7689Y-3.4724
X4.8301Y-3.708
X4.8829Y-2.5679
X4.9811Y-3.7429
X4.9813Y-2.5679
X5.0518Y-3.6722
X5.0689Y-3.1724
X5.0689Y-3.2724
X5.0689Y-3.3724
X5.0689Y-3.4724
X5.1213Y-4.1142
X5.1225Y-3.6015
X5.1488Y-2.5669
X5.1932Y-3.5308
X5.1932Y-3.9551
X5.2639Y-3.4601
X5.2639Y-3.8844
X5.3346Y-3.3894
X5.3346Y-3.8137
X5.4054Y-3.3187
X5.4054Y-3.7429
X5.4488Y-2.5669
X5.4761Y-3.248
X5.4761Y-3.6722
X5.5118Y-3.878
X5.5468Y-3.6015
X5.6102Y-3.878
X5.6175Y-3.5308
X5.6882Y-3.4601
X5.7244Y-3.811
X5.8563Y-2.7626
X5.8563Y-3.1626
X5.8563Y-3.2744
X5.8563Y-3.6744
X5.9213Y-3.811
T4
X4.1433Y-2.9724
X4.1433Y-3.1398
X4.2024Y-3.3169
X4.2319Y-2.815
X4.2433Y-2.9724
X4.2433Y-3.1398
X4.3008Y-3.4547
X4.3024Y-3.3169
X4.3319Y-2.815
X4.3992Y-2.7264
X4.4008Y-3.4547
X4.4287Y-3.5827
X4.4992Y-2.7264
X4.5287Y-3.5827
X4.5764Y-3.7106
X4.6256Y-2.7067
X4.6764Y-3.7106
X4.7142Y-3.8386
X4.7256Y-2.7067
X4.7831Y-2.815
X4.8142Y-3.8386
X4.8707Y-2.9528
X4.8815Y-3.9469
X4.8831Y-2.815
X4.9707Y-2.9528
X4.9799Y-2.815
X4.9815Y-3.9469
X5.038Y-3.8386
X5.0799Y-2.815
X5.1374Y-2.7067
X5.138Y-3.8386
X5.1748Y-3.7106
X5.2374Y-2.7067
X5.2748Y-3.7106
X5.3323Y-3.5827
X5.3638Y-2.7067
X5.4323Y-3.5827
X5.4406Y-3.4547
X5.4638Y-2.7067
X5.5301Y-2.8248
X5.5406Y-3.4547
X5.5699Y-3.3169
X5.6089Y-2.9724
X5.6197Y-3.1398
X5.6301Y-2.8248
X5.6699Y-3.3169
X5.7089Y-2.9724
X5.7197Y-3.1398
T5
X4.247Y-4.0787
X4.3455Y-3.9803
X4.4439Y-4.0787
T6
X4.4961Y-3.0787
X5.2835Y-3.0787
M30
