%TF.GenerationSoftware,KiCad,Pcbnew,8.0.6*%
%TF.CreationDate,2024-11-17T17:26:00+01:00*%
%TF.ProjectId,Heart_NE555_THT,48656172-745f-44e4-9535-35355f544854,rev?*%
%TF.SameCoordinates,Original*%
%TF.FileFunction,Copper,L1,Top*%
%TF.FilePolarity,Positive*%
%FSLAX46Y46*%
G04 Gerber Fmt 4.6, Leading zero omitted, Abs format (unit mm)*
G04 Created by KiCad (PCBNEW 8.0.6) date 2024-11-17 17:26:00*
%MOMM*%
%LPD*%
G01*
G04 APERTURE LIST*
G04 Aperture macros list*
%AMHorizOval*
0 Thick line with rounded ends*
0 $1 width*
0 $2 $3 position (X,Y) of the first rounded end (center of the circle)*
0 $4 $5 position (X,Y) of the second rounded end (center of the circle)*
0 Add line between two ends*
20,1,$1,$2,$3,$4,$5,0*
0 Add two circle primitives to create the rounded ends*
1,1,$1,$2,$3*
1,1,$1,$4,$5*%
%AMRotRect*
0 Rectangle, with rotation*
0 The origin of the aperture is its center*
0 $1 length*
0 $2 width*
0 $3 Rotation angle, in degrees counterclockwise*
0 Add horizontal line*
21,1,$1,$2,0,0,$3*%
G04 Aperture macros list end*
%TA.AperFunction,ComponentPad*%
%ADD10R,2.400000X1.600000*%
%TD*%
%TA.AperFunction,ComponentPad*%
%ADD11O,2.400000X1.600000*%
%TD*%
%TA.AperFunction,ComponentPad*%
%ADD12R,1.800000X1.800000*%
%TD*%
%TA.AperFunction,ComponentPad*%
%ADD13C,1.800000*%
%TD*%
%TA.AperFunction,ComponentPad*%
%ADD14C,1.600000*%
%TD*%
%TA.AperFunction,ComponentPad*%
%ADD15O,1.600000X1.600000*%
%TD*%
%TA.AperFunction,ComponentPad*%
%ADD16RotRect,2.400000X1.600000X315.000000*%
%TD*%
%TA.AperFunction,ComponentPad*%
%ADD17HorizOval,1.600000X0.282843X-0.282843X-0.282843X0.282843X0*%
%TD*%
%TA.AperFunction,ComponentPad*%
%ADD18RotRect,2.400000X1.600000X45.000000*%
%TD*%
%TA.AperFunction,ComponentPad*%
%ADD19HorizOval,1.600000X0.282843X0.282843X-0.282843X-0.282843X0*%
%TD*%
%TA.AperFunction,ComponentPad*%
%ADD20C,2.340000*%
%TD*%
%TA.AperFunction,ComponentPad*%
%ADD21R,1.600000X1.600000*%
%TD*%
%TA.AperFunction,ComponentPad*%
%ADD22C,1.524000*%
%TD*%
%TA.AperFunction,ComponentPad*%
%ADD23R,3.000000X3.000000*%
%TD*%
%TA.AperFunction,ComponentPad*%
%ADD24C,3.000000*%
%TD*%
%TA.AperFunction,ViaPad*%
%ADD25C,0.450000*%
%TD*%
%TA.AperFunction,Conductor*%
%ADD26C,0.200000*%
%TD*%
G04 APERTURE END LIST*
D10*
%TO.P,U1,1,GND*%
%TO.N,GND*%
X128750000Y-88200000D03*
D11*
%TO.P,U1,2,TR*%
%TO.N,Net-(SW1A-B)*%
X128750000Y-85660000D03*
%TO.P,U1,3,Q*%
%TO.N,Net-(D2-K)*%
X128750000Y-83120000D03*
%TO.P,U1,4,R*%
%TO.N,VCC*%
X128750000Y-80580000D03*
%TO.P,U1,5,CV*%
%TO.N,Net-(U1-CV)*%
X121130000Y-80580000D03*
%TO.P,U1,6,THR*%
%TO.N,Net-(SW1A-B)*%
X121130000Y-83120000D03*
%TO.P,U1,7,DIS*%
%TO.N,Net-(U1-DIS)*%
X121130000Y-85660000D03*
%TO.P,U1,8,VCC*%
%TO.N,VCC*%
X121130000Y-88200000D03*
%TD*%
D12*
%TO.P,D26,1,K*%
%TO.N,/Common-R*%
X119740000Y-97500000D03*
D13*
%TO.P,D26,2,A*%
%TO.N,Net-(D14-A)*%
X122280000Y-97500000D03*
%TD*%
D12*
%TO.P,D25,1,K*%
%TO.N,/Common-R*%
X116240000Y-94250000D03*
D13*
%TO.P,D25,2,A*%
%TO.N,Net-(D13-A)*%
X118780000Y-94250000D03*
%TD*%
D12*
%TO.P,D24,1,K*%
%TO.N,/Common-R*%
X112490000Y-91000000D03*
D13*
%TO.P,D24,2,A*%
%TO.N,Net-(D12-A)*%
X115030000Y-91000000D03*
%TD*%
D12*
%TO.P,D23,1,K*%
%TO.N,/Common-R*%
X109240000Y-87750000D03*
D13*
%TO.P,D23,2,A*%
%TO.N,Net-(D11-A)*%
X111780000Y-87750000D03*
%TD*%
D12*
%TO.P,D22,1,K*%
%TO.N,/Common-R*%
X106740000Y-84250000D03*
D13*
%TO.P,D22,2,A*%
%TO.N,Net-(D10-A)*%
X109280000Y-84250000D03*
%TD*%
D12*
%TO.P,D21,1,K*%
%TO.N,/Common-R*%
X105240000Y-79750000D03*
D13*
%TO.P,D21,2,A*%
%TO.N,Net-(D21-A)*%
X107780000Y-79750000D03*
%TD*%
D12*
%TO.P,D20,1,K*%
%TO.N,/Common-R*%
X105240000Y-75500000D03*
D13*
%TO.P,D20,2,A*%
%TO.N,Net-(D20-A)*%
X107780000Y-75500000D03*
%TD*%
D12*
%TO.P,D17,1,K*%
%TO.N,/Common-R*%
X117490000Y-68750000D03*
D13*
%TO.P,D17,2,A*%
%TO.N,Net-(D17-A)*%
X120030000Y-68750000D03*
%TD*%
D12*
%TO.P,D16,1,K*%
%TO.N,/Common-R*%
X121490000Y-71500000D03*
D13*
%TO.P,D16,2,A*%
%TO.N,Net-(D16-A)*%
X124030000Y-71500000D03*
%TD*%
D12*
%TO.P,D15,1,K*%
%TO.N,/Common-R*%
X123715000Y-75000000D03*
D13*
%TO.P,D15,2,A*%
%TO.N,Net-(D15-A)*%
X126255000Y-75000000D03*
%TD*%
D12*
%TO.P,D14,1,K*%
%TO.N,/Common-R*%
X126490000Y-71500000D03*
D13*
%TO.P,D14,2,A*%
%TO.N,Net-(D14-A)*%
X129030000Y-71500000D03*
%TD*%
D12*
%TO.P,D13,1,K*%
%TO.N,/Common-R*%
X130490000Y-68750000D03*
D13*
%TO.P,D13,2,A*%
%TO.N,Net-(D13-A)*%
X133030000Y-68750000D03*
%TD*%
D12*
%TO.P,D11,1,K*%
%TO.N,/Common-R*%
X140465000Y-71750000D03*
D13*
%TO.P,D11,2,A*%
%TO.N,Net-(D11-A)*%
X143005000Y-71750000D03*
%TD*%
D12*
%TO.P,D6,1,K*%
%TO.N,/Common-R*%
X135440000Y-91000000D03*
D13*
%TO.P,D6,2,A*%
%TO.N,Net-(D18-A)*%
X137980000Y-91000000D03*
%TD*%
D12*
%TO.P,D10,1,K*%
%TO.N,/Common-R*%
X142465000Y-75500000D03*
D13*
%TO.P,D10,2,A*%
%TO.N,Net-(D10-A)*%
X145005000Y-75500000D03*
%TD*%
D12*
%TO.P,D3,1,K*%
%TO.N,/Common-R*%
X123990000Y-100250000D03*
D13*
%TO.P,D3,2,A*%
%TO.N,Net-(D15-A)*%
X126530000Y-100250000D03*
%TD*%
D12*
%TO.P,D7,1,K*%
%TO.N,/Common-R*%
X138190000Y-87750000D03*
D13*
%TO.P,D7,2,A*%
%TO.N,Net-(D19-A)*%
X140730000Y-87750000D03*
%TD*%
D12*
%TO.P,D5,1,K*%
%TO.N,/Common-R*%
X131440000Y-94250000D03*
D13*
%TO.P,D5,2,A*%
%TO.N,Net-(D17-A)*%
X133980000Y-94250000D03*
%TD*%
D12*
%TO.P,D4,1,K*%
%TO.N,/Common-R*%
X127965000Y-97500000D03*
D13*
%TO.P,D4,2,A*%
%TO.N,Net-(D16-A)*%
X130505000Y-97500000D03*
%TD*%
D12*
%TO.P,D9,1,K*%
%TO.N,/Common-R*%
X142740000Y-79750000D03*
D13*
%TO.P,D9,2,A*%
%TO.N,Net-(D21-A)*%
X145280000Y-79750000D03*
%TD*%
D12*
%TO.P,D8,1,K*%
%TO.N,/Common-R*%
X141475000Y-84250000D03*
D13*
%TO.P,D8,2,A*%
%TO.N,Net-(D20-A)*%
X144015000Y-84250000D03*
%TD*%
D12*
%TO.P,D12,1,K*%
%TO.N,/Common-R*%
X136240000Y-68750000D03*
D13*
%TO.P,D12,2,A*%
%TO.N,Net-(D12-A)*%
X138780000Y-68750000D03*
%TD*%
D12*
%TO.P,D19,1,K*%
%TO.N,/Common-R*%
X107490000Y-71500000D03*
D13*
%TO.P,D19,2,A*%
%TO.N,Net-(D19-A)*%
X110030000Y-71500000D03*
%TD*%
D12*
%TO.P,D18,1,K*%
%TO.N,/Common-R*%
X111740000Y-69250000D03*
D13*
%TO.P,D18,2,A*%
%TO.N,Net-(D18-A)*%
X114280000Y-69250000D03*
%TD*%
D14*
%TO.P,C4,1*%
%TO.N,VCC*%
X124025000Y-65225000D03*
%TO.P,C4,2*%
%TO.N,GND*%
X126525000Y-65225000D03*
%TD*%
%TO.P,R2,1*%
%TO.N,VCC*%
X148750000Y-93330000D03*
D15*
%TO.P,R2,2*%
%TO.N,Net-(D1-A)*%
X148750000Y-83170000D03*
%TD*%
D14*
%TO.P,R3,1*%
%TO.N,GND*%
X148750000Y-80330000D03*
D15*
%TO.P,R3,2*%
%TO.N,/Common-R*%
X148750000Y-70170000D03*
%TD*%
D16*
%TO.P,U2,1,Q5*%
%TO.N,Net-(D20-A)*%
X126519744Y-95070890D03*
D17*
%TO.P,U2,2,Q1*%
%TO.N,Net-(D16-A)*%
X128315795Y-93274839D03*
%TO.P,U2,3,Q0*%
%TO.N,Net-(D15-A)*%
X130111846Y-91478788D03*
%TO.P,U2,4,Q2*%
%TO.N,Net-(D17-A)*%
X131907898Y-89682736D03*
%TO.P,U2,5,Q6*%
%TO.N,Net-(D21-A)*%
X133703949Y-87886685D03*
%TO.P,U2,6,Q7*%
%TO.N,Net-(D10-A)*%
X135500000Y-86090634D03*
%TO.P,U2,7,Q3*%
%TO.N,Net-(D18-A)*%
X137296051Y-84294583D03*
%TO.P,U2,8,VSS*%
%TO.N,GND*%
X139092103Y-82498531D03*
%TO.P,U2,9,Q8*%
%TO.N,Net-(D11-A)*%
X144480256Y-87886685D03*
%TO.P,U2,10,Q4*%
%TO.N,Net-(D19-A)*%
X142684205Y-89682736D03*
%TO.P,U2,11,Q9*%
%TO.N,Net-(D1-K)*%
X140888154Y-91478788D03*
%TO.P,U2,12,Cout*%
%TO.N,unconnected-(U2-Cout-Pad12)*%
X139092103Y-93274839D03*
%TO.P,U2,13,CKEN*%
%TO.N,Net-(D1-K)*%
X137296051Y-95070890D03*
%TO.P,U2,14,CLK*%
%TO.N,Net-(D2-K)*%
X135500000Y-96866941D03*
%TO.P,U2,15,Reset*%
%TO.N,Net-(U2-Reset)*%
X133703949Y-98662992D03*
%TO.P,U2,16,VDD*%
%TO.N,VCC*%
X131907898Y-100459044D03*
%TD*%
D18*
%TO.P,U3,1,Q5*%
%TO.N,unconnected-(U3-Q5-Pad1)*%
X117296051Y-99572359D03*
D19*
%TO.P,U3,2,Q1*%
%TO.N,Net-(D12-A)*%
X115500000Y-97776308D03*
%TO.P,U3,3,Q0*%
%TO.N,unconnected-(U3-Q0-Pad3)*%
X113703949Y-95980257D03*
%TO.P,U3,4,Q2*%
%TO.N,Net-(D13-A)*%
X111907897Y-94184205D03*
%TO.P,U3,5,Q6*%
%TO.N,unconnected-(U3-Q6-Pad5)*%
X110111846Y-92388154D03*
%TO.P,U3,6,Q7*%
%TO.N,unconnected-(U3-Q7-Pad6)*%
X108315795Y-90592103D03*
%TO.P,U3,7,Q3*%
%TO.N,Net-(D14-A)*%
X106519744Y-88796052D03*
%TO.P,U3,8,VSS*%
%TO.N,GND*%
X104723692Y-87000000D03*
%TO.P,U3,9,Q8*%
%TO.N,unconnected-(U3-Q8-Pad9)*%
X110111846Y-81611847D03*
%TO.P,U3,10,Q4*%
%TO.N,Net-(U2-Reset)*%
X111907897Y-83407898D03*
%TO.P,U3,11,Q9*%
%TO.N,unconnected-(U3-Q9-Pad11)*%
X113703949Y-85203949D03*
%TO.P,U3,12,Cout*%
%TO.N,unconnected-(U3-Cout-Pad12)*%
X115500000Y-87000000D03*
%TO.P,U3,13,CKEN*%
%TO.N,GND*%
X117296051Y-88796052D03*
%TO.P,U3,14,CLK*%
%TO.N,Net-(D1-A)*%
X119092102Y-90592103D03*
%TO.P,U3,15,Reset*%
%TO.N,Net-(D15-A)*%
X120888153Y-92388154D03*
%TO.P,U3,16,VDD*%
%TO.N,VCC*%
X122684205Y-94184205D03*
%TD*%
D14*
%TO.P,R1,1*%
%TO.N,Net-(U1-DIS)*%
X130080000Y-104500000D03*
D15*
%TO.P,R1,2*%
%TO.N,Net-(SW1A-B)*%
X119920000Y-104500000D03*
%TD*%
D14*
%TO.P,C3,1*%
%TO.N,Net-(U1-CV)*%
X108500000Y-96000000D03*
%TO.P,C3,2*%
%TO.N,GND*%
X106000000Y-96000000D03*
%TD*%
D20*
%TO.P,RV1,1,1*%
%TO.N,Net-(U1-DIS)*%
X112875000Y-103600000D03*
%TO.P,RV1,2,2*%
%TO.N,VCC*%
X110375000Y-101100000D03*
%TO.P,RV1,3,3*%
%TO.N,unconnected-(RV1-Pad3)*%
X107875000Y-103600000D03*
%TD*%
D21*
%TO.P,D1,1,K*%
%TO.N,Net-(D1-K)*%
X119420000Y-64800000D03*
D15*
%TO.P,D1,2,A*%
%TO.N,Net-(D1-A)*%
X111800000Y-64800000D03*
%TD*%
D21*
%TO.P,D2,1,K*%
%TO.N,Net-(D2-K)*%
X138400000Y-65200000D03*
D15*
%TO.P,D2,2,A*%
%TO.N,Net-(D1-A)*%
X130780000Y-65200000D03*
%TD*%
D14*
%TO.P,C1,1*%
%TO.N,Net-(SW1A-C)*%
X140000000Y-98500000D03*
%TO.P,C1,2*%
%TO.N,GND*%
X142500000Y-98500000D03*
%TD*%
D22*
%TO.P,SW1,1,A*%
%TO.N,Net-(SW1A-A)*%
X142200000Y-103200000D03*
%TO.P,SW1,2,B*%
%TO.N,Net-(SW1A-B)*%
X139700000Y-103200000D03*
%TO.P,SW1,3,C*%
%TO.N,Net-(SW1A-C)*%
X137200000Y-103200000D03*
%TD*%
D14*
%TO.P,C2,1*%
%TO.N,Net-(SW1A-A)*%
X145400000Y-96800000D03*
%TO.P,C2,2*%
%TO.N,GND*%
X150400000Y-96800000D03*
%TD*%
D23*
%TO.P,BT2,1,+*%
%TO.N,+3V0*%
X114200000Y-78200000D03*
D24*
%TO.P,BT2,2,-*%
%TO.N,GND*%
X134200000Y-78200000D03*
%TD*%
D25*
%TO.N,VCC*%
X112350000Y-72024500D03*
X124910000Y-83540000D03*
X125450000Y-97500000D03*
X125450000Y-88020000D03*
X113450000Y-72050000D03*
X126480000Y-98550000D03*
%TO.N,Net-(U1-CV)*%
X130730000Y-81760000D03*
X126280000Y-82560000D03*
X121800000Y-101350000D03*
X123931196Y-82911196D03*
X131710000Y-82930000D03*
X136000000Y-99750000D03*
X141615040Y-93614977D03*
%TO.N,Net-(D1-K)*%
X150750000Y-82500000D03*
X150374500Y-75500000D03*
%TO.N,Net-(D1-A)*%
X100100000Y-67800000D03*
X107000000Y-93250000D03*
%TO.N,Net-(D2-K)*%
X150625000Y-86375000D03*
X150774500Y-79250000D03*
%TO.N,Net-(D15-A)*%
X133530977Y-90180977D03*
X124774500Y-92500000D03*
X131630000Y-76080000D03*
%TO.N,Net-(D16-A)*%
X126280000Y-84170000D03*
X124060000Y-84160000D03*
%TO.N,Net-(D17-A)*%
X123750000Y-77000000D03*
X125671196Y-81171195D03*
%TO.N,Net-(D18-A)*%
X139500000Y-90000000D03*
X125500000Y-77750000D03*
%TO.N,Net-(D19-A)*%
X138500000Y-86274500D03*
X125000000Y-78405518D03*
%TO.N,Net-(D20-A)*%
X114765000Y-82485000D03*
X146750000Y-86750000D03*
X144890000Y-85360000D03*
X125250000Y-92000000D03*
X122550000Y-90500000D03*
%TO.N,Net-(D21-A)*%
X130819500Y-86500000D03*
X118250000Y-85000000D03*
%TO.N,Net-(D10-A)*%
X124847582Y-79855826D03*
X119250000Y-81250000D03*
X119250000Y-78750000D03*
%TO.N,Net-(D11-A)*%
X102750000Y-102200000D03*
%TO.N,Net-(D13-A)*%
X117400000Y-82400000D03*
X118200000Y-81300000D03*
%TO.N,Net-(SW1A-B)*%
X124890000Y-85630000D03*
%TO.N,Net-(U1-DIS)*%
X114500000Y-75500000D03*
X112500000Y-75500000D03*
%TO.N,Net-(U2-Reset)*%
X107044744Y-87000000D03*
%TD*%
D26*
%TO.N,VCC*%
X143614365Y-93330000D02*
X148750000Y-93330000D01*
X122325000Y-99515000D02*
X122325000Y-101575000D01*
X112350000Y-72024500D02*
X112375500Y-72050000D01*
X119505310Y-93126631D02*
X120562884Y-94184205D01*
X128436101Y-100459044D02*
X131907898Y-100459044D01*
X119505310Y-92215363D02*
X119505310Y-93126631D01*
X110375000Y-101100000D02*
X114850000Y-101100000D01*
X131907898Y-100459044D02*
X136485321Y-100459044D01*
X125450000Y-97500000D02*
X123900000Y-95950000D01*
X123645000Y-98195000D02*
X122325000Y-99515000D01*
X122325000Y-101575000D02*
X121850000Y-102050000D01*
X112375500Y-72050000D02*
X113450000Y-72050000D01*
X121850000Y-102050000D02*
X115800000Y-102050000D01*
X121130000Y-90590673D02*
X121130000Y-88200000D01*
X128436101Y-100459044D02*
X126527057Y-98550000D01*
X125270000Y-88200000D02*
X125450000Y-88020000D01*
X124340000Y-96390000D02*
X123900000Y-95950000D01*
X136485321Y-100459044D02*
X143614365Y-93330000D01*
X121130000Y-90590673D02*
X119505310Y-92215363D01*
X124755000Y-98195000D02*
X123645000Y-98195000D01*
X123900000Y-95950000D02*
X122684205Y-94734205D01*
X125450000Y-97500000D02*
X124755000Y-98195000D01*
X122684205Y-94734205D02*
X122684205Y-94184205D01*
X114850000Y-101100000D02*
X115800000Y-102050000D01*
X126527057Y-98550000D02*
X126480000Y-98550000D01*
X121130000Y-88200000D02*
X125270000Y-88200000D01*
X120562884Y-94184205D02*
X122684205Y-94184205D01*
%TO.N,Net-(SW1A-C)*%
X137155000Y-103250000D02*
X137155000Y-101345000D01*
X137155000Y-101345000D02*
X140000000Y-98500000D01*
%TO.N,Net-(SW1A-A)*%
X142155000Y-103250000D02*
X142155000Y-102095000D01*
X145400000Y-98850000D02*
X145400000Y-96800000D01*
X142155000Y-102095000D02*
X145400000Y-98850000D01*
%TO.N,Net-(U1-CV)*%
X123931196Y-82911196D02*
X124282392Y-82560000D01*
X121500000Y-101650000D02*
X116150000Y-101650000D01*
X141615040Y-94134960D02*
X136000000Y-99750000D01*
X116150000Y-101650000D02*
X110500000Y-96000000D01*
X131710000Y-82930000D02*
X131710000Y-82740000D01*
X110500000Y-96000000D02*
X108500000Y-96000000D01*
X121800000Y-101350000D02*
X121500000Y-101650000D01*
X141615040Y-93614977D02*
X141615040Y-94134960D01*
X131710000Y-82740000D02*
X130730000Y-81760000D01*
X124282392Y-82560000D02*
X126280000Y-82560000D01*
%TO.N,Net-(D1-K)*%
X150250000Y-82000000D02*
X150250000Y-75624500D01*
X150750000Y-82500000D02*
X150250000Y-82000000D01*
X150250000Y-75624500D02*
X150374500Y-75500000D01*
%TO.N,Net-(D1-A)*%
X129590000Y-63650000D02*
X112790000Y-63650000D01*
X112790000Y-63650000D02*
X111690000Y-64750000D01*
X99750000Y-86000000D02*
X107000000Y-93250000D01*
X148750000Y-83170000D02*
X149850000Y-82070000D01*
X130690000Y-64750000D02*
X129590000Y-63650000D01*
X139410000Y-63650000D02*
X131790000Y-63650000D01*
X149850000Y-82070000D02*
X149850000Y-74090000D01*
X149850000Y-74090000D02*
X139410000Y-63650000D01*
X99750000Y-68150000D02*
X99750000Y-86000000D01*
X131790000Y-63650000D02*
X130690000Y-64750000D01*
X100100000Y-67800000D02*
X99750000Y-68150000D01*
%TO.N,Net-(D2-K)*%
X150625000Y-86375000D02*
X151274500Y-85725500D01*
X132640000Y-95289784D02*
X132640000Y-92190000D01*
X151274500Y-85725500D02*
X151274500Y-79750000D01*
X151274500Y-79750000D02*
X150774500Y-79250000D01*
X128750000Y-83120000D02*
X131380000Y-85750000D01*
X131380000Y-85750000D02*
X131380000Y-88089314D01*
X130525055Y-88944259D02*
X130525055Y-90075055D01*
X130525055Y-90075055D02*
X131230000Y-90780000D01*
X132640000Y-92190000D02*
X131160000Y-90710000D01*
X134217157Y-96866941D02*
X132640000Y-95289784D01*
X131380000Y-88089314D02*
X130525055Y-88944259D01*
X135500000Y-96866941D02*
X134217157Y-96866941D01*
%TO.N,Net-(D15-A)*%
X123524500Y-91250000D02*
X121940000Y-91250000D01*
X132307898Y-76757898D02*
X131630000Y-76080000D01*
X124774500Y-92500000D02*
X123524500Y-91250000D01*
X121940000Y-91250000D02*
X120888153Y-92301847D01*
X133530977Y-90180977D02*
X133530977Y-89750181D01*
X120888153Y-92301847D02*
X120888153Y-92388154D01*
X132307898Y-88527102D02*
X132307898Y-76757898D01*
X133530977Y-89750181D02*
X132307898Y-88527102D01*
%TO.N,Net-(D16-A)*%
X130505000Y-96752500D02*
X128315795Y-94563295D01*
X128315795Y-94563295D02*
X128315795Y-93274839D01*
X130505000Y-97500000D02*
X130505000Y-96752500D01*
X126280000Y-84170000D02*
X126270000Y-84160000D01*
X126270000Y-84160000D02*
X124060000Y-84160000D01*
%TO.N,Net-(D17-A)*%
X133980000Y-94250000D02*
X133390000Y-93660000D01*
X123750000Y-77000000D02*
X123315000Y-77000000D01*
X131907898Y-90487898D02*
X131907898Y-89682736D01*
X129650635Y-81870000D02*
X131907898Y-84127263D01*
X122515000Y-74925000D02*
X120030000Y-72440000D01*
X126370001Y-81870000D02*
X129650635Y-81870000D01*
X123315000Y-77000000D02*
X122515000Y-76200000D01*
X122515000Y-76200000D02*
X122515000Y-74925000D01*
X125671196Y-81171195D02*
X126370001Y-81870000D01*
X133390000Y-91970000D02*
X131907898Y-90487898D01*
X120030000Y-72440000D02*
X120030000Y-68750000D01*
X131907898Y-84127263D02*
X131907898Y-89682736D01*
X133390000Y-93660000D02*
X133390000Y-91970000D01*
%TO.N,Net-(D18-A)*%
X125500000Y-77750000D02*
X121507208Y-77750000D01*
X114280000Y-70522792D02*
X114280000Y-69250000D01*
X121507208Y-77750000D02*
X114280000Y-70522792D01*
X138980000Y-90000000D02*
X137980000Y-91000000D01*
X139500000Y-90000000D02*
X138980000Y-90000000D01*
%TO.N,Net-(D19-A)*%
X121847040Y-78655518D02*
X114691522Y-71500000D01*
X139254500Y-86274500D02*
X140730000Y-87750000D01*
X142684205Y-89682736D02*
X142662736Y-89682736D01*
X124750000Y-78655518D02*
X121847040Y-78655518D01*
X138500000Y-86274500D02*
X139254500Y-86274500D01*
X125000000Y-78405518D02*
X124750000Y-78655518D01*
X114691522Y-71500000D02*
X110030000Y-71500000D01*
%TO.N,Net-(D20-A)*%
X114765000Y-82485000D02*
X107780000Y-75500000D01*
X129218407Y-96031593D02*
X128686814Y-95500000D01*
X132326201Y-99076201D02*
X130076201Y-99076201D01*
X146750000Y-87738261D02*
X134442426Y-100045835D01*
X146750000Y-86750000D02*
X146750000Y-87738261D01*
X130076201Y-99076201D02*
X129218407Y-98218407D01*
X128686814Y-95500000D02*
X127750000Y-95500000D01*
X133295835Y-100045835D02*
X132326201Y-99076201D01*
X129218407Y-98218407D02*
X129218407Y-96031593D01*
X123750000Y-90500000D02*
X125250000Y-92000000D01*
X134442426Y-100045835D02*
X133295835Y-100045835D01*
X122550000Y-90500000D02*
X123750000Y-90500000D01*
X144890000Y-85360000D02*
X143780000Y-84250000D01*
%TO.N,Net-(D21-A)*%
X120200000Y-86950000D02*
X130369500Y-86950000D01*
X118250000Y-85000000D02*
X120200000Y-86950000D01*
X135825269Y-87886685D02*
X133703949Y-87886685D01*
X142800000Y-85325000D02*
X142375000Y-85750000D01*
X142800000Y-82230000D02*
X142800000Y-85325000D01*
X145280000Y-79750000D02*
X142800000Y-82230000D01*
X137961954Y-85750000D02*
X135825269Y-87886685D01*
X142375000Y-85750000D02*
X137961954Y-85750000D01*
X130369500Y-86950000D02*
X130819500Y-86500000D01*
%TO.N,Net-(D10-A)*%
X109280000Y-84250000D02*
X108380000Y-83350000D01*
X119250000Y-78750000D02*
X118500000Y-79500000D01*
X141200000Y-74345585D02*
X135500000Y-80045585D01*
X141200000Y-74300000D02*
X141200000Y-74345585D01*
X122500000Y-81750000D02*
X119750000Y-81750000D01*
X124847582Y-79855826D02*
X124394174Y-79855826D01*
X109939055Y-80229004D02*
X111729004Y-80229004D01*
X135500000Y-80045585D02*
X135500000Y-86090634D01*
X108380000Y-83350000D02*
X108380000Y-81788059D01*
X119750000Y-81750000D02*
X119250000Y-81250000D01*
X145005000Y-75500000D02*
X143805000Y-74300000D01*
X114510000Y-83010000D02*
X114990000Y-83010000D01*
X124394174Y-79855826D02*
X122500000Y-81750000D01*
X111729004Y-80229004D02*
X114510000Y-83010000D01*
X117750000Y-80250000D02*
X118500000Y-79500000D01*
X108380000Y-81788059D02*
X109939055Y-80229004D01*
X143805000Y-74300000D02*
X141200000Y-74300000D01*
X114990000Y-83010000D02*
X117750000Y-80250000D01*
%TO.N,Net-(D11-A)*%
X147000000Y-85300000D02*
X151700000Y-90000000D01*
X151700000Y-103550000D02*
X149750000Y-105500000D01*
X138600000Y-106875000D02*
X107425000Y-106875000D01*
X143005000Y-71750000D02*
X145250000Y-71750000D01*
X147000000Y-85300000D02*
X147000000Y-85366940D01*
X147000000Y-82000000D02*
X147000000Y-85300000D01*
X151700000Y-90000000D02*
X151700000Y-103550000D01*
X145250000Y-71750000D02*
X147000000Y-73500000D01*
X147000000Y-85366940D02*
X146733470Y-85633470D01*
X107425000Y-106875000D02*
X102750000Y-102200000D01*
X147000000Y-73500000D02*
X147000000Y-82000000D01*
X149750000Y-105500000D02*
X139975000Y-105500000D01*
X139975000Y-105500000D02*
X138600000Y-106875000D01*
X146733470Y-85633470D02*
X144480256Y-87886685D01*
%TO.N,Net-(D12-A)*%
X123100000Y-83350000D02*
X122200000Y-84250000D01*
X137449314Y-70080686D02*
X136019243Y-70080686D01*
X138780000Y-68750000D02*
X137449314Y-70080686D01*
X123100000Y-82999929D02*
X123100000Y-83350000D01*
X136019243Y-70080686D02*
X123100000Y-82999929D01*
X118250000Y-84250000D02*
X117250000Y-85250000D01*
X117250000Y-87000000D02*
X115030000Y-89220000D01*
X115030000Y-89220000D02*
X115030000Y-91000000D01*
X117250000Y-85250000D02*
X117250000Y-87000000D01*
X122200000Y-84250000D02*
X118250000Y-84250000D01*
%TO.N,Net-(D13-A)*%
X111907897Y-94184205D02*
X113042102Y-93050000D01*
X113690000Y-87254366D02*
X113690000Y-92402102D01*
X133030000Y-71220000D02*
X133030000Y-68750000D01*
X115097183Y-84552182D02*
X115247818Y-84552182D01*
X115097183Y-85847183D02*
X113690000Y-87254366D01*
X124920000Y-79330000D02*
X133030000Y-71220000D01*
X115097183Y-84552182D02*
X115097183Y-85847183D01*
X115247818Y-84552182D02*
X117400000Y-82400000D01*
X117580000Y-93050000D02*
X118780000Y-94250000D01*
X118200000Y-81300000D02*
X118300000Y-81300000D01*
X120270000Y-79330000D02*
X124920000Y-79330000D01*
X113042102Y-93050000D02*
X117580000Y-93050000D01*
X113690000Y-92402102D02*
X111907897Y-94184205D01*
X118300000Y-81300000D02*
X120270000Y-79330000D01*
%TO.N,/Common-R*%
X107962176Y-70499990D02*
X107340000Y-71122166D01*
%TO.N,Net-(D14-A)*%
X126530000Y-69000000D02*
X125694365Y-69000000D01*
X125694365Y-69000000D02*
X123694365Y-67000000D01*
X106519744Y-86674732D02*
X106519744Y-88796052D01*
X123694365Y-67000000D02*
X109500000Y-67000000D01*
X109500000Y-67000000D02*
X104040000Y-72460000D01*
X104040000Y-84194988D02*
X106519744Y-86674732D01*
X104040000Y-72460000D02*
X104040000Y-84194988D01*
X129030000Y-71500000D02*
X126530000Y-69000000D01*
%TO.N,Net-(SW1A-B)*%
X124920000Y-85660000D02*
X124890000Y-85630000D01*
X139655000Y-103250000D02*
X136430000Y-106475000D01*
X121820000Y-106400000D02*
X119920000Y-104500000D01*
X136430000Y-106475000D02*
X121895000Y-106475000D01*
X128750000Y-85660000D02*
X124920000Y-85660000D01*
X121895000Y-106475000D02*
X119920000Y-104500000D01*
%TO.N,Net-(U1-DIS)*%
X112500000Y-75500000D02*
X114250000Y-75500000D01*
X112875000Y-103600000D02*
X113075000Y-103400000D01*
X112850000Y-102800000D02*
X113225000Y-103175000D01*
X113075000Y-103400000D02*
X128980000Y-103400000D01*
X114250000Y-75500000D02*
X114500000Y-75500000D01*
X128980000Y-103400000D02*
X130080000Y-104500000D01*
%TO.N,Net-(U2-Reset)*%
X107044744Y-87000000D02*
X108544744Y-85500000D01*
X109815795Y-85500000D02*
X111907897Y-83407898D01*
X108544744Y-85500000D02*
X109815795Y-85500000D01*
%TD*%
%TA.AperFunction,Conductor*%
%TO.N,/Common-R*%
G36*
X149003300Y-63025672D02*
G01*
X149304319Y-63041449D01*
X149317436Y-63042827D01*
X149611911Y-63089467D01*
X149624811Y-63092209D01*
X149912799Y-63169374D01*
X149925332Y-63173447D01*
X150203672Y-63280292D01*
X150215719Y-63285656D01*
X150481368Y-63421010D01*
X150492785Y-63427601D01*
X150742838Y-63589988D01*
X150753495Y-63597732D01*
X150985197Y-63785360D01*
X150994998Y-63794185D01*
X151205814Y-64005001D01*
X151214639Y-64014802D01*
X151392668Y-64234650D01*
X151402263Y-64246498D01*
X151410013Y-64257164D01*
X151571844Y-64506361D01*
X151572394Y-64507208D01*
X151578989Y-64518631D01*
X151714343Y-64784280D01*
X151719707Y-64796327D01*
X151826550Y-65074661D01*
X151830626Y-65087205D01*
X151907790Y-65375188D01*
X151910532Y-65388088D01*
X151957172Y-65682563D01*
X151958550Y-65695679D01*
X151974327Y-65996698D01*
X151974500Y-66003293D01*
X151974500Y-89545338D01*
X151954498Y-89613459D01*
X151900842Y-89659952D01*
X151830568Y-89670056D01*
X151765988Y-89640562D01*
X151759405Y-89634433D01*
X147337405Y-85212433D01*
X147303379Y-85150121D01*
X147300500Y-85123338D01*
X147300500Y-73460439D01*
X147300500Y-73460438D01*
X147280022Y-73384012D01*
X147240460Y-73315489D01*
X147240458Y-73315487D01*
X147240454Y-73315482D01*
X145434517Y-71509545D01*
X145434513Y-71509542D01*
X145434511Y-71509540D01*
X145365989Y-71469979D01*
X145365988Y-71469978D01*
X145365985Y-71469977D01*
X145289565Y-71449500D01*
X145289562Y-71449500D01*
X144158830Y-71449500D01*
X144090709Y-71429498D01*
X144044216Y-71375842D01*
X144037640Y-71357983D01*
X144037594Y-71357823D01*
X144035582Y-71350750D01*
X143944673Y-71168179D01*
X143910449Y-71122859D01*
X143821765Y-71005421D01*
X143671040Y-70868018D01*
X143671039Y-70868017D01*
X143497648Y-70760658D01*
X143497641Y-70760654D01*
X143497637Y-70760652D01*
X143359934Y-70707306D01*
X143307457Y-70686976D01*
X143236259Y-70673667D01*
X143106976Y-70649500D01*
X142903024Y-70649500D01*
X142802784Y-70668238D01*
X142702542Y-70686976D01*
X142563334Y-70740906D01*
X142512363Y-70760652D01*
X142512362Y-70760652D01*
X142512361Y-70760653D01*
X142512351Y-70760658D01*
X142338960Y-70868017D01*
X142338959Y-70868018D01*
X142188234Y-71005421D01*
X142099550Y-71122859D01*
X142042536Y-71165167D01*
X141971700Y-71169934D01*
X141909531Y-71135647D01*
X141875768Y-71073193D01*
X141873000Y-71046927D01*
X141873000Y-70801414D01*
X141872999Y-70801402D01*
X141866494Y-70740906D01*
X141815444Y-70604035D01*
X141815444Y-70604034D01*
X141727904Y-70487095D01*
X141610965Y-70399555D01*
X141474093Y-70348505D01*
X141413597Y-70342000D01*
X140719000Y-70342000D01*
X140719000Y-71377031D01*
X140638694Y-71330667D01*
X140524244Y-71300000D01*
X140405756Y-71300000D01*
X140291306Y-71330667D01*
X140211000Y-71377031D01*
X140211000Y-70342000D01*
X139516402Y-70342000D01*
X139455906Y-70348505D01*
X139319035Y-70399555D01*
X139319034Y-70399555D01*
X139202095Y-70487095D01*
X139114555Y-70604034D01*
X139114555Y-70604035D01*
X139063505Y-70740906D01*
X139057000Y-70801402D01*
X139057000Y-71496000D01*
X140092032Y-71496000D01*
X140045667Y-71576306D01*
X140015000Y-71690756D01*
X140015000Y-71809244D01*
X140045667Y-71923694D01*
X140092032Y-72004000D01*
X139057000Y-72004000D01*
X139057000Y-72698597D01*
X139063505Y-72759093D01*
X139114555Y-72895964D01*
X139114555Y-72895965D01*
X139202095Y-73012904D01*
X139319034Y-73100444D01*
X139455906Y-73151494D01*
X139516402Y-73157999D01*
X139516415Y-73158000D01*
X140211000Y-73158000D01*
X140211000Y-72122968D01*
X140291306Y-72169333D01*
X140405756Y-72200000D01*
X140524244Y-72200000D01*
X140638694Y-72169333D01*
X140719000Y-72122968D01*
X140719000Y-73158000D01*
X141413585Y-73158000D01*
X141413597Y-73157999D01*
X141474093Y-73151494D01*
X141610964Y-73100444D01*
X141610965Y-73100444D01*
X141727904Y-73012904D01*
X141815444Y-72895965D01*
X141815444Y-72895964D01*
X141866494Y-72759093D01*
X141872999Y-72698597D01*
X141873000Y-72698585D01*
X141873000Y-72453072D01*
X141893002Y-72384951D01*
X141946658Y-72338458D01*
X142016932Y-72328354D01*
X142081512Y-72357848D01*
X142099550Y-72377140D01*
X142188234Y-72494578D01*
X142338959Y-72631981D01*
X142338960Y-72631982D01*
X142512351Y-72739341D01*
X142512354Y-72739342D01*
X142512363Y-72739348D01*
X142702544Y-72813024D01*
X142903024Y-72850500D01*
X142903026Y-72850500D01*
X143106974Y-72850500D01*
X143106976Y-72850500D01*
X143307456Y-72813024D01*
X143497637Y-72739348D01*
X143671041Y-72631981D01*
X143821764Y-72494579D01*
X143832167Y-72480804D01*
X143867347Y-72434217D01*
X143944673Y-72331821D01*
X144035582Y-72149250D01*
X144037640Y-72142017D01*
X144075521Y-72081971D01*
X144139852Y-72051937D01*
X144158830Y-72050500D01*
X145073339Y-72050500D01*
X145141460Y-72070502D01*
X145162434Y-72087405D01*
X146662595Y-73587566D01*
X146696621Y-73649878D01*
X146699500Y-73676661D01*
X146699500Y-85190279D01*
X146679498Y-85258400D01*
X146662595Y-85279374D01*
X145064325Y-86877644D01*
X145002013Y-86911670D01*
X144931198Y-86906605D01*
X144886135Y-86877644D01*
X144835198Y-86826707D01*
X144835194Y-86826703D01*
X144671327Y-86717211D01*
X144489250Y-86641791D01*
X144295955Y-86603342D01*
X144295953Y-86603342D01*
X144098873Y-86603342D01*
X144098870Y-86603342D01*
X143905575Y-86641791D01*
X143905574Y-86641792D01*
X143723497Y-86717212D01*
X143559633Y-86826702D01*
X143559627Y-86826707D01*
X143420278Y-86966056D01*
X143420273Y-86966062D01*
X143310783Y-87129926D01*
X143235363Y-87312003D01*
X143235362Y-87312004D01*
X143196913Y-87505299D01*
X143196913Y-87702384D01*
X143233610Y-87886872D01*
X143235362Y-87895678D01*
X143310782Y-88077756D01*
X143420274Y-88241623D01*
X144125318Y-88946667D01*
X144289185Y-89056159D01*
X144471263Y-89131579D01*
X144624118Y-89161983D01*
X144687027Y-89194890D01*
X144722159Y-89256585D01*
X144718359Y-89327480D01*
X144688631Y-89374657D01*
X144172177Y-89891111D01*
X144109865Y-89925137D01*
X144039050Y-89920072D01*
X143982214Y-89877525D01*
X143959504Y-89826599D01*
X143929099Y-89673743D01*
X143853679Y-89491665D01*
X143744187Y-89327798D01*
X143039143Y-88622754D01*
X142875276Y-88513262D01*
X142693199Y-88437842D01*
X142499904Y-88399393D01*
X142499902Y-88399393D01*
X142302822Y-88399393D01*
X142302819Y-88399393D01*
X142109524Y-88437842D01*
X142109523Y-88437843D01*
X142007703Y-88480019D01*
X141958261Y-88500499D01*
X141927446Y-88513263D01*
X141763582Y-88622753D01*
X141758797Y-88626681D01*
X141757365Y-88624936D01*
X141703920Y-88654099D01*
X141638389Y-88649393D01*
X141649274Y-88683279D01*
X141630995Y-88751882D01*
X141627480Y-88756844D01*
X141627662Y-88756966D01*
X141624224Y-88762110D01*
X141624223Y-88762112D01*
X141573662Y-88837782D01*
X141528552Y-88905295D01*
X141514731Y-88925979D01*
X141489404Y-88987123D01*
X141439312Y-89108054D01*
X141439311Y-89108055D01*
X141400862Y-89301350D01*
X141400862Y-89498435D01*
X141432990Y-89659952D01*
X141439311Y-89691729D01*
X141514731Y-89873807D01*
X141624223Y-90037674D01*
X142329267Y-90742718D01*
X142493134Y-90852210D01*
X142675212Y-90927630D01*
X142828067Y-90958034D01*
X142890976Y-90990941D01*
X142926108Y-91052636D01*
X142922308Y-91123531D01*
X142892580Y-91170708D01*
X142376126Y-91687162D01*
X142313814Y-91721188D01*
X142242999Y-91716123D01*
X142186163Y-91673576D01*
X142163452Y-91622648D01*
X142160186Y-91606229D01*
X142133048Y-91469795D01*
X142057628Y-91287717D01*
X141948136Y-91123850D01*
X141243092Y-90418806D01*
X141079225Y-90309314D01*
X140897148Y-90233894D01*
X140703853Y-90195445D01*
X140703851Y-90195445D01*
X140506771Y-90195445D01*
X140506768Y-90195445D01*
X140313473Y-90233894D01*
X140313472Y-90233895D01*
X140131396Y-90309314D01*
X140060658Y-90356580D01*
X139992905Y-90377794D01*
X139924438Y-90359011D01*
X139876996Y-90306193D01*
X139865639Y-90236110D01*
X139878391Y-90194610D01*
X139881104Y-90189286D01*
X139909719Y-90133126D01*
X139930804Y-90000000D01*
X139909719Y-89866874D01*
X139848528Y-89746780D01*
X139753220Y-89651472D01*
X139753219Y-89651471D01*
X139649266Y-89598505D01*
X139633126Y-89590281D01*
X139500000Y-89569196D01*
X139366874Y-89590281D01*
X139366872Y-89590281D01*
X139366872Y-89590282D01*
X139246780Y-89651471D01*
X139246778Y-89651473D01*
X139235657Y-89662595D01*
X139173345Y-89696621D01*
X139146562Y-89699500D01*
X139019562Y-89699500D01*
X138940438Y-89699500D01*
X138899484Y-89710473D01*
X138864014Y-89719977D01*
X138864007Y-89719980D01*
X138795492Y-89759537D01*
X138795486Y-89759542D01*
X138582398Y-89972629D01*
X138520086Y-90006654D01*
X138449270Y-90001588D01*
X138447787Y-90001025D01*
X138282457Y-89936976D01*
X138186105Y-89918965D01*
X138081976Y-89899500D01*
X137878024Y-89899500D01*
X137786365Y-89916634D01*
X137677542Y-89936976D01*
X137585512Y-89972629D01*
X137487363Y-90010652D01*
X137487362Y-90010652D01*
X137487361Y-90010653D01*
X137487351Y-90010658D01*
X137313960Y-90118017D01*
X137313959Y-90118018D01*
X137163234Y-90255421D01*
X137074550Y-90372859D01*
X137017536Y-90415167D01*
X136946700Y-90419934D01*
X136884531Y-90385647D01*
X136850768Y-90323193D01*
X136848000Y-90296927D01*
X136848000Y-90051414D01*
X136847999Y-90051402D01*
X136841494Y-89990906D01*
X136790444Y-89854035D01*
X136790444Y-89854034D01*
X136702904Y-89737095D01*
X136585965Y-89649555D01*
X136449093Y-89598505D01*
X136388597Y-89592000D01*
X135694000Y-89592000D01*
X135694000Y-90627031D01*
X135613694Y-90580667D01*
X135499244Y-90550000D01*
X135380756Y-90550000D01*
X135266306Y-90580667D01*
X135186000Y-90627031D01*
X135186000Y-89592000D01*
X134491402Y-89592000D01*
X134430906Y-89598505D01*
X134294035Y-89649555D01*
X134294034Y-89649555D01*
X134177095Y-89737095D01*
X134089555Y-89854034D01*
X134089555Y-89854035D01*
X134080981Y-89877023D01*
X134038433Y-89933858D01*
X133971912Y-89958667D01*
X133902538Y-89943574D01*
X133873831Y-89922083D01*
X133868382Y-89916634D01*
X133834356Y-89854322D01*
X133831477Y-89827539D01*
X133831477Y-89710619D01*
X133831476Y-89710615D01*
X133810999Y-89634195D01*
X133810998Y-89634194D01*
X133810998Y-89634192D01*
X133771437Y-89565670D01*
X133715488Y-89509721D01*
X133532390Y-89326623D01*
X133498364Y-89264311D01*
X133503429Y-89193496D01*
X133545976Y-89136660D01*
X133612496Y-89111849D01*
X133669704Y-89121120D01*
X133694944Y-89131575D01*
X133694952Y-89131577D01*
X133694956Y-89131579D01*
X133888252Y-89170028D01*
X133888253Y-89170028D01*
X134085331Y-89170028D01*
X134085332Y-89170028D01*
X134278628Y-89131579D01*
X134460706Y-89056159D01*
X134624573Y-88946667D01*
X134763931Y-88807309D01*
X134873423Y-88643442D01*
X134948843Y-88461364D01*
X134983207Y-88288603D01*
X135016115Y-88225694D01*
X135077810Y-88190562D01*
X135106786Y-88187185D01*
X135864831Y-88187185D01*
X135941258Y-88166706D01*
X136009780Y-88127145D01*
X136065729Y-88071196D01*
X136622367Y-87514558D01*
X136684679Y-87480532D01*
X136755494Y-87485597D01*
X136771681Y-87496000D01*
X137817032Y-87496000D01*
X137770667Y-87576306D01*
X137740000Y-87690756D01*
X137740000Y-87809244D01*
X137770667Y-87923694D01*
X137817032Y-88004000D01*
X136782000Y-88004000D01*
X136782000Y-88698597D01*
X136788505Y-88759093D01*
X136839555Y-88895964D01*
X136839555Y-88895965D01*
X136927095Y-89012904D01*
X137044034Y-89100444D01*
X137180906Y-89151494D01*
X137241402Y-89157999D01*
X137241415Y-89158000D01*
X137936000Y-89158000D01*
X137936000Y-88122968D01*
X138016306Y-88169333D01*
X138130756Y-88200000D01*
X138249244Y-88200000D01*
X138363694Y-88169333D01*
X138444000Y-88122968D01*
X138444000Y-89158000D01*
X139138585Y-89158000D01*
X139138597Y-89157999D01*
X139199093Y-89151494D01*
X139335964Y-89100444D01*
X139335965Y-89100444D01*
X139452904Y-89012904D01*
X139540444Y-88895965D01*
X139540444Y-88895964D01*
X139591494Y-88759093D01*
X139597999Y-88698597D01*
X139598000Y-88698585D01*
X139598000Y-88453072D01*
X139618002Y-88384951D01*
X139671658Y-88338458D01*
X139741932Y-88328354D01*
X139806512Y-88357848D01*
X139824550Y-88377140D01*
X139913234Y-88494578D01*
X140063959Y-88631981D01*
X140063960Y-88631982D01*
X140237351Y-88739341D01*
X140237354Y-88739342D01*
X140237363Y-88739348D01*
X140427544Y-88813024D01*
X140628024Y-88850500D01*
X140628026Y-88850500D01*
X140831974Y-88850500D01*
X140831976Y-88850500D01*
X141032456Y-88813024D01*
X141222637Y-88739348D01*
X141396039Y-88631982D01*
X141396040Y-88631982D01*
X141438428Y-88593340D01*
X141502245Y-88562229D01*
X141562454Y-88569342D01*
X141551491Y-88539923D01*
X141566603Y-88470553D01*
X141576623Y-88455039D01*
X141669673Y-88331821D01*
X141760582Y-88149250D01*
X141816397Y-87953083D01*
X141835215Y-87750000D01*
X141816397Y-87546917D01*
X141760582Y-87350750D01*
X141669673Y-87168179D01*
X141656406Y-87150611D01*
X141546765Y-87005421D01*
X141396040Y-86868018D01*
X141396039Y-86868017D01*
X141222648Y-86760658D01*
X141222641Y-86760654D01*
X141222637Y-86760652D01*
X141086354Y-86707856D01*
X141032457Y-86686976D01*
X140965629Y-86674484D01*
X140831976Y-86649500D01*
X140628024Y-86649500D01*
X140527784Y-86668238D01*
X140427542Y-86686976D01*
X140262211Y-86751026D01*
X140191465Y-86756982D01*
X140128729Y-86723745D01*
X140127600Y-86722629D01*
X139670566Y-86265595D01*
X139636540Y-86203283D01*
X139641605Y-86132468D01*
X139684152Y-86075632D01*
X139750672Y-86050821D01*
X139759661Y-86050500D01*
X142414562Y-86050500D01*
X142490989Y-86030021D01*
X142559511Y-85990460D01*
X142615460Y-85934511D01*
X143040460Y-85509511D01*
X143080022Y-85440988D01*
X143100500Y-85364562D01*
X143100500Y-85285438D01*
X143100500Y-85190844D01*
X143120502Y-85122723D01*
X143174158Y-85076230D01*
X143244432Y-85066126D01*
X143309012Y-85095620D01*
X143311386Y-85097729D01*
X143348959Y-85131981D01*
X143348960Y-85131982D01*
X143522351Y-85239341D01*
X143522354Y-85239342D01*
X143522363Y-85239348D01*
X143712544Y-85313024D01*
X143913024Y-85350500D01*
X143913026Y-85350500D01*
X144116973Y-85350500D01*
X144116976Y-85350500D01*
X144317456Y-85313024D01*
X144317462Y-85313021D01*
X144320557Y-85312443D01*
X144391193Y-85319588D01*
X144446754Y-85363786D01*
X144468158Y-85416584D01*
X144480281Y-85493126D01*
X144491912Y-85515953D01*
X144536156Y-85602788D01*
X144541472Y-85613220D01*
X144636780Y-85708528D01*
X144756874Y-85769719D01*
X144890000Y-85790804D01*
X145023126Y-85769719D01*
X145143220Y-85708528D01*
X145238528Y-85613220D01*
X145299719Y-85493126D01*
X145320804Y-85360000D01*
X145299719Y-85226874D01*
X145238528Y-85106780D01*
X145143220Y-85011472D01*
X145075981Y-84977212D01*
X145032710Y-84955164D01*
X144981095Y-84906415D01*
X144964029Y-84837500D01*
X144977122Y-84786736D01*
X145045582Y-84649250D01*
X145101397Y-84453083D01*
X145120215Y-84250000D01*
X145101397Y-84046917D01*
X145045582Y-83850750D01*
X144954673Y-83668179D01*
X144902409Y-83598970D01*
X144831765Y-83505421D01*
X144681040Y-83368018D01*
X144681039Y-83368017D01*
X144507648Y-83260658D01*
X144507641Y-83260654D01*
X144507637Y-83260652D01*
X144372565Y-83208325D01*
X144317457Y-83186976D01*
X144244493Y-83173337D01*
X144116976Y-83149500D01*
X143913024Y-83149500D01*
X143833230Y-83164416D01*
X143712542Y-83186976D01*
X143573334Y-83240906D01*
X143522363Y-83260652D01*
X143522362Y-83260652D01*
X143522361Y-83260653D01*
X143522351Y-83260658D01*
X143348960Y-83368017D01*
X143348959Y-83368018D01*
X143311385Y-83402271D01*
X143247567Y-83433381D01*
X143177061Y-83425051D01*
X143122251Y-83379924D01*
X143100540Y-83312328D01*
X143100500Y-83309155D01*
X143100500Y-82406660D01*
X143120502Y-82338539D01*
X143137400Y-82317570D01*
X144677601Y-80777368D01*
X144739911Y-80743345D01*
X144810726Y-80748409D01*
X144812113Y-80748936D01*
X144977544Y-80813024D01*
X145178024Y-80850500D01*
X145178026Y-80850500D01*
X145381974Y-80850500D01*
X145381976Y-80850500D01*
X145582456Y-80813024D01*
X145772637Y-80739348D01*
X145946041Y-80631981D01*
X146096764Y-80494579D01*
X146219673Y-80331821D01*
X146310582Y-80149250D01*
X146366397Y-79953083D01*
X146385215Y-79750000D01*
X146366397Y-79546917D01*
X146310582Y-79350750D01*
X146219673Y-79168179D01*
X146185449Y-79122859D01*
X146096765Y-79005421D01*
X145946040Y-78868018D01*
X145946039Y-78868017D01*
X145772648Y-78760658D01*
X145772641Y-78760654D01*
X145772637Y-78760652D01*
X145656133Y-78715518D01*
X145582457Y-78686976D01*
X145515629Y-78674484D01*
X145381976Y-78649500D01*
X145178024Y-78649500D01*
X145077784Y-78668238D01*
X144977542Y-78686976D01*
X144838334Y-78740906D01*
X144787363Y-78760652D01*
X144787362Y-78760652D01*
X144787361Y-78760653D01*
X144787351Y-78760658D01*
X144613960Y-78868017D01*
X144613959Y-78868018D01*
X144463234Y-79005421D01*
X144374550Y-79122859D01*
X144317536Y-79165167D01*
X144246700Y-79169934D01*
X144184531Y-79135647D01*
X144150768Y-79073193D01*
X144148000Y-79046927D01*
X144148000Y-78801414D01*
X144147999Y-78801402D01*
X144141494Y-78740906D01*
X144090444Y-78604035D01*
X144090444Y-78604034D01*
X144002904Y-78487095D01*
X143885965Y-78399555D01*
X143749093Y-78348505D01*
X143688597Y-78342000D01*
X142994000Y-78342000D01*
X142994000Y-79377031D01*
X142913694Y-79330667D01*
X142799244Y-79300000D01*
X142680756Y-79300000D01*
X142566306Y-79330667D01*
X142486000Y-79377031D01*
X142486000Y-78342000D01*
X141791402Y-78342000D01*
X141730906Y-78348505D01*
X141594035Y-78399555D01*
X141594034Y-78399555D01*
X141477095Y-78487095D01*
X141389555Y-78604034D01*
X141389555Y-78604035D01*
X141338505Y-78740906D01*
X141332000Y-78801402D01*
X141332000Y-79496000D01*
X142367032Y-79496000D01*
X142320667Y-79576306D01*
X142290000Y-79690756D01*
X142290000Y-79809244D01*
X142320667Y-79923694D01*
X142367032Y-80004000D01*
X141332000Y-80004000D01*
X141332000Y-80698597D01*
X141338505Y-80759093D01*
X141389555Y-80895964D01*
X141389555Y-80895965D01*
X141477095Y-81012904D01*
X141594034Y-81100444D01*
X141730906Y-81151494D01*
X141791402Y-81157999D01*
X141791415Y-81158000D01*
X142486000Y-81158000D01*
X142486000Y-80122968D01*
X142566306Y-80169333D01*
X142680756Y-80200000D01*
X142799244Y-80200000D01*
X142913694Y-80169333D01*
X142994000Y-80122968D01*
X142994000Y-81158000D01*
X143142839Y-81158000D01*
X143210960Y-81178002D01*
X143257453Y-81231658D01*
X143267557Y-81301932D01*
X143238063Y-81366512D01*
X143231938Y-81373089D01*
X142615489Y-81989540D01*
X142591809Y-82013220D01*
X142559541Y-82045487D01*
X142559539Y-82045490D01*
X142519977Y-82114014D01*
X142499500Y-82190434D01*
X142499500Y-82716000D01*
X142479498Y-82784121D01*
X142425842Y-82830614D01*
X142373500Y-82842000D01*
X141729000Y-82842000D01*
X141729000Y-83877031D01*
X141648694Y-83830667D01*
X141534244Y-83800000D01*
X141415756Y-83800000D01*
X141301306Y-83830667D01*
X141221000Y-83877031D01*
X141221000Y-82842000D01*
X140526405Y-82842000D01*
X140514910Y-82843236D01*
X140445042Y-82830627D01*
X140393082Y-82782247D01*
X140375446Y-82717957D01*
X140375446Y-82682835D01*
X140375445Y-82682831D01*
X140369555Y-82653219D01*
X140336997Y-82489538D01*
X140261577Y-82307460D01*
X140152085Y-82143593D01*
X139447041Y-81438549D01*
X139283174Y-81329057D01*
X139101097Y-81253637D01*
X138907802Y-81215188D01*
X138907800Y-81215188D01*
X138710720Y-81215188D01*
X138710717Y-81215188D01*
X138517422Y-81253637D01*
X138517421Y-81253638D01*
X138335344Y-81329058D01*
X138171480Y-81438548D01*
X138171474Y-81438553D01*
X138032125Y-81577902D01*
X138032120Y-81577908D01*
X137929960Y-81730803D01*
X137922629Y-81741774D01*
X137897302Y-81802918D01*
X137847210Y-81923849D01*
X137847209Y-81923850D01*
X137808760Y-82117145D01*
X137808760Y-82314230D01*
X137845621Y-82499540D01*
X137847209Y-82507524D01*
X137922629Y-82689602D01*
X138032121Y-82853469D01*
X138737165Y-83558513D01*
X138901032Y-83668005D01*
X139083110Y-83743425D01*
X139276406Y-83781874D01*
X139276407Y-83781874D01*
X139473485Y-83781874D01*
X139473486Y-83781874D01*
X139666782Y-83743425D01*
X139848860Y-83668005D01*
X139870999Y-83653211D01*
X139938749Y-83631997D01*
X140007216Y-83650779D01*
X140054660Y-83703595D01*
X140067000Y-83757977D01*
X140067000Y-83996000D01*
X141102032Y-83996000D01*
X141055667Y-84076306D01*
X141025000Y-84190756D01*
X141025000Y-84309244D01*
X141055667Y-84423694D01*
X141102032Y-84504000D01*
X140067000Y-84504000D01*
X140067000Y-85198597D01*
X140073505Y-85259094D01*
X140081104Y-85279466D01*
X140086170Y-85350282D01*
X140052146Y-85412594D01*
X139989834Y-85446620D01*
X139963049Y-85449500D01*
X138425930Y-85449500D01*
X138357809Y-85429498D01*
X138311316Y-85375842D01*
X138301212Y-85305568D01*
X138330706Y-85240988D01*
X138336835Y-85234405D01*
X138344368Y-85226872D01*
X138356033Y-85215207D01*
X138465525Y-85051340D01*
X138540945Y-84869262D01*
X138579394Y-84675966D01*
X138579394Y-84478886D01*
X138540945Y-84285590D01*
X138465525Y-84103512D01*
X138356033Y-83939645D01*
X137650989Y-83234601D01*
X137487122Y-83125109D01*
X137305045Y-83049689D01*
X137111750Y-83011240D01*
X137111748Y-83011240D01*
X136914668Y-83011240D01*
X136914665Y-83011240D01*
X136721370Y-83049689D01*
X136721369Y-83049690D01*
X136664588Y-83073210D01*
X136556182Y-83118114D01*
X136539292Y-83125110D01*
X136375428Y-83234600D01*
X136375422Y-83234605D01*
X136236073Y-83373954D01*
X136236068Y-83373960D01*
X136128791Y-83534513D01*
X136126577Y-83537826D01*
X136119576Y-83554727D01*
X136051158Y-83719901D01*
X136051157Y-83719902D01*
X136050079Y-83725325D01*
X136017171Y-83788235D01*
X135955476Y-83823366D01*
X135884581Y-83819565D01*
X135826995Y-83778040D01*
X135801001Y-83711973D01*
X135800500Y-83700743D01*
X135800500Y-80222246D01*
X135820502Y-80154125D01*
X135837405Y-80133151D01*
X140841905Y-75128651D01*
X140904217Y-75094625D01*
X140975032Y-75099690D01*
X141031868Y-75142237D01*
X141056679Y-75208757D01*
X141057000Y-75217746D01*
X141057000Y-75246000D01*
X142092032Y-75246000D01*
X142045667Y-75326306D01*
X142015000Y-75440756D01*
X142015000Y-75559244D01*
X142045667Y-75673694D01*
X142092032Y-75754000D01*
X141057000Y-75754000D01*
X141057000Y-76448597D01*
X141063505Y-76509093D01*
X141114555Y-76645964D01*
X141114555Y-76645965D01*
X141202095Y-76762904D01*
X141319034Y-76850444D01*
X141455906Y-76901494D01*
X141516402Y-76907999D01*
X141516415Y-76908000D01*
X142211000Y-76908000D01*
X142211000Y-75872968D01*
X142291306Y-75919333D01*
X142405756Y-75950000D01*
X142524244Y-75950000D01*
X142638694Y-75919333D01*
X142719000Y-75872968D01*
X142719000Y-76908000D01*
X143413585Y-76908000D01*
X143413597Y-76907999D01*
X143474093Y-76901494D01*
X143610964Y-76850444D01*
X143610965Y-76850444D01*
X143727904Y-76762904D01*
X143815444Y-76645965D01*
X143815444Y-76645964D01*
X143866494Y-76509093D01*
X143872999Y-76448597D01*
X143873000Y-76448585D01*
X143873000Y-76203072D01*
X143893002Y-76134951D01*
X143946658Y-76088458D01*
X144016932Y-76078354D01*
X144081512Y-76107848D01*
X144099550Y-76127140D01*
X144188234Y-76244578D01*
X144338959Y-76381981D01*
X144338960Y-76381982D01*
X144512351Y-76489341D01*
X144512354Y-76489342D01*
X144512363Y-76489348D01*
X144702544Y-76563024D01*
X144903024Y-76600500D01*
X144903026Y-76600500D01*
X145106974Y-76600500D01*
X145106976Y-76600500D01*
X145307456Y-76563024D01*
X145497637Y-76489348D01*
X145671041Y-76381981D01*
X145821764Y-76244579D01*
X145825551Y-76239565D01*
X145853109Y-76203072D01*
X145944673Y-76081821D01*
X146035582Y-75899250D01*
X146091397Y-75703083D01*
X146110215Y-75500000D01*
X146091397Y-75296917D01*
X146035582Y-75100750D01*
X145944673Y-74918179D01*
X145875294Y-74826306D01*
X145821765Y-74755421D01*
X145671040Y-74618018D01*
X145671039Y-74618017D01*
X145497648Y-74510658D01*
X145497641Y-74510654D01*
X145497637Y-74510652D01*
X145381133Y-74465518D01*
X145307457Y-74436976D01*
X145240629Y-74424484D01*
X145106976Y-74399500D01*
X144903024Y-74399500D01*
X144803121Y-74418175D01*
X144702542Y-74436976D01*
X144537211Y-74501026D01*
X144466465Y-74506982D01*
X144403729Y-74473745D01*
X144402679Y-74472708D01*
X143989511Y-74059540D01*
X143964474Y-74045085D01*
X143920989Y-74019979D01*
X143920986Y-74019977D01*
X143844565Y-73999500D01*
X143844562Y-73999500D01*
X141239562Y-73999500D01*
X141160438Y-73999500D01*
X141160434Y-73999500D01*
X141084014Y-74019977D01*
X141015490Y-74059539D01*
X141015482Y-74059545D01*
X140959545Y-74115482D01*
X140959539Y-74115490D01*
X140919973Y-74184021D01*
X140917808Y-74189248D01*
X140890500Y-74230112D01*
X135806171Y-79314442D01*
X135743859Y-79348468D01*
X135673044Y-79343403D01*
X135616208Y-79300856D01*
X135591397Y-79234336D01*
X135606488Y-79164962D01*
X135607957Y-79162347D01*
X135609475Y-79159719D01*
X135703547Y-78996780D01*
X135736391Y-78939892D01*
X135736393Y-78939888D01*
X135829508Y-78702637D01*
X135886222Y-78454157D01*
X135905268Y-78200000D01*
X135886222Y-77945843D01*
X135829508Y-77697363D01*
X135736393Y-77460112D01*
X135736392Y-77460111D01*
X135736391Y-77460107D01*
X135608961Y-77239391D01*
X135601926Y-77230570D01*
X135450050Y-77040123D01*
X135450049Y-77040122D01*
X135450046Y-77040118D01*
X135263222Y-76866773D01*
X135263217Y-76866768D01*
X135263210Y-76866763D01*
X135052643Y-76723200D01*
X135052636Y-76723196D01*
X134823008Y-76612612D01*
X134822995Y-76612607D01*
X134579468Y-76537489D01*
X134579458Y-76537487D01*
X134568995Y-76535910D01*
X134327435Y-76499500D01*
X134072565Y-76499500D01*
X133887663Y-76527370D01*
X133820541Y-76537487D01*
X133820531Y-76537489D01*
X133577004Y-76612607D01*
X133576991Y-76612612D01*
X133347363Y-76723196D01*
X133347356Y-76723200D01*
X133136789Y-76866763D01*
X133136777Y-76866773D01*
X132949952Y-77040120D01*
X132949948Y-77040124D01*
X132832908Y-77186887D01*
X132774797Y-77227675D01*
X132703860Y-77230570D01*
X132642618Y-77194654D01*
X132610516Y-77131330D01*
X132608398Y-77108327D01*
X132608398Y-76718337D01*
X132608397Y-76718333D01*
X132603351Y-76699498D01*
X132603351Y-76699497D01*
X132587922Y-76641917D01*
X132587921Y-76641916D01*
X132587920Y-76641910D01*
X132548358Y-76573387D01*
X132090849Y-76115878D01*
X132056826Y-76053568D01*
X132055500Y-76046513D01*
X132039719Y-75946874D01*
X131978528Y-75826780D01*
X131883220Y-75731472D01*
X131883219Y-75731471D01*
X131769824Y-75673694D01*
X131763126Y-75670281D01*
X131630000Y-75649196D01*
X131496874Y-75670281D01*
X131496872Y-75670281D01*
X131496872Y-75670282D01*
X131376780Y-75731471D01*
X131281471Y-75826780D01*
X131228469Y-75930804D01*
X131220281Y-75946874D01*
X131199196Y-76080000D01*
X131220281Y-76213126D01*
X131236307Y-76244578D01*
X131272690Y-76315986D01*
X131281472Y-76333220D01*
X131376780Y-76428528D01*
X131496874Y-76489719D01*
X131596497Y-76505497D01*
X131660649Y-76535910D01*
X131665880Y-76540851D01*
X131970493Y-76845464D01*
X132004519Y-76907776D01*
X132007398Y-76934559D01*
X132007398Y-82308237D01*
X131987396Y-82376358D01*
X131933740Y-82422851D01*
X131863466Y-82432955D01*
X131798886Y-82403461D01*
X131792303Y-82397332D01*
X131190851Y-81795880D01*
X131156825Y-81733568D01*
X131155500Y-81726513D01*
X131139719Y-81626874D01*
X131078528Y-81506780D01*
X130983220Y-81411472D01*
X130983219Y-81411471D01*
X130894981Y-81366512D01*
X130863126Y-81350281D01*
X130730000Y-81329196D01*
X130596874Y-81350281D01*
X130596872Y-81350281D01*
X130596872Y-81350282D01*
X130476780Y-81411471D01*
X130381471Y-81506780D01*
X130323355Y-81620840D01*
X130320281Y-81626874D01*
X130302083Y-81741772D01*
X130299196Y-81760002D01*
X130301311Y-81773357D01*
X130292210Y-81843767D01*
X130246487Y-81898081D01*
X130178659Y-81919052D01*
X130110260Y-81900024D01*
X130087767Y-81882160D01*
X129835152Y-81629545D01*
X129835142Y-81629537D01*
X129787442Y-81601998D01*
X129787440Y-81601997D01*
X129766509Y-81589912D01*
X129717517Y-81538529D01*
X129704082Y-81468815D01*
X129730470Y-81402904D01*
X129759506Y-81376032D01*
X129787782Y-81357139D01*
X129927139Y-81217782D01*
X130036632Y-81053914D01*
X130112051Y-80871835D01*
X130150500Y-80678541D01*
X130150500Y-80481459D01*
X130112051Y-80288165D01*
X130036632Y-80106086D01*
X129927139Y-79942218D01*
X129787782Y-79802861D01*
X129623914Y-79693368D01*
X129562993Y-79668134D01*
X129441838Y-79617950D01*
X129441835Y-79617949D01*
X129248544Y-79579500D01*
X129248541Y-79579500D01*
X128251459Y-79579500D01*
X128251455Y-79579500D01*
X128058164Y-79617949D01*
X128058161Y-79617950D01*
X127876085Y-79693368D01*
X127712222Y-79802858D01*
X127712215Y-79802863D01*
X127572863Y-79942215D01*
X127572858Y-79942222D01*
X127463368Y-80106085D01*
X127387950Y-80288161D01*
X127387949Y-80288164D01*
X127349500Y-80481455D01*
X127349500Y-80678544D01*
X127387949Y-80871835D01*
X127387950Y-80871838D01*
X127446381Y-81012904D01*
X127463368Y-81053914D01*
X127572861Y-81217782D01*
X127572863Y-81217784D01*
X127709484Y-81354405D01*
X127743510Y-81416717D01*
X127738445Y-81487532D01*
X127695898Y-81544368D01*
X127629378Y-81569179D01*
X127620389Y-81569500D01*
X126546662Y-81569500D01*
X126478541Y-81549498D01*
X126457567Y-81532595D01*
X126132047Y-81207075D01*
X126098021Y-81144763D01*
X126096696Y-81137708D01*
X126080915Y-81038069D01*
X126019724Y-80917975D01*
X125924416Y-80822667D01*
X125924414Y-80822666D01*
X125916390Y-80816836D01*
X125918514Y-80813912D01*
X125880111Y-80777615D01*
X125863070Y-80708694D01*
X125885995Y-80641501D01*
X125899851Y-80625047D01*
X136106809Y-70418091D01*
X136169121Y-70384065D01*
X136195904Y-70381186D01*
X137488876Y-70381186D01*
X137565303Y-70360707D01*
X137633825Y-70321146D01*
X137689774Y-70265197D01*
X138177601Y-69777368D01*
X138239912Y-69743345D01*
X138310727Y-69748409D01*
X138312141Y-69748947D01*
X138477544Y-69813024D01*
X138678024Y-69850500D01*
X138678026Y-69850500D01*
X138881974Y-69850500D01*
X138881976Y-69850500D01*
X139082456Y-69813024D01*
X139272637Y-69739348D01*
X139446041Y-69631981D01*
X139596764Y-69494579D01*
X139719673Y-69331821D01*
X139810582Y-69149250D01*
X139866397Y-68953083D01*
X139885215Y-68750000D01*
X139866397Y-68546917D01*
X139810582Y-68350750D01*
X139719673Y-68168179D01*
X139671233Y-68104034D01*
X139596765Y-68005421D01*
X139446040Y-67868018D01*
X139446039Y-67868017D01*
X139272648Y-67760658D01*
X139272641Y-67760654D01*
X139272637Y-67760652D01*
X139156133Y-67715518D01*
X139082457Y-67686976D01*
X139015629Y-67674484D01*
X138881976Y-67649500D01*
X138678024Y-67649500D01*
X138577784Y-67668238D01*
X138477542Y-67686976D01*
X138338334Y-67740906D01*
X138287363Y-67760652D01*
X138287362Y-67760652D01*
X138287361Y-67760653D01*
X138287351Y-67760658D01*
X138113960Y-67868017D01*
X138113959Y-67868018D01*
X137963234Y-68005421D01*
X137874550Y-68122859D01*
X137817536Y-68165167D01*
X137746700Y-68169934D01*
X137684531Y-68135647D01*
X137650768Y-68073193D01*
X137648000Y-68046927D01*
X137648000Y-67801414D01*
X137647999Y-67801402D01*
X137641494Y-67740906D01*
X137590444Y-67604035D01*
X137590444Y-67604034D01*
X137502904Y-67487095D01*
X137385965Y-67399555D01*
X137249093Y-67348505D01*
X137188597Y-67342000D01*
X136494000Y-67342000D01*
X136494000Y-68377031D01*
X136413694Y-68330667D01*
X136299244Y-68300000D01*
X136180756Y-68300000D01*
X136066306Y-68330667D01*
X135986000Y-68377031D01*
X135986000Y-67342000D01*
X135291402Y-67342000D01*
X135230906Y-67348505D01*
X135094035Y-67399555D01*
X135094034Y-67399555D01*
X134977095Y-67487095D01*
X134889555Y-67604034D01*
X134889555Y-67604035D01*
X134838505Y-67740906D01*
X134832000Y-67801402D01*
X134832000Y-68496000D01*
X135867032Y-68496000D01*
X135820667Y-68576306D01*
X135790000Y-68690756D01*
X135790000Y-68809244D01*
X135820667Y-68923694D01*
X135867032Y-69004000D01*
X134832000Y-69004000D01*
X134832000Y-69698597D01*
X134838505Y-69759093D01*
X134889555Y-69895964D01*
X134889555Y-69895965D01*
X134977095Y-70012904D01*
X135094034Y-70100444D01*
X135230905Y-70151494D01*
X135233217Y-70151743D01*
X135234891Y-70152436D01*
X135238575Y-70153307D01*
X135238433Y-70153904D01*
X135298809Y-70178914D01*
X135339299Y-70237232D01*
X135341832Y-70308184D01*
X135308841Y-70366116D01*
X129111936Y-76563022D01*
X122915489Y-82759469D01*
X122896447Y-82778511D01*
X122859541Y-82815416D01*
X122859539Y-82815419D01*
X122819977Y-82883943D01*
X122799500Y-82960363D01*
X122799500Y-83173337D01*
X122779498Y-83241458D01*
X122762595Y-83262432D01*
X122745595Y-83279432D01*
X122683283Y-83313458D01*
X122612468Y-83308393D01*
X122555632Y-83265846D01*
X122530821Y-83199326D01*
X122530500Y-83190337D01*
X122530500Y-83021458D01*
X122530499Y-83021455D01*
X122528207Y-83009931D01*
X122492051Y-82828165D01*
X122416632Y-82646086D01*
X122307139Y-82482218D01*
X122167782Y-82342861D01*
X122075597Y-82281265D01*
X122030069Y-82226788D01*
X122021221Y-82156345D01*
X122051862Y-82092301D01*
X122112264Y-82054990D01*
X122145599Y-82050500D01*
X122539562Y-82050500D01*
X122615989Y-82030021D01*
X122684511Y-81990460D01*
X122740460Y-81934511D01*
X124447656Y-80227314D01*
X124509966Y-80193291D01*
X124580781Y-80198355D01*
X124593952Y-80204145D01*
X124714451Y-80265543D01*
X124714452Y-80265543D01*
X124714456Y-80265545D01*
X124847582Y-80286630D01*
X124980708Y-80265545D01*
X125100802Y-80204354D01*
X125196110Y-80109046D01*
X125257301Y-79988952D01*
X125278386Y-79855826D01*
X125257301Y-79722700D01*
X125196110Y-79602606D01*
X125196109Y-79602605D01*
X125195901Y-79602196D01*
X125182797Y-79532419D01*
X125209497Y-79466634D01*
X125219073Y-79455898D01*
X133270454Y-71404517D01*
X133270460Y-71404511D01*
X133282295Y-71384012D01*
X133310021Y-71335989D01*
X133330500Y-71259562D01*
X133330500Y-69900094D01*
X133350502Y-69831973D01*
X133404158Y-69785480D01*
X133410984Y-69782603D01*
X133522629Y-69739351D01*
X133522628Y-69739351D01*
X133522637Y-69739348D01*
X133696041Y-69631981D01*
X133846764Y-69494579D01*
X133969673Y-69331821D01*
X134060582Y-69149250D01*
X134116397Y-68953083D01*
X134135215Y-68750000D01*
X134116397Y-68546917D01*
X134060582Y-68350750D01*
X133969673Y-68168179D01*
X133921233Y-68104034D01*
X133846765Y-68005421D01*
X133696040Y-67868018D01*
X133696039Y-67868017D01*
X133522648Y-67760658D01*
X133522641Y-67760654D01*
X133522637Y-67760652D01*
X133406133Y-67715518D01*
X133332457Y-67686976D01*
X133265629Y-67674484D01*
X133131976Y-67649500D01*
X132928024Y-67649500D01*
X132827784Y-67668238D01*
X132727542Y-67686976D01*
X132588334Y-67740906D01*
X132537363Y-67760652D01*
X132537362Y-67760652D01*
X132537361Y-67760653D01*
X132537351Y-67760658D01*
X132363960Y-67868017D01*
X132363959Y-67868018D01*
X132213234Y-68005421D01*
X132124550Y-68122859D01*
X132067536Y-68165167D01*
X131996700Y-68169934D01*
X131934531Y-68135647D01*
X131900768Y-68073193D01*
X131898000Y-68046927D01*
X131898000Y-67801414D01*
X131897999Y-67801402D01*
X131891494Y-67740906D01*
X131840444Y-67604035D01*
X131840444Y-67604034D01*
X131752904Y-67487095D01*
X131635965Y-67399555D01*
X131499093Y-67348505D01*
X131438597Y-67342000D01*
X130744000Y-67342000D01*
X130744000Y-68377031D01*
X130663694Y-68330667D01*
X130549244Y-68300000D01*
X130430756Y-68300000D01*
X130316306Y-68330667D01*
X130236000Y-68377031D01*
X130236000Y-67342000D01*
X129541402Y-67342000D01*
X129480906Y-67348505D01*
X129344035Y-67399555D01*
X129344034Y-67399555D01*
X129227095Y-67487095D01*
X129139555Y-67604034D01*
X129139555Y-67604035D01*
X129088505Y-67740906D01*
X129082000Y-67801402D01*
X129082000Y-68496000D01*
X130117032Y-68496000D01*
X130070667Y-68576306D01*
X130040000Y-68690756D01*
X130040000Y-68809244D01*
X130070667Y-68923694D01*
X130117032Y-69004000D01*
X129082000Y-69004000D01*
X129082000Y-69698597D01*
X129088505Y-69759093D01*
X129139555Y-69895964D01*
X129139555Y-69895965D01*
X129227095Y-70012904D01*
X129344034Y-70100444D01*
X129480906Y-70151494D01*
X129541402Y-70157999D01*
X129541415Y-70158000D01*
X130236000Y-70158000D01*
X130236000Y-69122968D01*
X130316306Y-69169333D01*
X130430756Y-69200000D01*
X130549244Y-69200000D01*
X130663694Y-69169333D01*
X130744000Y-69122968D01*
X130744000Y-70158000D01*
X131438585Y-70158000D01*
X131438597Y-70157999D01*
X131499093Y-70151494D01*
X131635964Y-70100444D01*
X131635965Y-70100444D01*
X131752904Y-70012904D01*
X131840444Y-69895965D01*
X131840444Y-69895964D01*
X131891494Y-69759093D01*
X131897999Y-69698597D01*
X131898000Y-69698585D01*
X131898000Y-69453072D01*
X131918002Y-69384951D01*
X131971658Y-69338458D01*
X132041932Y-69328354D01*
X132106512Y-69357848D01*
X132124550Y-69377140D01*
X132213234Y-69494578D01*
X132363959Y-69631981D01*
X132363960Y-69631982D01*
X132537351Y-69739341D01*
X132537355Y-69739343D01*
X132537363Y-69739348D01*
X132537367Y-69739349D01*
X132537370Y-69739351D01*
X132649016Y-69782603D01*
X132705312Y-69825862D01*
X132729282Y-69892690D01*
X132729500Y-69900094D01*
X132729500Y-71043338D01*
X132709498Y-71111459D01*
X132692595Y-71132433D01*
X126125382Y-77699645D01*
X126063070Y-77733671D01*
X125992255Y-77728606D01*
X125935419Y-77686059D01*
X125911839Y-77630261D01*
X125909719Y-77616874D01*
X125848528Y-77496780D01*
X125753220Y-77401472D01*
X125753219Y-77401471D01*
X125686613Y-77367534D01*
X125633126Y-77340281D01*
X125500000Y-77319196D01*
X125366874Y-77340281D01*
X125366872Y-77340281D01*
X125366872Y-77340282D01*
X125246780Y-77401471D01*
X125246778Y-77401473D01*
X125235657Y-77412595D01*
X125173345Y-77446621D01*
X125146562Y-77449500D01*
X124203211Y-77449500D01*
X124135090Y-77429498D01*
X124088597Y-77375842D01*
X124078493Y-77305568D01*
X124095789Y-77262953D01*
X124094026Y-77262055D01*
X124098528Y-77253220D01*
X124159719Y-77133126D01*
X124180804Y-77000000D01*
X124159719Y-76866874D01*
X124098528Y-76746780D01*
X124003220Y-76651472D01*
X124003219Y-76651471D01*
X123997008Y-76648307D01*
X123993003Y-76646266D01*
X123941389Y-76597519D01*
X123924323Y-76528604D01*
X123947224Y-76461402D01*
X124002821Y-76417250D01*
X124050207Y-76408000D01*
X124663585Y-76408000D01*
X124663597Y-76407999D01*
X124724093Y-76401494D01*
X124860964Y-76350444D01*
X124860965Y-76350444D01*
X124977904Y-76262904D01*
X125065444Y-76145965D01*
X125065444Y-76145964D01*
X125116494Y-76009093D01*
X125122999Y-75948597D01*
X125123000Y-75948585D01*
X125123000Y-75703072D01*
X125143002Y-75634951D01*
X125196658Y-75588458D01*
X125266932Y-75578354D01*
X125331512Y-75607848D01*
X125349550Y-75627140D01*
X125438234Y-75744578D01*
X125588959Y-75881981D01*
X125588960Y-75881982D01*
X125762351Y-75989341D01*
X125762354Y-75989342D01*
X125762363Y-75989348D01*
X125952544Y-76063024D01*
X126153024Y-76100500D01*
X126153026Y-76100500D01*
X126356974Y-76100500D01*
X126356976Y-76100500D01*
X126557456Y-76063024D01*
X126747637Y-75989348D01*
X126921041Y-75881981D01*
X127071764Y-75744579D01*
X127194673Y-75581821D01*
X127285582Y-75399250D01*
X127341397Y-75203083D01*
X127360215Y-75000000D01*
X127341397Y-74796917D01*
X127285582Y-74600750D01*
X127194673Y-74418179D01*
X127146233Y-74354034D01*
X127071765Y-74255421D01*
X126921040Y-74118018D01*
X126921039Y-74118017D01*
X126747648Y-74010658D01*
X126747641Y-74010654D01*
X126747637Y-74010652D01*
X126631133Y-73965518D01*
X126557457Y-73936976D01*
X126490629Y-73924484D01*
X126356976Y-73899500D01*
X126153024Y-73899500D01*
X126052784Y-73918238D01*
X125952542Y-73936976D01*
X125856955Y-73974007D01*
X125762363Y-74010652D01*
X125762362Y-74010652D01*
X125762361Y-74010653D01*
X125762351Y-74010658D01*
X125588960Y-74118017D01*
X125588959Y-74118018D01*
X125438234Y-74255421D01*
X125349550Y-74372859D01*
X125292536Y-74415167D01*
X125221700Y-74419934D01*
X125159531Y-74385647D01*
X125125768Y-74323193D01*
X125123000Y-74296927D01*
X125123000Y-74051414D01*
X125122999Y-74051402D01*
X125116494Y-73990906D01*
X125065444Y-73854035D01*
X125065444Y-73854034D01*
X124977904Y-73737095D01*
X124860965Y-73649555D01*
X124724093Y-73598505D01*
X124663597Y-73592000D01*
X123969000Y-73592000D01*
X123969000Y-74627031D01*
X123888694Y-74580667D01*
X123774244Y-74550000D01*
X123655756Y-74550000D01*
X123541306Y-74580667D01*
X123461000Y-74627031D01*
X123461000Y-73592000D01*
X122766402Y-73592000D01*
X122705906Y-73598505D01*
X122569035Y-73649555D01*
X122569034Y-73649555D01*
X122452095Y-73737095D01*
X122364555Y-73854034D01*
X122364555Y-73854035D01*
X122313504Y-73990908D01*
X122313504Y-73990909D01*
X122311792Y-74006829D01*
X122284620Y-74072420D01*
X122226300Y-74112908D01*
X122155348Y-74115439D01*
X122097420Y-74082449D01*
X121138066Y-73123095D01*
X121104040Y-73060783D01*
X121109105Y-72989968D01*
X121151652Y-72933132D01*
X121218172Y-72908321D01*
X121227161Y-72908000D01*
X121236000Y-72908000D01*
X121236000Y-71872968D01*
X121316306Y-71919333D01*
X121430756Y-71950000D01*
X121549244Y-71950000D01*
X121663694Y-71919333D01*
X121744000Y-71872968D01*
X121744000Y-72908000D01*
X122438585Y-72908000D01*
X122438597Y-72907999D01*
X122499093Y-72901494D01*
X122635964Y-72850444D01*
X122635965Y-72850444D01*
X122752904Y-72762904D01*
X122840444Y-72645965D01*
X122840444Y-72645964D01*
X122891494Y-72509093D01*
X122897999Y-72448597D01*
X122898000Y-72448585D01*
X122898000Y-72203072D01*
X122918002Y-72134951D01*
X122971658Y-72088458D01*
X123041932Y-72078354D01*
X123106512Y-72107848D01*
X123124550Y-72127140D01*
X123213234Y-72244578D01*
X123363959Y-72381981D01*
X123363960Y-72381982D01*
X123537351Y-72489341D01*
X123537354Y-72489342D01*
X123537363Y-72489348D01*
X123727544Y-72563024D01*
X123928024Y-72600500D01*
X123928026Y-72600500D01*
X124131974Y-72600500D01*
X124131976Y-72600500D01*
X124332456Y-72563024D01*
X124522637Y-72489348D01*
X124696041Y-72381981D01*
X124846764Y-72244579D01*
X124855448Y-72233080D01*
X124912461Y-72190771D01*
X124983297Y-72186001D01*
X125045467Y-72220286D01*
X125079231Y-72282740D01*
X125082000Y-72309009D01*
X125082000Y-72448597D01*
X125088505Y-72509093D01*
X125139555Y-72645964D01*
X125139555Y-72645965D01*
X125227095Y-72762904D01*
X125344034Y-72850444D01*
X125480906Y-72901494D01*
X125541402Y-72907999D01*
X125541415Y-72908000D01*
X126236000Y-72908000D01*
X126236000Y-71872968D01*
X126316306Y-71919333D01*
X126430756Y-71950000D01*
X126549244Y-71950000D01*
X126663694Y-71919333D01*
X126744000Y-71872968D01*
X126744000Y-72908000D01*
X127438585Y-72908000D01*
X127438597Y-72907999D01*
X127499093Y-72901494D01*
X127635964Y-72850444D01*
X127635965Y-72850444D01*
X127752904Y-72762904D01*
X127840444Y-72645965D01*
X127840444Y-72645964D01*
X127891494Y-72509093D01*
X127897999Y-72448597D01*
X127898000Y-72448585D01*
X127898000Y-72203072D01*
X127918002Y-72134951D01*
X127971658Y-72088458D01*
X128041932Y-72078354D01*
X128106512Y-72107848D01*
X128124550Y-72127140D01*
X128213234Y-72244578D01*
X128363959Y-72381981D01*
X128363960Y-72381982D01*
X128537351Y-72489341D01*
X128537354Y-72489342D01*
X128537363Y-72489348D01*
X128727544Y-72563024D01*
X128928024Y-72600500D01*
X128928026Y-72600500D01*
X129131974Y-72600500D01*
X129131976Y-72600500D01*
X129332456Y-72563024D01*
X129522637Y-72489348D01*
X129696041Y-72381981D01*
X129846764Y-72244579D01*
X129969673Y-72081821D01*
X130060582Y-71899250D01*
X130116397Y-71703083D01*
X130135215Y-71500000D01*
X130116397Y-71296917D01*
X130060582Y-71100750D01*
X129969673Y-70918179D01*
X129931794Y-70868019D01*
X129846765Y-70755421D01*
X129696040Y-70618018D01*
X129696039Y-70618017D01*
X129522648Y-70510658D01*
X129522641Y-70510654D01*
X129522637Y-70510652D01*
X129406133Y-70465518D01*
X129332457Y-70436976D01*
X129263040Y-70424000D01*
X129131976Y-70399500D01*
X128928024Y-70399500D01*
X128858737Y-70412452D01*
X128727542Y-70436976D01*
X128562211Y-70501026D01*
X128491465Y-70506982D01*
X128428729Y-70473745D01*
X128427600Y-70472629D01*
X126714517Y-68759545D01*
X126714507Y-68759537D01*
X126697986Y-68749999D01*
X126697985Y-68749999D01*
X126645986Y-68719977D01*
X126569565Y-68699500D01*
X126569562Y-68699500D01*
X125871026Y-68699500D01*
X125802905Y-68679498D01*
X125781931Y-68662595D01*
X123878882Y-66759545D01*
X123878872Y-66759537D01*
X123825366Y-66728646D01*
X123825364Y-66728645D01*
X123810354Y-66719979D01*
X123810351Y-66719978D01*
X123810347Y-66719976D01*
X123733930Y-66699500D01*
X123733927Y-66699500D01*
X109460438Y-66699500D01*
X109460434Y-66699500D01*
X109384017Y-66719976D01*
X109384011Y-66719979D01*
X109369002Y-66728645D01*
X109369000Y-66728646D01*
X109368999Y-66728646D01*
X109315492Y-66759537D01*
X109315482Y-66759545D01*
X105215097Y-70859932D01*
X103855489Y-72219540D01*
X103830451Y-72244578D01*
X103799541Y-72275487D01*
X103799539Y-72275490D01*
X103759977Y-72344014D01*
X103739500Y-72420434D01*
X103739500Y-84234553D01*
X103759977Y-84310973D01*
X103759978Y-84310975D01*
X103759979Y-84310977D01*
X103791740Y-84365989D01*
X103799540Y-84379499D01*
X103799542Y-84379501D01*
X103799545Y-84379505D01*
X104932067Y-85512026D01*
X104966092Y-85574338D01*
X104961028Y-85645153D01*
X104918481Y-85701989D01*
X104867555Y-85724700D01*
X104771955Y-85743717D01*
X104714699Y-85755106D01*
X104714697Y-85755106D01*
X104714696Y-85755107D01*
X104654547Y-85780022D01*
X104573699Y-85813511D01*
X104532619Y-85830527D01*
X104368755Y-85940017D01*
X104368749Y-85940022D01*
X103663714Y-86645057D01*
X103663709Y-86645063D01*
X103554219Y-86808927D01*
X103478799Y-86991004D01*
X103478798Y-86991005D01*
X103440349Y-87184300D01*
X103440349Y-87381385D01*
X103477799Y-87569658D01*
X103478798Y-87574679D01*
X103554218Y-87756757D01*
X103663710Y-87920624D01*
X103803068Y-88059982D01*
X103966935Y-88169474D01*
X104149013Y-88244894D01*
X104342309Y-88283343D01*
X104342310Y-88283343D01*
X104539388Y-88283343D01*
X104539389Y-88283343D01*
X104732685Y-88244894D01*
X104914763Y-88169474D01*
X105078630Y-88059982D01*
X105783674Y-87354938D01*
X105893166Y-87191071D01*
X105968586Y-87008993D01*
X105969665Y-87003567D01*
X106002572Y-86940658D01*
X106064266Y-86905525D01*
X106135161Y-86909325D01*
X106192748Y-86950850D01*
X106218742Y-87016916D01*
X106219244Y-87028148D01*
X106219244Y-87632347D01*
X106199242Y-87700468D01*
X106168925Y-87731332D01*
X106169591Y-87732143D01*
X106164806Y-87736069D01*
X105459762Y-88441114D01*
X105459761Y-88441115D01*
X105354506Y-88598642D01*
X105350270Y-88604981D01*
X105339086Y-88631981D01*
X105274851Y-88787056D01*
X105274850Y-88787057D01*
X105236401Y-88980352D01*
X105236401Y-89177437D01*
X105270171Y-89347209D01*
X105274850Y-89370731D01*
X105350270Y-89552809D01*
X105459762Y-89716676D01*
X105599120Y-89856034D01*
X105762987Y-89965526D01*
X105945065Y-90040946D01*
X106138361Y-90079395D01*
X106138362Y-90079395D01*
X106335440Y-90079395D01*
X106335441Y-90079395D01*
X106528737Y-90040946D01*
X106710815Y-89965526D01*
X106874682Y-89856034D01*
X107579726Y-89150990D01*
X107689218Y-88987123D01*
X107700215Y-88960572D01*
X107744760Y-88905295D01*
X107812123Y-88882872D01*
X107880915Y-88900429D01*
X107917491Y-88933282D01*
X107977097Y-89012905D01*
X108094034Y-89100444D01*
X108219413Y-89147207D01*
X108276249Y-89189753D01*
X108301060Y-89256274D01*
X108285969Y-89325648D01*
X108235767Y-89375850D01*
X108223601Y-89381671D01*
X108124725Y-89422628D01*
X108124724Y-89422628D01*
X107960858Y-89532120D01*
X107960852Y-89532125D01*
X107255817Y-90237160D01*
X107255812Y-90237166D01*
X107147758Y-90398882D01*
X107146321Y-90401032D01*
X107130390Y-90439493D01*
X107070902Y-90583107D01*
X107070901Y-90583108D01*
X107032452Y-90776403D01*
X107032452Y-90973488D01*
X107070408Y-91164305D01*
X107070901Y-91166782D01*
X107146321Y-91348860D01*
X107255813Y-91512727D01*
X107395171Y-91652085D01*
X107559038Y-91761577D01*
X107741116Y-91836997D01*
X107934412Y-91875446D01*
X107934413Y-91875446D01*
X108131491Y-91875446D01*
X108131492Y-91875446D01*
X108324788Y-91836997D01*
X108506866Y-91761577D01*
X108670733Y-91652085D01*
X109375777Y-90947041D01*
X109485269Y-90783174D01*
X109560689Y-90601096D01*
X109599138Y-90407800D01*
X109599138Y-90210720D01*
X109560689Y-90017424D01*
X109485269Y-89835346D01*
X109375777Y-89671479D01*
X109236419Y-89532121D01*
X109072552Y-89422629D01*
X109072550Y-89422628D01*
X108998446Y-89391932D01*
X108943166Y-89347383D01*
X108920746Y-89280020D01*
X108938305Y-89211229D01*
X108957571Y-89186428D01*
X108986000Y-89157999D01*
X108986000Y-88122968D01*
X109066306Y-88169333D01*
X109180756Y-88200000D01*
X109299244Y-88200000D01*
X109413694Y-88169333D01*
X109494000Y-88122968D01*
X109494000Y-89158000D01*
X110188585Y-89158000D01*
X110188597Y-89157999D01*
X110249093Y-89151494D01*
X110385964Y-89100444D01*
X110385965Y-89100444D01*
X110502904Y-89012904D01*
X110590444Y-88895965D01*
X110590444Y-88895964D01*
X110641494Y-88759093D01*
X110647999Y-88698597D01*
X110648000Y-88698585D01*
X110648000Y-88453072D01*
X110668002Y-88384951D01*
X110721658Y-88338458D01*
X110791932Y-88328354D01*
X110856512Y-88357848D01*
X110874550Y-88377140D01*
X110963234Y-88494578D01*
X111113959Y-88631981D01*
X111113960Y-88631982D01*
X111287351Y-88739341D01*
X111287354Y-88739342D01*
X111287363Y-88739348D01*
X111477544Y-88813024D01*
X111678024Y-88850500D01*
X111678026Y-88850500D01*
X111881974Y-88850500D01*
X111881976Y-88850500D01*
X112082456Y-88813024D01*
X112272637Y-88739348D01*
X112446041Y-88631981D01*
X112596764Y-88494579D01*
X112719673Y-88331821D01*
X112810582Y-88149250D01*
X112866397Y-87953083D01*
X112885215Y-87750000D01*
X112866397Y-87546917D01*
X112810582Y-87350750D01*
X112719673Y-87168179D01*
X112706406Y-87150611D01*
X112596765Y-87005421D01*
X112446040Y-86868018D01*
X112446039Y-86868017D01*
X112272648Y-86760658D01*
X112272641Y-86760654D01*
X112272637Y-86760652D01*
X112136354Y-86707856D01*
X112082457Y-86686976D01*
X112015629Y-86674484D01*
X111881976Y-86649500D01*
X111678024Y-86649500D01*
X111577784Y-86668238D01*
X111477542Y-86686976D01*
X111338334Y-86740906D01*
X111287363Y-86760652D01*
X111287362Y-86760652D01*
X111287361Y-86760653D01*
X111287351Y-86760658D01*
X111113960Y-86868017D01*
X111113959Y-86868018D01*
X110963234Y-87005421D01*
X110874550Y-87122859D01*
X110817536Y-87165167D01*
X110746700Y-87169934D01*
X110684531Y-87135647D01*
X110650768Y-87073193D01*
X110648000Y-87046927D01*
X110648000Y-86801414D01*
X110647999Y-86801402D01*
X110641494Y-86740906D01*
X110590444Y-86604035D01*
X110590444Y-86604034D01*
X110502904Y-86487095D01*
X110385965Y-86399555D01*
X110249093Y-86348505D01*
X110188597Y-86342000D01*
X109494000Y-86342000D01*
X109494000Y-87377031D01*
X109413694Y-87330667D01*
X109299244Y-87300000D01*
X109180756Y-87300000D01*
X109066306Y-87330667D01*
X108986000Y-87377031D01*
X108986000Y-86342000D01*
X108431906Y-86342000D01*
X108363785Y-86321998D01*
X108317292Y-86268342D01*
X108307188Y-86198068D01*
X108336682Y-86133488D01*
X108342811Y-86126905D01*
X108632311Y-85837405D01*
X108694623Y-85803379D01*
X108721406Y-85800500D01*
X109855357Y-85800500D01*
X109931784Y-85780021D01*
X110000306Y-85740460D01*
X110056255Y-85684511D01*
X111100274Y-84640490D01*
X111162583Y-84606468D01*
X111233398Y-84611532D01*
X111237575Y-84613175D01*
X111333218Y-84652792D01*
X111526514Y-84691241D01*
X111526515Y-84691241D01*
X111723593Y-84691241D01*
X111723594Y-84691241D01*
X111916890Y-84652792D01*
X112098968Y-84577372D01*
X112262835Y-84467880D01*
X112967879Y-83762836D01*
X113077371Y-83598969D01*
X113152791Y-83416891D01*
X113191240Y-83223595D01*
X113191240Y-83026515D01*
X113152791Y-82833219D01*
X113077371Y-82651141D01*
X112967879Y-82487274D01*
X112828521Y-82347916D01*
X112664654Y-82238424D01*
X112482577Y-82163004D01*
X112289282Y-82124555D01*
X112289280Y-82124555D01*
X112092200Y-82124555D01*
X112092197Y-82124555D01*
X111898902Y-82163004D01*
X111898901Y-82163005D01*
X111830981Y-82191139D01*
X111744918Y-82226788D01*
X111716824Y-82238425D01*
X111552960Y-82347915D01*
X111552954Y-82347920D01*
X110847919Y-83052955D01*
X110847914Y-83052961D01*
X110744104Y-83208325D01*
X110738423Y-83216827D01*
X110712865Y-83278528D01*
X110663004Y-83398902D01*
X110663003Y-83398903D01*
X110624554Y-83592198D01*
X110624554Y-83789283D01*
X110642775Y-83880883D01*
X110663003Y-83982577D01*
X110702615Y-84078209D01*
X110710204Y-84148797D01*
X110678425Y-84212284D01*
X110675301Y-84215521D01*
X110596684Y-84294138D01*
X110534372Y-84328164D01*
X110463557Y-84323099D01*
X110406721Y-84280552D01*
X110382126Y-84216669D01*
X110382020Y-84215521D01*
X110366397Y-84046917D01*
X110310582Y-83850750D01*
X110219673Y-83668179D01*
X110167409Y-83598970D01*
X110096765Y-83505421D01*
X109946040Y-83368018D01*
X109946039Y-83368017D01*
X109772648Y-83260658D01*
X109772641Y-83260654D01*
X109772637Y-83260652D01*
X109637565Y-83208325D01*
X109582457Y-83186976D01*
X109509493Y-83173337D01*
X109381976Y-83149500D01*
X109178024Y-83149500D01*
X109098230Y-83164416D01*
X108977542Y-83186976D01*
X108922435Y-83208325D01*
X108852014Y-83235606D01*
X108781270Y-83241562D01*
X108718534Y-83208325D01*
X108683727Y-83146446D01*
X108680500Y-83118114D01*
X108680500Y-82369834D01*
X108700502Y-82301713D01*
X108754158Y-82255220D01*
X108824432Y-82245116D01*
X108889012Y-82274610D01*
X108922908Y-82321615D01*
X108942372Y-82368604D01*
X109051864Y-82532471D01*
X109191222Y-82671829D01*
X109355089Y-82781321D01*
X109537167Y-82856741D01*
X109730463Y-82895190D01*
X109730464Y-82895190D01*
X109927542Y-82895190D01*
X109927543Y-82895190D01*
X110120839Y-82856741D01*
X110302917Y-82781321D01*
X110466784Y-82671829D01*
X111171828Y-81966785D01*
X111281320Y-81802918D01*
X111356740Y-81620840D01*
X111395189Y-81427544D01*
X111395189Y-81230464D01*
X111356740Y-81037168D01*
X111281320Y-80855090D01*
X111194734Y-80725505D01*
X111173520Y-80657753D01*
X111192303Y-80589286D01*
X111245121Y-80541843D01*
X111299500Y-80529504D01*
X111552343Y-80529504D01*
X111620464Y-80549506D01*
X111641438Y-80566409D01*
X114269540Y-83194511D01*
X114325489Y-83250460D01*
X114394011Y-83290021D01*
X114394013Y-83290021D01*
X114394014Y-83290022D01*
X114470434Y-83310499D01*
X114470438Y-83310500D01*
X115029562Y-83310500D01*
X115105989Y-83290021D01*
X115174511Y-83250460D01*
X115230460Y-83194511D01*
X117990460Y-80434511D01*
X118740460Y-79684511D01*
X119214121Y-79210848D01*
X119276432Y-79176825D01*
X119283459Y-79175504D01*
X119383126Y-79159719D01*
X119503220Y-79098528D01*
X119598528Y-79003220D01*
X119659719Y-78883126D01*
X119680804Y-78750000D01*
X119659719Y-78616874D01*
X119598528Y-78496780D01*
X119503220Y-78401472D01*
X119503219Y-78401471D01*
X119443173Y-78370876D01*
X119383126Y-78340281D01*
X119250000Y-78319196D01*
X119116874Y-78340281D01*
X119116872Y-78340281D01*
X119116872Y-78340282D01*
X118996780Y-78401471D01*
X118901471Y-78496780D01*
X118840280Y-78616875D01*
X118824501Y-78716495D01*
X118794088Y-78780648D01*
X118789149Y-78785878D01*
X118415311Y-79159718D01*
X118315489Y-79259540D01*
X117565489Y-80009540D01*
X115313696Y-82261331D01*
X115251384Y-82295357D01*
X115180568Y-82290292D01*
X115123733Y-82247745D01*
X115115383Y-82234334D01*
X115113529Y-82231782D01*
X115113528Y-82231780D01*
X115018220Y-82136472D01*
X115018219Y-82136471D01*
X114958173Y-82105876D01*
X114898126Y-82075281D01*
X114798502Y-82059502D01*
X114734351Y-82029090D01*
X114729120Y-82024149D01*
X112820566Y-80115595D01*
X112786540Y-80053283D01*
X112791605Y-79982468D01*
X112834152Y-79925632D01*
X112900672Y-79900821D01*
X112909661Y-79900500D01*
X115719747Y-79900500D01*
X115719748Y-79900500D01*
X115778231Y-79888867D01*
X115844552Y-79844552D01*
X115888867Y-79778231D01*
X115900500Y-79719748D01*
X115900500Y-76680252D01*
X115888867Y-76621769D01*
X115844552Y-76555448D01*
X115778231Y-76511133D01*
X115778228Y-76511132D01*
X115719750Y-76499500D01*
X115719748Y-76499500D01*
X112680252Y-76499500D01*
X112680249Y-76499500D01*
X112621771Y-76511132D01*
X112621768Y-76511133D01*
X112555448Y-76555448D01*
X112511133Y-76621768D01*
X112511132Y-76621771D01*
X112499500Y-76680249D01*
X112499500Y-79490339D01*
X112479498Y-79558460D01*
X112425842Y-79604953D01*
X112355568Y-79615057D01*
X112290988Y-79585563D01*
X112284405Y-79579434D01*
X108806089Y-76101118D01*
X108772063Y-76038806D01*
X108777128Y-75967991D01*
X108782394Y-75955860D01*
X108810578Y-75899258D01*
X108810577Y-75899258D01*
X108810582Y-75899250D01*
X108866397Y-75703083D01*
X108885215Y-75500000D01*
X112069196Y-75500000D01*
X112090281Y-75633126D01*
X112120876Y-75693173D01*
X112151470Y-75753218D01*
X112151472Y-75753220D01*
X112246780Y-75848528D01*
X112366874Y-75909719D01*
X112500000Y-75930804D01*
X112633126Y-75909719D01*
X112753220Y-75848528D01*
X112764343Y-75837405D01*
X112826655Y-75803379D01*
X112853438Y-75800500D01*
X114146562Y-75800500D01*
X114214683Y-75820502D01*
X114235657Y-75837405D01*
X114246780Y-75848528D01*
X114366874Y-75909719D01*
X114500000Y-75930804D01*
X114633126Y-75909719D01*
X114753220Y-75848528D01*
X114848528Y-75753220D01*
X114909719Y-75633126D01*
X114930804Y-75500000D01*
X114909719Y-75366874D01*
X114848528Y-75246780D01*
X114753220Y-75151472D01*
X114753219Y-75151471D01*
X114653680Y-75100754D01*
X114633126Y-75090281D01*
X114500000Y-75069196D01*
X114366874Y-75090281D01*
X114366872Y-75090281D01*
X114366872Y-75090282D01*
X114246780Y-75151471D01*
X114246778Y-75151473D01*
X114235657Y-75162595D01*
X114173345Y-75196621D01*
X114146562Y-75199500D01*
X112853438Y-75199500D01*
X112785317Y-75179498D01*
X112764343Y-75162595D01*
X112753219Y-75151471D01*
X112653680Y-75100754D01*
X112633126Y-75090281D01*
X112500000Y-75069196D01*
X112366874Y-75090281D01*
X112366872Y-75090281D01*
X112366872Y-75090282D01*
X112246780Y-75151471D01*
X112151471Y-75246780D01*
X112110951Y-75326306D01*
X112090281Y-75366874D01*
X112069196Y-75500000D01*
X108885215Y-75500000D01*
X108866397Y-75296917D01*
X108810582Y-75100750D01*
X108719673Y-74918179D01*
X108650294Y-74826306D01*
X108596765Y-74755421D01*
X108446040Y-74618018D01*
X108446039Y-74618017D01*
X108272648Y-74510658D01*
X108272641Y-74510654D01*
X108272637Y-74510652D01*
X108156133Y-74465518D01*
X108082457Y-74436976D01*
X108015629Y-74424484D01*
X107881976Y-74399500D01*
X107678024Y-74399500D01*
X107578121Y-74418175D01*
X107477542Y-74436976D01*
X107338334Y-74490906D01*
X107287363Y-74510652D01*
X107287362Y-74510652D01*
X107287361Y-74510653D01*
X107287351Y-74510658D01*
X107113960Y-74618017D01*
X107113959Y-74618018D01*
X106963234Y-74755421D01*
X106874550Y-74872859D01*
X106817536Y-74915167D01*
X106746700Y-74919934D01*
X106684531Y-74885647D01*
X106650768Y-74823193D01*
X106648000Y-74796927D01*
X106648000Y-74551414D01*
X106647999Y-74551402D01*
X106641494Y-74490906D01*
X106590444Y-74354035D01*
X106590444Y-74354034D01*
X106502904Y-74237095D01*
X106385965Y-74149555D01*
X106249093Y-74098505D01*
X106188597Y-74092000D01*
X105494000Y-74092000D01*
X105494000Y-75127031D01*
X105413694Y-75080667D01*
X105299244Y-75050000D01*
X105180756Y-75050000D01*
X105066306Y-75080667D01*
X104986000Y-75127031D01*
X104986000Y-74092000D01*
X104466500Y-74092000D01*
X104398379Y-74071998D01*
X104351886Y-74018342D01*
X104340500Y-73966000D01*
X104340500Y-72636661D01*
X104360502Y-72568540D01*
X104377405Y-72547566D01*
X105866905Y-71058066D01*
X105929217Y-71024040D01*
X106000032Y-71029105D01*
X106056868Y-71071652D01*
X106081679Y-71138172D01*
X106082000Y-71147161D01*
X106082000Y-71246000D01*
X107117032Y-71246000D01*
X107070667Y-71326306D01*
X107040000Y-71440756D01*
X107040000Y-71559244D01*
X107070667Y-71673694D01*
X107117032Y-71754000D01*
X106082000Y-71754000D01*
X106082000Y-72448597D01*
X106088505Y-72509093D01*
X106139555Y-72645964D01*
X106139555Y-72645965D01*
X106227095Y-72762904D01*
X106344034Y-72850444D01*
X106480906Y-72901494D01*
X106541402Y-72907999D01*
X106541415Y-72908000D01*
X107236000Y-72908000D01*
X107236000Y-71872968D01*
X107316306Y-71919333D01*
X107430756Y-71950000D01*
X107549244Y-71950000D01*
X107663694Y-71919333D01*
X107744000Y-71872968D01*
X107744000Y-72908000D01*
X108438585Y-72908000D01*
X108438597Y-72907999D01*
X108499093Y-72901494D01*
X108635964Y-72850444D01*
X108635965Y-72850444D01*
X108752904Y-72762904D01*
X108840444Y-72645965D01*
X108840444Y-72645964D01*
X108891494Y-72509093D01*
X108897999Y-72448597D01*
X108898000Y-72448585D01*
X108898000Y-72203072D01*
X108918002Y-72134951D01*
X108971658Y-72088458D01*
X109041932Y-72078354D01*
X109106512Y-72107848D01*
X109124550Y-72127140D01*
X109213234Y-72244578D01*
X109363959Y-72381981D01*
X109363960Y-72381982D01*
X109537351Y-72489341D01*
X109537354Y-72489342D01*
X109537363Y-72489348D01*
X109727544Y-72563024D01*
X109928024Y-72600500D01*
X109928026Y-72600500D01*
X110131974Y-72600500D01*
X110131976Y-72600500D01*
X110332456Y-72563024D01*
X110522637Y-72489348D01*
X110696041Y-72381981D01*
X110846764Y-72244579D01*
X110969673Y-72081821D01*
X111060582Y-71899250D01*
X111062640Y-71892017D01*
X111100521Y-71831971D01*
X111164852Y-71801937D01*
X111183830Y-71800500D01*
X111807147Y-71800500D01*
X111875268Y-71820502D01*
X111921761Y-71874158D01*
X111931865Y-71944432D01*
X111931602Y-71946170D01*
X111919196Y-72024500D01*
X111940281Y-72157626D01*
X111954739Y-72186001D01*
X112000335Y-72275490D01*
X112001472Y-72277720D01*
X112096780Y-72373028D01*
X112216874Y-72434219D01*
X112350000Y-72455304D01*
X112483126Y-72434219D01*
X112603220Y-72373028D01*
X112603220Y-72373027D01*
X112612055Y-72368526D01*
X112612974Y-72370330D01*
X112667965Y-72350706D01*
X112675166Y-72350500D01*
X113096562Y-72350500D01*
X113164683Y-72370502D01*
X113185657Y-72387405D01*
X113196780Y-72398528D01*
X113316874Y-72459719D01*
X113450000Y-72480804D01*
X113583126Y-72459719D01*
X113703220Y-72398528D01*
X113798528Y-72303220D01*
X113859719Y-72183126D01*
X113880804Y-72050000D01*
X113864365Y-71946209D01*
X113873465Y-71875800D01*
X113919187Y-71821486D01*
X113987015Y-71800513D01*
X113988814Y-71800500D01*
X114514861Y-71800500D01*
X114582982Y-71820502D01*
X114603956Y-71837405D01*
X121580955Y-78814405D01*
X121614981Y-78876717D01*
X121609916Y-78947532D01*
X121567369Y-79004368D01*
X121500849Y-79029179D01*
X121491860Y-79029500D01*
X120309562Y-79029500D01*
X120230438Y-79029500D01*
X120189484Y-79040473D01*
X120154014Y-79049977D01*
X120154007Y-79049980D01*
X120085492Y-79089537D01*
X120085482Y-79089545D01*
X118336758Y-80838269D01*
X118274446Y-80872295D01*
X118227954Y-80873623D01*
X118200001Y-80869196D01*
X118200000Y-80869196D01*
X118066874Y-80890281D01*
X118066872Y-80890281D01*
X118066872Y-80890282D01*
X117946780Y-80951471D01*
X117851471Y-81046780D01*
X117790773Y-81165909D01*
X117790281Y-81166874D01*
X117769196Y-81300000D01*
X117790281Y-81433126D01*
X117818002Y-81487532D01*
X117849575Y-81549498D01*
X117851472Y-81553220D01*
X117946780Y-81648528D01*
X118066874Y-81709719D01*
X118200000Y-81730804D01*
X118333126Y-81709719D01*
X118453220Y-81648528D01*
X118548528Y-81553220D01*
X118609719Y-81433126D01*
X118609719Y-81433124D01*
X118614221Y-81424289D01*
X118615420Y-81424900D01*
X118639710Y-81385259D01*
X118650673Y-81374296D01*
X118712983Y-81340272D01*
X118783798Y-81345337D01*
X118840634Y-81387884D01*
X118852031Y-81406187D01*
X118870612Y-81442654D01*
X118893478Y-81487532D01*
X118901472Y-81503220D01*
X118996780Y-81598528D01*
X119116874Y-81659719D01*
X119216497Y-81675497D01*
X119280649Y-81705910D01*
X119285863Y-81710834D01*
X119565489Y-81990460D01*
X119565490Y-81990461D01*
X119565492Y-81990462D01*
X119604910Y-82013220D01*
X119634012Y-82030022D01*
X119710438Y-82050500D01*
X119710440Y-82050500D01*
X120114401Y-82050500D01*
X120182522Y-82070502D01*
X120229015Y-82124158D01*
X120239119Y-82194432D01*
X120209625Y-82259012D01*
X120184403Y-82281265D01*
X120092222Y-82342858D01*
X120092215Y-82342863D01*
X119952863Y-82482215D01*
X119952858Y-82482222D01*
X119843368Y-82646085D01*
X119767950Y-82828161D01*
X119767949Y-82828164D01*
X119729500Y-83021455D01*
X119729500Y-83218544D01*
X119767949Y-83411835D01*
X119767950Y-83411838D01*
X119843368Y-83593914D01*
X119949998Y-83753498D01*
X119971213Y-83821251D01*
X119952430Y-83889718D01*
X119899612Y-83937161D01*
X119845233Y-83949500D01*
X118289562Y-83949500D01*
X118210438Y-83949500D01*
X118174778Y-83959055D01*
X118134014Y-83969977D01*
X118134007Y-83969980D01*
X118065492Y-84009537D01*
X118065482Y-84009545D01*
X117302485Y-84772544D01*
X117065489Y-85009540D01*
X117049627Y-85025402D01*
X117009541Y-85065487D01*
X117009539Y-85065490D01*
X116969977Y-85134014D01*
X116949500Y-85210434D01*
X116949500Y-86285838D01*
X116929498Y-86353959D01*
X116875842Y-86400452D01*
X116805568Y-86410556D01*
X116740988Y-86381062D01*
X116707092Y-86334057D01*
X116669476Y-86243248D01*
X116669474Y-86243243D01*
X116630233Y-86184515D01*
X116559982Y-86079376D01*
X116420624Y-85940018D01*
X116256757Y-85830526D01*
X116074680Y-85755106D01*
X115881385Y-85716657D01*
X115881383Y-85716657D01*
X115684303Y-85716657D01*
X115684300Y-85716657D01*
X115608888Y-85731658D01*
X115548263Y-85743716D01*
X115477551Y-85737389D01*
X115421483Y-85693835D01*
X115397864Y-85626883D01*
X115397683Y-85620138D01*
X115397683Y-84879478D01*
X115417685Y-84811357D01*
X115434588Y-84790383D01*
X115452427Y-84772544D01*
X115488278Y-84736693D01*
X117364122Y-82860847D01*
X117426431Y-82826825D01*
X117433452Y-82825505D01*
X117533126Y-82809719D01*
X117653220Y-82748528D01*
X117748528Y-82653220D01*
X117809719Y-82533126D01*
X117830804Y-82400000D01*
X117809719Y-82266874D01*
X117748528Y-82146780D01*
X117653220Y-82051472D01*
X117653219Y-82051471D01*
X117578146Y-82013220D01*
X117533126Y-81990281D01*
X117400000Y-81969196D01*
X117266874Y-81990281D01*
X117266872Y-81990281D01*
X117266872Y-81990282D01*
X117146780Y-82051471D01*
X117051471Y-82146780D01*
X116990280Y-82266875D01*
X116974501Y-82366496D01*
X116944088Y-82430649D01*
X116939148Y-82435879D01*
X115160250Y-84214778D01*
X115097940Y-84248802D01*
X115071157Y-84251682D01*
X115057617Y-84251682D01*
X114981195Y-84272160D01*
X114920104Y-84307430D01*
X114851109Y-84324167D01*
X114784017Y-84300945D01*
X114768011Y-84287405D01*
X114624577Y-84143971D01*
X114624573Y-84143967D01*
X114460706Y-84034475D01*
X114278629Y-83959055D01*
X114085334Y-83920606D01*
X114085332Y-83920606D01*
X113888252Y-83920606D01*
X113888249Y-83920606D01*
X113694954Y-83959055D01*
X113694953Y-83959056D01*
X113638169Y-83982577D01*
X113531229Y-84026874D01*
X113512876Y-84034476D01*
X113349012Y-84143966D01*
X113349006Y-84143971D01*
X112643971Y-84849006D01*
X112643966Y-84849012D01*
X112535414Y-85011473D01*
X112534475Y-85012878D01*
X112518543Y-85051340D01*
X112459056Y-85194953D01*
X112459055Y-85194954D01*
X112420606Y-85388249D01*
X112420606Y-85585334D01*
X112457282Y-85769717D01*
X112459055Y-85778628D01*
X112534475Y-85960706D01*
X112643967Y-86124573D01*
X112783325Y-86263931D01*
X112947192Y-86373423D01*
X113129270Y-86448843D01*
X113322566Y-86487292D01*
X113322567Y-86487292D01*
X113519645Y-86487292D01*
X113519646Y-86487292D01*
X113712942Y-86448843D01*
X113738192Y-86438383D01*
X113808781Y-86430793D01*
X113872269Y-86462571D01*
X113908497Y-86523629D01*
X113905965Y-86594580D01*
X113875508Y-86643887D01*
X113505489Y-87013906D01*
X113491247Y-87028148D01*
X113449541Y-87069853D01*
X113449539Y-87069856D01*
X113409977Y-87138380D01*
X113389500Y-87214800D01*
X113389500Y-89466000D01*
X113369498Y-89534121D01*
X113315842Y-89580614D01*
X113263500Y-89592000D01*
X112744000Y-89592000D01*
X112744000Y-90627031D01*
X112663694Y-90580667D01*
X112549244Y-90550000D01*
X112430756Y-90550000D01*
X112316306Y-90580667D01*
X112236000Y-90627031D01*
X112236000Y-89592000D01*
X111541402Y-89592000D01*
X111480906Y-89598505D01*
X111344035Y-89649555D01*
X111344034Y-89649555D01*
X111227095Y-89737095D01*
X111139555Y-89854034D01*
X111139555Y-89854035D01*
X111088505Y-89990906D01*
X111082000Y-90051402D01*
X111082000Y-90746000D01*
X112117032Y-90746000D01*
X112070667Y-90826306D01*
X112040000Y-90940756D01*
X112040000Y-91059244D01*
X112070667Y-91173694D01*
X112117032Y-91254000D01*
X111074669Y-91254000D01*
X111028502Y-91279208D01*
X110957686Y-91274142D01*
X110931720Y-91260853D01*
X110868603Y-91218680D01*
X110759998Y-91173694D01*
X110686526Y-91143260D01*
X110493231Y-91104811D01*
X110493229Y-91104811D01*
X110296149Y-91104811D01*
X110296146Y-91104811D01*
X110102851Y-91143260D01*
X110102850Y-91143261D01*
X109920773Y-91218681D01*
X109756909Y-91328171D01*
X109756903Y-91328176D01*
X109051868Y-92033211D01*
X109051863Y-92033217D01*
X108956595Y-92175797D01*
X108942372Y-92197083D01*
X108939569Y-92203851D01*
X108866953Y-92379158D01*
X108866952Y-92379159D01*
X108828503Y-92572454D01*
X108828503Y-92769539D01*
X108863459Y-92945273D01*
X108866952Y-92962833D01*
X108942372Y-93144911D01*
X109051864Y-93308778D01*
X109191222Y-93448136D01*
X109355089Y-93557628D01*
X109537167Y-93633048D01*
X109730463Y-93671497D01*
X109730464Y-93671497D01*
X109927542Y-93671497D01*
X109927543Y-93671497D01*
X110120839Y-93633048D01*
X110302917Y-93557628D01*
X110466784Y-93448136D01*
X111171828Y-92743092D01*
X111281320Y-92579225D01*
X111325269Y-92473121D01*
X111369816Y-92417843D01*
X111437179Y-92395422D01*
X111472870Y-92401207D01*
X111473231Y-92399681D01*
X111480906Y-92401494D01*
X111541402Y-92407999D01*
X111541415Y-92408000D01*
X112236000Y-92408000D01*
X112236000Y-91372968D01*
X112316306Y-91419333D01*
X112430756Y-91450000D01*
X112549244Y-91450000D01*
X112663694Y-91419333D01*
X112744000Y-91372968D01*
X112744000Y-92408000D01*
X112954940Y-92408000D01*
X113023061Y-92428002D01*
X113069554Y-92481658D01*
X113079658Y-92551932D01*
X113050164Y-92616512D01*
X113044041Y-92623089D01*
X112951130Y-92716000D01*
X112715520Y-92951609D01*
X112653208Y-92985634D01*
X112582392Y-92980569D01*
X112578207Y-92978922D01*
X112482582Y-92939313D01*
X112482576Y-92939311D01*
X112289282Y-92900862D01*
X112289280Y-92900862D01*
X112092200Y-92900862D01*
X112092197Y-92900862D01*
X111898902Y-92939311D01*
X111898901Y-92939312D01*
X111716824Y-93014732D01*
X111552960Y-93124222D01*
X111552954Y-93124227D01*
X110847919Y-93829262D01*
X110847914Y-93829268D01*
X110754940Y-93968415D01*
X110738423Y-93993134D01*
X110735620Y-93999902D01*
X110663004Y-94175209D01*
X110663003Y-94175210D01*
X110624554Y-94368505D01*
X110624554Y-94565590D01*
X110660799Y-94747804D01*
X110663003Y-94758884D01*
X110738423Y-94940962D01*
X110847915Y-95104829D01*
X110987273Y-95244187D01*
X111151140Y-95353679D01*
X111333218Y-95429099D01*
X111526514Y-95467548D01*
X111526515Y-95467548D01*
X111723593Y-95467548D01*
X111723594Y-95467548D01*
X111916890Y-95429099D01*
X112098968Y-95353679D01*
X112262835Y-95244187D01*
X112967879Y-94539143D01*
X113077371Y-94375276D01*
X113152791Y-94193198D01*
X113191240Y-93999902D01*
X113191240Y-93802822D01*
X113152791Y-93609526D01*
X113152789Y-93609522D01*
X113152787Y-93609514D01*
X113117663Y-93524719D01*
X113110073Y-93454129D01*
X113141852Y-93390642D01*
X113202909Y-93354414D01*
X113234071Y-93350500D01*
X114706000Y-93350500D01*
X114774121Y-93370502D01*
X114820614Y-93424158D01*
X114832000Y-93476500D01*
X114832000Y-93996000D01*
X115867032Y-93996000D01*
X115820667Y-94076306D01*
X115790000Y-94190756D01*
X115790000Y-94309244D01*
X115820667Y-94423694D01*
X115867032Y-94504000D01*
X114832000Y-94504000D01*
X114832000Y-94824102D01*
X114811998Y-94892223D01*
X114758342Y-94938716D01*
X114688068Y-94948820D01*
X114630030Y-94923248D01*
X114629719Y-94923714D01*
X114627069Y-94921943D01*
X114626067Y-94921502D01*
X114624575Y-94920277D01*
X114624573Y-94920275D01*
X114460706Y-94810783D01*
X114278629Y-94735363D01*
X114085334Y-94696914D01*
X114085332Y-94696914D01*
X113888252Y-94696914D01*
X113888249Y-94696914D01*
X113694954Y-94735363D01*
X113694953Y-94735364D01*
X113512876Y-94810784D01*
X113349012Y-94920274D01*
X113349006Y-94920279D01*
X112643971Y-95625314D01*
X112643966Y-95625320D01*
X112554284Y-95759540D01*
X112534475Y-95789186D01*
X112524207Y-95813974D01*
X112459056Y-95971261D01*
X112459055Y-95971262D01*
X112420606Y-96164557D01*
X112420606Y-96361642D01*
X112450452Y-96511685D01*
X112459055Y-96554936D01*
X112534475Y-96737014D01*
X112643967Y-96900881D01*
X112783325Y-97040239D01*
X112947192Y-97149731D01*
X113129270Y-97225151D01*
X113322566Y-97263600D01*
X113322567Y-97263600D01*
X113519645Y-97263600D01*
X113519646Y-97263600D01*
X113712942Y-97225151D01*
X113895020Y-97149731D01*
X114058887Y-97040239D01*
X114763931Y-96335195D01*
X114873423Y-96171328D01*
X114948843Y-95989250D01*
X114987292Y-95795954D01*
X114987292Y-95742105D01*
X115007294Y-95673984D01*
X115060950Y-95627491D01*
X115131224Y-95617387D01*
X115157326Y-95624050D01*
X115230905Y-95651494D01*
X115291402Y-95657999D01*
X115291415Y-95658000D01*
X115986000Y-95658000D01*
X115986000Y-94622968D01*
X116066306Y-94669333D01*
X116180756Y-94700000D01*
X116299244Y-94700000D01*
X116413694Y-94669333D01*
X116494000Y-94622968D01*
X116494000Y-95658000D01*
X117188585Y-95658000D01*
X117188597Y-95657999D01*
X117249093Y-95651494D01*
X117385964Y-95600444D01*
X117385965Y-95600444D01*
X117502904Y-95512904D01*
X117590444Y-95395965D01*
X117590444Y-95395964D01*
X117641494Y-95259093D01*
X117647999Y-95198597D01*
X117648000Y-95198585D01*
X117648000Y-94953072D01*
X117668002Y-94884951D01*
X117721658Y-94838458D01*
X117791932Y-94828354D01*
X117856512Y-94857848D01*
X117874550Y-94877140D01*
X117963234Y-94994578D01*
X118113959Y-95131981D01*
X118113960Y-95131982D01*
X118287351Y-95239341D01*
X118287354Y-95239342D01*
X118287363Y-95239348D01*
X118477544Y-95313024D01*
X118678024Y-95350500D01*
X118678026Y-95350500D01*
X118881974Y-95350500D01*
X118881976Y-95350500D01*
X119082456Y-95313024D01*
X119272637Y-95239348D01*
X119446041Y-95131981D01*
X119596764Y-94994579D01*
X119607571Y-94980269D01*
X119650279Y-94923714D01*
X119719673Y-94831821D01*
X119810582Y-94649250D01*
X119866397Y-94453083D01*
X119885215Y-94250000D01*
X119884887Y-94246459D01*
X119885215Y-94244782D01*
X119885215Y-94244175D01*
X119885334Y-94244175D01*
X119898517Y-94176783D01*
X119947653Y-94125537D01*
X120016695Y-94108991D01*
X120083722Y-94132398D01*
X120099444Y-94145736D01*
X120322424Y-94368716D01*
X120378373Y-94424665D01*
X120446895Y-94464226D01*
X120446897Y-94464226D01*
X120446898Y-94464227D01*
X120523318Y-94484704D01*
X120523322Y-94484705D01*
X121281368Y-94484705D01*
X121349489Y-94504707D01*
X121395982Y-94558363D01*
X121404946Y-94586122D01*
X121439311Y-94758884D01*
X121514731Y-94940962D01*
X121624223Y-95104829D01*
X121763581Y-95244187D01*
X121927448Y-95353679D01*
X122109526Y-95429099D01*
X122302822Y-95467548D01*
X122302823Y-95467548D01*
X122499901Y-95467548D01*
X122499902Y-95467548D01*
X122693198Y-95429099D01*
X122693204Y-95429096D01*
X122693209Y-95429095D01*
X122799921Y-95384893D01*
X122870511Y-95377303D01*
X122933998Y-95409082D01*
X122937235Y-95412206D01*
X124935933Y-97410904D01*
X124969959Y-97473216D01*
X124964894Y-97544031D01*
X124935934Y-97589094D01*
X124667434Y-97857595D01*
X124605121Y-97891620D01*
X124578338Y-97894500D01*
X123605434Y-97894500D01*
X123529011Y-97914978D01*
X123521384Y-97918138D01*
X123520568Y-97916169D01*
X123462574Y-97930236D01*
X123395484Y-97907012D01*
X123351599Y-97851203D01*
X123344854Y-97780527D01*
X123347383Y-97769908D01*
X123366397Y-97703083D01*
X123385215Y-97500000D01*
X123366397Y-97296917D01*
X123310582Y-97100750D01*
X123219673Y-96918179D01*
X123185449Y-96872859D01*
X123096765Y-96755421D01*
X122946040Y-96618018D01*
X122946039Y-96618017D01*
X122772648Y-96510658D01*
X122772641Y-96510654D01*
X122772637Y-96510652D01*
X122656133Y-96465518D01*
X122582457Y-96436976D01*
X122515629Y-96424484D01*
X122381976Y-96399500D01*
X122178024Y-96399500D01*
X122077784Y-96418238D01*
X121977542Y-96436976D01*
X121850582Y-96486161D01*
X121787363Y-96510652D01*
X121787362Y-96510652D01*
X121787361Y-96510653D01*
X121787351Y-96510658D01*
X121613960Y-96618017D01*
X121613959Y-96618018D01*
X121463234Y-96755421D01*
X121374550Y-96872859D01*
X121317536Y-96915167D01*
X121246700Y-96919934D01*
X121184531Y-96885647D01*
X121150768Y-96823193D01*
X121148000Y-96796927D01*
X121148000Y-96551414D01*
X121147999Y-96551402D01*
X121141494Y-96490906D01*
X121090444Y-96354035D01*
X121090444Y-96354034D01*
X121002904Y-96237095D01*
X120885965Y-96149555D01*
X120749093Y-96098505D01*
X120688597Y-96092000D01*
X119994000Y-96092000D01*
X119994000Y-97127031D01*
X119913694Y-97080667D01*
X119799244Y-97050000D01*
X119680756Y-97050000D01*
X119566306Y-97080667D01*
X119486000Y-97127031D01*
X119486000Y-96092000D01*
X118791402Y-96092000D01*
X118730906Y-96098505D01*
X118594035Y-96149555D01*
X118594034Y-96149555D01*
X118477095Y-96237095D01*
X118389555Y-96354034D01*
X118389555Y-96354035D01*
X118338505Y-96490906D01*
X118332000Y-96551402D01*
X118332000Y-97246000D01*
X119367032Y-97246000D01*
X119320667Y-97326306D01*
X119290000Y-97440756D01*
X119290000Y-97559244D01*
X119320667Y-97673694D01*
X119367032Y-97754000D01*
X118332000Y-97754000D01*
X118332000Y-98323511D01*
X118311998Y-98391632D01*
X118258342Y-98438125D01*
X118188068Y-98448229D01*
X118123488Y-98418735D01*
X118116905Y-98412606D01*
X117706712Y-98002413D01*
X117706708Y-98002410D01*
X117706705Y-98002407D01*
X117657125Y-97969279D01*
X117657124Y-97969278D01*
X117578894Y-97953718D01*
X117500660Y-97969279D01*
X117451086Y-98002404D01*
X117451077Y-98002411D01*
X115726103Y-99727385D01*
X115726096Y-99727394D01*
X115692971Y-99776968D01*
X115677410Y-99855201D01*
X115677410Y-99855202D01*
X115692970Y-99933432D01*
X115692971Y-99933433D01*
X115726099Y-99983013D01*
X115726102Y-99983016D01*
X115726105Y-99983020D01*
X116877490Y-101134405D01*
X116911516Y-101196717D01*
X116906451Y-101267532D01*
X116863904Y-101324368D01*
X116797384Y-101349179D01*
X116788395Y-101349500D01*
X116326661Y-101349500D01*
X116258540Y-101329498D01*
X116237566Y-101312595D01*
X112885580Y-97960608D01*
X114216657Y-97960608D01*
X114216657Y-98157693D01*
X114251806Y-98334396D01*
X114255106Y-98350987D01*
X114330526Y-98533065D01*
X114440018Y-98696932D01*
X114579376Y-98836290D01*
X114743243Y-98945782D01*
X114925321Y-99021202D01*
X115118617Y-99059651D01*
X115118618Y-99059651D01*
X115315696Y-99059651D01*
X115315697Y-99059651D01*
X115508993Y-99021202D01*
X115691071Y-98945782D01*
X115854938Y-98836290D01*
X116559982Y-98131246D01*
X116669474Y-97967379D01*
X116744894Y-97785301D01*
X116783343Y-97592005D01*
X116783343Y-97394925D01*
X116744894Y-97201629D01*
X116669474Y-97019551D01*
X116559982Y-96855684D01*
X116420624Y-96716326D01*
X116256757Y-96606834D01*
X116074680Y-96531414D01*
X115881385Y-96492965D01*
X115881383Y-96492965D01*
X115684303Y-96492965D01*
X115684300Y-96492965D01*
X115491005Y-96531414D01*
X115491004Y-96531415D01*
X115424742Y-96558862D01*
X115316078Y-96603873D01*
X115308927Y-96606835D01*
X115145063Y-96716325D01*
X115145057Y-96716330D01*
X114440022Y-97421365D01*
X114440017Y-97421371D01*
X114339915Y-97571186D01*
X114330526Y-97585237D01*
X114310690Y-97633126D01*
X114255107Y-97767312D01*
X114255106Y-97767313D01*
X114216657Y-97960608D01*
X112885580Y-97960608D01*
X110684517Y-95759545D01*
X110684507Y-95759537D01*
X110651462Y-95740459D01*
X110651461Y-95740459D01*
X110615986Y-95719977D01*
X110539565Y-95699500D01*
X110539562Y-95699500D01*
X109547812Y-95699500D01*
X109479691Y-95679498D01*
X109433198Y-95625842D01*
X109431341Y-95620928D01*
X109431184Y-95620994D01*
X109428814Y-95615273D01*
X109420888Y-95600444D01*
X109335910Y-95441462D01*
X109210883Y-95289117D01*
X109058538Y-95164090D01*
X109013293Y-95139906D01*
X108884728Y-95071186D01*
X108696125Y-95013974D01*
X108500003Y-94994659D01*
X108499997Y-94994659D01*
X108303875Y-95013974D01*
X108303873Y-95013974D01*
X108115271Y-95071186D01*
X107941461Y-95164090D01*
X107789117Y-95289117D01*
X107664090Y-95441461D01*
X107571186Y-95615271D01*
X107513974Y-95803873D01*
X107513974Y-95803875D01*
X107494659Y-95999996D01*
X107494659Y-96000003D01*
X107513974Y-96196124D01*
X107513974Y-96196126D01*
X107571186Y-96384728D01*
X107639217Y-96512004D01*
X107664090Y-96558538D01*
X107789117Y-96710883D01*
X107941462Y-96835910D01*
X108115273Y-96928814D01*
X108303868Y-96986024D01*
X108303872Y-96986024D01*
X108303874Y-96986025D01*
X108499997Y-97005341D01*
X108500000Y-97005341D01*
X108500003Y-97005341D01*
X108696124Y-96986025D01*
X108696126Y-96986025D01*
X108696127Y-96986024D01*
X108696132Y-96986024D01*
X108884727Y-96928814D01*
X109058538Y-96835910D01*
X109210883Y-96710883D01*
X109335910Y-96558538D01*
X109428814Y-96384727D01*
X109428815Y-96384723D01*
X109431184Y-96379006D01*
X109433714Y-96380054D01*
X109466125Y-96330567D01*
X109530958Y-96301632D01*
X109547812Y-96300500D01*
X110323339Y-96300500D01*
X110391460Y-96320502D01*
X110412434Y-96337405D01*
X114659434Y-100584405D01*
X114693460Y-100646717D01*
X114688395Y-100717532D01*
X114645848Y-100774368D01*
X114579328Y-100799179D01*
X114570339Y-100799500D01*
X111810733Y-100799500D01*
X111742612Y-100779498D01*
X111696119Y-100725842D01*
X111688591Y-100704438D01*
X111675685Y-100653474D01*
X111584450Y-100445479D01*
X111531572Y-100364543D01*
X111460224Y-100255336D01*
X111306402Y-100088240D01*
X111292810Y-100077661D01*
X111127161Y-99948731D01*
X111127160Y-99948730D01*
X110927409Y-99840630D01*
X110927407Y-99840629D01*
X110712595Y-99766885D01*
X110712588Y-99766883D01*
X110616710Y-99750884D01*
X110488563Y-99729500D01*
X110261437Y-99729500D01*
X110149322Y-99748208D01*
X110037411Y-99766883D01*
X110037404Y-99766885D01*
X109822592Y-99840629D01*
X109822590Y-99840630D01*
X109622839Y-99948730D01*
X109622838Y-99948731D01*
X109443597Y-100088240D01*
X109289775Y-100255336D01*
X109165549Y-100445479D01*
X109074316Y-100653470D01*
X109074313Y-100653477D01*
X109018560Y-100873642D01*
X109018559Y-100873648D01*
X109018559Y-100873650D01*
X108999803Y-101100000D01*
X109017419Y-101312595D01*
X109018560Y-101326357D01*
X109074313Y-101546522D01*
X109074316Y-101546529D01*
X109165549Y-101754520D01*
X109289775Y-101944663D01*
X109443597Y-102111759D01*
X109443602Y-102111763D01*
X109443604Y-102111765D01*
X109622838Y-102251268D01*
X109622839Y-102251269D01*
X109822590Y-102359369D01*
X109822592Y-102359370D01*
X109928821Y-102395838D01*
X110037409Y-102433116D01*
X110261437Y-102470500D01*
X110261441Y-102470500D01*
X110488559Y-102470500D01*
X110488563Y-102470500D01*
X110712591Y-102433116D01*
X110927410Y-102359369D01*
X111127161Y-102251269D01*
X111306396Y-102111765D01*
X111358253Y-102055434D01*
X111460224Y-101944663D01*
X111482552Y-101910487D01*
X111584450Y-101754521D01*
X111675685Y-101546526D01*
X111688589Y-101495567D01*
X111724701Y-101434443D01*
X111788128Y-101402544D01*
X111810733Y-101400500D01*
X114673339Y-101400500D01*
X114741460Y-101420502D01*
X114762434Y-101437405D01*
X115559540Y-102234511D01*
X115615489Y-102290460D01*
X115684011Y-102330021D01*
X115684013Y-102330021D01*
X115684014Y-102330022D01*
X115723603Y-102340630D01*
X115760438Y-102350500D01*
X121889562Y-102350500D01*
X121965989Y-102330021D01*
X122034511Y-102290460D01*
X122090460Y-102234511D01*
X122565460Y-101759511D01*
X122597007Y-101704869D01*
X122605021Y-101690989D01*
X122616979Y-101646360D01*
X122653929Y-101585740D01*
X122717789Y-101554718D01*
X122788284Y-101563146D01*
X122814195Y-101578106D01*
X122844033Y-101600443D01*
X122844035Y-101600444D01*
X122980906Y-101651494D01*
X123041402Y-101657999D01*
X123041415Y-101658000D01*
X123736000Y-101658000D01*
X123736000Y-100622968D01*
X123816306Y-100669333D01*
X123930756Y-100700000D01*
X124049244Y-100700000D01*
X124163694Y-100669333D01*
X124244000Y-100622968D01*
X124244000Y-101658000D01*
X124938585Y-101658000D01*
X124938597Y-101657999D01*
X124999093Y-101651494D01*
X125135964Y-101600444D01*
X125135965Y-101600444D01*
X125252904Y-101512904D01*
X125340444Y-101395965D01*
X125340444Y-101395964D01*
X125391494Y-101259093D01*
X125397999Y-101198597D01*
X125398000Y-101198585D01*
X125398000Y-100953072D01*
X125418002Y-100884951D01*
X125471658Y-100838458D01*
X125541932Y-100828354D01*
X125606512Y-100857848D01*
X125624550Y-100877140D01*
X125713234Y-100994578D01*
X125863959Y-101131981D01*
X125863960Y-101131982D01*
X126037351Y-101239341D01*
X126037354Y-101239342D01*
X126037363Y-101239348D01*
X126227544Y-101313024D01*
X126428024Y-101350500D01*
X126428026Y-101350500D01*
X126631974Y-101350500D01*
X126631976Y-101350500D01*
X126832456Y-101313024D01*
X127022637Y-101239348D01*
X127196041Y-101131981D01*
X127346764Y-100994579D01*
X127469673Y-100831821D01*
X127560582Y-100649250D01*
X127616397Y-100453083D01*
X127624601Y-100364538D01*
X127650802Y-100298558D01*
X127708518Y-100257213D01*
X127779424Y-100253636D01*
X127839158Y-100287072D01*
X128195641Y-100643555D01*
X128251590Y-100699504D01*
X128320112Y-100739065D01*
X128320114Y-100739065D01*
X128320115Y-100739066D01*
X128396535Y-100759543D01*
X128396539Y-100759544D01*
X128475663Y-100759544D01*
X130744194Y-100759544D01*
X130812315Y-100779546D01*
X130843182Y-100809868D01*
X130843994Y-100809202D01*
X130847914Y-100813979D01*
X130847916Y-100813982D01*
X131552960Y-101519026D01*
X131716827Y-101628518D01*
X131898905Y-101703938D01*
X132092201Y-101742387D01*
X132092202Y-101742387D01*
X132289280Y-101742387D01*
X132289281Y-101742387D01*
X132482577Y-101703938D01*
X132664655Y-101628518D01*
X132828522Y-101519026D01*
X132967880Y-101379668D01*
X133077372Y-101215801D01*
X133152792Y-101033723D01*
X133187156Y-100860962D01*
X133220064Y-100798053D01*
X133281759Y-100762921D01*
X133310735Y-100759544D01*
X136524883Y-100759544D01*
X136601310Y-100739065D01*
X136669832Y-100699504D01*
X136725781Y-100643555D01*
X138795047Y-98574287D01*
X138857357Y-98540264D01*
X138928172Y-98545328D01*
X138985008Y-98587875D01*
X139009533Y-98651033D01*
X139013974Y-98696124D01*
X139013974Y-98696126D01*
X139071187Y-98884731D01*
X139073554Y-98890444D01*
X139071020Y-98891493D01*
X139083103Y-98949383D01*
X139057731Y-99015691D01*
X139046599Y-99028428D01*
X137464939Y-100610090D01*
X136970489Y-101104540D01*
X136943048Y-101131981D01*
X136914541Y-101160487D01*
X136914539Y-101160490D01*
X136874977Y-101229014D01*
X136854500Y-101305434D01*
X136854500Y-102217784D01*
X136834498Y-102285905D01*
X136787896Y-102328906D01*
X136662675Y-102395838D01*
X136516117Y-102516117D01*
X136395838Y-102662675D01*
X136306463Y-102829884D01*
X136251425Y-103011323D01*
X136232843Y-103199997D01*
X136232843Y-103200002D01*
X136251425Y-103388676D01*
X136251426Y-103388682D01*
X136251427Y-103388683D01*
X136306463Y-103570115D01*
X136395838Y-103737324D01*
X136516117Y-103883883D01*
X136662676Y-104004162D01*
X136829885Y-104093537D01*
X137011317Y-104148573D01*
X137011321Y-104148573D01*
X137011323Y-104148574D01*
X137199997Y-104167157D01*
X137200000Y-104167157D01*
X137200003Y-104167157D01*
X137388676Y-104148574D01*
X137388677Y-104148573D01*
X137388683Y-104148573D01*
X137570115Y-104093537D01*
X137737324Y-104004162D01*
X137883883Y-103883883D01*
X138004162Y-103737324D01*
X138093537Y-103570115D01*
X138148573Y-103388683D01*
X138150055Y-103373642D01*
X138167157Y-103200002D01*
X138167157Y-103199997D01*
X138148574Y-103011323D01*
X138148573Y-103011321D01*
X138148573Y-103011317D01*
X138093537Y-102829885D01*
X138004162Y-102662676D01*
X137883883Y-102516117D01*
X137737324Y-102395838D01*
X137669097Y-102359370D01*
X137570114Y-102306462D01*
X137544922Y-102298820D01*
X137485541Y-102259903D01*
X137456627Y-102195061D01*
X137455500Y-102178246D01*
X137455500Y-101521660D01*
X137475502Y-101453539D01*
X137492400Y-101432570D01*
X139471571Y-99453398D01*
X139533881Y-99419375D01*
X139604696Y-99424439D01*
X139609494Y-99426604D01*
X139609560Y-99426447D01*
X139615266Y-99428810D01*
X139615273Y-99428814D01*
X139803868Y-99486024D01*
X139803872Y-99486024D01*
X139803874Y-99486025D01*
X139999997Y-99505341D01*
X140000000Y-99505341D01*
X140000003Y-99505341D01*
X140196124Y-99486025D01*
X140196126Y-99486025D01*
X140196127Y-99486024D01*
X140196132Y-99486024D01*
X140384727Y-99428814D01*
X140558538Y-99335910D01*
X140710883Y-99210883D01*
X140835910Y-99058538D01*
X140928814Y-98884727D01*
X140986024Y-98696132D01*
X140986025Y-98696124D01*
X141005341Y-98500003D01*
X141005341Y-98499996D01*
X141494659Y-98499996D01*
X141494659Y-98500003D01*
X141513974Y-98696124D01*
X141513974Y-98696126D01*
X141571186Y-98884728D01*
X141630607Y-98995896D01*
X141664090Y-99058538D01*
X141789117Y-99210883D01*
X141941462Y-99335910D01*
X142115273Y-99428814D01*
X142303868Y-99486024D01*
X142303872Y-99486024D01*
X142303874Y-99486025D01*
X142499997Y-99505341D01*
X142500000Y-99505341D01*
X142500003Y-99505341D01*
X142696124Y-99486025D01*
X142696126Y-99486025D01*
X142696127Y-99486024D01*
X142696132Y-99486024D01*
X142884727Y-99428814D01*
X143058538Y-99335910D01*
X143210883Y-99210883D01*
X143335910Y-99058538D01*
X143428814Y-98884727D01*
X143486024Y-98696132D01*
X143486025Y-98696124D01*
X143505341Y-98500003D01*
X143505341Y-98499996D01*
X143486025Y-98303875D01*
X143486025Y-98303873D01*
X143486024Y-98303870D01*
X143486024Y-98303868D01*
X143428814Y-98115273D01*
X143335910Y-97941462D01*
X143210883Y-97789117D01*
X143058538Y-97664090D01*
X143005815Y-97635909D01*
X142884728Y-97571186D01*
X142696125Y-97513974D01*
X142500003Y-97494659D01*
X142499997Y-97494659D01*
X142303875Y-97513974D01*
X142303873Y-97513974D01*
X142115271Y-97571186D01*
X141941461Y-97664090D01*
X141789117Y-97789117D01*
X141664090Y-97941461D01*
X141571186Y-98115271D01*
X141513974Y-98303873D01*
X141513974Y-98303875D01*
X141494659Y-98499996D01*
X141005341Y-98499996D01*
X140986025Y-98303875D01*
X140986025Y-98303873D01*
X140986024Y-98303870D01*
X140986024Y-98303868D01*
X140928814Y-98115273D01*
X140835910Y-97941462D01*
X140710883Y-97789117D01*
X140558538Y-97664090D01*
X140505815Y-97635909D01*
X140384728Y-97571186D01*
X140196125Y-97513974D01*
X140151033Y-97509533D01*
X140085201Y-97482950D01*
X140044191Y-97424995D01*
X140041025Y-97354069D01*
X140074287Y-97295047D01*
X143701931Y-93667405D01*
X143764243Y-93633379D01*
X143791026Y-93630500D01*
X147702188Y-93630500D01*
X147770309Y-93650502D01*
X147816802Y-93704158D01*
X147818658Y-93709071D01*
X147818816Y-93709006D01*
X147821185Y-93714726D01*
X147898940Y-93860195D01*
X147914090Y-93888538D01*
X148039117Y-94040883D01*
X148191462Y-94165910D01*
X148365273Y-94258814D01*
X148553868Y-94316024D01*
X148553872Y-94316024D01*
X148553874Y-94316025D01*
X148749997Y-94335341D01*
X148750000Y-94335341D01*
X148750003Y-94335341D01*
X148946124Y-94316025D01*
X148946126Y-94316025D01*
X148946127Y-94316024D01*
X148946132Y-94316024D01*
X149134727Y-94258814D01*
X149308538Y-94165910D01*
X149460883Y-94040883D01*
X149585910Y-93888538D01*
X149678814Y-93714727D01*
X149736024Y-93526132D01*
X149738505Y-93500939D01*
X149755341Y-93330003D01*
X149755341Y-93329996D01*
X149736025Y-93133875D01*
X149736025Y-93133873D01*
X149736024Y-93133870D01*
X149736024Y-93133868D01*
X149678814Y-92945273D01*
X149585910Y-92771462D01*
X149460883Y-92619117D01*
X149308538Y-92494090D01*
X149134728Y-92401186D01*
X149000674Y-92360521D01*
X148946132Y-92343976D01*
X148946131Y-92343975D01*
X148946125Y-92343974D01*
X148750003Y-92324659D01*
X148749997Y-92324659D01*
X148553875Y-92343974D01*
X148553873Y-92343974D01*
X148365271Y-92401186D01*
X148191461Y-92494090D01*
X148039117Y-92619117D01*
X147914090Y-92771461D01*
X147821185Y-92945273D01*
X147818816Y-92950994D01*
X147816285Y-92949945D01*
X147783875Y-92999433D01*
X147719042Y-93028368D01*
X147702188Y-93029500D01*
X143653927Y-93029500D01*
X143574803Y-93029500D01*
X143542681Y-93038107D01*
X143498379Y-93049977D01*
X143498372Y-93049980D01*
X143429857Y-93089537D01*
X143429847Y-93089545D01*
X142061755Y-94457637D01*
X141999443Y-94491663D01*
X141928627Y-94486598D01*
X141871792Y-94444051D01*
X141846981Y-94377531D01*
X141862072Y-94308157D01*
X141863522Y-94305575D01*
X141895062Y-94250948D01*
X141915540Y-94174522D01*
X141915540Y-94095398D01*
X141915540Y-93968415D01*
X141935542Y-93900294D01*
X141952445Y-93879320D01*
X141957504Y-93874261D01*
X141963568Y-93868197D01*
X142024759Y-93748103D01*
X142045844Y-93614977D01*
X142024759Y-93481851D01*
X141963568Y-93361757D01*
X141868260Y-93266449D01*
X141868258Y-93266448D01*
X141860234Y-93260618D01*
X141862451Y-93257565D01*
X141824462Y-93221706D01*
X141807377Y-93152795D01*
X141830260Y-93085588D01*
X141844162Y-93069068D01*
X146990460Y-87922772D01*
X147003896Y-87899500D01*
X147030021Y-87854250D01*
X147050500Y-87777823D01*
X147050500Y-87103438D01*
X147070502Y-87035317D01*
X147087405Y-87014343D01*
X147092757Y-87008991D01*
X147098528Y-87003220D01*
X147159719Y-86883126D01*
X147180804Y-86750000D01*
X147159719Y-86616874D01*
X147098528Y-86496780D01*
X147003220Y-86401472D01*
X147003219Y-86401471D01*
X146941382Y-86369964D01*
X146883126Y-86340281D01*
X146754870Y-86319967D01*
X146690719Y-86289555D01*
X146653192Y-86229287D01*
X146654206Y-86158298D01*
X146685485Y-86106426D01*
X146944378Y-85847533D01*
X147006687Y-85813511D01*
X147077502Y-85818575D01*
X147122565Y-85847536D01*
X151362595Y-90087566D01*
X151396621Y-90149878D01*
X151399500Y-90176661D01*
X151399500Y-96088650D01*
X151379498Y-96156771D01*
X151325842Y-96203264D01*
X151255568Y-96213368D01*
X151190988Y-96183874D01*
X151176101Y-96168584D01*
X151110883Y-96089117D01*
X150958538Y-95964090D01*
X150784728Y-95871186D01*
X150596125Y-95813974D01*
X150400003Y-95794659D01*
X150399997Y-95794659D01*
X150203875Y-95813974D01*
X150203873Y-95813974D01*
X150015271Y-95871186D01*
X149841461Y-95964090D01*
X149689117Y-96089117D01*
X149564090Y-96241461D01*
X149471186Y-96415271D01*
X149413974Y-96603873D01*
X149413974Y-96603875D01*
X149394659Y-96799996D01*
X149394659Y-96800003D01*
X149413974Y-96996124D01*
X149413974Y-96996126D01*
X149471186Y-97184728D01*
X149526279Y-97287799D01*
X149564090Y-97358538D01*
X149689117Y-97510883D01*
X149841462Y-97635910D01*
X150015273Y-97728814D01*
X150203868Y-97786024D01*
X150203872Y-97786024D01*
X150203874Y-97786025D01*
X150399997Y-97805341D01*
X150400000Y-97805341D01*
X150400003Y-97805341D01*
X150596124Y-97786025D01*
X150596126Y-97786025D01*
X150596127Y-97786024D01*
X150596132Y-97786024D01*
X150784727Y-97728814D01*
X150958538Y-97635910D01*
X151110883Y-97510883D01*
X151176101Y-97431414D01*
X151234778Y-97391446D01*
X151305749Y-97389546D01*
X151366482Y-97426317D01*
X151397693Y-97490085D01*
X151399500Y-97511349D01*
X151399500Y-103373339D01*
X151379498Y-103441460D01*
X151362595Y-103462434D01*
X149662434Y-105162595D01*
X149600122Y-105196621D01*
X149573339Y-105199500D01*
X149427942Y-105199500D01*
X149359821Y-105179498D01*
X149313328Y-105125842D01*
X149303224Y-105055568D01*
X149332718Y-104990988D01*
X149388722Y-104954641D01*
X149388620Y-104954393D01*
X149389963Y-104953836D01*
X149391368Y-104952925D01*
X149392375Y-104952619D01*
X149394341Y-104952023D01*
X149572494Y-104856798D01*
X149572495Y-104856796D01*
X149572497Y-104856796D01*
X149572497Y-104856795D01*
X149728647Y-104728647D01*
X149856798Y-104572494D01*
X149952023Y-104394341D01*
X150010662Y-104201033D01*
X150011738Y-104190116D01*
X150030462Y-104000003D01*
X150030462Y-103999996D01*
X150010663Y-103798973D01*
X150010662Y-103798971D01*
X150010662Y-103798967D01*
X149952023Y-103605659D01*
X149856798Y-103427506D01*
X149856796Y-103427502D01*
X149728647Y-103271352D01*
X149572497Y-103143204D01*
X149572497Y-103143203D01*
X149394341Y-103047977D01*
X149201026Y-102989336D01*
X149000003Y-102969538D01*
X148999997Y-102969538D01*
X148798973Y-102989336D01*
X148605658Y-103047977D01*
X148427502Y-103143203D01*
X148427502Y-103143204D01*
X148271352Y-103271352D01*
X148143204Y-103427502D01*
X148143203Y-103427502D01*
X148047977Y-103605658D01*
X147989336Y-103798973D01*
X147969538Y-103999996D01*
X147969538Y-104000003D01*
X147989336Y-104201026D01*
X147989337Y-104201032D01*
X147989338Y-104201033D01*
X148020534Y-104303873D01*
X148047977Y-104394341D01*
X148143203Y-104572497D01*
X148271352Y-104728647D01*
X148427502Y-104856795D01*
X148427502Y-104856796D01*
X148605659Y-104952023D01*
X148608632Y-104952925D01*
X148609999Y-104953821D01*
X148611380Y-104954393D01*
X148611271Y-104954654D01*
X148668014Y-104991839D01*
X148696930Y-105056680D01*
X148686201Y-105126861D01*
X148639232Y-105180100D01*
X148572058Y-105199500D01*
X140014562Y-105199500D01*
X139935438Y-105199500D01*
X139896856Y-105209838D01*
X139859014Y-105219977D01*
X139859007Y-105219980D01*
X139790492Y-105259537D01*
X139790482Y-105259545D01*
X138512434Y-106537595D01*
X138450122Y-106571620D01*
X138423339Y-106574500D01*
X137059661Y-106574500D01*
X136991540Y-106554498D01*
X136945047Y-106500842D01*
X136934943Y-106430568D01*
X136964437Y-106365988D01*
X136970566Y-106359405D01*
X137526592Y-105803379D01*
X139204783Y-104125186D01*
X139267093Y-104091163D01*
X139330448Y-104093707D01*
X139511317Y-104148573D01*
X139511321Y-104148573D01*
X139511323Y-104148574D01*
X139699997Y-104167157D01*
X139700000Y-104167157D01*
X139700003Y-104167157D01*
X139888676Y-104148574D01*
X139888677Y-104148573D01*
X139888683Y-104148573D01*
X140070115Y-104093537D01*
X140237324Y-104004162D01*
X140383883Y-103883883D01*
X140504162Y-103737324D01*
X140593537Y-103570115D01*
X140648573Y-103388683D01*
X140650055Y-103373642D01*
X140667157Y-103200002D01*
X140667157Y-103199997D01*
X141232843Y-103199997D01*
X141232843Y-103200002D01*
X141251425Y-103388676D01*
X141251426Y-103388682D01*
X141251427Y-103388683D01*
X141306463Y-103570115D01*
X141395838Y-103737324D01*
X141516117Y-103883883D01*
X141662676Y-104004162D01*
X141829885Y-104093537D01*
X142011317Y-104148573D01*
X142011321Y-104148573D01*
X142011323Y-104148574D01*
X142199997Y-104167157D01*
X142200000Y-104167157D01*
X142200003Y-104167157D01*
X142388676Y-104148574D01*
X142388677Y-104148573D01*
X142388683Y-104148573D01*
X142570115Y-104093537D01*
X142737324Y-104004162D01*
X142883883Y-103883883D01*
X143004162Y-103737324D01*
X143093537Y-103570115D01*
X143148573Y-103388683D01*
X143150055Y-103373642D01*
X143167157Y-103200002D01*
X143167157Y-103199997D01*
X143148574Y-103011323D01*
X143148573Y-103011321D01*
X143148573Y-103011317D01*
X143093537Y-102829885D01*
X143004162Y-102662676D01*
X142883883Y-102516117D01*
X142737324Y-102395838D01*
X142588563Y-102316323D01*
X142537915Y-102266571D01*
X142522205Y-102197334D01*
X142546421Y-102130595D01*
X142558857Y-102116113D01*
X145640460Y-99034511D01*
X145662754Y-98995896D01*
X145662755Y-98995895D01*
X145680018Y-98965994D01*
X145680017Y-98965994D01*
X145680021Y-98965989D01*
X145700500Y-98889562D01*
X145700500Y-97847812D01*
X145720502Y-97779691D01*
X145774158Y-97733198D01*
X145779071Y-97731341D01*
X145779006Y-97731184D01*
X145784723Y-97728815D01*
X145784727Y-97728814D01*
X145958538Y-97635910D01*
X146110883Y-97510883D01*
X146235910Y-97358538D01*
X146328814Y-97184727D01*
X146386024Y-96996132D01*
X146386025Y-96996124D01*
X146405341Y-96800003D01*
X146405341Y-96799996D01*
X146386025Y-96603875D01*
X146386025Y-96603873D01*
X146386024Y-96603870D01*
X146386024Y-96603868D01*
X146328814Y-96415273D01*
X146235910Y-96241462D01*
X146110883Y-96089117D01*
X145958538Y-95964090D01*
X145898665Y-95932087D01*
X145784728Y-95871186D01*
X145596125Y-95813974D01*
X145400003Y-95794659D01*
X145399997Y-95794659D01*
X145203875Y-95813974D01*
X145203873Y-95813974D01*
X145015271Y-95871186D01*
X144841461Y-95964090D01*
X144689117Y-96089117D01*
X144564090Y-96241461D01*
X144471186Y-96415271D01*
X144413974Y-96603873D01*
X144413974Y-96603875D01*
X144394659Y-96799996D01*
X144394659Y-96800003D01*
X144413974Y-96996124D01*
X144413974Y-96996126D01*
X144471186Y-97184728D01*
X144526279Y-97287799D01*
X144564090Y-97358538D01*
X144689117Y-97510883D01*
X144841462Y-97635910D01*
X144912151Y-97673694D01*
X145015273Y-97728814D01*
X145020994Y-97731184D01*
X145019945Y-97733714D01*
X145069433Y-97766125D01*
X145098368Y-97830958D01*
X145099500Y-97847812D01*
X145099500Y-98673339D01*
X145079498Y-98741460D01*
X145062595Y-98762434D01*
X141970489Y-101854540D01*
X141942515Y-101882514D01*
X141914541Y-101910487D01*
X141914539Y-101910490D01*
X141874977Y-101979014D01*
X141854500Y-102055434D01*
X141854500Y-102217784D01*
X141834498Y-102285905D01*
X141787896Y-102328906D01*
X141662675Y-102395838D01*
X141516117Y-102516117D01*
X141395838Y-102662675D01*
X141306463Y-102829884D01*
X141251425Y-103011323D01*
X141232843Y-103199997D01*
X140667157Y-103199997D01*
X140648574Y-103011323D01*
X140648573Y-103011321D01*
X140648573Y-103011317D01*
X140593537Y-102829885D01*
X140504162Y-102662676D01*
X140383883Y-102516117D01*
X140237324Y-102395838D01*
X140070115Y-102306463D01*
X139888683Y-102251427D01*
X139888682Y-102251426D01*
X139888676Y-102251425D01*
X139700003Y-102232843D01*
X139699997Y-102232843D01*
X139511323Y-102251425D01*
X139329884Y-102306463D01*
X139162675Y-102395838D01*
X139016117Y-102516117D01*
X138895838Y-102662675D01*
X138806463Y-102829884D01*
X138751425Y-103011323D01*
X138732843Y-103199997D01*
X138732843Y-103200002D01*
X138751425Y-103388676D01*
X138751426Y-103388682D01*
X138751427Y-103388683D01*
X138772635Y-103458597D01*
X138808260Y-103576039D01*
X138805772Y-103576793D01*
X138812121Y-103636138D01*
X138780309Y-103699609D01*
X138777230Y-103702797D01*
X136342434Y-106137595D01*
X136280122Y-106171620D01*
X136253339Y-106174500D01*
X122071661Y-106174500D01*
X122003540Y-106154498D01*
X121982566Y-106137595D01*
X120873400Y-105028429D01*
X120839374Y-104966117D01*
X120844439Y-104895302D01*
X120846601Y-104890520D01*
X120846442Y-104890454D01*
X120848808Y-104884737D01*
X120848814Y-104884727D01*
X120906024Y-104696132D01*
X120906719Y-104689076D01*
X120925341Y-104500003D01*
X120925341Y-104499996D01*
X120906025Y-104303875D01*
X120906025Y-104303873D01*
X120906024Y-104303870D01*
X120906024Y-104303868D01*
X120848814Y-104115273D01*
X120845723Y-104109491D01*
X120819796Y-104060985D01*
X120755910Y-103941462D01*
X120727162Y-103906433D01*
X120699409Y-103841087D01*
X120711390Y-103771109D01*
X120759303Y-103718717D01*
X120824562Y-103700500D01*
X128803339Y-103700500D01*
X128871460Y-103720502D01*
X128892434Y-103737405D01*
X129126599Y-103971570D01*
X129160625Y-104033882D01*
X129155560Y-104104697D01*
X129153398Y-104109491D01*
X129153554Y-104109556D01*
X129151187Y-104115268D01*
X129093974Y-104303873D01*
X129093974Y-104303875D01*
X129074659Y-104499996D01*
X129074659Y-104500003D01*
X129093974Y-104696124D01*
X129093974Y-104696126D01*
X129151186Y-104884728D01*
X129243097Y-105056680D01*
X129244090Y-105058538D01*
X129369117Y-105210883D01*
X129521462Y-105335910D01*
X129695273Y-105428814D01*
X129883868Y-105486024D01*
X129883872Y-105486024D01*
X129883874Y-105486025D01*
X130079997Y-105505341D01*
X130080000Y-105505341D01*
X130080003Y-105505341D01*
X130276124Y-105486025D01*
X130276126Y-105486025D01*
X130276127Y-105486024D01*
X130276132Y-105486024D01*
X130464727Y-105428814D01*
X130638538Y-105335910D01*
X130790883Y-105210883D01*
X130915910Y-105058538D01*
X131008814Y-104884727D01*
X131066024Y-104696132D01*
X131066719Y-104689076D01*
X131085341Y-104500003D01*
X131085341Y-104499996D01*
X131066025Y-104303875D01*
X131066025Y-104303873D01*
X131066024Y-104303870D01*
X131066024Y-104303868D01*
X131008814Y-104115273D01*
X131005723Y-104109491D01*
X130979796Y-104060985D01*
X130915910Y-103941462D01*
X130790883Y-103789117D01*
X130638538Y-103664090D01*
X130569288Y-103627075D01*
X130464728Y-103571186D01*
X130276125Y-103513974D01*
X130080003Y-103494659D01*
X130079997Y-103494659D01*
X129883875Y-103513974D01*
X129883873Y-103513974D01*
X129695268Y-103571187D01*
X129689556Y-103573554D01*
X129688517Y-103571047D01*
X129630459Y-103583090D01*
X129564182Y-103557636D01*
X129551570Y-103546599D01*
X129164510Y-103159539D01*
X129154007Y-103153476D01*
X129154002Y-103153473D01*
X129095986Y-103119977D01*
X129019565Y-103099500D01*
X129019562Y-103099500D01*
X114234330Y-103099500D01*
X114166209Y-103079498D01*
X114119716Y-103025842D01*
X114118943Y-103024114D01*
X114084450Y-102945479D01*
X113960224Y-102755336D01*
X113806402Y-102588240D01*
X113713738Y-102516117D01*
X113627161Y-102448731D01*
X113627160Y-102448730D01*
X113427409Y-102340630D01*
X113427407Y-102340629D01*
X113212595Y-102266885D01*
X113212588Y-102266883D01*
X113116710Y-102250884D01*
X112988563Y-102229500D01*
X112761437Y-102229500D01*
X112649322Y-102248208D01*
X112537411Y-102266883D01*
X112537404Y-102266885D01*
X112322592Y-102340629D01*
X112322590Y-102340630D01*
X112122839Y-102448730D01*
X112122838Y-102448731D01*
X111943597Y-102588240D01*
X111789775Y-102755336D01*
X111665549Y-102945479D01*
X111574316Y-103153470D01*
X111574315Y-103153473D01*
X111518560Y-103373642D01*
X111518559Y-103373648D01*
X111518559Y-103373650D01*
X111499803Y-103600000D01*
X111517709Y-103816095D01*
X111518560Y-103826357D01*
X111574313Y-104046522D01*
X111574316Y-104046529D01*
X111665549Y-104254520D01*
X111789775Y-104444663D01*
X111943597Y-104611759D01*
X111943602Y-104611763D01*
X111943604Y-104611765D01*
X112122838Y-104751268D01*
X112122839Y-104751269D01*
X112322590Y-104859369D01*
X112322592Y-104859370D01*
X112413138Y-104890454D01*
X112537409Y-104933116D01*
X112761437Y-104970500D01*
X112761441Y-104970500D01*
X112988559Y-104970500D01*
X112988563Y-104970500D01*
X113212591Y-104933116D01*
X113427410Y-104859369D01*
X113627161Y-104751269D01*
X113806396Y-104611765D01*
X113842548Y-104572494D01*
X113960224Y-104444663D01*
X114007093Y-104372925D01*
X114084450Y-104254521D01*
X114175685Y-104046526D01*
X114231441Y-103826350D01*
X114232290Y-103816092D01*
X114257849Y-103749859D01*
X114315161Y-103707956D01*
X114357860Y-103700500D01*
X119015438Y-103700500D01*
X119083559Y-103720502D01*
X119130052Y-103774158D01*
X119140156Y-103844432D01*
X119112837Y-103906434D01*
X119084090Y-103941461D01*
X118991186Y-104115271D01*
X118933974Y-104303873D01*
X118933974Y-104303875D01*
X118914659Y-104499996D01*
X118914659Y-104500003D01*
X118933974Y-104696124D01*
X118933974Y-104696126D01*
X118991186Y-104884728D01*
X119083097Y-105056680D01*
X119084090Y-105058538D01*
X119209117Y-105210883D01*
X119361462Y-105335910D01*
X119535273Y-105428814D01*
X119723868Y-105486024D01*
X119723872Y-105486024D01*
X119723874Y-105486025D01*
X119919997Y-105505341D01*
X119920000Y-105505341D01*
X119920003Y-105505341D01*
X120116124Y-105486025D01*
X120116126Y-105486024D01*
X120116132Y-105486024D01*
X120304727Y-105428814D01*
X120304737Y-105428808D01*
X120310454Y-105426442D01*
X120311514Y-105429001D01*
X120369238Y-105416885D01*
X120435576Y-105442180D01*
X120448429Y-105453400D01*
X121354434Y-106359405D01*
X121388460Y-106421717D01*
X121383395Y-106492532D01*
X121340848Y-106549368D01*
X121274328Y-106574179D01*
X121265339Y-106574500D01*
X107601661Y-106574500D01*
X107533540Y-106554498D01*
X107512566Y-106537595D01*
X104574971Y-103600000D01*
X106499803Y-103600000D01*
X106517709Y-103816095D01*
X106518560Y-103826357D01*
X106574313Y-104046522D01*
X106574316Y-104046529D01*
X106665549Y-104254520D01*
X106789775Y-104444663D01*
X106943597Y-104611759D01*
X106943602Y-104611763D01*
X106943604Y-104611765D01*
X107122838Y-104751268D01*
X107122839Y-104751269D01*
X107322590Y-104859369D01*
X107322592Y-104859370D01*
X107413138Y-104890454D01*
X107537409Y-104933116D01*
X107761437Y-104970500D01*
X107761441Y-104970500D01*
X107988559Y-104970500D01*
X107988563Y-104970500D01*
X108212591Y-104933116D01*
X108427410Y-104859369D01*
X108627161Y-104751269D01*
X108806396Y-104611765D01*
X108842548Y-104572494D01*
X108960224Y-104444663D01*
X109007093Y-104372925D01*
X109084450Y-104254521D01*
X109175685Y-104046526D01*
X109231441Y-103826350D01*
X109250197Y-103600000D01*
X109231441Y-103373650D01*
X109205536Y-103271352D01*
X109175685Y-103153473D01*
X109175683Y-103153470D01*
X109171179Y-103143203D01*
X109084450Y-102945479D01*
X109008928Y-102829884D01*
X108960224Y-102755336D01*
X108806402Y-102588240D01*
X108713738Y-102516117D01*
X108627161Y-102448731D01*
X108627160Y-102448730D01*
X108427409Y-102340630D01*
X108427407Y-102340629D01*
X108212595Y-102266885D01*
X108212588Y-102266883D01*
X108116710Y-102250884D01*
X107988563Y-102229500D01*
X107761437Y-102229500D01*
X107649322Y-102248208D01*
X107537411Y-102266883D01*
X107537404Y-102266885D01*
X107322592Y-102340629D01*
X107322590Y-102340630D01*
X107122839Y-102448730D01*
X107122838Y-102448731D01*
X106943597Y-102588240D01*
X106789775Y-102755336D01*
X106665549Y-102945479D01*
X106574316Y-103153470D01*
X106574315Y-103153473D01*
X106518560Y-103373642D01*
X106518559Y-103373648D01*
X106518559Y-103373650D01*
X106499803Y-103600000D01*
X104574971Y-103600000D01*
X103210851Y-102235880D01*
X103176825Y-102173568D01*
X103175500Y-102166513D01*
X103159719Y-102066874D01*
X103098528Y-101946780D01*
X103003220Y-101851472D01*
X103003219Y-101851471D01*
X102943173Y-101820876D01*
X102883126Y-101790281D01*
X102750000Y-101769196D01*
X102616874Y-101790281D01*
X102616872Y-101790281D01*
X102616872Y-101790282D01*
X102496780Y-101851471D01*
X102401471Y-101946780D01*
X102346110Y-102055434D01*
X102340281Y-102066874D01*
X102319196Y-102200000D01*
X102340281Y-102333126D01*
X102353653Y-102359370D01*
X102399184Y-102448731D01*
X102401472Y-102453220D01*
X102496780Y-102548528D01*
X102616874Y-102609719D01*
X102716497Y-102625497D01*
X102780649Y-102655910D01*
X102785880Y-102660851D01*
X106884434Y-106759405D01*
X106918460Y-106821717D01*
X106913395Y-106892532D01*
X106870848Y-106949368D01*
X106804328Y-106974179D01*
X106795339Y-106974500D01*
X101003293Y-106974500D01*
X100996700Y-106974327D01*
X100978512Y-106973373D01*
X100695679Y-106958550D01*
X100682563Y-106957172D01*
X100388088Y-106910532D01*
X100375188Y-106907790D01*
X100087205Y-106830626D01*
X100074661Y-106826550D01*
X99796327Y-106719707D01*
X99784280Y-106714343D01*
X99518631Y-106578989D01*
X99507208Y-106572394D01*
X99288816Y-106430568D01*
X99257164Y-106410013D01*
X99246498Y-106402263D01*
X99187493Y-106354482D01*
X99014802Y-106214639D01*
X99005001Y-106205814D01*
X98794185Y-105994998D01*
X98785360Y-105985197D01*
X98721731Y-105906622D01*
X98597732Y-105753495D01*
X98589988Y-105742838D01*
X98427601Y-105492785D01*
X98421010Y-105481368D01*
X98285656Y-105215719D01*
X98280292Y-105203672D01*
X98271244Y-105180100D01*
X98173447Y-104925332D01*
X98169373Y-104912794D01*
X98154368Y-104856795D01*
X98092209Y-104624811D01*
X98089467Y-104611911D01*
X98062978Y-104444663D01*
X98042826Y-104317435D01*
X98041449Y-104304319D01*
X98025673Y-104003300D01*
X98025586Y-103999996D01*
X99969538Y-103999996D01*
X99969538Y-104000003D01*
X99989336Y-104201026D01*
X99989337Y-104201032D01*
X99989338Y-104201033D01*
X100020534Y-104303873D01*
X100047977Y-104394341D01*
X100143203Y-104572497D01*
X100271352Y-104728647D01*
X100427502Y-104856795D01*
X100427502Y-104856796D01*
X100427506Y-104856798D01*
X100605659Y-104952023D01*
X100798967Y-105010662D01*
X100798971Y-105010662D01*
X100798973Y-105010663D01*
X100999997Y-105030462D01*
X101000000Y-105030462D01*
X101000003Y-105030462D01*
X101201026Y-105010663D01*
X101201027Y-105010662D01*
X101201033Y-105010662D01*
X101394341Y-104952023D01*
X101572494Y-104856798D01*
X101572495Y-104856796D01*
X101572497Y-104856796D01*
X101572497Y-104856795D01*
X101728647Y-104728647D01*
X101856798Y-104572494D01*
X101952023Y-104394341D01*
X102010662Y-104201033D01*
X102011738Y-104190116D01*
X102030462Y-104000003D01*
X102030462Y-103999996D01*
X102010663Y-103798973D01*
X102010662Y-103798971D01*
X102010662Y-103798967D01*
X101952023Y-103605659D01*
X101856798Y-103427506D01*
X101856796Y-103427502D01*
X101728647Y-103271352D01*
X101572497Y-103143204D01*
X101572497Y-103143203D01*
X101394341Y-103047977D01*
X101201026Y-102989336D01*
X101000003Y-102969538D01*
X100999997Y-102969538D01*
X100798973Y-102989336D01*
X100605658Y-103047977D01*
X100427502Y-103143203D01*
X100427502Y-103143204D01*
X100271352Y-103271352D01*
X100143204Y-103427502D01*
X100143203Y-103427502D01*
X100047977Y-103605658D01*
X99989336Y-103798973D01*
X99969538Y-103999996D01*
X98025586Y-103999996D01*
X98025500Y-103996706D01*
X98025500Y-95999996D01*
X104994659Y-95999996D01*
X104994659Y-96000003D01*
X105013974Y-96196124D01*
X105013974Y-96196126D01*
X105071186Y-96384728D01*
X105139217Y-96512004D01*
X105164090Y-96558538D01*
X105289117Y-96710883D01*
X105441462Y-96835910D01*
X105615273Y-96928814D01*
X105803868Y-96986024D01*
X105803872Y-96986024D01*
X105803874Y-96986025D01*
X105999997Y-97005341D01*
X106000000Y-97005341D01*
X106000003Y-97005341D01*
X106196124Y-96986025D01*
X106196126Y-96986025D01*
X106196127Y-96986024D01*
X106196132Y-96986024D01*
X106384727Y-96928814D01*
X106558538Y-96835910D01*
X106710883Y-96710883D01*
X106835910Y-96558538D01*
X106928814Y-96384727D01*
X106986024Y-96196132D01*
X106986492Y-96191378D01*
X107005341Y-96000003D01*
X107005341Y-95999996D01*
X106986025Y-95803875D01*
X106986025Y-95803873D01*
X106986024Y-95803870D01*
X106986024Y-95803868D01*
X106928814Y-95615273D01*
X106835910Y-95441462D01*
X106710883Y-95289117D01*
X106558538Y-95164090D01*
X106513293Y-95139906D01*
X106384728Y-95071186D01*
X106196125Y-95013974D01*
X106000003Y-94994659D01*
X105999997Y-94994659D01*
X105803875Y-95013974D01*
X105803873Y-95013974D01*
X105615271Y-95071186D01*
X105441461Y-95164090D01*
X105289117Y-95289117D01*
X105164090Y-95441461D01*
X105071186Y-95615271D01*
X105013974Y-95803873D01*
X105013974Y-95803875D01*
X104994659Y-95999996D01*
X98025500Y-95999996D01*
X98025500Y-68110434D01*
X99449500Y-68110434D01*
X99449500Y-86039565D01*
X99469977Y-86115986D01*
X99498434Y-86165274D01*
X99498435Y-86165277D01*
X99509536Y-86184506D01*
X99509543Y-86184515D01*
X106539149Y-93214120D01*
X106573175Y-93276432D01*
X106574499Y-93283486D01*
X106590281Y-93383126D01*
X106611188Y-93424158D01*
X106650309Y-93500939D01*
X106651472Y-93503220D01*
X106746780Y-93598528D01*
X106866874Y-93659719D01*
X107000000Y-93680804D01*
X107133126Y-93659719D01*
X107253220Y-93598528D01*
X107348528Y-93503220D01*
X107409719Y-93383126D01*
X107430804Y-93250000D01*
X107409719Y-93116874D01*
X107348528Y-92996780D01*
X107253220Y-92901472D01*
X107253219Y-92901471D01*
X107193173Y-92870876D01*
X107133126Y-92840281D01*
X107033502Y-92824502D01*
X106969351Y-92794090D01*
X106964120Y-92789149D01*
X100087405Y-85912434D01*
X100053379Y-85850122D01*
X100050500Y-85823339D01*
X100050500Y-68346257D01*
X100070502Y-68278136D01*
X100124158Y-68231643D01*
X100156780Y-68221810D01*
X100233126Y-68209719D01*
X100353220Y-68148528D01*
X100448528Y-68053220D01*
X100509719Y-67933126D01*
X100530804Y-67800000D01*
X100509719Y-67666874D01*
X100448528Y-67546780D01*
X100353220Y-67451472D01*
X100353219Y-67451471D01*
X100251327Y-67399555D01*
X100233126Y-67390281D01*
X100100000Y-67369196D01*
X99966874Y-67390281D01*
X99966872Y-67390281D01*
X99966872Y-67390282D01*
X99846780Y-67451471D01*
X99751471Y-67546780D01*
X99690280Y-67666875D01*
X99674501Y-67766495D01*
X99644088Y-67830648D01*
X99639150Y-67835877D01*
X99565490Y-67909539D01*
X99565488Y-67909540D01*
X99509545Y-67965482D01*
X99509539Y-67965490D01*
X99469977Y-68034014D01*
X99449500Y-68110434D01*
X98025500Y-68110434D01*
X98025500Y-66003293D01*
X98025587Y-65999996D01*
X99969538Y-65999996D01*
X99969538Y-66000003D01*
X99989336Y-66201026D01*
X99989337Y-66201032D01*
X99989338Y-66201033D01*
X100041481Y-66372925D01*
X100047977Y-66394341D01*
X100143203Y-66572497D01*
X100271350Y-66728645D01*
X100271351Y-66728646D01*
X100427502Y-66856795D01*
X100427502Y-66856796D01*
X100427506Y-66856798D01*
X100605659Y-66952023D01*
X100798967Y-67010662D01*
X100798971Y-67010662D01*
X100798973Y-67010663D01*
X100999997Y-67030462D01*
X101000000Y-67030462D01*
X101000003Y-67030462D01*
X101201026Y-67010663D01*
X101201027Y-67010662D01*
X101201033Y-67010662D01*
X101394341Y-66952023D01*
X101572494Y-66856798D01*
X101572495Y-66856796D01*
X101572497Y-66856796D01*
X101572497Y-66856795D01*
X101691004Y-66759540D01*
X101728649Y-66728646D01*
X101728650Y-66728645D01*
X101820446Y-66616788D01*
X101856798Y-66572494D01*
X101952023Y-66394341D01*
X102010662Y-66201033D01*
X102010715Y-66200500D01*
X102030462Y-66000003D01*
X102030462Y-65999996D01*
X102010663Y-65798973D01*
X102010662Y-65798971D01*
X102010662Y-65798967D01*
X101952023Y-65605659D01*
X101856798Y-65427506D01*
X101856796Y-65427502D01*
X101728647Y-65271352D01*
X101572497Y-65143204D01*
X101572497Y-65143203D01*
X101394341Y-65047977D01*
X101248955Y-65003875D01*
X101201033Y-64989338D01*
X101201032Y-64989337D01*
X101201026Y-64989336D01*
X101000003Y-64969538D01*
X100999997Y-64969538D01*
X100798973Y-64989336D01*
X100605658Y-65047977D01*
X100427502Y-65143203D01*
X100427502Y-65143204D01*
X100271352Y-65271352D01*
X100143204Y-65427502D01*
X100143203Y-65427502D01*
X100047977Y-65605658D01*
X99989336Y-65798973D01*
X99969538Y-65999996D01*
X98025587Y-65999996D01*
X98025673Y-65996699D01*
X98036714Y-65786024D01*
X98041449Y-65695678D01*
X98042827Y-65682563D01*
X98051616Y-65627075D01*
X98089467Y-65388084D01*
X98092209Y-65375188D01*
X98169376Y-65087195D01*
X98173445Y-65074672D01*
X98278884Y-64799996D01*
X110794659Y-64799996D01*
X110794659Y-64800003D01*
X110813974Y-64996124D01*
X110813974Y-64996126D01*
X110871186Y-65184728D01*
X110938640Y-65310924D01*
X110964090Y-65358538D01*
X111089117Y-65510883D01*
X111241462Y-65635910D01*
X111415273Y-65728814D01*
X111603868Y-65786024D01*
X111603872Y-65786024D01*
X111603874Y-65786025D01*
X111799997Y-65805341D01*
X111800000Y-65805341D01*
X111800003Y-65805341D01*
X111996124Y-65786025D01*
X111996126Y-65786025D01*
X111996127Y-65786024D01*
X111996132Y-65786024D01*
X112184727Y-65728814D01*
X112358538Y-65635910D01*
X112510883Y-65510883D01*
X112635910Y-65358538D01*
X112728814Y-65184727D01*
X112786024Y-64996132D01*
X112786693Y-64989338D01*
X112805341Y-64800003D01*
X112805341Y-64799996D01*
X112786025Y-64603875D01*
X112786025Y-64603873D01*
X112786024Y-64603870D01*
X112786024Y-64603868D01*
X112728814Y-64415273D01*
X112678835Y-64321769D01*
X112675641Y-64315793D01*
X112661169Y-64246287D01*
X112686573Y-64179991D01*
X112697659Y-64167310D01*
X112877567Y-63987404D01*
X112939879Y-63953379D01*
X112966662Y-63950500D01*
X118293500Y-63950500D01*
X118361621Y-63970502D01*
X118408114Y-64024158D01*
X118419500Y-64076500D01*
X118419500Y-65619750D01*
X118422714Y-65635910D01*
X118431133Y-65678231D01*
X118475448Y-65744552D01*
X118541769Y-65788867D01*
X118600252Y-65800500D01*
X118600253Y-65800500D01*
X120239747Y-65800500D01*
X120239748Y-65800500D01*
X120298231Y-65788867D01*
X120364552Y-65744552D01*
X120408867Y-65678231D01*
X120420500Y-65619748D01*
X120420500Y-65224996D01*
X123019659Y-65224996D01*
X123019659Y-65225003D01*
X123038974Y-65421124D01*
X123038974Y-65421126D01*
X123096186Y-65609728D01*
X123175727Y-65758538D01*
X123189090Y-65783538D01*
X123314117Y-65935883D01*
X123466462Y-66060910D01*
X123640273Y-66153814D01*
X123828868Y-66211024D01*
X123828872Y-66211024D01*
X123828874Y-66211025D01*
X124024997Y-66230341D01*
X124025000Y-66230341D01*
X124025003Y-66230341D01*
X124221124Y-66211025D01*
X124221126Y-66211025D01*
X124221127Y-66211024D01*
X124221132Y-66211024D01*
X124409727Y-66153814D01*
X124583538Y-66060910D01*
X124735883Y-65935883D01*
X124860910Y-65783538D01*
X124953814Y-65609727D01*
X125011024Y-65421132D01*
X125013487Y-65396124D01*
X125030341Y-65225003D01*
X125030341Y-65224996D01*
X125519659Y-65224996D01*
X125519659Y-65225003D01*
X125538974Y-65421124D01*
X125538974Y-65421126D01*
X125596186Y-65609728D01*
X125675727Y-65758538D01*
X125689090Y-65783538D01*
X125814117Y-65935883D01*
X125966462Y-66060910D01*
X126140273Y-66153814D01*
X126328868Y-66211024D01*
X126328872Y-66211024D01*
X126328874Y-66211025D01*
X126524997Y-66230341D01*
X126525000Y-66230341D01*
X126525003Y-66230341D01*
X126721124Y-66211025D01*
X126721126Y-66211025D01*
X126721127Y-66211024D01*
X126721132Y-66211024D01*
X126909727Y-66153814D01*
X127083538Y-66060910D01*
X127235883Y-65935883D01*
X127360910Y-65783538D01*
X127453814Y-65609727D01*
X127511024Y-65421132D01*
X127513487Y-65396124D01*
X127530341Y-65225003D01*
X127530341Y-65224996D01*
X127511025Y-65028875D01*
X127511025Y-65028873D01*
X127511024Y-65028870D01*
X127511024Y-65028868D01*
X127453814Y-64840273D01*
X127360910Y-64666462D01*
X127235883Y-64514117D01*
X127083538Y-64389090D01*
X127055423Y-64374062D01*
X126909728Y-64296186D01*
X126762856Y-64251633D01*
X126721132Y-64238976D01*
X126721131Y-64238975D01*
X126721125Y-64238974D01*
X126525003Y-64219659D01*
X126524997Y-64219659D01*
X126328875Y-64238974D01*
X126328873Y-64238974D01*
X126140271Y-64296186D01*
X125966461Y-64389090D01*
X125814117Y-64514117D01*
X125689090Y-64666461D01*
X125596186Y-64840271D01*
X125538974Y-65028873D01*
X125538974Y-65028875D01*
X125519659Y-65224996D01*
X125030341Y-65224996D01*
X125011025Y-65028875D01*
X125011025Y-65028873D01*
X125011024Y-65028870D01*
X125011024Y-65028868D01*
X124953814Y-64840273D01*
X124860910Y-64666462D01*
X124735883Y-64514117D01*
X124583538Y-64389090D01*
X124555423Y-64374062D01*
X124409728Y-64296186D01*
X124262856Y-64251633D01*
X124221132Y-64238976D01*
X124221131Y-64238975D01*
X124221125Y-64238974D01*
X124025003Y-64219659D01*
X124024997Y-64219659D01*
X123828875Y-64238974D01*
X123828873Y-64238974D01*
X123640271Y-64296186D01*
X123466461Y-64389090D01*
X123314117Y-64514117D01*
X123189090Y-64666461D01*
X123096186Y-64840271D01*
X123038974Y-65028873D01*
X123038974Y-65028875D01*
X123019659Y-65224996D01*
X120420500Y-65224996D01*
X120420500Y-64076500D01*
X120440502Y-64008379D01*
X120494158Y-63961886D01*
X120546500Y-63950500D01*
X129413339Y-63950500D01*
X129481460Y-63970502D01*
X129502434Y-63987405D01*
X129959078Y-64444049D01*
X129993104Y-64506361D01*
X129988039Y-64577176D01*
X129967385Y-64613074D01*
X129944094Y-64641455D01*
X129944089Y-64641462D01*
X129851186Y-64815271D01*
X129793974Y-65003873D01*
X129793974Y-65003875D01*
X129774659Y-65199996D01*
X129774659Y-65200003D01*
X129793974Y-65396124D01*
X129793974Y-65396126D01*
X129851186Y-65584728D01*
X129928202Y-65728813D01*
X129944090Y-65758538D01*
X130069117Y-65910883D01*
X130221462Y-66035910D01*
X130395273Y-66128814D01*
X130583868Y-66186024D01*
X130583872Y-66186024D01*
X130583874Y-66186025D01*
X130779997Y-66205341D01*
X130780000Y-66205341D01*
X130780003Y-66205341D01*
X130976124Y-66186025D01*
X130976126Y-66186025D01*
X130976127Y-66186024D01*
X130976132Y-66186024D01*
X131164727Y-66128814D01*
X131338538Y-66035910D01*
X131490883Y-65910883D01*
X131615910Y-65758538D01*
X131708814Y-65584727D01*
X131766024Y-65396132D01*
X131774416Y-65310924D01*
X131785341Y-65200003D01*
X131785341Y-65199996D01*
X131766025Y-65003875D01*
X131766025Y-65003873D01*
X131766024Y-65003870D01*
X131766024Y-65003868D01*
X131708814Y-64815273D01*
X131615910Y-64641462D01*
X131511479Y-64514213D01*
X131483726Y-64448868D01*
X131495707Y-64378890D01*
X131519781Y-64345189D01*
X131877567Y-63987404D01*
X131939879Y-63953379D01*
X131966662Y-63950500D01*
X137552758Y-63950500D01*
X137620879Y-63970502D01*
X137667372Y-64024158D01*
X137677476Y-64094432D01*
X137647982Y-64159012D01*
X137588256Y-64197396D01*
X137577340Y-64200079D01*
X137521771Y-64211132D01*
X137521768Y-64211133D01*
X137455448Y-64255448D01*
X137411133Y-64321768D01*
X137411132Y-64321771D01*
X137399500Y-64380249D01*
X137399500Y-66019750D01*
X137407687Y-66060910D01*
X137411133Y-66078231D01*
X137455448Y-66144552D01*
X137521769Y-66188867D01*
X137580252Y-66200500D01*
X137580253Y-66200500D01*
X139219747Y-66200500D01*
X139219748Y-66200500D01*
X139278231Y-66188867D01*
X139344552Y-66144552D01*
X139388867Y-66078231D01*
X139400500Y-66019748D01*
X139400500Y-64380252D01*
X139400500Y-64374062D01*
X139402043Y-64374062D01*
X139413853Y-64311781D01*
X139462691Y-64260251D01*
X139531636Y-64243305D01*
X139598797Y-64266324D01*
X139615114Y-64280085D01*
X149512595Y-74177566D01*
X149546621Y-74239878D01*
X149549500Y-74266661D01*
X149549500Y-79425437D01*
X149529498Y-79493558D01*
X149475842Y-79540051D01*
X149405568Y-79550155D01*
X149343567Y-79522837D01*
X149308538Y-79494090D01*
X149134728Y-79401186D01*
X148946125Y-79343974D01*
X148750003Y-79324659D01*
X148749997Y-79324659D01*
X148553875Y-79343974D01*
X148553873Y-79343974D01*
X148365271Y-79401186D01*
X148191461Y-79494090D01*
X148039117Y-79619117D01*
X147914090Y-79771461D01*
X147821186Y-79945271D01*
X147763974Y-80133873D01*
X147763974Y-80133875D01*
X147744659Y-80329996D01*
X147744659Y-80330003D01*
X147763974Y-80526124D01*
X147763974Y-80526126D01*
X147821186Y-80714728D01*
X147896212Y-80855090D01*
X147914090Y-80888538D01*
X148039117Y-81040883D01*
X148191462Y-81165910D01*
X148312228Y-81230461D01*
X148355587Y-81253637D01*
X148365273Y-81258814D01*
X148553868Y-81316024D01*
X148553872Y-81316024D01*
X148553874Y-81316025D01*
X148749997Y-81335341D01*
X148750000Y-81335341D01*
X148750003Y-81335341D01*
X148946124Y-81316025D01*
X148946126Y-81316025D01*
X148946127Y-81316024D01*
X148946132Y-81316024D01*
X149134727Y-81258814D01*
X149308538Y-81165910D01*
X149343566Y-81137162D01*
X149408913Y-81109409D01*
X149478891Y-81121390D01*
X149531283Y-81169303D01*
X149549500Y-81234562D01*
X149549500Y-81893337D01*
X149529498Y-81961458D01*
X149512595Y-81982433D01*
X149278428Y-82216599D01*
X149216116Y-82250624D01*
X149145300Y-82245559D01*
X149140508Y-82243398D01*
X149140444Y-82243554D01*
X149134731Y-82241187D01*
X149007316Y-82202536D01*
X148946132Y-82183976D01*
X148946131Y-82183975D01*
X148946125Y-82183974D01*
X148750003Y-82164659D01*
X148749997Y-82164659D01*
X148553875Y-82183974D01*
X148553873Y-82183974D01*
X148365271Y-82241186D01*
X148191461Y-82334090D01*
X148039117Y-82459117D01*
X147914090Y-82611461D01*
X147821186Y-82785271D01*
X147763974Y-82973873D01*
X147763974Y-82973875D01*
X147744659Y-83169996D01*
X147744659Y-83170003D01*
X147763974Y-83366124D01*
X147763974Y-83366126D01*
X147821186Y-83554728D01*
X147884473Y-83673128D01*
X147914090Y-83728538D01*
X148039117Y-83880883D01*
X148191462Y-84005910D01*
X148365273Y-84098814D01*
X148553868Y-84156024D01*
X148553872Y-84156024D01*
X148553874Y-84156025D01*
X148749997Y-84175341D01*
X148750000Y-84175341D01*
X148750003Y-84175341D01*
X148946124Y-84156025D01*
X148946126Y-84156025D01*
X148946127Y-84156024D01*
X148946132Y-84156024D01*
X149134727Y-84098814D01*
X149308538Y-84005910D01*
X149460883Y-83880883D01*
X149585910Y-83728538D01*
X149678814Y-83554727D01*
X149736024Y-83366132D01*
X149738401Y-83341999D01*
X149755341Y-83170003D01*
X149755341Y-83169996D01*
X149736025Y-82973875D01*
X149736025Y-82973873D01*
X149736024Y-82973870D01*
X149736024Y-82973868D01*
X149678814Y-82785273D01*
X149678810Y-82785266D01*
X149676447Y-82779560D01*
X149678978Y-82778511D01*
X149666897Y-82720605D01*
X149692274Y-82654299D01*
X149703392Y-82641578D01*
X149995906Y-82349064D01*
X150058217Y-82315040D01*
X150129033Y-82320105D01*
X150174095Y-82349066D01*
X150289149Y-82464120D01*
X150323175Y-82526432D01*
X150324499Y-82533486D01*
X150340281Y-82633126D01*
X150370853Y-82693126D01*
X150383504Y-82717957D01*
X150401472Y-82753220D01*
X150496780Y-82848528D01*
X150616874Y-82909719D01*
X150750000Y-82930804D01*
X150828293Y-82918403D01*
X150898699Y-82927502D01*
X150953014Y-82973224D01*
X150973987Y-83041052D01*
X150974000Y-83042852D01*
X150974000Y-85548837D01*
X150953998Y-85616958D01*
X150937095Y-85637933D01*
X150660878Y-85914149D01*
X150598566Y-85948174D01*
X150591495Y-85949501D01*
X150491875Y-85965280D01*
X150371780Y-86026471D01*
X150276471Y-86121780D01*
X150237601Y-86198068D01*
X150215281Y-86241874D01*
X150194196Y-86375000D01*
X150215281Y-86508126D01*
X150225265Y-86527720D01*
X150273826Y-86623028D01*
X150276472Y-86628220D01*
X150371780Y-86723528D01*
X150491874Y-86784719D01*
X150625000Y-86805804D01*
X150758126Y-86784719D01*
X150878220Y-86723528D01*
X150973528Y-86628220D01*
X151034719Y-86508126D01*
X151050498Y-86408500D01*
X151080908Y-86344352D01*
X151085831Y-86339138D01*
X151514960Y-85910011D01*
X151554522Y-85841488D01*
X151575000Y-85765062D01*
X151575000Y-85685938D01*
X151575000Y-79710438D01*
X151567114Y-79681007D01*
X151567114Y-79681006D01*
X151567114Y-79681005D01*
X151554524Y-79634019D01*
X151554523Y-79634018D01*
X151554522Y-79634012D01*
X151514960Y-79565489D01*
X151235349Y-79285878D01*
X151201326Y-79223568D01*
X151200000Y-79216513D01*
X151184219Y-79116874D01*
X151123028Y-78996780D01*
X151027720Y-78901472D01*
X151027719Y-78901471D01*
X150962061Y-78868017D01*
X150907626Y-78840281D01*
X150774500Y-78819196D01*
X150774498Y-78819196D01*
X150696209Y-78831595D01*
X150625798Y-78822495D01*
X150571485Y-78776772D01*
X150550513Y-78708944D01*
X150550500Y-78707146D01*
X150550500Y-75965086D01*
X150570502Y-75896965D01*
X150619297Y-75852819D01*
X150627720Y-75848528D01*
X150723028Y-75753220D01*
X150784219Y-75633126D01*
X150805304Y-75500000D01*
X150784219Y-75366874D01*
X150723028Y-75246780D01*
X150627720Y-75151472D01*
X150627719Y-75151471D01*
X150528180Y-75100754D01*
X150507626Y-75090281D01*
X150374500Y-75069196D01*
X150374498Y-75069196D01*
X150296209Y-75081595D01*
X150225798Y-75072495D01*
X150171485Y-75026772D01*
X150150513Y-74958944D01*
X150150500Y-74957146D01*
X150150500Y-74050438D01*
X150149064Y-74045077D01*
X150149064Y-74045076D01*
X150130024Y-73974019D01*
X150130023Y-73974018D01*
X150130022Y-73974012D01*
X150090460Y-73905489D01*
X150090458Y-73905487D01*
X150090454Y-73905482D01*
X146100972Y-69916000D01*
X147463917Y-69916000D01*
X148438314Y-69916000D01*
X148429920Y-69924394D01*
X148377259Y-70015606D01*
X148350000Y-70117339D01*
X148350000Y-70222661D01*
X148377259Y-70324394D01*
X148429920Y-70415606D01*
X148438314Y-70424000D01*
X147463918Y-70424000D01*
X147516186Y-70619068D01*
X147516188Y-70619073D01*
X147612912Y-70826498D01*
X147744184Y-71013974D01*
X147744189Y-71013980D01*
X147906019Y-71175810D01*
X147906025Y-71175815D01*
X148093501Y-71307087D01*
X148300926Y-71403811D01*
X148300931Y-71403813D01*
X148496000Y-71456081D01*
X148496000Y-70481686D01*
X148504394Y-70490080D01*
X148595606Y-70542741D01*
X148697339Y-70570000D01*
X148802661Y-70570000D01*
X148904394Y-70542741D01*
X148995606Y-70490080D01*
X149004000Y-70481686D01*
X149004000Y-71456081D01*
X149199068Y-71403813D01*
X149199073Y-71403811D01*
X149406498Y-71307087D01*
X149593974Y-71175815D01*
X149593980Y-71175810D01*
X149755810Y-71013980D01*
X149755815Y-71013974D01*
X149887087Y-70826498D01*
X149983811Y-70619073D01*
X149983813Y-70619068D01*
X150036082Y-70424000D01*
X149061686Y-70424000D01*
X149070080Y-70415606D01*
X149122741Y-70324394D01*
X149150000Y-70222661D01*
X149150000Y-70117339D01*
X149122741Y-70015606D01*
X149070080Y-69924394D01*
X149061686Y-69916000D01*
X150036082Y-69916000D01*
X149983813Y-69720931D01*
X149983811Y-69720926D01*
X149887087Y-69513501D01*
X149755815Y-69326025D01*
X149755810Y-69326019D01*
X149593980Y-69164189D01*
X149593974Y-69164184D01*
X149406498Y-69032912D01*
X149199073Y-68936188D01*
X149199071Y-68936187D01*
X149004000Y-68883917D01*
X149004000Y-69858314D01*
X148995606Y-69849920D01*
X148904394Y-69797259D01*
X148802661Y-69770000D01*
X148697339Y-69770000D01*
X148595606Y-69797259D01*
X148504394Y-69849920D01*
X148496000Y-69858314D01*
X148496000Y-68883917D01*
X148495999Y-68883917D01*
X148300928Y-68936187D01*
X148300926Y-68936188D01*
X148093501Y-69032912D01*
X147906025Y-69164184D01*
X147906019Y-69164189D01*
X147744189Y-69326019D01*
X147744184Y-69326025D01*
X147612912Y-69513501D01*
X147516188Y-69720926D01*
X147516186Y-69720931D01*
X147463917Y-69916000D01*
X146100972Y-69916000D01*
X142184968Y-65999996D01*
X147969538Y-65999996D01*
X147969538Y-66000003D01*
X147989336Y-66201026D01*
X147989337Y-66201032D01*
X147989338Y-66201033D01*
X148041481Y-66372925D01*
X148047977Y-66394341D01*
X148143203Y-66572497D01*
X148271350Y-66728645D01*
X148271351Y-66728646D01*
X148427502Y-66856795D01*
X148427502Y-66856796D01*
X148427506Y-66856798D01*
X148605659Y-66952023D01*
X148798967Y-67010662D01*
X148798971Y-67010662D01*
X148798973Y-67010663D01*
X148999997Y-67030462D01*
X149000000Y-67030462D01*
X149000003Y-67030462D01*
X149201026Y-67010663D01*
X149201027Y-67010662D01*
X149201033Y-67010662D01*
X149394341Y-66952023D01*
X149572494Y-66856798D01*
X149572495Y-66856796D01*
X149572497Y-66856796D01*
X149572497Y-66856795D01*
X149691004Y-66759540D01*
X149728649Y-66728646D01*
X149728650Y-66728645D01*
X149820446Y-66616788D01*
X149856798Y-66572494D01*
X149952023Y-66394341D01*
X150010662Y-66201033D01*
X150010715Y-66200500D01*
X150030462Y-66000003D01*
X150030462Y-65999996D01*
X150010663Y-65798973D01*
X150010662Y-65798971D01*
X150010662Y-65798967D01*
X149952023Y-65605659D01*
X149856798Y-65427506D01*
X149856796Y-65427502D01*
X149728647Y-65271352D01*
X149572497Y-65143204D01*
X149572497Y-65143203D01*
X149394341Y-65047977D01*
X149248955Y-65003875D01*
X149201033Y-64989338D01*
X149201032Y-64989337D01*
X149201026Y-64989336D01*
X149000003Y-64969538D01*
X148999997Y-64969538D01*
X148798973Y-64989336D01*
X148605658Y-65047977D01*
X148427502Y-65143203D01*
X148427502Y-65143204D01*
X148271352Y-65271352D01*
X148143204Y-65427502D01*
X148143203Y-65427502D01*
X148047977Y-65605658D01*
X147989336Y-65798973D01*
X147969538Y-65999996D01*
X142184968Y-65999996D01*
X139594517Y-63409545D01*
X139594513Y-63409542D01*
X139594511Y-63409540D01*
X139525989Y-63369979D01*
X139525988Y-63369978D01*
X139525985Y-63369977D01*
X139449565Y-63349500D01*
X139449562Y-63349500D01*
X131750438Y-63349500D01*
X131750434Y-63349500D01*
X131674014Y-63369977D01*
X131605490Y-63409539D01*
X131605486Y-63409542D01*
X130856657Y-64158370D01*
X130794345Y-64192395D01*
X130779911Y-64194667D01*
X130638692Y-64208575D01*
X130568939Y-64195346D01*
X130537250Y-64172279D01*
X129774511Y-63409540D01*
X129705989Y-63369979D01*
X129705988Y-63369978D01*
X129705985Y-63369977D01*
X129629565Y-63349500D01*
X129629562Y-63349500D01*
X112750438Y-63349500D01*
X112750434Y-63349500D01*
X112674014Y-63369977D01*
X112605490Y-63409539D01*
X112605486Y-63409542D01*
X112206758Y-63808269D01*
X112144446Y-63842294D01*
X112081087Y-63839747D01*
X112065643Y-63835062D01*
X111996128Y-63813974D01*
X111800003Y-63794659D01*
X111799997Y-63794659D01*
X111603875Y-63813974D01*
X111603873Y-63813974D01*
X111415271Y-63871186D01*
X111241461Y-63964090D01*
X111089117Y-64089117D01*
X110964090Y-64241461D01*
X110871186Y-64415271D01*
X110813974Y-64603873D01*
X110813974Y-64603875D01*
X110794659Y-64799996D01*
X98278884Y-64799996D01*
X98280295Y-64796319D01*
X98285656Y-64784280D01*
X98345687Y-64666462D01*
X98421014Y-64518623D01*
X98427596Y-64507222D01*
X98589994Y-64257151D01*
X98597725Y-64246512D01*
X98785369Y-64014790D01*
X98794175Y-64005011D01*
X99005011Y-63794175D01*
X99014790Y-63785369D01*
X99246512Y-63597725D01*
X99257151Y-63589994D01*
X99507222Y-63427596D01*
X99518623Y-63421014D01*
X99784280Y-63285655D01*
X99796319Y-63280295D01*
X100074672Y-63173445D01*
X100087195Y-63169376D01*
X100375192Y-63092208D01*
X100388084Y-63089467D01*
X100682566Y-63042826D01*
X100695678Y-63041449D01*
X100996699Y-63025672D01*
X101003293Y-63025500D01*
X101008285Y-63025500D01*
X148991715Y-63025500D01*
X148996707Y-63025500D01*
X149003300Y-63025672D01*
G37*
%TD.AperFunction*%
%TA.AperFunction,Conductor*%
G36*
X119994000Y-98908000D02*
G01*
X120688585Y-98908000D01*
X120688597Y-98907999D01*
X120749093Y-98901494D01*
X120885964Y-98850444D01*
X120885965Y-98850444D01*
X121002904Y-98762904D01*
X121090444Y-98645965D01*
X121090444Y-98645964D01*
X121141494Y-98509093D01*
X121147999Y-98448597D01*
X121148000Y-98448585D01*
X121148000Y-98203072D01*
X121168002Y-98134951D01*
X121221658Y-98088458D01*
X121291932Y-98078354D01*
X121356512Y-98107848D01*
X121374550Y-98127140D01*
X121463234Y-98244578D01*
X121613959Y-98381981D01*
X121613960Y-98381982D01*
X121787351Y-98489341D01*
X121787354Y-98489342D01*
X121787363Y-98489348D01*
X121977544Y-98563024D01*
X122178024Y-98600500D01*
X122178026Y-98600500D01*
X122381973Y-98600500D01*
X122381976Y-98600500D01*
X122514016Y-98575817D01*
X122584649Y-98582962D01*
X122640210Y-98627160D01*
X122663055Y-98694381D01*
X122645931Y-98763282D01*
X122626262Y-98788767D01*
X122140489Y-99274540D01*
X122125881Y-99289148D01*
X122084541Y-99330487D01*
X122084539Y-99330490D01*
X122044977Y-99399014D01*
X122024500Y-99475434D01*
X122024500Y-100807226D01*
X122004498Y-100875347D01*
X121950842Y-100921840D01*
X121880568Y-100931944D01*
X121878790Y-100931675D01*
X121800000Y-100919196D01*
X121666874Y-100940281D01*
X121666872Y-100940281D01*
X121666872Y-100940282D01*
X121546780Y-101001471D01*
X121451471Y-101096780D01*
X121396042Y-101205568D01*
X121390281Y-101216874D01*
X121386109Y-101243213D01*
X121355697Y-101307365D01*
X121295428Y-101344891D01*
X121261661Y-101349500D01*
X117238021Y-101349500D01*
X117169900Y-101329498D01*
X117123407Y-101275842D01*
X117113303Y-101205568D01*
X117142797Y-101140988D01*
X117148926Y-101134405D01*
X118865998Y-99417332D01*
X118866003Y-99417327D01*
X118899131Y-99367748D01*
X118914692Y-99289516D01*
X118899131Y-99211285D01*
X118866003Y-99161705D01*
X118865998Y-99161700D01*
X118865996Y-99161697D01*
X118827394Y-99123095D01*
X118793368Y-99060783D01*
X118798433Y-98989968D01*
X118840980Y-98933132D01*
X118907500Y-98908321D01*
X118916489Y-98908000D01*
X119486000Y-98908000D01*
X119486000Y-97872968D01*
X119566306Y-97919333D01*
X119680756Y-97950000D01*
X119799244Y-97950000D01*
X119913694Y-97919333D01*
X119994000Y-97872968D01*
X119994000Y-98908000D01*
G37*
%TD.AperFunction*%
%TA.AperFunction,Conductor*%
G36*
X128219000Y-98908000D02*
G01*
X128913585Y-98908000D01*
X128913597Y-98907999D01*
X128974093Y-98901494D01*
X129110963Y-98850445D01*
X129203425Y-98781228D01*
X129269945Y-98756417D01*
X129339320Y-98771508D01*
X129368030Y-98793001D01*
X129835741Y-99260712D01*
X129891690Y-99316661D01*
X129960212Y-99356222D01*
X129960214Y-99356222D01*
X129960215Y-99356223D01*
X130004234Y-99368018D01*
X130036639Y-99376701D01*
X130115763Y-99376701D01*
X130720244Y-99376701D01*
X130788365Y-99396703D01*
X130834858Y-99450359D01*
X130844962Y-99520633D01*
X130825009Y-99572703D01*
X130763227Y-99665167D01*
X130738424Y-99702287D01*
X130728024Y-99727394D01*
X130663005Y-99884362D01*
X130663004Y-99884365D01*
X130628640Y-100057125D01*
X130595732Y-100120035D01*
X130534037Y-100155167D01*
X130505061Y-100158544D01*
X128612762Y-100158544D01*
X128544641Y-100138542D01*
X128523667Y-100121639D01*
X127525123Y-99123095D01*
X127491097Y-99060783D01*
X127496162Y-98989968D01*
X127538709Y-98933132D01*
X127605229Y-98908321D01*
X127614218Y-98908000D01*
X127711000Y-98908000D01*
X127711000Y-97872968D01*
X127791306Y-97919333D01*
X127905756Y-97950000D01*
X128024244Y-97950000D01*
X128138694Y-97919333D01*
X128219000Y-97872968D01*
X128219000Y-98908000D01*
G37*
%TD.AperFunction*%
%TA.AperFunction,Conductor*%
G36*
X127291621Y-87270502D02*
G01*
X127338114Y-87324158D01*
X127349500Y-87376500D01*
X127349500Y-89019750D01*
X127356742Y-89056159D01*
X127361133Y-89078231D01*
X127405448Y-89144552D01*
X127471769Y-89188867D01*
X127530252Y-89200500D01*
X127530253Y-89200500D01*
X129969747Y-89200500D01*
X129969748Y-89200500D01*
X130028231Y-89188867D01*
X130028553Y-89188651D01*
X130029357Y-89188399D01*
X130039694Y-89184118D01*
X130040077Y-89185042D01*
X130096301Y-89167436D01*
X130164769Y-89186217D01*
X130212214Y-89239032D01*
X130224555Y-89293416D01*
X130224555Y-90100993D01*
X130204553Y-90169114D01*
X130150897Y-90215607D01*
X130080623Y-90225711D01*
X130073981Y-90224573D01*
X130004336Y-90210720D01*
X129927545Y-90195445D01*
X129927543Y-90195445D01*
X129730463Y-90195445D01*
X129730460Y-90195445D01*
X129537165Y-90233894D01*
X129537164Y-90233895D01*
X129355087Y-90309315D01*
X129191223Y-90418805D01*
X129191217Y-90418810D01*
X129051868Y-90558159D01*
X129051863Y-90558165D01*
X128942373Y-90722029D01*
X128866953Y-90904106D01*
X128866952Y-90904107D01*
X128828503Y-91097402D01*
X128828503Y-91294487D01*
X128843107Y-91367906D01*
X128866952Y-91487781D01*
X128942372Y-91669859D01*
X129051864Y-91833726D01*
X129756908Y-92538770D01*
X129920775Y-92648262D01*
X130102853Y-92723682D01*
X130162398Y-92735526D01*
X130225308Y-92768433D01*
X130260440Y-92830128D01*
X130256640Y-92901023D01*
X130215114Y-92958609D01*
X130213328Y-92959972D01*
X130177095Y-92987096D01*
X130089555Y-93104034D01*
X130089555Y-93104035D01*
X130038505Y-93240906D01*
X130032000Y-93301402D01*
X130032000Y-93996000D01*
X131067032Y-93996000D01*
X131020667Y-94076306D01*
X130990000Y-94190756D01*
X130990000Y-94309244D01*
X131020667Y-94423694D01*
X131067032Y-94504000D01*
X130032000Y-94504000D01*
X130032000Y-95198597D01*
X130038505Y-95259093D01*
X130089555Y-95395964D01*
X130089555Y-95395965D01*
X130177095Y-95512904D01*
X130294034Y-95600444D01*
X130430906Y-95651494D01*
X130491402Y-95657999D01*
X130491415Y-95658000D01*
X131186000Y-95658000D01*
X131186000Y-94622968D01*
X131266306Y-94669333D01*
X131380756Y-94700000D01*
X131499244Y-94700000D01*
X131613694Y-94669333D01*
X131694000Y-94622968D01*
X131694000Y-95658000D01*
X132388585Y-95658000D01*
X132388597Y-95657999D01*
X132449096Y-95651494D01*
X132466194Y-95645117D01*
X132537009Y-95640051D01*
X132599319Y-95674074D01*
X133976697Y-97051452D01*
X134032646Y-97107401D01*
X134101168Y-97146962D01*
X134101170Y-97146962D01*
X134101171Y-97146963D01*
X134117995Y-97151471D01*
X134177595Y-97167441D01*
X134336296Y-97167441D01*
X134404417Y-97187443D01*
X134435284Y-97217765D01*
X134436096Y-97217099D01*
X134440016Y-97221876D01*
X134440018Y-97221879D01*
X135145062Y-97926923D01*
X135308929Y-98036415D01*
X135491007Y-98111835D01*
X135643862Y-98142239D01*
X135706771Y-98175146D01*
X135741903Y-98236841D01*
X135738103Y-98307736D01*
X135708375Y-98354913D01*
X135191921Y-98871367D01*
X135129609Y-98905393D01*
X135058794Y-98900328D01*
X135001958Y-98857781D01*
X134979248Y-98806855D01*
X134948843Y-98653999D01*
X134873423Y-98471921D01*
X134763931Y-98308054D01*
X134058887Y-97603010D01*
X133895020Y-97493518D01*
X133712943Y-97418098D01*
X133519648Y-97379649D01*
X133519646Y-97379649D01*
X133322566Y-97379649D01*
X133322563Y-97379649D01*
X133129268Y-97418098D01*
X133129267Y-97418099D01*
X132947190Y-97493519D01*
X132783326Y-97603009D01*
X132783320Y-97603014D01*
X132643971Y-97742363D01*
X132643966Y-97742369D01*
X132539146Y-97899245D01*
X132534475Y-97906235D01*
X132509148Y-97967379D01*
X132459056Y-98088310D01*
X132459055Y-98088311D01*
X132420606Y-98281606D01*
X132420606Y-98478691D01*
X132431252Y-98532209D01*
X132442324Y-98587875D01*
X132449733Y-98625119D01*
X132443405Y-98695833D01*
X132399851Y-98751901D01*
X132332898Y-98775520D01*
X132326154Y-98775701D01*
X130932514Y-98775701D01*
X130864393Y-98755699D01*
X130817900Y-98702043D01*
X130807796Y-98631769D01*
X130837290Y-98567189D01*
X130886996Y-98532210D01*
X130997637Y-98489348D01*
X131171041Y-98381981D01*
X131321764Y-98244579D01*
X131327608Y-98236841D01*
X131387377Y-98157693D01*
X131444673Y-98081821D01*
X131535582Y-97899250D01*
X131591397Y-97703083D01*
X131610215Y-97500000D01*
X131591397Y-97296917D01*
X131535582Y-97100750D01*
X131444673Y-96918179D01*
X131410449Y-96872859D01*
X131321765Y-96755421D01*
X131171040Y-96618018D01*
X131171039Y-96618017D01*
X130997648Y-96510658D01*
X130997641Y-96510654D01*
X130997637Y-96510652D01*
X130807456Y-96436976D01*
X130608422Y-96399770D01*
X130545139Y-96367592D01*
X130542482Y-96365011D01*
X128887152Y-94709681D01*
X128853126Y-94647369D01*
X128858191Y-94576554D01*
X128900738Y-94519718D01*
X128928025Y-94504178D01*
X129072552Y-94444313D01*
X129236419Y-94334821D01*
X129375777Y-94195463D01*
X129485269Y-94031596D01*
X129560689Y-93849518D01*
X129599138Y-93656222D01*
X129599138Y-93459142D01*
X129560689Y-93265846D01*
X129485269Y-93083768D01*
X129375777Y-92919901D01*
X128670733Y-92214857D01*
X128506866Y-92105365D01*
X128324789Y-92029945D01*
X128131494Y-91991496D01*
X128131492Y-91991496D01*
X127934412Y-91991496D01*
X127934409Y-91991496D01*
X127741114Y-92029945D01*
X127741113Y-92029946D01*
X127661257Y-92063024D01*
X127573502Y-92099374D01*
X127559036Y-92105366D01*
X127395172Y-92214856D01*
X127395166Y-92214861D01*
X127255817Y-92354210D01*
X127255812Y-92354216D01*
X127170659Y-92481658D01*
X127146321Y-92518082D01*
X127139933Y-92533504D01*
X127070902Y-92700157D01*
X127070901Y-92700158D01*
X127032452Y-92893453D01*
X127032452Y-93090538D01*
X127069429Y-93276432D01*
X127070901Y-93283832D01*
X127146321Y-93465910D01*
X127255813Y-93629777D01*
X127960857Y-94334821D01*
X127960860Y-94334823D01*
X127965637Y-94338743D01*
X127964551Y-94340066D01*
X128004824Y-94388253D01*
X128015295Y-94438543D01*
X128015295Y-94602860D01*
X128035772Y-94679281D01*
X128041676Y-94689507D01*
X128045738Y-94696542D01*
X128075335Y-94747806D01*
X128311935Y-94984406D01*
X128345959Y-95046717D01*
X128340895Y-95117532D01*
X128298348Y-95174368D01*
X128231828Y-95199179D01*
X128222839Y-95199500D01*
X128115464Y-95199500D01*
X128047343Y-95179498D01*
X128026369Y-95162595D01*
X126364717Y-93500942D01*
X126364708Y-93500935D01*
X126315134Y-93467810D01*
X126236901Y-93452249D01*
X126158670Y-93467809D01*
X126158669Y-93467810D01*
X126125541Y-93489945D01*
X126109095Y-93500935D01*
X126109089Y-93500939D01*
X126109082Y-93500944D01*
X124949798Y-94660228D01*
X124949793Y-94660235D01*
X124916664Y-94709815D01*
X124916663Y-94709816D01*
X124901103Y-94788046D01*
X124901103Y-94788047D01*
X124916664Y-94866280D01*
X124949789Y-94915854D01*
X124949796Y-94915863D01*
X126520095Y-96486161D01*
X126554120Y-96548473D01*
X126557000Y-96575256D01*
X126557000Y-97246000D01*
X127592032Y-97246000D01*
X127545667Y-97326306D01*
X127515000Y-97440756D01*
X127515000Y-97559244D01*
X127545667Y-97673694D01*
X127592032Y-97754000D01*
X126557000Y-97754000D01*
X126557000Y-97999386D01*
X126536998Y-98067507D01*
X126483342Y-98114000D01*
X126450711Y-98123834D01*
X126429843Y-98127140D01*
X126346872Y-98140281D01*
X126226780Y-98201471D01*
X126131471Y-98296780D01*
X126089318Y-98379511D01*
X126070281Y-98416874D01*
X126049196Y-98550000D01*
X126070281Y-98683126D01*
X126100004Y-98741460D01*
X126131471Y-98803219D01*
X126226780Y-98898528D01*
X126311257Y-98941571D01*
X126362872Y-98990319D01*
X126379938Y-99059234D01*
X126357037Y-99126436D01*
X126301440Y-99170588D01*
X126277212Y-99177691D01*
X126227544Y-99186976D01*
X126037363Y-99260652D01*
X126037362Y-99260652D01*
X126037361Y-99260653D01*
X126037351Y-99260658D01*
X125863960Y-99368017D01*
X125863959Y-99368018D01*
X125713234Y-99505421D01*
X125624550Y-99622859D01*
X125567536Y-99665167D01*
X125496700Y-99669934D01*
X125434531Y-99635647D01*
X125400768Y-99573193D01*
X125398000Y-99546927D01*
X125398000Y-99301414D01*
X125397999Y-99301402D01*
X125391494Y-99240906D01*
X125340444Y-99104035D01*
X125340444Y-99104034D01*
X125252904Y-98987095D01*
X125135965Y-98899555D01*
X124999093Y-98848505D01*
X124938597Y-98842000D01*
X124244000Y-98842000D01*
X124244000Y-99877031D01*
X124163694Y-99830667D01*
X124049244Y-99800000D01*
X123930756Y-99800000D01*
X123816306Y-99830667D01*
X123736000Y-99877031D01*
X123736000Y-98842000D01*
X123727161Y-98842000D01*
X123659040Y-98821998D01*
X123612547Y-98768342D01*
X123602443Y-98698068D01*
X123631937Y-98633488D01*
X123638066Y-98626905D01*
X123732566Y-98532405D01*
X123794878Y-98498379D01*
X123821661Y-98495500D01*
X124794562Y-98495500D01*
X124870989Y-98475021D01*
X124939511Y-98435460D01*
X124995460Y-98379511D01*
X125414121Y-97960848D01*
X125476431Y-97926825D01*
X125483459Y-97925504D01*
X125583126Y-97909719D01*
X125703220Y-97848528D01*
X125798528Y-97753220D01*
X125859719Y-97633126D01*
X125880804Y-97500000D01*
X125859719Y-97366874D01*
X125798528Y-97246780D01*
X125703220Y-97151472D01*
X125703219Y-97151471D01*
X125620535Y-97109342D01*
X125583126Y-97090281D01*
X125483502Y-97074502D01*
X125419351Y-97044090D01*
X125414120Y-97039149D01*
X123418245Y-95043274D01*
X123384219Y-94980962D01*
X123389284Y-94910147D01*
X123418242Y-94865086D01*
X123744187Y-94539143D01*
X123853679Y-94375276D01*
X123929099Y-94193198D01*
X123967548Y-93999902D01*
X123967548Y-93802822D01*
X123929099Y-93609526D01*
X123853679Y-93427448D01*
X123744187Y-93263581D01*
X123604829Y-93124223D01*
X123440962Y-93014731D01*
X123258885Y-92939311D01*
X123065590Y-92900862D01*
X123065588Y-92900862D01*
X122868508Y-92900862D01*
X122868505Y-92900862D01*
X122675210Y-92939311D01*
X122675209Y-92939312D01*
X122493132Y-93014732D01*
X122329268Y-93124222D01*
X122329267Y-93124223D01*
X121624225Y-93829264D01*
X121620301Y-93834047D01*
X121618977Y-93832961D01*
X121570791Y-93873234D01*
X121520501Y-93883705D01*
X120916307Y-93883705D01*
X120848186Y-93863703D01*
X120801693Y-93810047D01*
X120791589Y-93739773D01*
X120821083Y-93675193D01*
X120880809Y-93636809D01*
X120891718Y-93634127D01*
X120897146Y-93633048D01*
X121079224Y-93557628D01*
X121243091Y-93448136D01*
X121948135Y-92743092D01*
X122057627Y-92579225D01*
X122133047Y-92397147D01*
X122171496Y-92203851D01*
X122171496Y-92006771D01*
X122133047Y-91813475D01*
X122133045Y-91813471D01*
X122133043Y-91813463D01*
X122096283Y-91724719D01*
X122088693Y-91654130D01*
X122120471Y-91590642D01*
X122181529Y-91554414D01*
X122212691Y-91550500D01*
X123347839Y-91550500D01*
X123415960Y-91570502D01*
X123436934Y-91587405D01*
X124313649Y-92464120D01*
X124347675Y-92526432D01*
X124348999Y-92533486D01*
X124364781Y-92633126D01*
X124386546Y-92675842D01*
X124424076Y-92749500D01*
X124425972Y-92753220D01*
X124521280Y-92848528D01*
X124641374Y-92909719D01*
X124774500Y-92930804D01*
X124907626Y-92909719D01*
X125027720Y-92848528D01*
X125123028Y-92753220D01*
X125184219Y-92633126D01*
X125201075Y-92526699D01*
X125231486Y-92462548D01*
X125291754Y-92425021D01*
X125305793Y-92421967D01*
X125383126Y-92409719D01*
X125503220Y-92348528D01*
X125598528Y-92253220D01*
X125659719Y-92133126D01*
X125680804Y-92000000D01*
X125659719Y-91866874D01*
X125598528Y-91746780D01*
X125503220Y-91651472D01*
X125503219Y-91651471D01*
X125417603Y-91607848D01*
X125383126Y-91590281D01*
X125283502Y-91574502D01*
X125219351Y-91544090D01*
X125214120Y-91539149D01*
X123934510Y-90259539D01*
X123923567Y-90253222D01*
X123923562Y-90253219D01*
X123912409Y-90246780D01*
X123890092Y-90233895D01*
X123865986Y-90219977D01*
X123789565Y-90199500D01*
X123789562Y-90199500D01*
X122903438Y-90199500D01*
X122835317Y-90179498D01*
X122814343Y-90162595D01*
X122803219Y-90151471D01*
X122704149Y-90100993D01*
X122683126Y-90090281D01*
X122550000Y-90069196D01*
X122416874Y-90090281D01*
X122416872Y-90090281D01*
X122416872Y-90090282D01*
X122296780Y-90151471D01*
X122201471Y-90246780D01*
X122149629Y-90348528D01*
X122140281Y-90366874D01*
X122119196Y-90500000D01*
X122140281Y-90633126D01*
X122199870Y-90750075D01*
X122205974Y-90762055D01*
X122203648Y-90763239D01*
X122222583Y-90816307D01*
X122206503Y-90885458D01*
X122155589Y-90934938D01*
X122096789Y-90949500D01*
X121900434Y-90949500D01*
X121824014Y-90969977D01*
X121772013Y-91000000D01*
X121755493Y-91009537D01*
X121755487Y-91009542D01*
X121634748Y-91130280D01*
X121572435Y-91164305D01*
X121501620Y-91159239D01*
X121497435Y-91157593D01*
X121462837Y-91143262D01*
X121462832Y-91143260D01*
X121309976Y-91112855D01*
X121247067Y-91079947D01*
X121211935Y-91018252D01*
X121215735Y-90947357D01*
X121245461Y-90900181D01*
X121370460Y-90775184D01*
X121410022Y-90706661D01*
X121430500Y-90630235D01*
X121430500Y-90551111D01*
X121430500Y-89326500D01*
X121450502Y-89258379D01*
X121504158Y-89211886D01*
X121556500Y-89200500D01*
X121628541Y-89200500D01*
X121821835Y-89162051D01*
X122003914Y-89086632D01*
X122167782Y-88977139D01*
X122307139Y-88837782D01*
X122416632Y-88673914D01*
X122456244Y-88578282D01*
X122500792Y-88523001D01*
X122568156Y-88500580D01*
X122572653Y-88500500D01*
X125309562Y-88500500D01*
X125385989Y-88480021D01*
X125411301Y-88465406D01*
X125454586Y-88450077D01*
X125583126Y-88429719D01*
X125703220Y-88368528D01*
X125798528Y-88273220D01*
X125859719Y-88153126D01*
X125880804Y-88020000D01*
X125859719Y-87886874D01*
X125798528Y-87766780D01*
X125703220Y-87671472D01*
X125703219Y-87671471D01*
X125621275Y-87629719D01*
X125583126Y-87610281D01*
X125450000Y-87589196D01*
X125316874Y-87610281D01*
X125316872Y-87610281D01*
X125316872Y-87610282D01*
X125196780Y-87671471D01*
X125101471Y-87766780D01*
X125079835Y-87809244D01*
X125071379Y-87825842D01*
X125068902Y-87830703D01*
X125020154Y-87882318D01*
X124956635Y-87899500D01*
X122572653Y-87899500D01*
X122504532Y-87879498D01*
X122458039Y-87825842D01*
X122456244Y-87821718D01*
X122433488Y-87766780D01*
X122416632Y-87726086D01*
X122307139Y-87562218D01*
X122210516Y-87465595D01*
X122176490Y-87403283D01*
X122181555Y-87332468D01*
X122224102Y-87275632D01*
X122290622Y-87250821D01*
X122299611Y-87250500D01*
X127223500Y-87250500D01*
X127291621Y-87270502D01*
G37*
%TD.AperFunction*%
%TA.AperFunction,Conductor*%
G36*
X128578274Y-95820502D02*
G01*
X128599248Y-95837405D01*
X128638748Y-95876905D01*
X128672774Y-95939217D01*
X128667709Y-96010032D01*
X128625162Y-96066868D01*
X128558642Y-96091679D01*
X128549653Y-96092000D01*
X128219000Y-96092000D01*
X128219000Y-97127031D01*
X128138694Y-97080667D01*
X128024244Y-97050000D01*
X127905756Y-97050000D01*
X127791306Y-97080667D01*
X127711000Y-97127031D01*
X127711000Y-96091999D01*
X127684215Y-96065214D01*
X127650189Y-96002902D01*
X127655254Y-95932087D01*
X127684211Y-95887028D01*
X127733837Y-95837402D01*
X127796148Y-95803379D01*
X127822930Y-95800500D01*
X128510153Y-95800500D01*
X128578274Y-95820502D01*
G37*
%TD.AperFunction*%
%TA.AperFunction,Conductor*%
G36*
X133225246Y-90477250D02*
G01*
X133230143Y-90481891D01*
X133277757Y-90529505D01*
X133397851Y-90590696D01*
X133530977Y-90611781D01*
X133664103Y-90590696D01*
X133784197Y-90529505D01*
X133816905Y-90496797D01*
X133879217Y-90462771D01*
X133950032Y-90467836D01*
X134006868Y-90510383D01*
X134031679Y-90576903D01*
X134032000Y-90585892D01*
X134032000Y-90746000D01*
X135067032Y-90746000D01*
X135020667Y-90826306D01*
X134990000Y-90940756D01*
X134990000Y-91059244D01*
X135020667Y-91173694D01*
X135067032Y-91254000D01*
X134032000Y-91254000D01*
X134032000Y-91948597D01*
X134038505Y-92009093D01*
X134089555Y-92145964D01*
X134089555Y-92145965D01*
X134177095Y-92262904D01*
X134294034Y-92350444D01*
X134430906Y-92401494D01*
X134491402Y-92407999D01*
X134491415Y-92408000D01*
X135186000Y-92408000D01*
X135186000Y-91372968D01*
X135266306Y-91419333D01*
X135380756Y-91450000D01*
X135499244Y-91450000D01*
X135613694Y-91419333D01*
X135694000Y-91372968D01*
X135694000Y-92408000D01*
X136388585Y-92408000D01*
X136388597Y-92407999D01*
X136449093Y-92401494D01*
X136585964Y-92350444D01*
X136585965Y-92350444D01*
X136702904Y-92262904D01*
X136790444Y-92145965D01*
X136790444Y-92145964D01*
X136841494Y-92009093D01*
X136847999Y-91948597D01*
X136848000Y-91948585D01*
X136848000Y-91703072D01*
X136868002Y-91634951D01*
X136921658Y-91588458D01*
X136991932Y-91578354D01*
X137056512Y-91607848D01*
X137074550Y-91627140D01*
X137163234Y-91744578D01*
X137313959Y-91881981D01*
X137313960Y-91881982D01*
X137487351Y-91989341D01*
X137487354Y-91989342D01*
X137487363Y-91989348D01*
X137677544Y-92063024D01*
X137878024Y-92100500D01*
X137878026Y-92100500D01*
X137981646Y-92100500D01*
X138049767Y-92120502D01*
X138096260Y-92174158D01*
X138106364Y-92244432D01*
X138076870Y-92309012D01*
X138070741Y-92315595D01*
X138032125Y-92354210D01*
X138032120Y-92354216D01*
X137946967Y-92481658D01*
X137922629Y-92518082D01*
X137916241Y-92533504D01*
X137847210Y-92700157D01*
X137847209Y-92700158D01*
X137808760Y-92893453D01*
X137808760Y-93090538D01*
X137845737Y-93276432D01*
X137847209Y-93283832D01*
X137922629Y-93465910D01*
X138032121Y-93629777D01*
X138737165Y-94334821D01*
X138901032Y-94444313D01*
X139083110Y-94519733D01*
X139235964Y-94550137D01*
X139298873Y-94583044D01*
X139334005Y-94644739D01*
X139330205Y-94715634D01*
X139300477Y-94762811D01*
X138784023Y-95279265D01*
X138721711Y-95313291D01*
X138650896Y-95308226D01*
X138594060Y-95265679D01*
X138571350Y-95214753D01*
X138540945Y-95061897D01*
X138465525Y-94879819D01*
X138356033Y-94715952D01*
X137650989Y-94010908D01*
X137487122Y-93901416D01*
X137305045Y-93825996D01*
X137111750Y-93787547D01*
X137111748Y-93787547D01*
X136914668Y-93787547D01*
X136914665Y-93787547D01*
X136721370Y-93825996D01*
X136721369Y-93825997D01*
X136539292Y-93901417D01*
X136375428Y-94010907D01*
X136375422Y-94010912D01*
X136236073Y-94150261D01*
X136236068Y-94150267D01*
X136126578Y-94314131D01*
X136051158Y-94496208D01*
X136051157Y-94496209D01*
X136012708Y-94689504D01*
X136012708Y-94886589D01*
X136038047Y-95013974D01*
X136051157Y-95079883D01*
X136126577Y-95261961D01*
X136236069Y-95425828D01*
X136941113Y-96130872D01*
X137104980Y-96240364D01*
X137287058Y-96315784D01*
X137439913Y-96346188D01*
X137502822Y-96379095D01*
X137537954Y-96440790D01*
X137534154Y-96511685D01*
X137504426Y-96558862D01*
X136987972Y-97075316D01*
X136925660Y-97109342D01*
X136854845Y-97104277D01*
X136798009Y-97061730D01*
X136775299Y-97010804D01*
X136744894Y-96857948D01*
X136669474Y-96675870D01*
X136559982Y-96512003D01*
X135854938Y-95806959D01*
X135691071Y-95697467D01*
X135508994Y-95622047D01*
X135315699Y-95583598D01*
X135315697Y-95583598D01*
X135118617Y-95583598D01*
X135118614Y-95583598D01*
X134925319Y-95622047D01*
X134925318Y-95622048D01*
X134743241Y-95697468D01*
X134579377Y-95806958D01*
X134579371Y-95806963D01*
X134440022Y-95946312D01*
X134440017Y-95946318D01*
X134338330Y-96098505D01*
X134330526Y-96110184D01*
X134276149Y-96241462D01*
X134272306Y-96250739D01*
X134227757Y-96306019D01*
X134160394Y-96328440D01*
X134091603Y-96310882D01*
X134066802Y-96291615D01*
X132977405Y-95202218D01*
X132943379Y-95139906D01*
X132940500Y-95113123D01*
X132940500Y-95075493D01*
X132960502Y-95007372D01*
X133014158Y-94960879D01*
X133084432Y-94950775D01*
X133149012Y-94980269D01*
X133159618Y-94990610D01*
X133163238Y-94994582D01*
X133313959Y-95131981D01*
X133313960Y-95131982D01*
X133487351Y-95239341D01*
X133487354Y-95239342D01*
X133487363Y-95239348D01*
X133677544Y-95313024D01*
X133878024Y-95350500D01*
X133878026Y-95350500D01*
X134081974Y-95350500D01*
X134081976Y-95350500D01*
X134282456Y-95313024D01*
X134472637Y-95239348D01*
X134646041Y-95131981D01*
X134796764Y-94994579D01*
X134807571Y-94980269D01*
X134850279Y-94923714D01*
X134919673Y-94831821D01*
X135010582Y-94649250D01*
X135066397Y-94453083D01*
X135085215Y-94250000D01*
X135066397Y-94046917D01*
X135010582Y-93850750D01*
X134919673Y-93668179D01*
X134895984Y-93636809D01*
X134796765Y-93505421D01*
X134646040Y-93368018D01*
X134646039Y-93368017D01*
X134472648Y-93260658D01*
X134472641Y-93260654D01*
X134472637Y-93260652D01*
X134315461Y-93199762D01*
X134282457Y-93186976D01*
X134206225Y-93172726D01*
X134081976Y-93149500D01*
X133878024Y-93149500D01*
X133839651Y-93156672D01*
X133769015Y-93149528D01*
X133713455Y-93105328D01*
X133690611Y-93038107D01*
X133690500Y-93032818D01*
X133690500Y-91930439D01*
X133690500Y-91930438D01*
X133680591Y-91893457D01*
X133680591Y-91893456D01*
X133680591Y-91893455D01*
X133670024Y-91854019D01*
X133670023Y-91854018D01*
X133670022Y-91854012D01*
X133630460Y-91785489D01*
X132792714Y-90947743D01*
X132758691Y-90885433D01*
X132763755Y-90814618D01*
X132806302Y-90757782D01*
X132811812Y-90753883D01*
X132817511Y-90750075D01*
X132828522Y-90742718D01*
X132967880Y-90603360D01*
X133036286Y-90500982D01*
X133090759Y-90455458D01*
X133161202Y-90446609D01*
X133225246Y-90477250D01*
G37*
%TD.AperFunction*%
%TA.AperFunction,Conductor*%
G36*
X131603701Y-91579126D02*
G01*
X131610284Y-91585255D01*
X132302595Y-92277566D01*
X132336621Y-92339878D01*
X132339500Y-92366661D01*
X132339500Y-92716000D01*
X132319498Y-92784121D01*
X132265842Y-92830614D01*
X132213500Y-92842000D01*
X131694000Y-92842000D01*
X131694000Y-93877031D01*
X131613694Y-93830667D01*
X131499244Y-93800000D01*
X131380756Y-93800000D01*
X131266306Y-93830667D01*
X131186000Y-93877031D01*
X131186000Y-92842000D01*
X130994020Y-92842000D01*
X130925899Y-92821998D01*
X130879406Y-92768342D01*
X130869302Y-92698068D01*
X130898796Y-92633488D01*
X130924018Y-92611235D01*
X130932499Y-92605568D01*
X131032470Y-92538770D01*
X131171828Y-92399412D01*
X131281320Y-92235545D01*
X131356740Y-92053467D01*
X131395189Y-91860171D01*
X131395189Y-91674350D01*
X131415191Y-91606229D01*
X131468847Y-91559736D01*
X131539121Y-91549632D01*
X131603701Y-91579126D01*
G37*
%TD.AperFunction*%
%TA.AperFunction,Conductor*%
G36*
X107750033Y-86823849D02*
G01*
X107806869Y-86866395D01*
X107831679Y-86932916D01*
X107832000Y-86941904D01*
X107832000Y-87496000D01*
X108867032Y-87496000D01*
X108820667Y-87576306D01*
X108790000Y-87690756D01*
X108790000Y-87809244D01*
X108820667Y-87923694D01*
X108867032Y-88004000D01*
X107824655Y-88004000D01*
X107778519Y-88029191D01*
X107707703Y-88024125D01*
X107650868Y-87981577D01*
X107646973Y-87976071D01*
X107579730Y-87875433D01*
X107579727Y-87875430D01*
X107579726Y-87875428D01*
X107440368Y-87736070D01*
X107276501Y-87626578D01*
X107276499Y-87626577D01*
X107239843Y-87611393D01*
X107184563Y-87566844D01*
X107162143Y-87499480D01*
X107179702Y-87430689D01*
X107230859Y-87382719D01*
X107297964Y-87348528D01*
X107393272Y-87253220D01*
X107454463Y-87133126D01*
X107470242Y-87033499D01*
X107500652Y-86969351D01*
X107505559Y-86964154D01*
X107616907Y-86852806D01*
X107679217Y-86818783D01*
X107750033Y-86823849D01*
G37*
%TD.AperFunction*%
%TA.AperFunction,Conductor*%
G36*
X106994000Y-85658000D02*
G01*
X107657582Y-85658000D01*
X107725703Y-85678002D01*
X107772196Y-85731658D01*
X107782300Y-85801932D01*
X107752806Y-85866512D01*
X107746683Y-85873089D01*
X107390485Y-86229287D01*
X107080623Y-86539149D01*
X107018311Y-86573174D01*
X107011240Y-86574501D01*
X106911352Y-86590323D01*
X106840941Y-86581225D01*
X106786626Y-86535504D01*
X106782521Y-86528875D01*
X106760206Y-86490224D01*
X106760201Y-86490218D01*
X106454489Y-86184506D01*
X106143076Y-85873093D01*
X106109053Y-85810783D01*
X106114117Y-85739968D01*
X106156664Y-85683132D01*
X106223184Y-85658321D01*
X106232173Y-85658000D01*
X106486000Y-85658000D01*
X106486000Y-84622968D01*
X106566306Y-84669333D01*
X106680756Y-84700000D01*
X106799244Y-84700000D01*
X106913694Y-84669333D01*
X106994000Y-84622968D01*
X106994000Y-85658000D01*
G37*
%TD.AperFunction*%
%TA.AperFunction,Conductor*%
G36*
X105494000Y-76908000D02*
G01*
X106188585Y-76908000D01*
X106188597Y-76907999D01*
X106249093Y-76901494D01*
X106385964Y-76850444D01*
X106385965Y-76850444D01*
X106502904Y-76762904D01*
X106590444Y-76645965D01*
X106590444Y-76645964D01*
X106641494Y-76509093D01*
X106647999Y-76448597D01*
X106648000Y-76448585D01*
X106648000Y-76203072D01*
X106668002Y-76134951D01*
X106721658Y-76088458D01*
X106791932Y-76078354D01*
X106856512Y-76107848D01*
X106874550Y-76127140D01*
X106963234Y-76244578D01*
X107113959Y-76381981D01*
X107113960Y-76381982D01*
X107287351Y-76489341D01*
X107287354Y-76489342D01*
X107287363Y-76489348D01*
X107477544Y-76563024D01*
X107678024Y-76600500D01*
X107678026Y-76600500D01*
X107881974Y-76600500D01*
X107881976Y-76600500D01*
X108082456Y-76563024D01*
X108247789Y-76498973D01*
X108318533Y-76493017D01*
X108381270Y-76526254D01*
X108382399Y-76527370D01*
X111568438Y-79713409D01*
X111602464Y-79775721D01*
X111597399Y-79846536D01*
X111554852Y-79903372D01*
X111488332Y-79928183D01*
X111479343Y-79928504D01*
X109978617Y-79928504D01*
X109899493Y-79928504D01*
X109858539Y-79939477D01*
X109823069Y-79948981D01*
X109823062Y-79948984D01*
X109754547Y-79988541D01*
X109754537Y-79988549D01*
X108585089Y-81157999D01*
X108195489Y-81547599D01*
X108173909Y-81569179D01*
X108139541Y-81603546D01*
X108139539Y-81603549D01*
X108099977Y-81672073D01*
X108079500Y-81748493D01*
X108079500Y-82792871D01*
X108059498Y-82860992D01*
X108005842Y-82907485D01*
X107935568Y-82917589D01*
X107893123Y-82903463D01*
X107885968Y-82899556D01*
X107749093Y-82848505D01*
X107688597Y-82842000D01*
X106994000Y-82842000D01*
X106994000Y-83877031D01*
X106913694Y-83830667D01*
X106799244Y-83800000D01*
X106680756Y-83800000D01*
X106566306Y-83830667D01*
X106486000Y-83877031D01*
X106486000Y-82842000D01*
X105791402Y-82842000D01*
X105730906Y-82848505D01*
X105594035Y-82899555D01*
X105594034Y-82899555D01*
X105477095Y-82987095D01*
X105389555Y-83104034D01*
X105389555Y-83104035D01*
X105338505Y-83240906D01*
X105332000Y-83301402D01*
X105332000Y-83996000D01*
X106367032Y-83996000D01*
X106320667Y-84076306D01*
X106290000Y-84190756D01*
X106290000Y-84309244D01*
X106320667Y-84423694D01*
X106367032Y-84504000D01*
X105332000Y-84504000D01*
X105332000Y-84757827D01*
X105311998Y-84825948D01*
X105258342Y-84872441D01*
X105188068Y-84882545D01*
X105123488Y-84853051D01*
X105116905Y-84846922D01*
X104377405Y-84107422D01*
X104343379Y-84045110D01*
X104340500Y-84018327D01*
X104340500Y-81284000D01*
X104360502Y-81215879D01*
X104414158Y-81169386D01*
X104466500Y-81158000D01*
X104986000Y-81158000D01*
X104986000Y-80122968D01*
X105066306Y-80169333D01*
X105180756Y-80200000D01*
X105299244Y-80200000D01*
X105413694Y-80169333D01*
X105494000Y-80122968D01*
X105494000Y-81158000D01*
X106188585Y-81158000D01*
X106188597Y-81157999D01*
X106249093Y-81151494D01*
X106385964Y-81100444D01*
X106385965Y-81100444D01*
X106502904Y-81012904D01*
X106590444Y-80895965D01*
X106590444Y-80895964D01*
X106641494Y-80759093D01*
X106647999Y-80698597D01*
X106648000Y-80698585D01*
X106648000Y-80453072D01*
X106668002Y-80384951D01*
X106721658Y-80338458D01*
X106791932Y-80328354D01*
X106856512Y-80357848D01*
X106874550Y-80377140D01*
X106963234Y-80494578D01*
X107113959Y-80631981D01*
X107113960Y-80631982D01*
X107287351Y-80739341D01*
X107287354Y-80739342D01*
X107287363Y-80739348D01*
X107477544Y-80813024D01*
X107678024Y-80850500D01*
X107678026Y-80850500D01*
X107881974Y-80850500D01*
X107881976Y-80850500D01*
X108082456Y-80813024D01*
X108272637Y-80739348D01*
X108446041Y-80631981D01*
X108596764Y-80494579D01*
X108719673Y-80331821D01*
X108810582Y-80149250D01*
X108866397Y-79953083D01*
X108885215Y-79750000D01*
X108866397Y-79546917D01*
X108810582Y-79350750D01*
X108719673Y-79168179D01*
X108685449Y-79122859D01*
X108596765Y-79005421D01*
X108446040Y-78868018D01*
X108446039Y-78868017D01*
X108272648Y-78760658D01*
X108272641Y-78760654D01*
X108272637Y-78760652D01*
X108156133Y-78715518D01*
X108082457Y-78686976D01*
X108015629Y-78674484D01*
X107881976Y-78649500D01*
X107678024Y-78649500D01*
X107577784Y-78668238D01*
X107477542Y-78686976D01*
X107338334Y-78740906D01*
X107287363Y-78760652D01*
X107287362Y-78760652D01*
X107287361Y-78760653D01*
X107287351Y-78760658D01*
X107113960Y-78868017D01*
X107113959Y-78868018D01*
X106963234Y-79005421D01*
X106874550Y-79122859D01*
X106817536Y-79165167D01*
X106746700Y-79169934D01*
X106684531Y-79135647D01*
X106650768Y-79073193D01*
X106648000Y-79046927D01*
X106648000Y-78801414D01*
X106647999Y-78801402D01*
X106641494Y-78740906D01*
X106590444Y-78604035D01*
X106590444Y-78604034D01*
X106502904Y-78487095D01*
X106385965Y-78399555D01*
X106249093Y-78348505D01*
X106188597Y-78342000D01*
X105494000Y-78342000D01*
X105494000Y-79377031D01*
X105413694Y-79330667D01*
X105299244Y-79300000D01*
X105180756Y-79300000D01*
X105066306Y-79330667D01*
X104986000Y-79377031D01*
X104986000Y-78342000D01*
X104466500Y-78342000D01*
X104398379Y-78321998D01*
X104351886Y-78268342D01*
X104340500Y-78216000D01*
X104340500Y-77034000D01*
X104360502Y-76965879D01*
X104414158Y-76919386D01*
X104466500Y-76908000D01*
X104986000Y-76908000D01*
X104986000Y-75872968D01*
X105066306Y-75919333D01*
X105180756Y-75950000D01*
X105299244Y-75950000D01*
X105413694Y-75919333D01*
X105494000Y-75872968D01*
X105494000Y-76908000D01*
G37*
%TD.AperFunction*%
%TA.AperFunction,Conductor*%
G36*
X116183185Y-67320502D02*
G01*
X116229678Y-67374158D01*
X116239782Y-67444432D01*
X116215932Y-67502009D01*
X116139555Y-67604034D01*
X116139555Y-67604035D01*
X116088505Y-67740906D01*
X116082000Y-67801402D01*
X116082000Y-68496000D01*
X117117032Y-68496000D01*
X117070667Y-68576306D01*
X117040000Y-68690756D01*
X117040000Y-68809244D01*
X117070667Y-68923694D01*
X117117032Y-69004000D01*
X116082000Y-69004000D01*
X116082000Y-69698597D01*
X116088505Y-69759093D01*
X116139555Y-69895964D01*
X116139555Y-69895965D01*
X116227095Y-70012904D01*
X116344034Y-70100444D01*
X116480906Y-70151494D01*
X116541402Y-70157999D01*
X116541415Y-70158000D01*
X117236000Y-70158000D01*
X117236000Y-69122968D01*
X117316306Y-69169333D01*
X117430756Y-69200000D01*
X117549244Y-69200000D01*
X117663694Y-69169333D01*
X117744000Y-69122968D01*
X117744000Y-70158000D01*
X118438585Y-70158000D01*
X118438597Y-70157999D01*
X118499093Y-70151494D01*
X118635964Y-70100444D01*
X118635965Y-70100444D01*
X118752904Y-70012904D01*
X118840444Y-69895965D01*
X118840444Y-69895964D01*
X118891494Y-69759093D01*
X118897999Y-69698597D01*
X118898000Y-69698585D01*
X118898000Y-69453072D01*
X118918002Y-69384951D01*
X118971658Y-69338458D01*
X119041932Y-69328354D01*
X119106512Y-69357848D01*
X119124550Y-69377140D01*
X119213234Y-69494578D01*
X119363959Y-69631981D01*
X119363960Y-69631982D01*
X119537351Y-69739341D01*
X119537355Y-69739343D01*
X119537363Y-69739348D01*
X119537367Y-69739349D01*
X119537370Y-69739351D01*
X119649016Y-69782603D01*
X119705312Y-69825862D01*
X119729282Y-69892690D01*
X119729500Y-69900094D01*
X119729500Y-72479565D01*
X119749977Y-72555985D01*
X119749978Y-72555988D01*
X119749979Y-72555989D01*
X119789540Y-72624511D01*
X119789542Y-72624513D01*
X119789545Y-72624517D01*
X122177595Y-75012566D01*
X122211620Y-75074878D01*
X122214500Y-75101661D01*
X122214500Y-76239565D01*
X122234977Y-76315986D01*
X122264484Y-76367093D01*
X122264484Y-76367094D01*
X122274537Y-76384507D01*
X122274539Y-76384509D01*
X122274540Y-76384511D01*
X123074540Y-77184511D01*
X123117704Y-77227675D01*
X123124434Y-77234405D01*
X123158459Y-77296718D01*
X123153393Y-77367534D01*
X123110846Y-77424369D01*
X123044325Y-77449179D01*
X123035338Y-77449500D01*
X121683869Y-77449500D01*
X121615748Y-77429498D01*
X121594774Y-77412595D01*
X114656300Y-70474121D01*
X114622274Y-70411809D01*
X114627339Y-70340994D01*
X114669886Y-70284158D01*
X114699879Y-70267535D01*
X114772629Y-70239351D01*
X114772628Y-70239351D01*
X114772637Y-70239348D01*
X114946041Y-70131981D01*
X115096764Y-69994579D01*
X115219673Y-69831821D01*
X115310582Y-69649250D01*
X115366397Y-69453083D01*
X115385215Y-69250000D01*
X115366397Y-69046917D01*
X115310582Y-68850750D01*
X115219673Y-68668179D01*
X115185449Y-68622859D01*
X115096765Y-68505421D01*
X114946040Y-68368018D01*
X114946039Y-68368017D01*
X114772648Y-68260658D01*
X114772641Y-68260654D01*
X114772637Y-68260652D01*
X114641160Y-68209718D01*
X114582457Y-68186976D01*
X114515629Y-68174484D01*
X114381976Y-68149500D01*
X114178024Y-68149500D01*
X114078121Y-68168175D01*
X113977542Y-68186976D01*
X113866470Y-68230006D01*
X113787363Y-68260652D01*
X113787362Y-68260652D01*
X113787361Y-68260653D01*
X113787351Y-68260658D01*
X113613960Y-68368017D01*
X113613959Y-68368018D01*
X113463234Y-68505421D01*
X113374550Y-68622859D01*
X113317536Y-68665167D01*
X113246700Y-68669934D01*
X113184531Y-68635647D01*
X113150768Y-68573193D01*
X113148000Y-68546927D01*
X113148000Y-68301414D01*
X113147999Y-68301402D01*
X113141494Y-68240906D01*
X113090444Y-68104035D01*
X113090444Y-68104034D01*
X113002904Y-67987095D01*
X112885965Y-67899555D01*
X112749093Y-67848505D01*
X112688597Y-67842000D01*
X111994000Y-67842000D01*
X111994000Y-68877031D01*
X111913694Y-68830667D01*
X111799244Y-68800000D01*
X111680756Y-68800000D01*
X111566306Y-68830667D01*
X111486000Y-68877031D01*
X111486000Y-67842000D01*
X110791402Y-67842000D01*
X110730906Y-67848505D01*
X110594035Y-67899555D01*
X110594034Y-67899555D01*
X110477095Y-67987095D01*
X110389555Y-68104034D01*
X110389555Y-68104035D01*
X110338505Y-68240906D01*
X110332000Y-68301402D01*
X110332000Y-68996000D01*
X111367032Y-68996000D01*
X111320667Y-69076306D01*
X111290000Y-69190756D01*
X111290000Y-69309244D01*
X111320667Y-69423694D01*
X111367032Y-69504000D01*
X110332000Y-69504000D01*
X110332000Y-70198597D01*
X110339348Y-70266930D01*
X110337753Y-70267101D01*
X110334438Y-70328880D01*
X110292908Y-70386463D01*
X110226839Y-70412452D01*
X110192470Y-70410808D01*
X110131976Y-70399500D01*
X109928024Y-70399500D01*
X109858737Y-70412452D01*
X109727542Y-70436976D01*
X109598171Y-70487095D01*
X109537363Y-70510652D01*
X109537362Y-70510652D01*
X109537361Y-70510653D01*
X109537351Y-70510658D01*
X109363960Y-70618017D01*
X109363959Y-70618018D01*
X109213234Y-70755421D01*
X109124550Y-70872859D01*
X109067536Y-70915167D01*
X108996700Y-70919934D01*
X108934531Y-70885647D01*
X108900768Y-70823193D01*
X108898000Y-70796927D01*
X108898000Y-70551414D01*
X108897999Y-70551402D01*
X108891494Y-70490906D01*
X108840444Y-70354035D01*
X108840444Y-70354034D01*
X108752904Y-70237095D01*
X108635965Y-70149555D01*
X108499093Y-70098505D01*
X108438597Y-70092000D01*
X107744000Y-70092000D01*
X107744000Y-71127031D01*
X107663694Y-71080667D01*
X107549244Y-71050000D01*
X107430756Y-71050000D01*
X107316306Y-71080667D01*
X107236000Y-71127031D01*
X107236000Y-70092000D01*
X107137161Y-70092000D01*
X107069040Y-70071998D01*
X107022547Y-70018342D01*
X107012443Y-69948068D01*
X107041937Y-69883488D01*
X107048066Y-69876905D01*
X109587566Y-67337405D01*
X109649878Y-67303379D01*
X109676661Y-67300500D01*
X116115064Y-67300500D01*
X116183185Y-67320502D01*
G37*
%TD.AperFunction*%
%TA.AperFunction,Conductor*%
G36*
X111994000Y-70658000D02*
G01*
X112688585Y-70658000D01*
X112688597Y-70657999D01*
X112749093Y-70651494D01*
X112885964Y-70600444D01*
X112885965Y-70600444D01*
X113002904Y-70512904D01*
X113090444Y-70395965D01*
X113090444Y-70395964D01*
X113141494Y-70259093D01*
X113147999Y-70198597D01*
X113148000Y-70198585D01*
X113148000Y-69953072D01*
X113168002Y-69884951D01*
X113221658Y-69838458D01*
X113291932Y-69828354D01*
X113356512Y-69857848D01*
X113374550Y-69877140D01*
X113463234Y-69994578D01*
X113613959Y-70131981D01*
X113613960Y-70131982D01*
X113787351Y-70239341D01*
X113787355Y-70239343D01*
X113787363Y-70239348D01*
X113787367Y-70239349D01*
X113787370Y-70239351D01*
X113899016Y-70282603D01*
X113955312Y-70325862D01*
X113979282Y-70392690D01*
X113979500Y-70400094D01*
X113979500Y-70562354D01*
X113990668Y-70604034D01*
X113999979Y-70638782D01*
X113999979Y-70638783D01*
X114006168Y-70649502D01*
X114006169Y-70649502D01*
X114039540Y-70707303D01*
X114316643Y-70984406D01*
X114350667Y-71046717D01*
X114345603Y-71117532D01*
X114303056Y-71174368D01*
X114236536Y-71199179D01*
X114227547Y-71199500D01*
X111183830Y-71199500D01*
X111115709Y-71179498D01*
X111069216Y-71125842D01*
X111062640Y-71107983D01*
X111062594Y-71107823D01*
X111060582Y-71100750D01*
X110969673Y-70918179D01*
X110925687Y-70859932D01*
X110900597Y-70793517D01*
X110915397Y-70724080D01*
X110965388Y-70673667D01*
X111026237Y-70658000D01*
X111486000Y-70658000D01*
X111486000Y-69622968D01*
X111566306Y-69669333D01*
X111680756Y-69700000D01*
X111799244Y-69700000D01*
X111913694Y-69669333D01*
X111994000Y-69622968D01*
X111994000Y-70658000D01*
G37*
%TD.AperFunction*%
%TA.AperFunction,Conductor*%
G36*
X123585825Y-67320502D02*
G01*
X123606799Y-67337405D01*
X125453905Y-69184511D01*
X125509854Y-69240460D01*
X125578376Y-69280021D01*
X125578378Y-69280021D01*
X125578379Y-69280022D01*
X125654799Y-69300499D01*
X125654803Y-69300500D01*
X125733927Y-69300500D01*
X126353339Y-69300500D01*
X126421460Y-69320502D01*
X126442434Y-69337405D01*
X126981934Y-69876905D01*
X127015960Y-69939217D01*
X127010895Y-70010032D01*
X126968348Y-70066868D01*
X126901828Y-70091679D01*
X126892839Y-70092000D01*
X126744000Y-70092000D01*
X126744000Y-71127031D01*
X126663694Y-71080667D01*
X126549244Y-71050000D01*
X126430756Y-71050000D01*
X126316306Y-71080667D01*
X126236000Y-71127031D01*
X126236000Y-70092000D01*
X125541402Y-70092000D01*
X125480906Y-70098505D01*
X125344035Y-70149555D01*
X125344034Y-70149555D01*
X125227095Y-70237095D01*
X125139555Y-70354034D01*
X125139555Y-70354035D01*
X125088505Y-70490906D01*
X125082000Y-70551402D01*
X125082000Y-70690990D01*
X125061998Y-70759111D01*
X125008342Y-70805604D01*
X124938068Y-70815708D01*
X124873488Y-70786214D01*
X124855450Y-70766922D01*
X124846765Y-70755421D01*
X124696040Y-70618018D01*
X124696039Y-70618017D01*
X124522648Y-70510658D01*
X124522641Y-70510654D01*
X124522637Y-70510652D01*
X124406133Y-70465518D01*
X124332457Y-70436976D01*
X124263040Y-70424000D01*
X124131976Y-70399500D01*
X123928024Y-70399500D01*
X123858737Y-70412452D01*
X123727542Y-70436976D01*
X123598171Y-70487095D01*
X123537363Y-70510652D01*
X123537362Y-70510652D01*
X123537361Y-70510653D01*
X123537351Y-70510658D01*
X123363960Y-70618017D01*
X123363959Y-70618018D01*
X123213234Y-70755421D01*
X123124550Y-70872859D01*
X123067536Y-70915167D01*
X122996700Y-70919934D01*
X122934531Y-70885647D01*
X122900768Y-70823193D01*
X122898000Y-70796927D01*
X122898000Y-70551414D01*
X122897999Y-70551402D01*
X122891494Y-70490906D01*
X122840444Y-70354035D01*
X122840444Y-70354034D01*
X122752904Y-70237095D01*
X122635965Y-70149555D01*
X122499093Y-70098505D01*
X122438597Y-70092000D01*
X121744000Y-70092000D01*
X121744000Y-71127031D01*
X121663694Y-71080667D01*
X121549244Y-71050000D01*
X121430756Y-71050000D01*
X121316306Y-71080667D01*
X121236000Y-71127031D01*
X121236000Y-70092000D01*
X120541402Y-70092000D01*
X120473070Y-70099348D01*
X120472790Y-70096748D01*
X120414562Y-70093618D01*
X120356983Y-70052083D01*
X120331000Y-69986011D01*
X120330500Y-69974802D01*
X120330500Y-69900094D01*
X120350502Y-69831973D01*
X120404158Y-69785480D01*
X120410984Y-69782603D01*
X120522629Y-69739351D01*
X120522628Y-69739351D01*
X120522637Y-69739348D01*
X120696041Y-69631981D01*
X120846764Y-69494579D01*
X120969673Y-69331821D01*
X121060582Y-69149250D01*
X121116397Y-68953083D01*
X121135215Y-68750000D01*
X121116397Y-68546917D01*
X121060582Y-68350750D01*
X120969673Y-68168179D01*
X120921233Y-68104034D01*
X120846765Y-68005421D01*
X120696040Y-67868018D01*
X120696039Y-67868017D01*
X120522648Y-67760658D01*
X120522641Y-67760654D01*
X120522637Y-67760652D01*
X120406133Y-67715518D01*
X120332457Y-67686976D01*
X120265629Y-67674484D01*
X120131976Y-67649500D01*
X119928024Y-67649500D01*
X119827784Y-67668238D01*
X119727542Y-67686976D01*
X119588334Y-67740906D01*
X119537363Y-67760652D01*
X119537362Y-67760652D01*
X119537361Y-67760653D01*
X119537351Y-67760658D01*
X119363960Y-67868017D01*
X119363959Y-67868018D01*
X119213234Y-68005421D01*
X119124550Y-68122859D01*
X119067536Y-68165167D01*
X118996700Y-68169934D01*
X118934531Y-68135647D01*
X118900768Y-68073193D01*
X118898000Y-68046927D01*
X118898000Y-67801414D01*
X118897999Y-67801402D01*
X118891494Y-67740906D01*
X118840444Y-67604035D01*
X118840444Y-67604034D01*
X118764068Y-67502009D01*
X118739257Y-67435489D01*
X118754348Y-67366115D01*
X118804550Y-67315913D01*
X118864936Y-67300500D01*
X123517704Y-67300500D01*
X123585825Y-67320502D01*
G37*
%TD.AperFunction*%
%TD*%
M02*
