%TF.GenerationSoftware,KiCad,Pcbnew,8.0.6*%
%TF.CreationDate,2024-11-17T17:26:00+01:00*%
%TF.ProjectId,Heart_NE555_THT,48656172-745f-44e4-9535-35355f544854,rev?*%
%TF.SameCoordinates,Original*%
%TF.FileFunction,Copper,L2,Bot*%
%TF.FilePolarity,Positive*%
%FSLAX46Y46*%
G04 Gerber Fmt 4.6, Leading zero omitted, Abs format (unit mm)*
G04 Created by KiCad (PCBNEW 8.0.6) date 2024-11-17 17:26:00*
%MOMM*%
%LPD*%
G01*
G04 APERTURE LIST*
G04 Aperture macros list*
%AMRoundRect*
0 Rectangle with rounded corners*
0 $1 Rounding radius*
0 $2 $3 $4 $5 $6 $7 $8 $9 X,Y pos of 4 corners*
0 Add a 4 corners polygon primitive as box body*
4,1,4,$2,$3,$4,$5,$6,$7,$8,$9,$2,$3,0*
0 Add four circle primitives for the rounded corners*
1,1,$1+$1,$2,$3*
1,1,$1+$1,$4,$5*
1,1,$1+$1,$6,$7*
1,1,$1+$1,$8,$9*
0 Add four rect primitives between the rounded corners*
20,1,$1+$1,$2,$3,$4,$5,0*
20,1,$1+$1,$4,$5,$6,$7,0*
20,1,$1+$1,$6,$7,$8,$9,0*
20,1,$1+$1,$8,$9,$2,$3,0*%
%AMHorizOval*
0 Thick line with rounded ends*
0 $1 width*
0 $2 $3 position (X,Y) of the first rounded end (center of the circle)*
0 $4 $5 position (X,Y) of the second rounded end (center of the circle)*
0 Add line between two ends*
20,1,$1,$2,$3,$4,$5,0*
0 Add two circle primitives to create the rounded ends*
1,1,$1,$2,$3*
1,1,$1,$4,$5*%
%AMRotRect*
0 Rectangle, with rotation*
0 The origin of the aperture is its center*
0 $1 length*
0 $2 width*
0 $3 Rotation angle, in degrees counterclockwise*
0 Add horizontal line*
21,1,$1,$2,0,0,$3*%
G04 Aperture macros list end*
%TA.AperFunction,ComponentPad*%
%ADD10R,2.400000X1.600000*%
%TD*%
%TA.AperFunction,ComponentPad*%
%ADD11O,2.400000X1.600000*%
%TD*%
%TA.AperFunction,ComponentPad*%
%ADD12R,1.800000X1.800000*%
%TD*%
%TA.AperFunction,ComponentPad*%
%ADD13C,1.800000*%
%TD*%
%TA.AperFunction,ComponentPad*%
%ADD14C,1.600000*%
%TD*%
%TA.AperFunction,ComponentPad*%
%ADD15O,1.600000X1.600000*%
%TD*%
%TA.AperFunction,SMDPad,CuDef*%
%ADD16RoundRect,0.500000X0.500000X-1.500000X0.500000X1.500000X-0.500000X1.500000X-0.500000X-1.500000X0*%
%TD*%
%TA.AperFunction,ComponentPad*%
%ADD17RotRect,2.400000X1.600000X315.000000*%
%TD*%
%TA.AperFunction,ComponentPad*%
%ADD18HorizOval,1.600000X0.282843X-0.282843X-0.282843X0.282843X0*%
%TD*%
%TA.AperFunction,ComponentPad*%
%ADD19RotRect,2.400000X1.600000X45.000000*%
%TD*%
%TA.AperFunction,ComponentPad*%
%ADD20HorizOval,1.600000X0.282843X0.282843X-0.282843X-0.282843X0*%
%TD*%
%TA.AperFunction,ComponentPad*%
%ADD21C,2.340000*%
%TD*%
%TA.AperFunction,ComponentPad*%
%ADD22R,1.600000X1.600000*%
%TD*%
%TA.AperFunction,ComponentPad*%
%ADD23C,1.524000*%
%TD*%
%TA.AperFunction,ComponentPad*%
%ADD24R,3.000000X3.000000*%
%TD*%
%TA.AperFunction,ComponentPad*%
%ADD25C,3.000000*%
%TD*%
%TA.AperFunction,ViaPad*%
%ADD26C,0.450000*%
%TD*%
%TA.AperFunction,Conductor*%
%ADD27C,0.200000*%
%TD*%
G04 APERTURE END LIST*
D10*
%TO.P,U1,1,GND*%
%TO.N,GND*%
X128750000Y-88200000D03*
D11*
%TO.P,U1,2,TR*%
%TO.N,Net-(SW1A-B)*%
X128750000Y-85660000D03*
%TO.P,U1,3,Q*%
%TO.N,Net-(D2-K)*%
X128750000Y-83120000D03*
%TO.P,U1,4,R*%
%TO.N,VCC*%
X128750000Y-80580000D03*
%TO.P,U1,5,CV*%
%TO.N,Net-(U1-CV)*%
X121130000Y-80580000D03*
%TO.P,U1,6,THR*%
%TO.N,Net-(SW1A-B)*%
X121130000Y-83120000D03*
%TO.P,U1,7,DIS*%
%TO.N,Net-(U1-DIS)*%
X121130000Y-85660000D03*
%TO.P,U1,8,VCC*%
%TO.N,VCC*%
X121130000Y-88200000D03*
%TD*%
D12*
%TO.P,D26,1,K*%
%TO.N,/Common-R*%
X119740000Y-97500000D03*
D13*
%TO.P,D26,2,A*%
%TO.N,Net-(D14-A)*%
X122280000Y-97500000D03*
%TD*%
D12*
%TO.P,D25,1,K*%
%TO.N,/Common-R*%
X116240000Y-94250000D03*
D13*
%TO.P,D25,2,A*%
%TO.N,Net-(D13-A)*%
X118780000Y-94250000D03*
%TD*%
D12*
%TO.P,D24,1,K*%
%TO.N,/Common-R*%
X112490000Y-91000000D03*
D13*
%TO.P,D24,2,A*%
%TO.N,Net-(D12-A)*%
X115030000Y-91000000D03*
%TD*%
D12*
%TO.P,D23,1,K*%
%TO.N,/Common-R*%
X109240000Y-87750000D03*
D13*
%TO.P,D23,2,A*%
%TO.N,Net-(D11-A)*%
X111780000Y-87750000D03*
%TD*%
D12*
%TO.P,D22,1,K*%
%TO.N,/Common-R*%
X106740000Y-84250000D03*
D13*
%TO.P,D22,2,A*%
%TO.N,Net-(D10-A)*%
X109280000Y-84250000D03*
%TD*%
D12*
%TO.P,D21,1,K*%
%TO.N,/Common-R*%
X105240000Y-79750000D03*
D13*
%TO.P,D21,2,A*%
%TO.N,Net-(D21-A)*%
X107780000Y-79750000D03*
%TD*%
D12*
%TO.P,D20,1,K*%
%TO.N,/Common-R*%
X105240000Y-75500000D03*
D13*
%TO.P,D20,2,A*%
%TO.N,Net-(D20-A)*%
X107780000Y-75500000D03*
%TD*%
D12*
%TO.P,D17,1,K*%
%TO.N,/Common-R*%
X117490000Y-68750000D03*
D13*
%TO.P,D17,2,A*%
%TO.N,Net-(D17-A)*%
X120030000Y-68750000D03*
%TD*%
D12*
%TO.P,D16,1,K*%
%TO.N,/Common-R*%
X121490000Y-71500000D03*
D13*
%TO.P,D16,2,A*%
%TO.N,Net-(D16-A)*%
X124030000Y-71500000D03*
%TD*%
D12*
%TO.P,D15,1,K*%
%TO.N,/Common-R*%
X123715000Y-75000000D03*
D13*
%TO.P,D15,2,A*%
%TO.N,Net-(D15-A)*%
X126255000Y-75000000D03*
%TD*%
D12*
%TO.P,D14,1,K*%
%TO.N,/Common-R*%
X126490000Y-71500000D03*
D13*
%TO.P,D14,2,A*%
%TO.N,Net-(D14-A)*%
X129030000Y-71500000D03*
%TD*%
D12*
%TO.P,D13,1,K*%
%TO.N,/Common-R*%
X130490000Y-68750000D03*
D13*
%TO.P,D13,2,A*%
%TO.N,Net-(D13-A)*%
X133030000Y-68750000D03*
%TD*%
D12*
%TO.P,D11,1,K*%
%TO.N,/Common-R*%
X140465000Y-71750000D03*
D13*
%TO.P,D11,2,A*%
%TO.N,Net-(D11-A)*%
X143005000Y-71750000D03*
%TD*%
D12*
%TO.P,D6,1,K*%
%TO.N,/Common-R*%
X135440000Y-91000000D03*
D13*
%TO.P,D6,2,A*%
%TO.N,Net-(D18-A)*%
X137980000Y-91000000D03*
%TD*%
D12*
%TO.P,D10,1,K*%
%TO.N,/Common-R*%
X142465000Y-75500000D03*
D13*
%TO.P,D10,2,A*%
%TO.N,Net-(D10-A)*%
X145005000Y-75500000D03*
%TD*%
D12*
%TO.P,D3,1,K*%
%TO.N,/Common-R*%
X123990000Y-100250000D03*
D13*
%TO.P,D3,2,A*%
%TO.N,Net-(D15-A)*%
X126530000Y-100250000D03*
%TD*%
D12*
%TO.P,D7,1,K*%
%TO.N,/Common-R*%
X138190000Y-87750000D03*
D13*
%TO.P,D7,2,A*%
%TO.N,Net-(D19-A)*%
X140730000Y-87750000D03*
%TD*%
D12*
%TO.P,D5,1,K*%
%TO.N,/Common-R*%
X131440000Y-94250000D03*
D13*
%TO.P,D5,2,A*%
%TO.N,Net-(D17-A)*%
X133980000Y-94250000D03*
%TD*%
D12*
%TO.P,D4,1,K*%
%TO.N,/Common-R*%
X127965000Y-97500000D03*
D13*
%TO.P,D4,2,A*%
%TO.N,Net-(D16-A)*%
X130505000Y-97500000D03*
%TD*%
D12*
%TO.P,D9,1,K*%
%TO.N,/Common-R*%
X142740000Y-79750000D03*
D13*
%TO.P,D9,2,A*%
%TO.N,Net-(D21-A)*%
X145280000Y-79750000D03*
%TD*%
D12*
%TO.P,D8,1,K*%
%TO.N,/Common-R*%
X141475000Y-84250000D03*
D13*
%TO.P,D8,2,A*%
%TO.N,Net-(D20-A)*%
X144015000Y-84250000D03*
%TD*%
D12*
%TO.P,D12,1,K*%
%TO.N,/Common-R*%
X136240000Y-68750000D03*
D13*
%TO.P,D12,2,A*%
%TO.N,Net-(D12-A)*%
X138780000Y-68750000D03*
%TD*%
D12*
%TO.P,D19,1,K*%
%TO.N,/Common-R*%
X107490000Y-71500000D03*
D13*
%TO.P,D19,2,A*%
%TO.N,Net-(D19-A)*%
X110030000Y-71500000D03*
%TD*%
D12*
%TO.P,D18,1,K*%
%TO.N,/Common-R*%
X111740000Y-69250000D03*
D13*
%TO.P,D18,2,A*%
%TO.N,Net-(D18-A)*%
X114280000Y-69250000D03*
%TD*%
D14*
%TO.P,C4,1*%
%TO.N,VCC*%
X124025000Y-65225000D03*
%TO.P,C4,2*%
%TO.N,GND*%
X126525000Y-65225000D03*
%TD*%
%TO.P,R2,1*%
%TO.N,VCC*%
X148750000Y-93330000D03*
D15*
%TO.P,R2,2*%
%TO.N,Net-(D1-A)*%
X148750000Y-83170000D03*
%TD*%
D14*
%TO.P,R3,1*%
%TO.N,GND*%
X148750000Y-80330000D03*
D15*
%TO.P,R3,2*%
%TO.N,/Common-R*%
X148750000Y-70170000D03*
%TD*%
D16*
%TO.P,SW2,1*%
%TO.N,+3V0*%
X101900000Y-92100000D03*
%TO.P,SW2,2*%
%TO.N,VCC*%
X101900000Y-70100000D03*
%TD*%
D17*
%TO.P,U2,1,Q5*%
%TO.N,Net-(D20-A)*%
X126519744Y-95070890D03*
D18*
%TO.P,U2,2,Q1*%
%TO.N,Net-(D16-A)*%
X128315795Y-93274839D03*
%TO.P,U2,3,Q0*%
%TO.N,Net-(D15-A)*%
X130111846Y-91478788D03*
%TO.P,U2,4,Q2*%
%TO.N,Net-(D17-A)*%
X131907898Y-89682736D03*
%TO.P,U2,5,Q6*%
%TO.N,Net-(D21-A)*%
X133703949Y-87886685D03*
%TO.P,U2,6,Q7*%
%TO.N,Net-(D10-A)*%
X135500000Y-86090634D03*
%TO.P,U2,7,Q3*%
%TO.N,Net-(D18-A)*%
X137296051Y-84294583D03*
%TO.P,U2,8,VSS*%
%TO.N,GND*%
X139092103Y-82498531D03*
%TO.P,U2,9,Q8*%
%TO.N,Net-(D11-A)*%
X144480256Y-87886685D03*
%TO.P,U2,10,Q4*%
%TO.N,Net-(D19-A)*%
X142684205Y-89682736D03*
%TO.P,U2,11,Q9*%
%TO.N,Net-(D1-K)*%
X140888154Y-91478788D03*
%TO.P,U2,12,Cout*%
%TO.N,unconnected-(U2-Cout-Pad12)*%
X139092103Y-93274839D03*
%TO.P,U2,13,CKEN*%
%TO.N,Net-(D1-K)*%
X137296051Y-95070890D03*
%TO.P,U2,14,CLK*%
%TO.N,Net-(D2-K)*%
X135500000Y-96866941D03*
%TO.P,U2,15,Reset*%
%TO.N,Net-(U2-Reset)*%
X133703949Y-98662992D03*
%TO.P,U2,16,VDD*%
%TO.N,VCC*%
X131907898Y-100459044D03*
%TD*%
D19*
%TO.P,U3,1,Q5*%
%TO.N,unconnected-(U3-Q5-Pad1)*%
X117296051Y-99572359D03*
D20*
%TO.P,U3,2,Q1*%
%TO.N,Net-(D12-A)*%
X115500000Y-97776308D03*
%TO.P,U3,3,Q0*%
%TO.N,unconnected-(U3-Q0-Pad3)*%
X113703949Y-95980257D03*
%TO.P,U3,4,Q2*%
%TO.N,Net-(D13-A)*%
X111907897Y-94184205D03*
%TO.P,U3,5,Q6*%
%TO.N,unconnected-(U3-Q6-Pad5)*%
X110111846Y-92388154D03*
%TO.P,U3,6,Q7*%
%TO.N,unconnected-(U3-Q7-Pad6)*%
X108315795Y-90592103D03*
%TO.P,U3,7,Q3*%
%TO.N,Net-(D14-A)*%
X106519744Y-88796052D03*
%TO.P,U3,8,VSS*%
%TO.N,GND*%
X104723692Y-87000000D03*
%TO.P,U3,9,Q8*%
%TO.N,unconnected-(U3-Q8-Pad9)*%
X110111846Y-81611847D03*
%TO.P,U3,10,Q4*%
%TO.N,Net-(U2-Reset)*%
X111907897Y-83407898D03*
%TO.P,U3,11,Q9*%
%TO.N,unconnected-(U3-Q9-Pad11)*%
X113703949Y-85203949D03*
%TO.P,U3,12,Cout*%
%TO.N,unconnected-(U3-Cout-Pad12)*%
X115500000Y-87000000D03*
%TO.P,U3,13,CKEN*%
%TO.N,GND*%
X117296051Y-88796052D03*
%TO.P,U3,14,CLK*%
%TO.N,Net-(D1-A)*%
X119092102Y-90592103D03*
%TO.P,U3,15,Reset*%
%TO.N,Net-(D15-A)*%
X120888153Y-92388154D03*
%TO.P,U3,16,VDD*%
%TO.N,VCC*%
X122684205Y-94184205D03*
%TD*%
D14*
%TO.P,R1,1*%
%TO.N,Net-(U1-DIS)*%
X130080000Y-104500000D03*
D15*
%TO.P,R1,2*%
%TO.N,Net-(SW1A-B)*%
X119920000Y-104500000D03*
%TD*%
D14*
%TO.P,C3,1*%
%TO.N,Net-(U1-CV)*%
X108500000Y-96000000D03*
%TO.P,C3,2*%
%TO.N,GND*%
X106000000Y-96000000D03*
%TD*%
D21*
%TO.P,RV1,1,1*%
%TO.N,Net-(U1-DIS)*%
X112875000Y-103600000D03*
%TO.P,RV1,2,2*%
%TO.N,VCC*%
X110375000Y-101100000D03*
%TO.P,RV1,3,3*%
%TO.N,unconnected-(RV1-Pad3)*%
X107875000Y-103600000D03*
%TD*%
D22*
%TO.P,D1,1,K*%
%TO.N,Net-(D1-K)*%
X119420000Y-64800000D03*
D15*
%TO.P,D1,2,A*%
%TO.N,Net-(D1-A)*%
X111800000Y-64800000D03*
%TD*%
D22*
%TO.P,D2,1,K*%
%TO.N,Net-(D2-K)*%
X138400000Y-65200000D03*
D15*
%TO.P,D2,2,A*%
%TO.N,Net-(D1-A)*%
X130780000Y-65200000D03*
%TD*%
D14*
%TO.P,C1,1*%
%TO.N,Net-(SW1A-C)*%
X140000000Y-98500000D03*
%TO.P,C1,2*%
%TO.N,GND*%
X142500000Y-98500000D03*
%TD*%
D23*
%TO.P,SW1,1,A*%
%TO.N,Net-(SW1A-A)*%
X142200000Y-103200000D03*
%TO.P,SW1,2,B*%
%TO.N,Net-(SW1A-B)*%
X139700000Y-103200000D03*
%TO.P,SW1,3,C*%
%TO.N,Net-(SW1A-C)*%
X137200000Y-103200000D03*
%TD*%
D14*
%TO.P,C2,1*%
%TO.N,Net-(SW1A-A)*%
X145400000Y-96800000D03*
%TO.P,C2,2*%
%TO.N,GND*%
X150400000Y-96800000D03*
%TD*%
D24*
%TO.P,BT2,1,+*%
%TO.N,+3V0*%
X114200000Y-78200000D03*
D25*
%TO.P,BT2,2,-*%
%TO.N,GND*%
X134200000Y-78200000D03*
%TD*%
D26*
%TO.N,VCC*%
X112350000Y-72024500D03*
X124910000Y-83540000D03*
X125450000Y-97500000D03*
X125450000Y-88020000D03*
X113450000Y-72050000D03*
X126480000Y-98550000D03*
%TO.N,Net-(U1-CV)*%
X130730000Y-81760000D03*
X126280000Y-82560000D03*
X121800000Y-101350000D03*
X123931196Y-82911196D03*
X131710000Y-82930000D03*
X136000000Y-99750000D03*
X141615040Y-93614977D03*
%TO.N,Net-(D1-K)*%
X150750000Y-82500000D03*
X150374500Y-75500000D03*
%TO.N,Net-(D1-A)*%
X100100000Y-67800000D03*
X107000000Y-93250000D03*
%TO.N,Net-(D2-K)*%
X150625000Y-86375000D03*
X150774500Y-79250000D03*
%TO.N,Net-(D15-A)*%
X133530977Y-90180977D03*
X124774500Y-92500000D03*
X131630000Y-76080000D03*
%TO.N,Net-(D16-A)*%
X126280000Y-84170000D03*
X124060000Y-84160000D03*
%TO.N,Net-(D17-A)*%
X123750000Y-77000000D03*
X125671196Y-81171195D03*
%TO.N,Net-(D18-A)*%
X139500000Y-90000000D03*
X125500000Y-77750000D03*
%TO.N,Net-(D19-A)*%
X138500000Y-86274500D03*
X125000000Y-78405518D03*
%TO.N,Net-(D20-A)*%
X114765000Y-82485000D03*
X146750000Y-86750000D03*
X144890000Y-85360000D03*
X125250000Y-92000000D03*
X122550000Y-90500000D03*
%TO.N,Net-(D21-A)*%
X130819500Y-86500000D03*
X118250000Y-85000000D03*
%TO.N,Net-(D10-A)*%
X124847582Y-79855826D03*
X119250000Y-81250000D03*
X119250000Y-78750000D03*
%TO.N,Net-(D11-A)*%
X102750000Y-102200000D03*
%TO.N,Net-(D13-A)*%
X117400000Y-82400000D03*
X118200000Y-81300000D03*
%TO.N,Net-(SW1A-B)*%
X124890000Y-85630000D03*
%TO.N,Net-(U1-DIS)*%
X114500000Y-75500000D03*
X112500000Y-75500000D03*
%TO.N,Net-(U2-Reset)*%
X107044744Y-87000000D03*
%TD*%
D27*
%TO.N,+3V0*%
X102100000Y-79900000D02*
X103662500Y-78337500D01*
X103724998Y-78275002D02*
X103662500Y-78337500D01*
X114250000Y-77750000D02*
X114750000Y-78250000D01*
X101900000Y-80100000D02*
X102100000Y-79900000D01*
X101900000Y-92100000D02*
X101900000Y-80100000D01*
X114274520Y-78275002D02*
X103724998Y-78275002D01*
%TO.N,VCC*%
X132300000Y-72930000D02*
X127750000Y-68380000D01*
X125880330Y-76627207D02*
X131825256Y-76627207D01*
X126480000Y-98550000D02*
X126480000Y-98530000D01*
X125450000Y-88020000D02*
X125450000Y-84080000D01*
X127750000Y-68380000D02*
X124130000Y-68380000D01*
X125450000Y-84080000D02*
X124910000Y-83540000D01*
X126480000Y-98530000D02*
X125450000Y-97500000D01*
X124910000Y-83540000D02*
X124910000Y-83187537D01*
X122684205Y-94184205D02*
X123075000Y-93793410D01*
X123295000Y-67545000D02*
X124025000Y-66815000D01*
X124322582Y-78184955D02*
X125880330Y-76627207D01*
X113450000Y-72050000D02*
X117200000Y-72050000D01*
X120670000Y-70170000D02*
X123295000Y-67545000D01*
X124322582Y-80073289D02*
X124829293Y-80580000D01*
X124130000Y-68380000D02*
X123295000Y-67545000D01*
X124829293Y-80580000D02*
X128750000Y-80580000D01*
X119080000Y-70170000D02*
X120670000Y-70170000D01*
X127517537Y-80580000D02*
X128750000Y-80580000D01*
X112350000Y-72024500D02*
X112251557Y-72024500D01*
X110327057Y-70100000D02*
X101900000Y-70100000D01*
X132300000Y-76152463D02*
X132300000Y-72930000D01*
X131825256Y-76627207D02*
X132300000Y-76152463D01*
X117200000Y-72050000D02*
X119080000Y-70170000D01*
X124910000Y-83187537D02*
X127517537Y-80580000D01*
X112251557Y-72024500D02*
X110327057Y-70100000D01*
X124322582Y-78184955D02*
X124322582Y-80073289D01*
X124025000Y-66815000D02*
X124025000Y-65225000D01*
%TO.N,Net-(U1-CV)*%
X141364977Y-93614977D02*
X141615040Y-93614977D01*
X137653732Y-89800000D02*
X137680000Y-89800000D01*
X138477057Y-89800000D02*
X139500000Y-90822943D01*
X133000000Y-102750000D02*
X136000000Y-99750000D01*
X137653732Y-89800000D02*
X131710000Y-83856268D01*
X123200000Y-102750000D02*
X133000000Y-102750000D01*
X127080000Y-81760000D02*
X130730000Y-81760000D01*
X139500000Y-91750000D02*
X141364977Y-93614977D01*
X121880000Y-80580000D02*
X121130000Y-80580000D01*
X126280000Y-82560000D02*
X127080000Y-81760000D01*
X131710000Y-83856268D02*
X131710000Y-82930000D01*
X139500000Y-90822943D02*
X139500000Y-91750000D01*
X123931196Y-82911196D02*
X123931196Y-82631196D01*
X137680000Y-89800000D02*
X138477057Y-89800000D01*
X123931196Y-82631196D02*
X121880000Y-80580000D01*
X121800000Y-101350000D02*
X123200000Y-102750000D01*
%TO.N,Net-(D1-K)*%
X140750000Y-63250000D02*
X142750000Y-65250000D01*
X144521212Y-91478788D02*
X140888154Y-91478788D01*
X150000000Y-75125500D02*
X150374500Y-75500000D01*
X140929110Y-95070890D02*
X137296051Y-95070890D01*
X150750000Y-85250000D02*
X144521212Y-91478788D01*
X150750000Y-82500000D02*
X150750000Y-85250000D01*
X144521212Y-91478788D02*
X140929110Y-95070890D01*
X150000000Y-73500000D02*
X150000000Y-75125500D01*
X119310000Y-64750000D02*
X120810000Y-63250000D01*
X120810000Y-63250000D02*
X140750000Y-63250000D01*
X142750000Y-66250000D02*
X142750000Y-65250000D01*
X150000000Y-73500000D02*
X142750000Y-66250000D01*
%TO.N,Net-(D1-A)*%
X107000000Y-93250000D02*
X107213532Y-93250000D01*
X106750000Y-64750000D02*
X111690000Y-64750000D01*
X110777871Y-89685661D02*
X115885661Y-89685661D01*
X115885661Y-89685661D02*
X116792103Y-90592103D01*
X100300000Y-67600000D02*
X103900000Y-67600000D01*
X100100000Y-67800000D02*
X100300000Y-67600000D01*
X103900000Y-67600000D02*
X106750000Y-64750000D01*
X107213532Y-93250000D02*
X110777871Y-89685661D01*
X116792103Y-90592103D02*
X119092102Y-90592103D01*
%TO.N,Net-(D2-K)*%
X146000000Y-73750000D02*
X146000000Y-72440000D01*
X150625000Y-86375000D02*
X140133059Y-96866941D01*
X140133059Y-96866941D02*
X135500000Y-96866941D01*
X146000000Y-72440000D02*
X138310000Y-64750000D01*
X150774500Y-78524500D02*
X146000000Y-73750000D01*
X150774500Y-79250000D02*
X150774500Y-78524500D01*
%TO.N,Net-(D15-A)*%
X129250000Y-75000000D02*
X126255000Y-75000000D01*
X132233166Y-91478788D02*
X130111846Y-91478788D01*
X127802792Y-100250000D02*
X129230977Y-98821815D01*
X124774500Y-98494500D02*
X124774500Y-92500000D01*
X131630000Y-76080000D02*
X130330000Y-76080000D01*
X129230977Y-94480977D02*
X130111846Y-93600108D01*
X126530000Y-100250000D02*
X124774500Y-98494500D01*
X126530000Y-100250000D02*
X127802792Y-100250000D01*
X129230977Y-98821815D02*
X129230977Y-94480977D01*
X130330000Y-76080000D02*
X129250000Y-75000000D01*
X133530977Y-90180977D02*
X132233166Y-91478788D01*
X130111846Y-93600108D02*
X130111846Y-91478788D01*
%TO.N,Net-(D16-A)*%
X123540000Y-76460000D02*
X123210000Y-76790000D01*
X123210000Y-76790000D02*
X123210000Y-80460000D01*
X127120000Y-85270000D02*
X127120000Y-92079044D01*
X124930000Y-72400000D02*
X124930000Y-76084314D01*
X126280000Y-84170000D02*
X126280000Y-84430000D01*
X124060000Y-83550000D02*
X124510000Y-83100000D01*
X124060000Y-84160000D02*
X124060000Y-83550000D01*
X124930000Y-76084314D02*
X124554314Y-76460000D01*
X124510000Y-81760000D02*
X123210000Y-80460000D01*
X124554314Y-76460000D02*
X123540000Y-76460000D01*
X124510000Y-83100000D02*
X124510000Y-81760000D01*
X126280000Y-84430000D02*
X127120000Y-85270000D01*
X124030000Y-71500000D02*
X124930000Y-72400000D01*
X127120000Y-92079044D02*
X128315795Y-93274839D01*
%TO.N,Net-(D17-A)*%
X124561195Y-81171195D02*
X125671196Y-81171195D01*
X123610000Y-80220000D02*
X124561195Y-81171195D01*
X123750000Y-77000000D02*
X123610000Y-77140000D01*
X123610000Y-77140000D02*
X123610000Y-80220000D01*
%TO.N,Net-(D18-A)*%
X130751468Y-77750000D02*
X137296051Y-84294583D01*
X139500000Y-86498532D02*
X137296051Y-84294583D01*
X139500000Y-90000000D02*
X139500000Y-86498532D01*
X125500000Y-77750000D02*
X130751468Y-77750000D01*
%TO.N,Net-(D19-A)*%
X142662736Y-89682736D02*
X140730000Y-87750000D01*
X138201000Y-85975500D02*
X138500000Y-86274500D01*
X137250000Y-85975500D02*
X138201000Y-85975500D01*
X129680018Y-78405518D02*
X137250000Y-85975500D01*
X125000000Y-78405518D02*
X129680018Y-78405518D01*
X142684205Y-89682736D02*
X142662736Y-89682736D01*
%TO.N,Net-(D20-A)*%
X119630000Y-87430000D02*
X114765000Y-82565000D01*
X144890000Y-85360000D02*
X145360000Y-85360000D01*
X119630000Y-88655635D02*
X119630000Y-87430000D01*
X121474365Y-90500000D02*
X119630000Y-88655635D01*
X145360000Y-85360000D02*
X146750000Y-86750000D01*
X122550000Y-90500000D02*
X121474365Y-90500000D01*
X125250000Y-92000000D02*
X126519744Y-93269744D01*
X126519744Y-93269744D02*
X126519744Y-95070890D01*
X114765000Y-82565000D02*
X114765000Y-82485000D01*
%TO.N,Net-(D21-A)*%
X116000000Y-81750000D02*
X113750000Y-81750000D01*
X111750000Y-79750000D02*
X107780000Y-79750000D01*
X132206185Y-87886685D02*
X133703949Y-87886685D01*
X118250000Y-85000000D02*
X118250000Y-84000000D01*
X113750000Y-81750000D02*
X111750000Y-79750000D01*
X130819500Y-86500000D02*
X132206185Y-87886685D01*
X118250000Y-84000000D02*
X116000000Y-81750000D01*
%TO.N,Net-(D10-A)*%
X135500000Y-86090634D02*
X135500000Y-84807791D01*
X126000000Y-79000000D02*
X125144174Y-79855826D01*
X119250000Y-81250000D02*
X119250000Y-78750000D01*
X125144174Y-79855826D02*
X124847582Y-79855826D01*
X135500000Y-84807791D02*
X129692209Y-79000000D01*
X129692209Y-79000000D02*
X126000000Y-79000000D01*
%TO.N,Net-(D11-A)*%
X102500000Y-88800000D02*
X102500000Y-86800000D01*
X102750000Y-102200000D02*
X102750000Y-94750000D01*
X105550000Y-83050000D02*
X102500000Y-86100000D01*
X103300000Y-94200000D02*
X103300000Y-89600000D01*
X102750000Y-102200000D02*
X102750000Y-97350000D01*
X108000000Y-84667057D02*
X108000000Y-83110000D01*
X108950100Y-85617157D02*
X108000000Y-84667057D01*
X111780000Y-87750000D02*
X109647157Y-85617157D01*
X102750000Y-94750000D02*
X103300000Y-94200000D01*
X109647157Y-85617157D02*
X108950100Y-85617157D01*
X102500000Y-86100000D02*
X102500000Y-86800000D01*
X107940000Y-83050000D02*
X105550000Y-83050000D01*
X108000000Y-83110000D02*
X107940000Y-83050000D01*
X103300000Y-89600000D02*
X102500000Y-88800000D01*
X102500000Y-86800000D02*
X102500000Y-86500000D01*
%TO.N,Net-(D12-A)*%
X115500000Y-97776308D02*
X117440000Y-95836308D01*
X117440000Y-92137208D02*
X116302792Y-91000000D01*
X117440000Y-95836308D02*
X117440000Y-92137208D01*
X116302792Y-91000000D02*
X115030000Y-91000000D01*
%TO.N,Net-(D13-A)*%
X118200000Y-81300000D02*
X117400000Y-82100000D01*
X117400000Y-82100000D02*
X117400000Y-82400000D01*
%TO.N,Net-(D14-A)*%
X106365686Y-105650000D02*
X104750000Y-104034314D01*
X104750000Y-90565796D02*
X106519744Y-88796052D01*
X104750000Y-104034314D02*
X104750000Y-90565796D01*
X122280000Y-97500000D02*
X114130000Y-105650000D01*
X114130000Y-105650000D02*
X106365686Y-105650000D01*
%TO.N,Net-(SW1A-B)*%
X124490000Y-85630000D02*
X124065000Y-86055000D01*
X124250000Y-97613529D02*
X124250000Y-86240000D01*
X124065000Y-86055000D02*
X121130000Y-83120000D01*
X119920000Y-104500000D02*
X119920000Y-101943529D01*
X119920000Y-101943529D02*
X124250000Y-97613529D01*
X124890000Y-85630000D02*
X124490000Y-85630000D01*
X124250000Y-86240000D02*
X124065000Y-86055000D01*
%TO.N,Net-(U1-DIS)*%
X118725000Y-76525000D02*
X117700000Y-75500000D01*
X118725000Y-83255000D02*
X118725000Y-76525000D01*
X118000000Y-106500000D02*
X118250000Y-106500000D01*
X98125000Y-103525000D02*
X98125000Y-81025000D01*
X121130000Y-85660000D02*
X118725000Y-83255000D01*
X111150000Y-76850000D02*
X112500000Y-75500000D01*
X117700000Y-75500000D02*
X114500000Y-75500000D01*
X101100000Y-106500000D02*
X98125000Y-103525000D01*
X118250000Y-106500000D02*
X101100000Y-106500000D01*
X98125000Y-81025000D02*
X102300000Y-76850000D01*
X102300000Y-76850000D02*
X111150000Y-76850000D01*
X126250000Y-106500000D02*
X128250000Y-104500000D01*
X128250000Y-104500000D02*
X130080000Y-104500000D01*
X118250000Y-106500000D02*
X126250000Y-106500000D01*
%TO.N,Net-(U2-Reset)*%
X104350000Y-89150000D02*
X104350000Y-104200000D01*
X104350000Y-104200000D02*
X106250000Y-106100000D01*
X136430000Y-98930000D02*
X133970957Y-98930000D01*
X123350000Y-103400000D02*
X133100000Y-103400000D01*
X136525000Y-99025000D02*
X136430000Y-98930000D01*
X120650000Y-106100000D02*
X123350000Y-103400000D01*
X106250000Y-106100000D02*
X120650000Y-106100000D01*
X107044744Y-87000000D02*
X106500000Y-87000000D01*
X133970957Y-98930000D02*
X133703949Y-98662992D01*
X106500000Y-87000000D02*
X104350000Y-89150000D01*
X133100000Y-103400000D02*
X136525000Y-99975000D01*
X136525000Y-99975000D02*
X136525000Y-99025000D01*
%TD*%
%TA.AperFunction,Conductor*%
%TO.N,GND*%
G36*
X120373460Y-63045502D02*
G01*
X120419953Y-63099158D01*
X120430057Y-63169432D01*
X120400563Y-63234012D01*
X120394434Y-63240595D01*
X119872434Y-63762595D01*
X119810122Y-63796621D01*
X119783339Y-63799500D01*
X118600249Y-63799500D01*
X118541771Y-63811132D01*
X118541768Y-63811133D01*
X118475448Y-63855448D01*
X118431133Y-63921768D01*
X118431132Y-63921771D01*
X118419500Y-63980249D01*
X118419500Y-65619750D01*
X118422714Y-65635910D01*
X118431133Y-65678231D01*
X118475448Y-65744552D01*
X118541769Y-65788867D01*
X118600252Y-65800500D01*
X118600253Y-65800500D01*
X120239747Y-65800500D01*
X120239748Y-65800500D01*
X120298231Y-65788867D01*
X120364552Y-65744552D01*
X120408867Y-65678231D01*
X120420500Y-65619748D01*
X120420500Y-64116661D01*
X120440502Y-64048540D01*
X120457405Y-64027566D01*
X120897566Y-63587405D01*
X120959878Y-63553379D01*
X120986661Y-63550500D01*
X140573339Y-63550500D01*
X140641460Y-63570502D01*
X140662434Y-63587405D01*
X142412595Y-65337566D01*
X142446621Y-65399878D01*
X142449500Y-65426661D01*
X142449500Y-66289565D01*
X142469977Y-66365985D01*
X142469978Y-66365987D01*
X142469979Y-66365989D01*
X142486348Y-66394341D01*
X142509540Y-66434511D01*
X142509542Y-66434513D01*
X142509545Y-66434517D01*
X149662595Y-73587566D01*
X149696621Y-73649878D01*
X149699500Y-73676661D01*
X149699500Y-75165065D01*
X149714215Y-75219979D01*
X149719979Y-75241489D01*
X149751980Y-75296917D01*
X149759540Y-75310011D01*
X149913650Y-75464121D01*
X149947674Y-75526431D01*
X149948999Y-75533486D01*
X149964781Y-75633126D01*
X149983713Y-75670282D01*
X150023032Y-75747451D01*
X150025972Y-75753220D01*
X150121280Y-75848528D01*
X150241374Y-75909719D01*
X150374500Y-75930804D01*
X150507626Y-75909719D01*
X150627720Y-75848528D01*
X150723028Y-75753220D01*
X150784219Y-75633126D01*
X150805304Y-75500000D01*
X150784219Y-75366874D01*
X150723028Y-75246780D01*
X150627720Y-75151472D01*
X150627719Y-75151471D01*
X150528180Y-75100754D01*
X150507626Y-75090281D01*
X150408002Y-75074502D01*
X150343851Y-75044090D01*
X150338620Y-75039149D01*
X150337405Y-75037934D01*
X150303379Y-74975622D01*
X150300500Y-74948839D01*
X150300500Y-73460438D01*
X150300499Y-73460434D01*
X150280022Y-73384014D01*
X150280021Y-73384013D01*
X150280021Y-73384011D01*
X150240460Y-73315489D01*
X150184511Y-73259540D01*
X148230228Y-71305257D01*
X148196202Y-71242945D01*
X148201267Y-71172130D01*
X148243814Y-71115294D01*
X148310334Y-71090483D01*
X148358941Y-71098363D01*
X148359350Y-71097017D01*
X148365271Y-71098813D01*
X148365273Y-71098814D01*
X148553868Y-71156024D01*
X148553872Y-71156024D01*
X148553874Y-71156025D01*
X148749997Y-71175341D01*
X148750000Y-71175341D01*
X148750003Y-71175341D01*
X148946124Y-71156025D01*
X148946126Y-71156025D01*
X148946127Y-71156024D01*
X148946132Y-71156024D01*
X149134727Y-71098814D01*
X149308538Y-71005910D01*
X149460883Y-70880883D01*
X149585910Y-70728538D01*
X149678814Y-70554727D01*
X149736024Y-70366132D01*
X149737564Y-70350499D01*
X149755341Y-70170003D01*
X149755341Y-70169996D01*
X149736025Y-69973875D01*
X149736025Y-69973873D01*
X149736024Y-69973870D01*
X149736024Y-69973868D01*
X149678814Y-69785273D01*
X149585910Y-69611462D01*
X149460883Y-69459117D01*
X149308538Y-69334090D01*
X149226684Y-69290338D01*
X149134728Y-69241186D01*
X148946125Y-69183974D01*
X148750003Y-69164659D01*
X148749997Y-69164659D01*
X148553875Y-69183974D01*
X148553873Y-69183974D01*
X148365271Y-69241186D01*
X148191461Y-69334090D01*
X148039117Y-69459117D01*
X147914090Y-69611461D01*
X147821186Y-69785271D01*
X147763974Y-69973873D01*
X147763974Y-69973875D01*
X147744659Y-70169996D01*
X147744659Y-70170003D01*
X147763974Y-70366124D01*
X147763974Y-70366126D01*
X147774001Y-70399179D01*
X147812623Y-70526500D01*
X147822983Y-70560650D01*
X147821185Y-70561195D01*
X147827835Y-70623049D01*
X147796055Y-70686535D01*
X147734997Y-70722762D01*
X147664045Y-70720228D01*
X147614742Y-70689771D01*
X143087405Y-66162434D01*
X143053379Y-66100122D01*
X143050500Y-66073339D01*
X143050500Y-65999996D01*
X147969538Y-65999996D01*
X147969538Y-66000003D01*
X147989336Y-66201026D01*
X148047977Y-66394341D01*
X148143203Y-66572497D01*
X148271352Y-66728647D01*
X148427502Y-66856795D01*
X148427502Y-66856796D01*
X148427506Y-66856798D01*
X148605659Y-66952023D01*
X148798967Y-67010662D01*
X148798971Y-67010662D01*
X148798973Y-67010663D01*
X148999997Y-67030462D01*
X149000000Y-67030462D01*
X149000003Y-67030462D01*
X149201026Y-67010663D01*
X149201027Y-67010662D01*
X149201033Y-67010662D01*
X149394341Y-66952023D01*
X149572494Y-66856798D01*
X149572495Y-66856796D01*
X149572497Y-66856796D01*
X149572497Y-66856795D01*
X149728647Y-66728647D01*
X149856798Y-66572494D01*
X149952023Y-66394341D01*
X150010662Y-66201033D01*
X150010690Y-66200756D01*
X150030462Y-66000003D01*
X150030462Y-65999996D01*
X150010663Y-65798973D01*
X150010662Y-65798971D01*
X150010662Y-65798967D01*
X149952023Y-65605659D01*
X149856798Y-65427506D01*
X149856796Y-65427502D01*
X149728647Y-65271352D01*
X149572497Y-65143204D01*
X149572497Y-65143203D01*
X149394341Y-65047977D01*
X149292915Y-65017210D01*
X149201033Y-64989338D01*
X149201032Y-64989337D01*
X149201026Y-64989336D01*
X149000003Y-64969538D01*
X148999997Y-64969538D01*
X148798973Y-64989336D01*
X148605658Y-65047977D01*
X148427502Y-65143203D01*
X148427502Y-65143204D01*
X148271352Y-65271352D01*
X148143204Y-65427502D01*
X148143203Y-65427502D01*
X148047977Y-65605658D01*
X147989336Y-65798973D01*
X147969538Y-65999996D01*
X143050500Y-65999996D01*
X143050500Y-65210438D01*
X143050499Y-65210434D01*
X143030022Y-65134014D01*
X143030021Y-65134013D01*
X143030021Y-65134011D01*
X142990460Y-65065489D01*
X142934511Y-65009540D01*
X141165566Y-63240595D01*
X141131540Y-63178283D01*
X141136605Y-63107468D01*
X141179152Y-63050632D01*
X141245672Y-63025821D01*
X141254661Y-63025500D01*
X148991715Y-63025500D01*
X148996707Y-63025500D01*
X149003300Y-63025672D01*
X149304319Y-63041449D01*
X149317436Y-63042827D01*
X149611911Y-63089467D01*
X149624811Y-63092209D01*
X149912799Y-63169374D01*
X149925332Y-63173447D01*
X150083109Y-63234012D01*
X150203672Y-63280292D01*
X150215719Y-63285656D01*
X150481368Y-63421010D01*
X150492785Y-63427601D01*
X150742838Y-63589988D01*
X150753495Y-63597732D01*
X150985197Y-63785360D01*
X150994998Y-63794185D01*
X151205814Y-64005001D01*
X151214639Y-64014802D01*
X151397769Y-64240949D01*
X151402263Y-64246498D01*
X151410013Y-64257164D01*
X151572394Y-64507208D01*
X151578989Y-64518631D01*
X151714343Y-64784280D01*
X151719707Y-64796327D01*
X151826550Y-65074661D01*
X151830626Y-65087205D01*
X151907790Y-65375188D01*
X151910532Y-65388088D01*
X151957172Y-65682563D01*
X151958550Y-65695679D01*
X151974327Y-65996698D01*
X151974500Y-66003293D01*
X151974500Y-103996706D01*
X151974327Y-104003301D01*
X151958550Y-104304320D01*
X151957172Y-104317436D01*
X151910532Y-104611911D01*
X151907790Y-104624811D01*
X151830626Y-104912794D01*
X151826550Y-104925338D01*
X151719707Y-105203672D01*
X151714343Y-105215719D01*
X151578989Y-105481368D01*
X151572394Y-105492791D01*
X151410015Y-105742832D01*
X151402263Y-105753501D01*
X151214639Y-105985197D01*
X151205814Y-105994998D01*
X150994998Y-106205814D01*
X150985197Y-106214639D01*
X150753501Y-106402263D01*
X150742832Y-106410015D01*
X150492791Y-106572394D01*
X150481368Y-106578989D01*
X150215719Y-106714343D01*
X150203672Y-106719707D01*
X149925338Y-106826550D01*
X149912794Y-106830626D01*
X149624811Y-106907790D01*
X149611911Y-106910532D01*
X149317436Y-106957172D01*
X149304320Y-106958550D01*
X149020488Y-106973426D01*
X149003299Y-106974327D01*
X148996707Y-106974500D01*
X126499380Y-106974500D01*
X126431259Y-106954498D01*
X126384766Y-106900842D01*
X126374662Y-106830568D01*
X126404156Y-106765988D01*
X126428357Y-106746005D01*
X126427959Y-106745487D01*
X126434504Y-106740463D01*
X126434511Y-106740460D01*
X126490460Y-106684511D01*
X128337566Y-104837405D01*
X128399878Y-104803379D01*
X128426661Y-104800500D01*
X129032188Y-104800500D01*
X129100309Y-104820502D01*
X129146802Y-104874158D01*
X129148658Y-104879071D01*
X129148816Y-104879006D01*
X129151185Y-104884726D01*
X129218500Y-105010662D01*
X129244090Y-105058538D01*
X129369117Y-105210883D01*
X129521462Y-105335910D01*
X129695273Y-105428814D01*
X129883868Y-105486024D01*
X129883872Y-105486024D01*
X129883874Y-105486025D01*
X130079997Y-105505341D01*
X130080000Y-105505341D01*
X130080003Y-105505341D01*
X130276124Y-105486025D01*
X130276126Y-105486025D01*
X130276127Y-105486024D01*
X130276132Y-105486024D01*
X130464727Y-105428814D01*
X130638538Y-105335910D01*
X130790883Y-105210883D01*
X130915910Y-105058538D01*
X131008814Y-104884727D01*
X131066024Y-104696132D01*
X131066719Y-104689076D01*
X131085341Y-104500003D01*
X131085341Y-104499996D01*
X131066025Y-104303875D01*
X131066025Y-104303873D01*
X131066024Y-104303870D01*
X131066024Y-104303868D01*
X131008814Y-104115273D01*
X130915910Y-103941462D01*
X130887162Y-103906433D01*
X130859409Y-103841087D01*
X130871390Y-103771109D01*
X130919303Y-103718717D01*
X130984562Y-103700500D01*
X133139562Y-103700500D01*
X133215989Y-103680021D01*
X133284511Y-103640460D01*
X133340460Y-103584511D01*
X133724974Y-103199997D01*
X136232843Y-103199997D01*
X136232843Y-103200002D01*
X136251425Y-103388676D01*
X136251426Y-103388682D01*
X136251427Y-103388683D01*
X136306463Y-103570115D01*
X136395838Y-103737324D01*
X136516117Y-103883883D01*
X136662676Y-104004162D01*
X136829885Y-104093537D01*
X137011317Y-104148573D01*
X137011321Y-104148573D01*
X137011323Y-104148574D01*
X137199997Y-104167157D01*
X137200000Y-104167157D01*
X137200003Y-104167157D01*
X137388676Y-104148574D01*
X137388677Y-104148573D01*
X137388683Y-104148573D01*
X137570115Y-104093537D01*
X137737324Y-104004162D01*
X137883883Y-103883883D01*
X138004162Y-103737324D01*
X138093537Y-103570115D01*
X138148573Y-103388683D01*
X138150055Y-103373642D01*
X138167157Y-103200002D01*
X138167157Y-103199997D01*
X138732843Y-103199997D01*
X138732843Y-103200002D01*
X138751425Y-103388676D01*
X138751426Y-103388682D01*
X138751427Y-103388683D01*
X138806463Y-103570115D01*
X138895838Y-103737324D01*
X139016117Y-103883883D01*
X139162676Y-104004162D01*
X139329885Y-104093537D01*
X139511317Y-104148573D01*
X139511321Y-104148573D01*
X139511323Y-104148574D01*
X139699997Y-104167157D01*
X139700000Y-104167157D01*
X139700003Y-104167157D01*
X139888676Y-104148574D01*
X139888677Y-104148573D01*
X139888683Y-104148573D01*
X140070115Y-104093537D01*
X140237324Y-104004162D01*
X140383883Y-103883883D01*
X140504162Y-103737324D01*
X140593537Y-103570115D01*
X140648573Y-103388683D01*
X140650055Y-103373642D01*
X140667157Y-103200002D01*
X140667157Y-103199997D01*
X141232843Y-103199997D01*
X141232843Y-103200002D01*
X141251425Y-103388676D01*
X141251426Y-103388682D01*
X141251427Y-103388683D01*
X141306463Y-103570115D01*
X141395838Y-103737324D01*
X141516117Y-103883883D01*
X141662676Y-104004162D01*
X141829885Y-104093537D01*
X142011317Y-104148573D01*
X142011321Y-104148573D01*
X142011323Y-104148574D01*
X142199997Y-104167157D01*
X142200000Y-104167157D01*
X142200003Y-104167157D01*
X142388676Y-104148574D01*
X142388677Y-104148573D01*
X142388683Y-104148573D01*
X142570115Y-104093537D01*
X142737324Y-104004162D01*
X142742400Y-103999996D01*
X147969538Y-103999996D01*
X147969538Y-104000003D01*
X147989336Y-104201026D01*
X147989337Y-104201032D01*
X147989338Y-104201033D01*
X148029920Y-104334814D01*
X148047977Y-104394341D01*
X148143203Y-104572497D01*
X148271352Y-104728647D01*
X148427502Y-104856795D01*
X148427502Y-104856796D01*
X148427506Y-104856798D01*
X148605659Y-104952023D01*
X148798967Y-105010662D01*
X148798971Y-105010662D01*
X148798973Y-105010663D01*
X148999997Y-105030462D01*
X149000000Y-105030462D01*
X149000003Y-105030462D01*
X149201026Y-105010663D01*
X149201027Y-105010662D01*
X149201033Y-105010662D01*
X149394341Y-104952023D01*
X149572494Y-104856798D01*
X149572495Y-104856796D01*
X149572497Y-104856796D01*
X149572497Y-104856795D01*
X149728647Y-104728647D01*
X149856798Y-104572494D01*
X149952023Y-104394341D01*
X150010662Y-104201033D01*
X150010925Y-104198368D01*
X150030462Y-104000003D01*
X150030462Y-103999996D01*
X150010663Y-103798973D01*
X150010662Y-103798971D01*
X150010662Y-103798967D01*
X149952023Y-103605659D01*
X149856798Y-103427506D01*
X149856796Y-103427502D01*
X149728647Y-103271352D01*
X149572497Y-103143204D01*
X149572497Y-103143203D01*
X149394341Y-103047977D01*
X149204738Y-102990462D01*
X149201033Y-102989338D01*
X149201032Y-102989337D01*
X149201026Y-102989336D01*
X149000003Y-102969538D01*
X148999997Y-102969538D01*
X148798973Y-102989336D01*
X148605658Y-103047977D01*
X148427502Y-103143203D01*
X148427502Y-103143204D01*
X148271352Y-103271352D01*
X148143204Y-103427502D01*
X148143203Y-103427502D01*
X148047977Y-103605658D01*
X147989336Y-103798973D01*
X147969538Y-103999996D01*
X142742400Y-103999996D01*
X142883883Y-103883883D01*
X143004162Y-103737324D01*
X143093537Y-103570115D01*
X143148573Y-103388683D01*
X143150055Y-103373642D01*
X143167157Y-103200002D01*
X143167157Y-103199997D01*
X143148574Y-103011323D01*
X143148573Y-103011321D01*
X143148573Y-103011317D01*
X143093537Y-102829885D01*
X143004162Y-102662676D01*
X142883883Y-102516117D01*
X142737324Y-102395838D01*
X142570115Y-102306463D01*
X142388683Y-102251427D01*
X142388682Y-102251426D01*
X142388676Y-102251425D01*
X142200003Y-102232843D01*
X142199997Y-102232843D01*
X142011323Y-102251425D01*
X141829884Y-102306463D01*
X141662675Y-102395838D01*
X141516117Y-102516117D01*
X141395838Y-102662675D01*
X141306463Y-102829884D01*
X141251425Y-103011323D01*
X141232843Y-103199997D01*
X140667157Y-103199997D01*
X140648574Y-103011323D01*
X140648573Y-103011321D01*
X140648573Y-103011317D01*
X140593537Y-102829885D01*
X140504162Y-102662676D01*
X140383883Y-102516117D01*
X140237324Y-102395838D01*
X140070115Y-102306463D01*
X139888683Y-102251427D01*
X139888682Y-102251426D01*
X139888676Y-102251425D01*
X139700003Y-102232843D01*
X139699997Y-102232843D01*
X139511323Y-102251425D01*
X139329884Y-102306463D01*
X139162675Y-102395838D01*
X139016117Y-102516117D01*
X138895838Y-102662675D01*
X138806463Y-102829884D01*
X138751425Y-103011323D01*
X138732843Y-103199997D01*
X138167157Y-103199997D01*
X138148574Y-103011323D01*
X138148573Y-103011321D01*
X138148573Y-103011317D01*
X138093537Y-102829885D01*
X138004162Y-102662676D01*
X137883883Y-102516117D01*
X137737324Y-102395838D01*
X137570115Y-102306463D01*
X137388683Y-102251427D01*
X137388682Y-102251426D01*
X137388676Y-102251425D01*
X137200003Y-102232843D01*
X137199997Y-102232843D01*
X137011323Y-102251425D01*
X136829884Y-102306463D01*
X136662675Y-102395838D01*
X136516117Y-102516117D01*
X136395838Y-102662675D01*
X136306463Y-102829884D01*
X136251425Y-103011323D01*
X136232843Y-103199997D01*
X133724974Y-103199997D01*
X136765460Y-100159511D01*
X136797007Y-100104869D01*
X136805021Y-100090989D01*
X136825500Y-100014562D01*
X136825500Y-98985438D01*
X136824258Y-98980804D01*
X136805022Y-98909014D01*
X136805021Y-98909013D01*
X136805021Y-98909011D01*
X136765460Y-98840489D01*
X136709511Y-98784540D01*
X136614511Y-98689540D01*
X136545989Y-98649979D01*
X136545988Y-98649978D01*
X136545985Y-98649977D01*
X136469565Y-98629500D01*
X136469562Y-98629500D01*
X135022885Y-98629500D01*
X134954764Y-98609498D01*
X134908271Y-98555842D01*
X134906476Y-98551718D01*
X134885052Y-98499996D01*
X138994659Y-98499996D01*
X138994659Y-98500003D01*
X139013974Y-98696124D01*
X139013974Y-98696126D01*
X139071186Y-98884728D01*
X139142387Y-99017934D01*
X139164090Y-99058538D01*
X139289117Y-99210883D01*
X139441462Y-99335910D01*
X139615273Y-99428814D01*
X139803868Y-99486024D01*
X139803872Y-99486024D01*
X139803874Y-99486025D01*
X139999997Y-99505341D01*
X140000000Y-99505341D01*
X140000003Y-99505341D01*
X140196124Y-99486025D01*
X140196126Y-99486025D01*
X140196127Y-99486024D01*
X140196132Y-99486024D01*
X140384727Y-99428814D01*
X140558538Y-99335910D01*
X140710883Y-99210883D01*
X140835910Y-99058538D01*
X140928814Y-98884727D01*
X140986024Y-98696132D01*
X140986673Y-98689540D01*
X141005341Y-98500003D01*
X141005341Y-98499996D01*
X141434871Y-98499996D01*
X141434871Y-98500003D01*
X141455335Y-98707789D01*
X141515949Y-98907607D01*
X141614377Y-99091753D01*
X141614379Y-99091755D01*
X141663969Y-99152181D01*
X142139886Y-98676264D01*
X142179920Y-98745606D01*
X142254394Y-98820080D01*
X142323734Y-98860113D01*
X141847817Y-99336029D01*
X141908244Y-99385620D01*
X141908246Y-99385622D01*
X142092392Y-99484050D01*
X142292210Y-99544664D01*
X142499997Y-99565129D01*
X142500003Y-99565129D01*
X142707789Y-99544664D01*
X142907607Y-99484050D01*
X143091754Y-99385621D01*
X143152182Y-99336029D01*
X142676266Y-98860113D01*
X142745606Y-98820080D01*
X142820080Y-98745606D01*
X142860113Y-98676266D01*
X143336029Y-99152182D01*
X143385621Y-99091754D01*
X143484050Y-98907607D01*
X143544664Y-98707789D01*
X143565129Y-98500003D01*
X143565129Y-98499996D01*
X143544664Y-98292210D01*
X143484050Y-98092392D01*
X143385622Y-97908246D01*
X143385620Y-97908244D01*
X143336029Y-97847817D01*
X142860113Y-98323733D01*
X142820080Y-98254394D01*
X142745606Y-98179920D01*
X142676265Y-98139886D01*
X143152181Y-97663969D01*
X143091755Y-97614379D01*
X143091753Y-97614377D01*
X142907607Y-97515949D01*
X142707789Y-97455335D01*
X142500003Y-97434871D01*
X142499997Y-97434871D01*
X142292210Y-97455335D01*
X142092392Y-97515949D01*
X141908251Y-97614375D01*
X141908245Y-97614379D01*
X141847816Y-97663969D01*
X142323733Y-98139886D01*
X142254394Y-98179920D01*
X142179920Y-98254394D01*
X142139886Y-98323733D01*
X141663969Y-97847816D01*
X141614379Y-97908245D01*
X141614375Y-97908251D01*
X141515949Y-98092392D01*
X141455335Y-98292210D01*
X141434871Y-98499996D01*
X141005341Y-98499996D01*
X140986025Y-98303875D01*
X140986025Y-98303873D01*
X140986024Y-98303870D01*
X140986024Y-98303868D01*
X140928814Y-98115273D01*
X140835910Y-97941462D01*
X140710883Y-97789117D01*
X140558538Y-97664090D01*
X140482970Y-97623698D01*
X140384728Y-97571186D01*
X140196125Y-97513974D01*
X140000003Y-97494659D01*
X139999997Y-97494659D01*
X139803875Y-97513974D01*
X139803873Y-97513974D01*
X139615271Y-97571186D01*
X139441461Y-97664090D01*
X139289117Y-97789117D01*
X139164090Y-97941461D01*
X139071186Y-98115271D01*
X139013974Y-98303873D01*
X139013974Y-98303875D01*
X138994659Y-98499996D01*
X134885052Y-98499996D01*
X134873423Y-98471921D01*
X134763931Y-98308054D01*
X134058887Y-97603010D01*
X133895020Y-97493518D01*
X133712943Y-97418098D01*
X133519648Y-97379649D01*
X133519646Y-97379649D01*
X133322566Y-97379649D01*
X133322563Y-97379649D01*
X133129268Y-97418098D01*
X133129267Y-97418099D01*
X133046987Y-97452181D01*
X132957960Y-97489058D01*
X132947190Y-97493519D01*
X132783326Y-97603009D01*
X132783320Y-97603014D01*
X132643971Y-97742363D01*
X132643966Y-97742369D01*
X132539144Y-97899248D01*
X132534475Y-97906235D01*
X132511852Y-97960851D01*
X132459056Y-98088310D01*
X132459055Y-98088311D01*
X132420606Y-98281606D01*
X132420606Y-98478691D01*
X132459055Y-98671985D01*
X132534475Y-98854063D01*
X132643967Y-99017930D01*
X133349011Y-99722974D01*
X133512878Y-99832466D01*
X133694956Y-99907886D01*
X133888252Y-99946335D01*
X133888253Y-99946335D01*
X134085331Y-99946335D01*
X134085332Y-99946335D01*
X134278628Y-99907886D01*
X134460706Y-99832466D01*
X134624573Y-99722974D01*
X134763931Y-99583616D01*
X134873423Y-99419749D01*
X134919595Y-99308280D01*
X134964142Y-99253001D01*
X135031506Y-99230580D01*
X135036003Y-99230500D01*
X135613562Y-99230500D01*
X135681683Y-99250502D01*
X135728176Y-99304158D01*
X135738280Y-99374432D01*
X135708786Y-99439012D01*
X135702657Y-99445595D01*
X135651473Y-99496778D01*
X135651471Y-99496780D01*
X135590280Y-99616875D01*
X135574501Y-99716496D01*
X135544088Y-99780649D01*
X135539148Y-99785879D01*
X132912434Y-102412595D01*
X132850122Y-102446620D01*
X132823339Y-102449500D01*
X123376661Y-102449500D01*
X123308540Y-102429498D01*
X123287566Y-102412595D01*
X122260851Y-101385880D01*
X122226825Y-101323568D01*
X122225500Y-101316513D01*
X122209719Y-101216874D01*
X122148528Y-101096780D01*
X122053220Y-101001472D01*
X122053219Y-101001471D01*
X121993173Y-100970876D01*
X121933126Y-100940281D01*
X121800000Y-100919196D01*
X121799999Y-100919196D01*
X121671262Y-100939586D01*
X121600851Y-100930486D01*
X121546537Y-100884764D01*
X121525565Y-100816936D01*
X121544592Y-100748537D01*
X121562453Y-100726046D01*
X122674405Y-99614095D01*
X122736717Y-99580069D01*
X122807533Y-99585134D01*
X122864368Y-99627681D01*
X122889179Y-99694201D01*
X122889500Y-99703190D01*
X122889500Y-101169750D01*
X122899746Y-101221262D01*
X122901133Y-101228231D01*
X122945448Y-101294552D01*
X123011769Y-101338867D01*
X123070252Y-101350500D01*
X123070253Y-101350500D01*
X124909747Y-101350500D01*
X124909748Y-101350500D01*
X124968231Y-101338867D01*
X125034552Y-101294552D01*
X125078867Y-101228231D01*
X125090500Y-101169748D01*
X125090500Y-99539661D01*
X125110502Y-99471540D01*
X125164158Y-99425047D01*
X125234432Y-99414943D01*
X125299012Y-99444437D01*
X125305595Y-99450566D01*
X125503910Y-99648881D01*
X125537936Y-99711193D01*
X125532871Y-99782008D01*
X125527607Y-99794137D01*
X125499416Y-99850753D01*
X125443603Y-100046915D01*
X125424785Y-100250000D01*
X125443603Y-100453084D01*
X125499416Y-100649245D01*
X125499417Y-100649247D01*
X125499418Y-100649250D01*
X125590327Y-100831821D01*
X125590328Y-100831822D01*
X125590329Y-100831824D01*
X125713234Y-100994578D01*
X125863959Y-101131981D01*
X125863960Y-101131982D01*
X126037351Y-101239341D01*
X126037354Y-101239342D01*
X126037363Y-101239348D01*
X126227544Y-101313024D01*
X126428024Y-101350500D01*
X126428026Y-101350500D01*
X126631974Y-101350500D01*
X126631976Y-101350500D01*
X126832456Y-101313024D01*
X127022637Y-101239348D01*
X127196041Y-101131981D01*
X127346764Y-100994579D01*
X127469673Y-100831821D01*
X127560582Y-100649250D01*
X127562640Y-100642017D01*
X127600521Y-100581971D01*
X127664852Y-100551937D01*
X127683830Y-100550500D01*
X127842354Y-100550500D01*
X127918781Y-100530021D01*
X127987303Y-100490460D01*
X128043252Y-100434511D01*
X128400105Y-100077658D01*
X130624555Y-100077658D01*
X130624555Y-100274743D01*
X130663004Y-100468037D01*
X130738424Y-100650115D01*
X130847916Y-100813982D01*
X131552960Y-101519026D01*
X131716827Y-101628518D01*
X131898905Y-101703938D01*
X132092201Y-101742387D01*
X132092202Y-101742387D01*
X132289280Y-101742387D01*
X132289281Y-101742387D01*
X132482577Y-101703938D01*
X132664655Y-101628518D01*
X132828522Y-101519026D01*
X132967880Y-101379668D01*
X133077372Y-101215801D01*
X133152792Y-101033723D01*
X133191241Y-100840427D01*
X133191241Y-100643347D01*
X133152792Y-100450051D01*
X133077372Y-100267973D01*
X132967880Y-100104106D01*
X132262836Y-99399062D01*
X132098969Y-99289570D01*
X131916892Y-99214150D01*
X131723597Y-99175701D01*
X131723595Y-99175701D01*
X131526515Y-99175701D01*
X131526512Y-99175701D01*
X131333217Y-99214150D01*
X131333216Y-99214151D01*
X131293747Y-99230500D01*
X131151272Y-99289516D01*
X131151139Y-99289571D01*
X130987275Y-99399061D01*
X130987269Y-99399066D01*
X130847920Y-99538415D01*
X130847915Y-99538421D01*
X130761217Y-99668175D01*
X130738424Y-99702287D01*
X130728024Y-99727394D01*
X130663005Y-99884362D01*
X130663004Y-99884363D01*
X130624555Y-100077658D01*
X128400105Y-100077658D01*
X129471437Y-99006326D01*
X129510999Y-98937803D01*
X129531477Y-98861377D01*
X129531477Y-98782253D01*
X129531477Y-98387037D01*
X129551479Y-98318916D01*
X129605135Y-98272423D01*
X129675409Y-98262319D01*
X129739989Y-98291813D01*
X129742353Y-98293913D01*
X129804960Y-98350987D01*
X129838959Y-98381981D01*
X129838960Y-98381982D01*
X130012351Y-98489341D01*
X130012354Y-98489342D01*
X130012363Y-98489348D01*
X130202544Y-98563024D01*
X130403024Y-98600500D01*
X130403026Y-98600500D01*
X130606974Y-98600500D01*
X130606976Y-98600500D01*
X130807456Y-98563024D01*
X130997637Y-98489348D01*
X131171041Y-98381981D01*
X131321764Y-98244579D01*
X131444673Y-98081821D01*
X131535582Y-97899250D01*
X131591397Y-97703083D01*
X131610215Y-97500000D01*
X131591397Y-97296917D01*
X131535582Y-97100750D01*
X131444673Y-96918179D01*
X131420087Y-96885622D01*
X131321765Y-96755421D01*
X131171040Y-96618018D01*
X131171039Y-96618017D01*
X130997648Y-96510658D01*
X130997641Y-96510654D01*
X130997637Y-96510652D01*
X130855138Y-96455448D01*
X130807457Y-96436976D01*
X130730064Y-96422509D01*
X130606976Y-96399500D01*
X130403024Y-96399500D01*
X130302784Y-96418238D01*
X130202542Y-96436976D01*
X130058019Y-96492965D01*
X130012363Y-96510652D01*
X130012362Y-96510652D01*
X130012361Y-96510653D01*
X130012351Y-96510658D01*
X129838960Y-96618017D01*
X129838953Y-96618022D01*
X129742362Y-96706077D01*
X129678545Y-96737188D01*
X129608039Y-96728858D01*
X129553229Y-96683732D01*
X129531517Y-96616137D01*
X129531477Y-96612962D01*
X129531477Y-94657638D01*
X129551479Y-94589517D01*
X129568382Y-94568543D01*
X130124405Y-94012520D01*
X130186717Y-93978494D01*
X130257532Y-93983559D01*
X130314368Y-94026106D01*
X130339179Y-94092626D01*
X130339500Y-94101615D01*
X130339500Y-95169750D01*
X130350673Y-95225922D01*
X130351133Y-95228231D01*
X130395448Y-95294552D01*
X130461769Y-95338867D01*
X130520252Y-95350500D01*
X130520253Y-95350500D01*
X132359747Y-95350500D01*
X132359748Y-95350500D01*
X132418231Y-95338867D01*
X132484552Y-95294552D01*
X132528867Y-95228231D01*
X132540500Y-95169748D01*
X132540500Y-94250000D01*
X132874785Y-94250000D01*
X132893603Y-94453084D01*
X132949416Y-94649245D01*
X132949417Y-94649247D01*
X132949418Y-94649250D01*
X133040327Y-94831821D01*
X133040328Y-94831822D01*
X133040329Y-94831824D01*
X133163234Y-94994578D01*
X133313959Y-95131981D01*
X133313960Y-95131982D01*
X133487351Y-95239341D01*
X133487354Y-95239342D01*
X133487363Y-95239348D01*
X133677544Y-95313024D01*
X133878024Y-95350500D01*
X133878026Y-95350500D01*
X134081974Y-95350500D01*
X134081976Y-95350500D01*
X134282456Y-95313024D01*
X134472637Y-95239348D01*
X134646041Y-95131981D01*
X134796764Y-94994579D01*
X134807571Y-94980269D01*
X134848053Y-94926661D01*
X134919673Y-94831821D01*
X135010582Y-94649250D01*
X135066397Y-94453083D01*
X135085215Y-94250000D01*
X135066397Y-94046917D01*
X135010582Y-93850750D01*
X134919673Y-93668179D01*
X134910642Y-93656220D01*
X134796765Y-93505421D01*
X134646040Y-93368018D01*
X134646039Y-93368017D01*
X134472648Y-93260658D01*
X134472641Y-93260654D01*
X134472637Y-93260652D01*
X134336127Y-93207768D01*
X134282457Y-93186976D01*
X134215629Y-93174484D01*
X134081976Y-93149500D01*
X133878024Y-93149500D01*
X133777784Y-93168238D01*
X133677542Y-93186976D01*
X133559193Y-93232825D01*
X133487363Y-93260652D01*
X133487362Y-93260652D01*
X133487361Y-93260653D01*
X133487351Y-93260658D01*
X133313960Y-93368017D01*
X133313959Y-93368018D01*
X133163234Y-93505421D01*
X133040329Y-93668175D01*
X132949416Y-93850754D01*
X132893603Y-94046915D01*
X132874785Y-94250000D01*
X132540500Y-94250000D01*
X132540500Y-93330252D01*
X132528867Y-93271769D01*
X132484552Y-93205448D01*
X132418231Y-93161133D01*
X132418228Y-93161132D01*
X132359750Y-93149500D01*
X132359748Y-93149500D01*
X130538346Y-93149500D01*
X130470225Y-93129498D01*
X130423732Y-93075842D01*
X130412346Y-93023500D01*
X130412346Y-92881625D01*
X130432348Y-92813504D01*
X130486004Y-92767011D01*
X130513763Y-92758046D01*
X130686525Y-92723682D01*
X130868603Y-92648262D01*
X131032470Y-92538770D01*
X131171828Y-92399412D01*
X131281320Y-92235545D01*
X131356740Y-92053467D01*
X131391104Y-91880706D01*
X131424012Y-91817797D01*
X131485707Y-91782665D01*
X131514683Y-91779288D01*
X132272728Y-91779288D01*
X132349155Y-91758809D01*
X132417677Y-91719248D01*
X132473626Y-91663299D01*
X133495099Y-90641824D01*
X133557408Y-90607802D01*
X133564429Y-90606482D01*
X133664103Y-90590696D01*
X133784197Y-90529505D01*
X133879505Y-90434197D01*
X133940696Y-90314103D01*
X133961781Y-90180977D01*
X133945827Y-90080249D01*
X134339500Y-90080249D01*
X134339500Y-91919750D01*
X134350151Y-91973298D01*
X134351133Y-91978231D01*
X134395448Y-92044552D01*
X134461769Y-92088867D01*
X134520252Y-92100500D01*
X134520253Y-92100500D01*
X136359747Y-92100500D01*
X136359748Y-92100500D01*
X136418231Y-92088867D01*
X136484552Y-92044552D01*
X136528867Y-91978231D01*
X136540500Y-91919748D01*
X136540500Y-90080252D01*
X136528867Y-90021769D01*
X136484552Y-89955448D01*
X136418231Y-89911133D01*
X136418228Y-89911132D01*
X136359750Y-89899500D01*
X136359748Y-89899500D01*
X134520252Y-89899500D01*
X134520249Y-89899500D01*
X134461771Y-89911132D01*
X134461768Y-89911133D01*
X134395448Y-89955448D01*
X134351133Y-90021768D01*
X134351132Y-90021771D01*
X134339500Y-90080249D01*
X133945827Y-90080249D01*
X133940696Y-90047851D01*
X133879505Y-89927757D01*
X133784197Y-89832449D01*
X133784196Y-89832448D01*
X133694003Y-89786493D01*
X133664103Y-89771258D01*
X133530977Y-89750173D01*
X133397851Y-89771258D01*
X133397849Y-89771258D01*
X133397847Y-89771259D01*
X133341263Y-89800090D01*
X133271486Y-89813194D01*
X133205702Y-89786493D01*
X133164796Y-89728465D01*
X133160482Y-89712405D01*
X133152792Y-89673743D01*
X133077372Y-89491665D01*
X132967880Y-89327798D01*
X132262836Y-88622754D01*
X132098969Y-88513262D01*
X131916892Y-88437842D01*
X131723597Y-88399393D01*
X131723595Y-88399393D01*
X131526515Y-88399393D01*
X131526512Y-88399393D01*
X131333217Y-88437842D01*
X131333216Y-88437843D01*
X131241166Y-88475972D01*
X131167208Y-88506607D01*
X131151139Y-88513263D01*
X130987275Y-88622753D01*
X130987269Y-88622758D01*
X130847920Y-88762107D01*
X130847915Y-88762113D01*
X130739192Y-88924830D01*
X130738424Y-88925979D01*
X130714486Y-88983771D01*
X130663005Y-89108054D01*
X130663004Y-89108055D01*
X130624555Y-89301350D01*
X130624555Y-89498435D01*
X130658975Y-89671474D01*
X130663004Y-89691729D01*
X130738424Y-89873807D01*
X130847916Y-90037674D01*
X131552960Y-90742718D01*
X131716827Y-90852210D01*
X131898905Y-90927630D01*
X131904331Y-90928709D01*
X131967241Y-90961617D01*
X132002372Y-91023313D01*
X131998571Y-91094207D01*
X131957045Y-91151793D01*
X131890978Y-91177787D01*
X131879749Y-91178288D01*
X131275550Y-91178288D01*
X131207429Y-91158286D01*
X131176561Y-91127963D01*
X131175750Y-91128630D01*
X131171830Y-91123853D01*
X131171828Y-91123850D01*
X130466784Y-90418806D01*
X130302917Y-90309314D01*
X130120840Y-90233894D01*
X129927545Y-90195445D01*
X129927543Y-90195445D01*
X129730463Y-90195445D01*
X129730460Y-90195445D01*
X129537165Y-90233894D01*
X129537164Y-90233895D01*
X129355087Y-90309315D01*
X129191223Y-90418805D01*
X129191217Y-90418810D01*
X129051868Y-90558159D01*
X129051863Y-90558165D01*
X128957427Y-90699500D01*
X128942372Y-90722031D01*
X128918351Y-90780022D01*
X128866953Y-90904106D01*
X128866952Y-90904107D01*
X128828503Y-91097402D01*
X128828503Y-91294487D01*
X128866952Y-91487781D01*
X128942372Y-91669859D01*
X129051864Y-91833726D01*
X129756908Y-92538770D01*
X129756911Y-92538772D01*
X129761688Y-92542692D01*
X129760602Y-92544015D01*
X129800875Y-92592202D01*
X129811346Y-92642492D01*
X129811346Y-93246685D01*
X129791344Y-93314806D01*
X129737688Y-93361299D01*
X129667414Y-93371403D01*
X129602834Y-93341909D01*
X129564450Y-93282183D01*
X129561767Y-93271267D01*
X129560689Y-93265846D01*
X129485269Y-93083768D01*
X129375777Y-92919901D01*
X128670733Y-92214857D01*
X128506866Y-92105365D01*
X128324789Y-92029945D01*
X128131494Y-91991496D01*
X128131492Y-91991496D01*
X127934412Y-91991496D01*
X127934409Y-91991496D01*
X127741115Y-92029945D01*
X127741110Y-92029947D01*
X127645483Y-92069557D01*
X127574893Y-92077146D01*
X127511406Y-92045366D01*
X127508170Y-92042243D01*
X127457405Y-91991478D01*
X127423379Y-91929166D01*
X127420500Y-91902383D01*
X127420500Y-89385999D01*
X127440502Y-89317878D01*
X127494158Y-89271385D01*
X127546500Y-89259999D01*
X128620000Y-89259999D01*
X128620000Y-88579277D01*
X128697339Y-88600000D01*
X128802661Y-88600000D01*
X128880000Y-88579277D01*
X128880000Y-89259999D01*
X129975606Y-89259999D01*
X129975614Y-89259998D01*
X130051446Y-89244914D01*
X130051450Y-89244913D01*
X130137450Y-89187450D01*
X130194913Y-89101450D01*
X130194914Y-89101447D01*
X130209999Y-89025612D01*
X130210000Y-89025607D01*
X130210000Y-88330000D01*
X129129277Y-88330000D01*
X129150000Y-88252661D01*
X129150000Y-88147339D01*
X129129277Y-88070000D01*
X130209999Y-88070000D01*
X130209999Y-87374394D01*
X130209998Y-87374385D01*
X130194914Y-87298553D01*
X130194913Y-87298549D01*
X130137450Y-87212549D01*
X130051450Y-87155086D01*
X130051447Y-87155085D01*
X129975612Y-87140000D01*
X128880000Y-87140000D01*
X128880000Y-87820722D01*
X128802661Y-87800000D01*
X128697339Y-87800000D01*
X128620000Y-87820722D01*
X128620000Y-87140000D01*
X127546500Y-87140000D01*
X127478379Y-87119998D01*
X127431886Y-87066342D01*
X127420500Y-87014000D01*
X127420500Y-86449611D01*
X127440502Y-86381490D01*
X127494158Y-86334997D01*
X127564432Y-86324893D01*
X127629012Y-86354387D01*
X127635595Y-86360516D01*
X127712218Y-86437139D01*
X127876086Y-86546632D01*
X128058165Y-86622051D01*
X128251459Y-86660500D01*
X129248541Y-86660500D01*
X129441835Y-86622051D01*
X129623914Y-86546632D01*
X129787782Y-86437139D01*
X129927139Y-86297782D01*
X130036632Y-86133914D01*
X130112051Y-85951835D01*
X130150500Y-85758541D01*
X130150500Y-85561459D01*
X130112051Y-85368165D01*
X130036632Y-85186086D01*
X129927139Y-85022218D01*
X129787782Y-84882861D01*
X129623914Y-84773368D01*
X129621925Y-84772544D01*
X129441838Y-84697950D01*
X129441835Y-84697949D01*
X129248544Y-84659500D01*
X129248541Y-84659500D01*
X128251459Y-84659500D01*
X128251455Y-84659500D01*
X128058164Y-84697949D01*
X128058161Y-84697950D01*
X127876085Y-84773368D01*
X127712222Y-84882858D01*
X127712215Y-84882863D01*
X127572863Y-85022215D01*
X127572859Y-85022220D01*
X127547738Y-85059816D01*
X127493260Y-85105342D01*
X127422817Y-85114189D01*
X127358773Y-85083547D01*
X127353879Y-85078908D01*
X127334471Y-85059500D01*
X127304511Y-85029540D01*
X126716773Y-84441802D01*
X126682747Y-84379490D01*
X126687514Y-84312840D01*
X126686654Y-84312561D01*
X126687782Y-84309087D01*
X126687812Y-84308675D01*
X126688211Y-84307768D01*
X126689717Y-84303132D01*
X126689717Y-84303128D01*
X126689719Y-84303126D01*
X126710804Y-84170000D01*
X126689719Y-84036874D01*
X126628528Y-83916780D01*
X126533220Y-83821472D01*
X126533219Y-83821471D01*
X126456097Y-83782176D01*
X126413126Y-83760281D01*
X126280000Y-83739196D01*
X126146874Y-83760281D01*
X126146872Y-83760281D01*
X126146872Y-83760282D01*
X126026780Y-83821471D01*
X125931473Y-83916778D01*
X125931469Y-83916784D01*
X125929601Y-83920451D01*
X125926152Y-83924102D01*
X125925641Y-83924806D01*
X125925550Y-83924739D01*
X125880852Y-83972065D01*
X125811937Y-83989129D01*
X125744736Y-83966226D01*
X125708217Y-83926245D01*
X125690462Y-83895492D01*
X125690458Y-83895487D01*
X125668115Y-83873144D01*
X125634511Y-83839540D01*
X125370851Y-83575880D01*
X125336825Y-83513568D01*
X125335500Y-83506513D01*
X125319719Y-83406874D01*
X125292391Y-83353241D01*
X125279288Y-83283465D01*
X125305988Y-83217680D01*
X125315555Y-83206952D01*
X125733847Y-82788659D01*
X125796158Y-82754636D01*
X125866973Y-82759700D01*
X125923809Y-82802247D01*
X125925667Y-82805230D01*
X125931471Y-82813218D01*
X125931472Y-82813220D01*
X126026780Y-82908528D01*
X126146874Y-82969719D01*
X126280000Y-82990804D01*
X126413126Y-82969719D01*
X126533220Y-82908528D01*
X126628528Y-82813220D01*
X126689719Y-82693126D01*
X126705498Y-82593500D01*
X126735908Y-82529352D01*
X126740831Y-82524138D01*
X127167567Y-82097404D01*
X127229879Y-82063379D01*
X127256662Y-82060500D01*
X127719435Y-82060500D01*
X127787556Y-82080502D01*
X127834049Y-82134158D01*
X127844153Y-82204432D01*
X127814659Y-82269012D01*
X127789437Y-82291265D01*
X127712222Y-82342858D01*
X127712215Y-82342863D01*
X127572863Y-82482215D01*
X127572858Y-82482222D01*
X127463368Y-82646085D01*
X127387950Y-82828161D01*
X127387949Y-82828164D01*
X127349500Y-83021455D01*
X127349500Y-83218544D01*
X127387949Y-83411835D01*
X127387950Y-83411838D01*
X127428431Y-83509568D01*
X127463368Y-83593914D01*
X127572861Y-83757782D01*
X127712218Y-83897139D01*
X127876086Y-84006632D01*
X128058165Y-84082051D01*
X128251459Y-84120500D01*
X129248541Y-84120500D01*
X129441835Y-84082051D01*
X129623914Y-84006632D01*
X129787782Y-83897139D01*
X129927139Y-83757782D01*
X130036632Y-83593914D01*
X130112051Y-83411835D01*
X130150500Y-83218541D01*
X130150500Y-83021459D01*
X130112051Y-82828165D01*
X130036632Y-82646086D01*
X129927139Y-82482218D01*
X129787782Y-82342861D01*
X129710562Y-82291264D01*
X129665035Y-82236788D01*
X129656187Y-82166345D01*
X129686828Y-82102301D01*
X129747230Y-82064990D01*
X129780565Y-82060500D01*
X130376562Y-82060500D01*
X130444683Y-82080502D01*
X130465656Y-82097404D01*
X130476780Y-82108528D01*
X130596874Y-82169719D01*
X130730000Y-82190804D01*
X130863126Y-82169719D01*
X130983220Y-82108528D01*
X131078528Y-82013220D01*
X131139719Y-81893126D01*
X131160804Y-81760000D01*
X131139719Y-81626874D01*
X131078528Y-81506780D01*
X130983220Y-81411472D01*
X130983219Y-81411471D01*
X130897083Y-81367583D01*
X130863126Y-81350281D01*
X130730000Y-81329196D01*
X130596874Y-81350281D01*
X130596872Y-81350281D01*
X130596872Y-81350282D01*
X130476780Y-81411471D01*
X130476778Y-81411473D01*
X130465657Y-81422595D01*
X130403345Y-81456621D01*
X130376562Y-81459500D01*
X129989611Y-81459500D01*
X129921490Y-81439498D01*
X129874997Y-81385842D01*
X129864893Y-81315568D01*
X129894387Y-81250988D01*
X129900516Y-81244405D01*
X129903602Y-81241319D01*
X129927139Y-81217782D01*
X130036632Y-81053914D01*
X130112051Y-80871835D01*
X130150500Y-80678541D01*
X130150500Y-80481459D01*
X130112051Y-80288165D01*
X130040961Y-80116539D01*
X130033373Y-80045951D01*
X130065152Y-79982464D01*
X130126210Y-79946237D01*
X130197162Y-79948771D01*
X130246466Y-79979228D01*
X134924674Y-84657436D01*
X134958700Y-84719748D01*
X134953635Y-84790563D01*
X134911088Y-84847399D01*
X134883800Y-84862938D01*
X134743243Y-84921160D01*
X134743241Y-84921161D01*
X134579377Y-85030651D01*
X134579371Y-85030656D01*
X134440022Y-85170005D01*
X134440017Y-85170011D01*
X134333451Y-85329500D01*
X134330526Y-85333877D01*
X134255106Y-85515955D01*
X134246567Y-85558885D01*
X134224700Y-85668811D01*
X134191792Y-85731720D01*
X134130096Y-85766851D01*
X134059202Y-85763050D01*
X134012026Y-85733323D01*
X132047405Y-83768702D01*
X132013379Y-83706390D01*
X132010500Y-83679607D01*
X132010500Y-83283438D01*
X132030502Y-83215317D01*
X132047405Y-83194343D01*
X132058528Y-83183220D01*
X132119719Y-83063126D01*
X132140804Y-82930000D01*
X132119719Y-82796874D01*
X132058528Y-82676780D01*
X131963220Y-82581472D01*
X131963219Y-82581471D01*
X131886107Y-82542181D01*
X131843126Y-82520281D01*
X131710000Y-82499196D01*
X131576874Y-82520281D01*
X131576872Y-82520281D01*
X131576872Y-82520282D01*
X131456780Y-82581471D01*
X131361471Y-82676780D01*
X131304466Y-82788661D01*
X131300281Y-82796874D01*
X131279196Y-82930000D01*
X131300281Y-83063126D01*
X131313618Y-83089301D01*
X131361471Y-83183219D01*
X131372595Y-83194343D01*
X131406621Y-83256655D01*
X131409500Y-83283438D01*
X131409500Y-83895833D01*
X131429977Y-83972254D01*
X131429979Y-83972257D01*
X131454404Y-84014562D01*
X131465900Y-84034475D01*
X131469539Y-84040777D01*
X131469543Y-84040783D01*
X133875506Y-86446746D01*
X133909532Y-86509058D01*
X133904467Y-86579873D01*
X133861920Y-86636709D01*
X133795400Y-86661520D01*
X133738192Y-86652250D01*
X133720839Y-86645062D01*
X133712943Y-86641791D01*
X133519648Y-86603342D01*
X133519646Y-86603342D01*
X133322566Y-86603342D01*
X133322563Y-86603342D01*
X133129268Y-86641791D01*
X133129267Y-86641792D01*
X133037219Y-86679920D01*
X132954655Y-86714120D01*
X132947190Y-86717212D01*
X132783326Y-86826702D01*
X132783320Y-86826707D01*
X132643971Y-86966056D01*
X132643966Y-86966062D01*
X132534476Y-87129926D01*
X132459056Y-87312003D01*
X132459055Y-87312004D01*
X132438251Y-87416593D01*
X132405343Y-87479503D01*
X132343648Y-87514634D01*
X132272753Y-87510834D01*
X132225577Y-87481106D01*
X131280351Y-86535880D01*
X131246325Y-86473568D01*
X131245000Y-86466513D01*
X131229219Y-86366874D01*
X131168028Y-86246780D01*
X131072720Y-86151472D01*
X131072719Y-86151471D01*
X131012673Y-86120876D01*
X130952626Y-86090281D01*
X130819500Y-86069196D01*
X130686374Y-86090281D01*
X130686372Y-86090281D01*
X130686372Y-86090282D01*
X130566280Y-86151471D01*
X130470971Y-86246780D01*
X130411005Y-86364471D01*
X130409781Y-86366874D01*
X130388696Y-86500000D01*
X130409781Y-86633126D01*
X130424796Y-86662595D01*
X130467690Y-86746780D01*
X130470972Y-86753220D01*
X130566280Y-86848528D01*
X130686374Y-86909719D01*
X130785997Y-86925497D01*
X130850149Y-86955910D01*
X130855380Y-86960851D01*
X132021667Y-88127139D01*
X132021672Y-88127143D01*
X132021674Y-88127145D01*
X132090197Y-88166707D01*
X132166623Y-88187185D01*
X132245747Y-88187185D01*
X132540245Y-88187185D01*
X132608366Y-88207187D01*
X132639233Y-88237509D01*
X132640045Y-88236843D01*
X132643965Y-88241620D01*
X132643967Y-88241623D01*
X133349011Y-88946667D01*
X133512878Y-89056159D01*
X133694956Y-89131579D01*
X133888252Y-89170028D01*
X133888253Y-89170028D01*
X134085331Y-89170028D01*
X134085332Y-89170028D01*
X134278628Y-89131579D01*
X134460706Y-89056159D01*
X134624573Y-88946667D01*
X134763931Y-88807309D01*
X134873423Y-88643442D01*
X134948843Y-88461364D01*
X134987292Y-88268068D01*
X134987292Y-88070988D01*
X134948843Y-87877692D01*
X134948841Y-87877688D01*
X134948839Y-87877680D01*
X134938384Y-87852440D01*
X134930794Y-87781851D01*
X134962572Y-87718363D01*
X135023630Y-87682135D01*
X135094581Y-87684669D01*
X135143887Y-87715126D01*
X137345267Y-89916506D01*
X137379293Y-89978818D01*
X137374228Y-90049633D01*
X137331681Y-90106469D01*
X137322506Y-90112726D01*
X137313959Y-90118018D01*
X137163234Y-90255421D01*
X137040329Y-90418175D01*
X136949416Y-90600754D01*
X136893603Y-90796915D01*
X136874785Y-91000000D01*
X136893603Y-91203084D01*
X136949416Y-91399245D01*
X136949417Y-91399247D01*
X136949418Y-91399250D01*
X137040327Y-91581821D01*
X137040328Y-91581822D01*
X137040329Y-91581824D01*
X137163234Y-91744578D01*
X137313959Y-91881981D01*
X137313960Y-91881982D01*
X137487351Y-91989341D01*
X137487354Y-91989342D01*
X137487363Y-91989348D01*
X137677544Y-92063024D01*
X137878024Y-92100500D01*
X137878026Y-92100500D01*
X137981646Y-92100500D01*
X138049767Y-92120502D01*
X138096260Y-92174158D01*
X138106364Y-92244432D01*
X138076870Y-92309012D01*
X138070741Y-92315595D01*
X138032125Y-92354210D01*
X138032120Y-92354216D01*
X137922630Y-92518080D01*
X137847210Y-92700157D01*
X137847209Y-92700158D01*
X137808760Y-92893453D01*
X137808760Y-93090538D01*
X137847209Y-93283832D01*
X137922629Y-93465910D01*
X138032121Y-93629777D01*
X138737165Y-94334821D01*
X138901032Y-94444313D01*
X139083110Y-94519733D01*
X139088531Y-94520811D01*
X139151441Y-94553719D01*
X139186572Y-94615414D01*
X139182771Y-94686309D01*
X139141246Y-94743895D01*
X139075179Y-94769889D01*
X139063949Y-94770390D01*
X138459755Y-94770390D01*
X138391634Y-94750388D01*
X138360766Y-94720065D01*
X138359955Y-94720732D01*
X138356035Y-94715955D01*
X138356033Y-94715952D01*
X137650989Y-94010908D01*
X137487122Y-93901416D01*
X137305045Y-93825996D01*
X137111750Y-93787547D01*
X137111748Y-93787547D01*
X136914668Y-93787547D01*
X136914665Y-93787547D01*
X136721370Y-93825996D01*
X136721369Y-93825997D01*
X136650310Y-93855431D01*
X136554789Y-93894998D01*
X136539292Y-93901417D01*
X136375428Y-94010907D01*
X136375422Y-94010912D01*
X136236073Y-94150261D01*
X136236068Y-94150267D01*
X136126578Y-94314131D01*
X136051158Y-94496208D01*
X136051157Y-94496209D01*
X136012708Y-94689504D01*
X136012708Y-94886589D01*
X136043436Y-95041066D01*
X136051157Y-95079883D01*
X136126577Y-95261961D01*
X136236069Y-95425828D01*
X136941113Y-96130872D01*
X137104980Y-96240364D01*
X137287058Y-96315784D01*
X137292479Y-96316862D01*
X137355389Y-96349770D01*
X137390520Y-96411465D01*
X137386719Y-96482360D01*
X137345194Y-96539946D01*
X137279127Y-96565940D01*
X137267897Y-96566441D01*
X136663704Y-96566441D01*
X136595583Y-96546439D01*
X136564715Y-96516116D01*
X136563904Y-96516783D01*
X136559984Y-96512006D01*
X136559982Y-96512003D01*
X135854938Y-95806959D01*
X135691071Y-95697467D01*
X135508994Y-95622047D01*
X135315699Y-95583598D01*
X135315697Y-95583598D01*
X135118617Y-95583598D01*
X135118614Y-95583598D01*
X134925319Y-95622047D01*
X134925318Y-95622048D01*
X134743241Y-95697468D01*
X134579377Y-95806958D01*
X134579371Y-95806963D01*
X134440022Y-95946312D01*
X134440017Y-95946318D01*
X134390238Y-96020819D01*
X134330526Y-96110184D01*
X134305199Y-96171328D01*
X134255107Y-96292259D01*
X134255106Y-96292260D01*
X134216657Y-96485555D01*
X134216657Y-96682640D01*
X134255106Y-96875934D01*
X134330526Y-97058012D01*
X134440018Y-97221879D01*
X135145062Y-97926923D01*
X135308929Y-98036415D01*
X135491007Y-98111835D01*
X135684303Y-98150284D01*
X135684304Y-98150284D01*
X135881382Y-98150284D01*
X135881383Y-98150284D01*
X136074679Y-98111835D01*
X136256757Y-98036415D01*
X136420624Y-97926923D01*
X136559982Y-97787565D01*
X136669474Y-97623698D01*
X136744894Y-97441620D01*
X136779258Y-97268859D01*
X136812166Y-97205950D01*
X136873861Y-97170818D01*
X136902837Y-97167441D01*
X140172621Y-97167441D01*
X140249048Y-97146962D01*
X140317570Y-97107401D01*
X140373519Y-97051452D01*
X140624975Y-96799996D01*
X144394659Y-96799996D01*
X144394659Y-96800003D01*
X144413974Y-96996124D01*
X144413974Y-96996126D01*
X144471186Y-97184728D01*
X144516156Y-97268860D01*
X144564090Y-97358538D01*
X144689117Y-97510883D01*
X144841462Y-97635910D01*
X145015273Y-97728814D01*
X145203868Y-97786024D01*
X145203872Y-97786024D01*
X145203874Y-97786025D01*
X145399997Y-97805341D01*
X145400000Y-97805341D01*
X145400003Y-97805341D01*
X145596124Y-97786025D01*
X145596126Y-97786025D01*
X145596127Y-97786024D01*
X145596132Y-97786024D01*
X145784727Y-97728814D01*
X145958538Y-97635910D01*
X146110883Y-97510883D01*
X146235910Y-97358538D01*
X146328814Y-97184727D01*
X146386024Y-96996132D01*
X146387006Y-96986159D01*
X146405341Y-96800003D01*
X146405341Y-96799996D01*
X149334871Y-96799996D01*
X149334871Y-96800003D01*
X149355335Y-97007789D01*
X149415949Y-97207607D01*
X149514377Y-97391753D01*
X149514379Y-97391755D01*
X149563969Y-97452181D01*
X150039886Y-96976264D01*
X150079920Y-97045606D01*
X150154394Y-97120080D01*
X150223734Y-97160113D01*
X149747817Y-97636029D01*
X149808244Y-97685620D01*
X149808246Y-97685622D01*
X149992392Y-97784050D01*
X150192210Y-97844664D01*
X150399997Y-97865129D01*
X150400003Y-97865129D01*
X150607789Y-97844664D01*
X150807607Y-97784050D01*
X150991754Y-97685621D01*
X151052182Y-97636029D01*
X150576266Y-97160113D01*
X150645606Y-97120080D01*
X150720080Y-97045606D01*
X150760113Y-96976266D01*
X151236029Y-97452182D01*
X151285621Y-97391754D01*
X151384050Y-97207607D01*
X151444664Y-97007789D01*
X151465129Y-96800003D01*
X151465129Y-96799996D01*
X151444664Y-96592210D01*
X151384050Y-96392392D01*
X151285622Y-96208246D01*
X151285620Y-96208244D01*
X151236029Y-96147817D01*
X150760113Y-96623733D01*
X150720080Y-96554394D01*
X150645606Y-96479920D01*
X150576265Y-96439886D01*
X151052181Y-95963969D01*
X150991755Y-95914379D01*
X150991753Y-95914377D01*
X150807607Y-95815949D01*
X150607789Y-95755335D01*
X150400003Y-95734871D01*
X150399997Y-95734871D01*
X150192210Y-95755335D01*
X149992392Y-95815949D01*
X149808251Y-95914375D01*
X149808245Y-95914379D01*
X149747816Y-95963969D01*
X150223733Y-96439886D01*
X150154394Y-96479920D01*
X150079920Y-96554394D01*
X150039886Y-96623733D01*
X149563969Y-96147816D01*
X149514379Y-96208245D01*
X149514375Y-96208251D01*
X149415949Y-96392392D01*
X149355335Y-96592210D01*
X149334871Y-96799996D01*
X146405341Y-96799996D01*
X146386025Y-96603875D01*
X146386025Y-96603873D01*
X146386024Y-96603870D01*
X146386024Y-96603868D01*
X146328814Y-96415273D01*
X146235910Y-96241462D01*
X146110883Y-96089117D01*
X145958538Y-95964090D01*
X145936475Y-95952297D01*
X145784728Y-95871186D01*
X145596125Y-95813974D01*
X145400003Y-95794659D01*
X145399997Y-95794659D01*
X145203875Y-95813974D01*
X145203873Y-95813974D01*
X145015271Y-95871186D01*
X144841461Y-95964090D01*
X144689117Y-96089117D01*
X144564090Y-96241461D01*
X144471186Y-96415271D01*
X144413974Y-96603873D01*
X144413974Y-96603875D01*
X144394659Y-96799996D01*
X140624975Y-96799996D01*
X144094974Y-93329996D01*
X147744659Y-93329996D01*
X147744659Y-93330003D01*
X147763974Y-93526124D01*
X147763974Y-93526126D01*
X147821186Y-93714728D01*
X147880661Y-93825997D01*
X147914090Y-93888538D01*
X148039117Y-94040883D01*
X148191462Y-94165910D01*
X148365273Y-94258814D01*
X148553868Y-94316024D01*
X148553872Y-94316024D01*
X148553874Y-94316025D01*
X148749997Y-94335341D01*
X148750000Y-94335341D01*
X148750003Y-94335341D01*
X148946124Y-94316025D01*
X148946126Y-94316025D01*
X148946127Y-94316024D01*
X148946132Y-94316024D01*
X149134727Y-94258814D01*
X149308538Y-94165910D01*
X149460883Y-94040883D01*
X149585910Y-93888538D01*
X149678814Y-93714727D01*
X149736024Y-93526132D01*
X149738505Y-93500944D01*
X149755341Y-93330003D01*
X149755341Y-93329996D01*
X149736025Y-93133875D01*
X149736025Y-93133873D01*
X149736024Y-93133870D01*
X149736024Y-93133868D01*
X149678814Y-92945273D01*
X149585910Y-92771462D01*
X149460883Y-92619117D01*
X149308538Y-92494090D01*
X149258255Y-92467213D01*
X149134728Y-92401186D01*
X149000674Y-92360521D01*
X148946132Y-92343976D01*
X148946131Y-92343975D01*
X148946125Y-92343974D01*
X148750003Y-92324659D01*
X148749997Y-92324659D01*
X148553875Y-92343974D01*
X148553873Y-92343974D01*
X148365271Y-92401186D01*
X148191461Y-92494090D01*
X148039117Y-92619117D01*
X147914090Y-92771461D01*
X147821186Y-92945271D01*
X147763974Y-93133873D01*
X147763974Y-93133875D01*
X147744659Y-93329996D01*
X144094974Y-93329996D01*
X150589121Y-86835848D01*
X150651431Y-86801824D01*
X150658452Y-86800505D01*
X150758126Y-86784719D01*
X150878220Y-86723528D01*
X150973528Y-86628220D01*
X151034719Y-86508126D01*
X151055804Y-86375000D01*
X151034719Y-86241874D01*
X150973528Y-86121780D01*
X150878220Y-86026472D01*
X150878219Y-86026471D01*
X150758124Y-85965280D01*
X150744737Y-85963160D01*
X150680584Y-85932747D01*
X150643058Y-85872479D01*
X150644073Y-85801489D01*
X150675354Y-85749616D01*
X150708313Y-85716657D01*
X150990460Y-85434511D01*
X150998022Y-85421413D01*
X151030021Y-85365989D01*
X151050500Y-85289562D01*
X151050500Y-82853438D01*
X151070502Y-82785317D01*
X151087405Y-82764343D01*
X151092477Y-82759271D01*
X151098528Y-82753220D01*
X151159719Y-82633126D01*
X151180804Y-82500000D01*
X151159719Y-82366874D01*
X151098528Y-82246780D01*
X151003220Y-82151472D01*
X151003219Y-82151471D01*
X150940471Y-82119500D01*
X150883126Y-82090281D01*
X150750000Y-82069196D01*
X150616874Y-82090281D01*
X150616872Y-82090281D01*
X150616872Y-82090282D01*
X150496780Y-82151471D01*
X150401471Y-82246780D01*
X150347925Y-82351872D01*
X150340281Y-82366874D01*
X150319196Y-82500000D01*
X150340281Y-82633126D01*
X150352863Y-82657819D01*
X150401471Y-82753219D01*
X150412595Y-82764343D01*
X150446621Y-82826655D01*
X150449500Y-82853438D01*
X150449500Y-85073339D01*
X150429498Y-85141460D01*
X150412595Y-85162434D01*
X144433646Y-91141383D01*
X144371334Y-91175409D01*
X144344551Y-91178288D01*
X143278040Y-91178288D01*
X143209919Y-91158286D01*
X143163426Y-91104630D01*
X143153322Y-91034356D01*
X143182816Y-90969776D01*
X143242542Y-90931392D01*
X143253451Y-90928710D01*
X143258884Y-90927630D01*
X143440962Y-90852210D01*
X143604829Y-90742718D01*
X143744187Y-90603360D01*
X143853679Y-90439493D01*
X143929099Y-90257415D01*
X143967548Y-90064119D01*
X143967548Y-89867039D01*
X143929099Y-89673743D01*
X143853679Y-89491665D01*
X143744187Y-89327798D01*
X143039143Y-88622754D01*
X142875276Y-88513262D01*
X142693199Y-88437842D01*
X142499904Y-88399393D01*
X142499902Y-88399393D01*
X142302822Y-88399393D01*
X142302819Y-88399393D01*
X142109524Y-88437842D01*
X142109519Y-88437844D01*
X141998712Y-88483742D01*
X141928122Y-88491331D01*
X141864635Y-88459552D01*
X141861399Y-88456428D01*
X141756089Y-88351118D01*
X141722063Y-88288806D01*
X141727128Y-88217991D01*
X141732394Y-88205860D01*
X141760578Y-88149258D01*
X141760577Y-88149258D01*
X141760582Y-88149250D01*
X141816397Y-87953083D01*
X141835215Y-87750000D01*
X141816397Y-87546917D01*
X141804556Y-87505299D01*
X143196913Y-87505299D01*
X143196913Y-87702384D01*
X143233610Y-87886872D01*
X143235362Y-87895678D01*
X143310782Y-88077756D01*
X143420274Y-88241623D01*
X144125318Y-88946667D01*
X144289185Y-89056159D01*
X144471263Y-89131579D01*
X144664559Y-89170028D01*
X144664560Y-89170028D01*
X144861638Y-89170028D01*
X144861639Y-89170028D01*
X145054935Y-89131579D01*
X145237013Y-89056159D01*
X145400880Y-88946667D01*
X145540238Y-88807309D01*
X145649730Y-88643442D01*
X145725150Y-88461364D01*
X145763599Y-88268068D01*
X145763599Y-88070988D01*
X145725150Y-87877692D01*
X145649730Y-87695614D01*
X145540238Y-87531747D01*
X144835194Y-86826703D01*
X144671327Y-86717211D01*
X144489250Y-86641791D01*
X144295955Y-86603342D01*
X144295953Y-86603342D01*
X144098873Y-86603342D01*
X144098870Y-86603342D01*
X143905575Y-86641791D01*
X143905574Y-86641792D01*
X143813526Y-86679920D01*
X143730962Y-86714120D01*
X143723497Y-86717212D01*
X143559633Y-86826702D01*
X143559627Y-86826707D01*
X143420278Y-86966056D01*
X143420273Y-86966062D01*
X143310783Y-87129926D01*
X143235363Y-87312003D01*
X143235362Y-87312004D01*
X143196913Y-87505299D01*
X141804556Y-87505299D01*
X141760582Y-87350750D01*
X141669673Y-87168179D01*
X141659785Y-87155085D01*
X141546765Y-87005421D01*
X141396040Y-86868018D01*
X141396039Y-86868017D01*
X141222648Y-86760658D01*
X141222641Y-86760654D01*
X141222637Y-86760652D01*
X141080138Y-86705448D01*
X141032457Y-86686976D01*
X140916579Y-86665315D01*
X140831976Y-86649500D01*
X140628024Y-86649500D01*
X140543426Y-86665314D01*
X140427542Y-86686976D01*
X140280190Y-86744060D01*
X140237363Y-86760652D01*
X140237362Y-86760652D01*
X140237361Y-86760653D01*
X140237351Y-86760658D01*
X140063960Y-86868017D01*
X140063959Y-86868018D01*
X140011386Y-86915945D01*
X139947568Y-86947056D01*
X139877062Y-86938726D01*
X139822252Y-86893600D01*
X139800540Y-86826005D01*
X139800500Y-86822830D01*
X139800500Y-86458971D01*
X139797992Y-86449611D01*
X139780022Y-86382544D01*
X139740460Y-86314021D01*
X139740458Y-86314019D01*
X139740454Y-86314014D01*
X138528646Y-85102207D01*
X138494621Y-85039895D01*
X138499685Y-84969080D01*
X138501316Y-84964931D01*
X138540945Y-84869262D01*
X138579394Y-84675966D01*
X138579394Y-84478886D01*
X138540945Y-84285590D01*
X138465525Y-84103512D01*
X138356033Y-83939645D01*
X137650989Y-83234601D01*
X137487122Y-83125109D01*
X137305045Y-83049689D01*
X137111750Y-83011240D01*
X137111748Y-83011240D01*
X136914668Y-83011240D01*
X136914665Y-83011240D01*
X136721371Y-83049689D01*
X136721366Y-83049691D01*
X136625739Y-83089301D01*
X136555149Y-83096890D01*
X136491662Y-83065110D01*
X136488426Y-83061987D01*
X135537723Y-82111284D01*
X137749260Y-82111284D01*
X137749260Y-82320091D01*
X137789995Y-82524879D01*
X137789997Y-82524884D01*
X137869900Y-82717786D01*
X137985901Y-82891395D01*
X137985902Y-82891396D01*
X138699238Y-83604731D01*
X138699240Y-83604732D01*
X138872846Y-83720732D01*
X139065752Y-83800637D01*
X139065753Y-83800638D01*
X139270541Y-83841374D01*
X139270545Y-83841375D01*
X139479347Y-83841375D01*
X139479350Y-83841374D01*
X139684138Y-83800638D01*
X139684139Y-83800637D01*
X139877045Y-83720732D01*
X140050655Y-83604730D01*
X140050661Y-83604725D01*
X140159405Y-83495982D01*
X140221717Y-83461956D01*
X140292532Y-83467021D01*
X140349368Y-83509568D01*
X140374179Y-83576088D01*
X140374500Y-83585077D01*
X140374500Y-85169750D01*
X140384551Y-85220282D01*
X140386133Y-85228231D01*
X140430448Y-85294552D01*
X140496769Y-85338867D01*
X140555252Y-85350500D01*
X140555253Y-85350500D01*
X142394747Y-85350500D01*
X142394748Y-85350500D01*
X142453231Y-85338867D01*
X142519552Y-85294552D01*
X142563867Y-85228231D01*
X142575500Y-85169748D01*
X142575500Y-84250000D01*
X142909785Y-84250000D01*
X142928603Y-84453084D01*
X142984416Y-84649245D01*
X142984417Y-84649247D01*
X142984418Y-84649250D01*
X143075327Y-84831821D01*
X143075328Y-84831822D01*
X143075329Y-84831824D01*
X143198234Y-84994578D01*
X143348959Y-85131981D01*
X143348960Y-85131982D01*
X143522351Y-85239341D01*
X143522354Y-85239342D01*
X143522363Y-85239348D01*
X143712544Y-85313024D01*
X143913024Y-85350500D01*
X143913026Y-85350500D01*
X144116973Y-85350500D01*
X144116976Y-85350500D01*
X144317456Y-85313024D01*
X144317462Y-85313021D01*
X144320557Y-85312443D01*
X144391193Y-85319588D01*
X144446754Y-85363786D01*
X144468158Y-85416584D01*
X144480281Y-85493126D01*
X144541472Y-85613220D01*
X144636780Y-85708528D01*
X144756874Y-85769719D01*
X144890000Y-85790804D01*
X145023126Y-85769719D01*
X145143220Y-85708528D01*
X145143220Y-85708527D01*
X145152055Y-85704026D01*
X145153560Y-85706981D01*
X145204258Y-85688870D01*
X145273416Y-85704923D01*
X145300596Y-85725567D01*
X146289149Y-86714120D01*
X146323175Y-86776432D01*
X146324499Y-86783486D01*
X146340281Y-86883126D01*
X146340282Y-86883127D01*
X146395247Y-86991004D01*
X146401472Y-87003220D01*
X146496780Y-87098528D01*
X146616874Y-87159719D01*
X146750000Y-87180804D01*
X146883126Y-87159719D01*
X147003220Y-87098528D01*
X147098528Y-87003220D01*
X147159719Y-86883126D01*
X147180804Y-86750000D01*
X147159719Y-86616874D01*
X147098528Y-86496780D01*
X147003220Y-86401472D01*
X147003219Y-86401471D01*
X146935314Y-86366872D01*
X146883126Y-86340281D01*
X146783502Y-86324502D01*
X146719351Y-86294090D01*
X146714120Y-86289149D01*
X145544517Y-85119545D01*
X145544513Y-85119542D01*
X145544511Y-85119540D01*
X145522410Y-85106780D01*
X145475989Y-85079979D01*
X145475987Y-85079978D01*
X145475985Y-85079977D01*
X145399565Y-85059500D01*
X145399562Y-85059500D01*
X145243438Y-85059500D01*
X145175317Y-85039498D01*
X145154343Y-85022595D01*
X145143221Y-85011473D01*
X145143220Y-85011472D01*
X145106592Y-84992809D01*
X145032710Y-84955164D01*
X144981095Y-84906415D01*
X144964029Y-84837500D01*
X144977122Y-84786736D01*
X145045582Y-84649250D01*
X145101397Y-84453083D01*
X145120215Y-84250000D01*
X145101397Y-84046917D01*
X145045582Y-83850750D01*
X144954673Y-83668179D01*
X144953229Y-83666267D01*
X144831765Y-83505421D01*
X144681040Y-83368018D01*
X144681039Y-83368017D01*
X144507648Y-83260658D01*
X144507641Y-83260654D01*
X144507637Y-83260652D01*
X144336473Y-83194343D01*
X144317457Y-83186976D01*
X144226642Y-83170000D01*
X144226621Y-83169996D01*
X147744659Y-83169996D01*
X147744659Y-83170003D01*
X147763974Y-83366124D01*
X147763974Y-83366126D01*
X147821186Y-83554728D01*
X147887936Y-83679607D01*
X147914090Y-83728538D01*
X148039117Y-83880883D01*
X148191462Y-84005910D01*
X148365273Y-84098814D01*
X148553868Y-84156024D01*
X148553872Y-84156024D01*
X148553874Y-84156025D01*
X148749997Y-84175341D01*
X148750000Y-84175341D01*
X148750003Y-84175341D01*
X148946124Y-84156025D01*
X148946126Y-84156025D01*
X148946127Y-84156024D01*
X148946132Y-84156024D01*
X149134727Y-84098814D01*
X149308538Y-84005910D01*
X149460883Y-83880883D01*
X149585910Y-83728538D01*
X149678814Y-83554727D01*
X149736024Y-83366132D01*
X149736025Y-83366124D01*
X149755341Y-83170003D01*
X149755341Y-83169996D01*
X149736025Y-82973875D01*
X149736025Y-82973873D01*
X149736024Y-82973870D01*
X149736024Y-82973868D01*
X149678814Y-82785273D01*
X149585910Y-82611462D01*
X149460883Y-82459117D01*
X149308538Y-82334090D01*
X149272230Y-82314683D01*
X149134728Y-82241186D01*
X148985977Y-82196063D01*
X148946132Y-82183976D01*
X148946131Y-82183975D01*
X148946125Y-82183974D01*
X148750003Y-82164659D01*
X148749997Y-82164659D01*
X148553875Y-82183974D01*
X148553873Y-82183974D01*
X148365271Y-82241186D01*
X148191461Y-82334090D01*
X148039117Y-82459117D01*
X147914090Y-82611461D01*
X147821186Y-82785271D01*
X147763974Y-82973873D01*
X147763974Y-82973875D01*
X147744659Y-83169996D01*
X144226621Y-83169996D01*
X144116976Y-83149500D01*
X143913024Y-83149500D01*
X143833230Y-83164416D01*
X143712542Y-83186976D01*
X143565190Y-83244060D01*
X143522363Y-83260652D01*
X143522362Y-83260652D01*
X143522361Y-83260653D01*
X143522351Y-83260658D01*
X143348960Y-83368017D01*
X143348959Y-83368018D01*
X143198234Y-83505421D01*
X143075329Y-83668175D01*
X142984416Y-83850754D01*
X142928603Y-84046915D01*
X142909785Y-84250000D01*
X142575500Y-84250000D01*
X142575500Y-83330252D01*
X142563867Y-83271769D01*
X142519552Y-83205448D01*
X142453231Y-83161133D01*
X142453228Y-83161132D01*
X142394750Y-83149500D01*
X142394748Y-83149500D01*
X140555252Y-83149500D01*
X140555251Y-83149500D01*
X140549088Y-83150107D01*
X140548828Y-83147474D01*
X140489549Y-83142140D01*
X140433503Y-83098559D01*
X140409916Y-83031595D01*
X140412160Y-83000330D01*
X140434946Y-82885778D01*
X140434947Y-82885775D01*
X140434947Y-82676972D01*
X140434946Y-82676969D01*
X140394210Y-82472181D01*
X140394209Y-82472180D01*
X140314304Y-82279274D01*
X140198303Y-82105665D01*
X140198301Y-82105663D01*
X139933560Y-81840921D01*
X139933559Y-81840921D01*
X139452215Y-82322264D01*
X139412183Y-82252925D01*
X139337709Y-82178451D01*
X139268368Y-82138417D01*
X139749712Y-81657073D01*
X139484970Y-81392332D01*
X139484969Y-81392331D01*
X139311357Y-81276328D01*
X139118456Y-81196425D01*
X139118451Y-81196423D01*
X138913663Y-81155688D01*
X138704856Y-81155688D01*
X138500068Y-81196423D01*
X138500063Y-81196425D01*
X138307161Y-81276328D01*
X138307157Y-81276330D01*
X138155250Y-81377830D01*
X138155250Y-81377831D01*
X138915836Y-82138417D01*
X138846497Y-82178451D01*
X138772023Y-82252925D01*
X138731989Y-82322265D01*
X137971403Y-81561678D01*
X137971402Y-81561678D01*
X137869902Y-81713585D01*
X137869900Y-81713589D01*
X137789997Y-81906491D01*
X137789995Y-81906496D01*
X137749260Y-82111284D01*
X135537723Y-82111284D01*
X133501129Y-80074689D01*
X133467103Y-80012377D01*
X133472168Y-79941561D01*
X133514715Y-79884726D01*
X133581235Y-79859915D01*
X133627363Y-79865192D01*
X133807254Y-79920681D01*
X133807266Y-79920683D01*
X134068110Y-79960000D01*
X134331890Y-79960000D01*
X134592733Y-79920683D01*
X134592745Y-79920681D01*
X134844797Y-79842934D01*
X134844804Y-79842931D01*
X135082462Y-79728482D01*
X135082463Y-79728481D01*
X135300420Y-79579880D01*
X135300421Y-79579879D01*
X135350015Y-79533862D01*
X134630510Y-78814358D01*
X134678097Y-78782563D01*
X134782563Y-78678097D01*
X134814358Y-78630512D01*
X135533947Y-79350101D01*
X135533948Y-79350100D01*
X135658254Y-79194227D01*
X135658260Y-79194219D01*
X135790149Y-78965781D01*
X135790152Y-78965773D01*
X135843341Y-78830249D01*
X141639500Y-78830249D01*
X141639500Y-80669750D01*
X141646062Y-80702741D01*
X141651133Y-80728231D01*
X141695448Y-80794552D01*
X141761769Y-80838867D01*
X141820252Y-80850500D01*
X141820253Y-80850500D01*
X143659747Y-80850500D01*
X143659748Y-80850500D01*
X143718231Y-80838867D01*
X143784552Y-80794552D01*
X143828867Y-80728231D01*
X143840500Y-80669748D01*
X143840500Y-79750000D01*
X144174785Y-79750000D01*
X144193603Y-79953084D01*
X144249416Y-80149245D01*
X144249417Y-80149247D01*
X144249418Y-80149250D01*
X144340327Y-80331821D01*
X144340328Y-80331822D01*
X144340329Y-80331824D01*
X144463234Y-80494578D01*
X144613959Y-80631981D01*
X144613960Y-80631982D01*
X144787351Y-80739341D01*
X144787354Y-80739342D01*
X144787363Y-80739348D01*
X144977544Y-80813024D01*
X145178024Y-80850500D01*
X145178026Y-80850500D01*
X145381974Y-80850500D01*
X145381976Y-80850500D01*
X145582456Y-80813024D01*
X145772637Y-80739348D01*
X145946041Y-80631981D01*
X146096764Y-80494579D01*
X146104456Y-80484394D01*
X146181280Y-80382661D01*
X146219673Y-80331821D01*
X146220582Y-80329996D01*
X147684871Y-80329996D01*
X147684871Y-80330003D01*
X147705335Y-80537789D01*
X147765949Y-80737607D01*
X147864377Y-80921753D01*
X147864379Y-80921755D01*
X147913969Y-80982181D01*
X148389886Y-80506264D01*
X148429920Y-80575606D01*
X148504394Y-80650080D01*
X148573734Y-80690113D01*
X148097817Y-81166029D01*
X148158244Y-81215620D01*
X148158246Y-81215622D01*
X148342392Y-81314050D01*
X148542210Y-81374664D01*
X148749997Y-81395129D01*
X148750003Y-81395129D01*
X148957789Y-81374664D01*
X149157607Y-81314050D01*
X149341754Y-81215621D01*
X149402182Y-81166029D01*
X148926266Y-80690113D01*
X148995606Y-80650080D01*
X149070080Y-80575606D01*
X149110113Y-80506266D01*
X149586029Y-80982182D01*
X149635621Y-80921754D01*
X149734050Y-80737607D01*
X149794664Y-80537789D01*
X149815129Y-80330003D01*
X149815129Y-80329996D01*
X149794664Y-80122210D01*
X149734050Y-79922392D01*
X149635622Y-79738246D01*
X149635620Y-79738244D01*
X149586029Y-79677817D01*
X149110113Y-80153733D01*
X149070080Y-80084394D01*
X148995606Y-80009920D01*
X148926265Y-79969886D01*
X149402181Y-79493969D01*
X149341755Y-79444379D01*
X149341753Y-79444377D01*
X149157607Y-79345949D01*
X148957789Y-79285335D01*
X148750003Y-79264871D01*
X148749997Y-79264871D01*
X148542210Y-79285335D01*
X148342392Y-79345949D01*
X148158251Y-79444375D01*
X148158245Y-79444379D01*
X148097816Y-79493969D01*
X148573733Y-79969886D01*
X148504394Y-80009920D01*
X148429920Y-80084394D01*
X148389886Y-80153733D01*
X147913969Y-79677816D01*
X147864379Y-79738245D01*
X147864375Y-79738251D01*
X147765949Y-79922392D01*
X147705335Y-80122210D01*
X147684871Y-80329996D01*
X146220582Y-80329996D01*
X146310582Y-80149250D01*
X146366397Y-79953083D01*
X146385215Y-79750000D01*
X146366397Y-79546917D01*
X146310582Y-79350750D01*
X146219673Y-79168179D01*
X146219670Y-79168175D01*
X146096765Y-79005421D01*
X145946040Y-78868018D01*
X145946039Y-78868017D01*
X145772648Y-78760658D01*
X145772641Y-78760654D01*
X145772637Y-78760652D01*
X145639041Y-78708897D01*
X145582457Y-78686976D01*
X145515062Y-78674378D01*
X145381976Y-78649500D01*
X145178024Y-78649500D01*
X145115793Y-78661133D01*
X144977542Y-78686976D01*
X144833127Y-78742923D01*
X144787363Y-78760652D01*
X144787362Y-78760652D01*
X144787361Y-78760653D01*
X144787351Y-78760658D01*
X144613960Y-78868017D01*
X144613959Y-78868018D01*
X144463234Y-79005421D01*
X144340329Y-79168175D01*
X144249416Y-79350754D01*
X144193603Y-79546915D01*
X144174785Y-79750000D01*
X143840500Y-79750000D01*
X143840500Y-78830252D01*
X143828867Y-78771769D01*
X143784552Y-78705448D01*
X143718231Y-78661133D01*
X143718228Y-78661132D01*
X143659750Y-78649500D01*
X143659748Y-78649500D01*
X141820252Y-78649500D01*
X141820249Y-78649500D01*
X141761771Y-78661132D01*
X141761768Y-78661133D01*
X141695448Y-78705448D01*
X141651133Y-78771768D01*
X141651132Y-78771771D01*
X141639500Y-78830249D01*
X135843341Y-78830249D01*
X135886525Y-78720219D01*
X135945220Y-78463054D01*
X135964934Y-78200000D01*
X135945220Y-77936945D01*
X135886525Y-77679780D01*
X135790152Y-77434226D01*
X135790149Y-77434218D01*
X135658260Y-77205780D01*
X135533947Y-77049897D01*
X134814357Y-77769487D01*
X134782563Y-77721903D01*
X134678097Y-77617437D01*
X134630511Y-77585641D01*
X135350015Y-76866137D01*
X135350014Y-76866136D01*
X135300424Y-76820123D01*
X135300418Y-76820117D01*
X135082463Y-76671518D01*
X135082462Y-76671517D01*
X134844804Y-76557068D01*
X134844797Y-76557065D01*
X134592745Y-76479318D01*
X134592733Y-76479316D01*
X134331890Y-76440000D01*
X134068110Y-76440000D01*
X133807266Y-76479316D01*
X133807254Y-76479318D01*
X133555205Y-76557064D01*
X133555192Y-76557069D01*
X133317530Y-76671522D01*
X133317523Y-76671526D01*
X133099584Y-76820115D01*
X133049983Y-76866136D01*
X133049983Y-76866137D01*
X133769488Y-77585641D01*
X133721903Y-77617437D01*
X133617437Y-77721903D01*
X133585641Y-77769487D01*
X132866052Y-77049898D01*
X132866051Y-77049898D01*
X132741739Y-77205780D01*
X132609850Y-77434218D01*
X132609847Y-77434226D01*
X132513474Y-77679780D01*
X132454779Y-77936945D01*
X132435065Y-78200000D01*
X132454779Y-78463054D01*
X132513474Y-78720220D01*
X132513475Y-78720223D01*
X132529820Y-78761868D01*
X132536088Y-78832587D01*
X132503127Y-78895468D01*
X132441402Y-78930548D01*
X132370510Y-78926687D01*
X132323435Y-78896995D01*
X130935985Y-77509545D01*
X130935981Y-77509542D01*
X130935979Y-77509540D01*
X130913878Y-77496780D01*
X130867457Y-77469979D01*
X130867455Y-77469978D01*
X130867453Y-77469977D01*
X130791033Y-77449500D01*
X130791030Y-77449500D01*
X125853438Y-77449500D01*
X125785317Y-77429498D01*
X125764343Y-77412595D01*
X125753221Y-77401473D01*
X125745194Y-77395641D01*
X125747318Y-77392717D01*
X125708915Y-77356420D01*
X125691874Y-77287499D01*
X125714799Y-77220306D01*
X125728653Y-77203853D01*
X125967897Y-76964611D01*
X126030209Y-76930586D01*
X126056992Y-76927707D01*
X131864818Y-76927707D01*
X131941245Y-76907228D01*
X132009767Y-76867667D01*
X132065716Y-76811718D01*
X132540460Y-76336974D01*
X132568396Y-76288587D01*
X132580021Y-76268452D01*
X132600500Y-76192025D01*
X132600500Y-74580249D01*
X141364500Y-74580249D01*
X141364500Y-76419750D01*
X141375657Y-76475842D01*
X141376133Y-76478231D01*
X141420448Y-76544552D01*
X141486769Y-76588867D01*
X141545252Y-76600500D01*
X141545253Y-76600500D01*
X143384747Y-76600500D01*
X143384748Y-76600500D01*
X143443231Y-76588867D01*
X143509552Y-76544552D01*
X143553867Y-76478231D01*
X143565500Y-76419748D01*
X143565500Y-75500000D01*
X143899785Y-75500000D01*
X143918603Y-75703084D01*
X143974416Y-75899245D01*
X143974417Y-75899247D01*
X143974418Y-75899250D01*
X144065327Y-76081821D01*
X144065328Y-76081822D01*
X144065329Y-76081824D01*
X144188234Y-76244578D01*
X144338959Y-76381981D01*
X144338960Y-76381982D01*
X144512351Y-76489341D01*
X144512354Y-76489342D01*
X144512363Y-76489348D01*
X144702544Y-76563024D01*
X144903024Y-76600500D01*
X144903026Y-76600500D01*
X145106974Y-76600500D01*
X145106976Y-76600500D01*
X145307456Y-76563024D01*
X145497637Y-76489348D01*
X145671041Y-76381981D01*
X145821764Y-76244579D01*
X145836929Y-76224498D01*
X145868436Y-76182775D01*
X145944673Y-76081821D01*
X146035582Y-75899250D01*
X146091397Y-75703083D01*
X146110215Y-75500000D01*
X146091397Y-75296917D01*
X146035582Y-75100750D01*
X145944673Y-74918179D01*
X145944670Y-74918175D01*
X145821765Y-74755421D01*
X145671040Y-74618018D01*
X145671039Y-74618017D01*
X145497648Y-74510658D01*
X145497641Y-74510654D01*
X145497637Y-74510652D01*
X145355138Y-74455448D01*
X145307457Y-74436976D01*
X145206900Y-74418179D01*
X145106976Y-74399500D01*
X144903024Y-74399500D01*
X144840793Y-74411133D01*
X144702542Y-74436976D01*
X144555190Y-74494060D01*
X144512363Y-74510652D01*
X144512362Y-74510652D01*
X144512361Y-74510653D01*
X144512351Y-74510658D01*
X144338960Y-74618017D01*
X144338959Y-74618018D01*
X144188234Y-74755421D01*
X144065329Y-74918175D01*
X143974416Y-75100754D01*
X143918603Y-75296915D01*
X143899785Y-75500000D01*
X143565500Y-75500000D01*
X143565500Y-74580252D01*
X143553867Y-74521769D01*
X143509552Y-74455448D01*
X143443231Y-74411133D01*
X143443228Y-74411132D01*
X143384750Y-74399500D01*
X143384748Y-74399500D01*
X141545252Y-74399500D01*
X141545249Y-74399500D01*
X141486771Y-74411132D01*
X141486768Y-74411133D01*
X141420448Y-74455448D01*
X141376133Y-74521768D01*
X141376132Y-74521771D01*
X141364500Y-74580249D01*
X132600500Y-74580249D01*
X132600500Y-72890438D01*
X132580022Y-72814012D01*
X132540460Y-72745489D01*
X132540458Y-72745487D01*
X132540454Y-72745482D01*
X130625220Y-70830249D01*
X139364500Y-70830249D01*
X139364500Y-70830252D01*
X139364500Y-72669748D01*
X139376133Y-72728231D01*
X139420448Y-72794552D01*
X139486769Y-72838867D01*
X139545252Y-72850500D01*
X139545253Y-72850500D01*
X141384747Y-72850500D01*
X141384748Y-72850500D01*
X141443231Y-72838867D01*
X141509552Y-72794552D01*
X141553867Y-72728231D01*
X141565500Y-72669748D01*
X141565500Y-70830252D01*
X141553867Y-70771769D01*
X141509552Y-70705448D01*
X141443231Y-70661133D01*
X141443228Y-70661132D01*
X141384750Y-70649500D01*
X141384748Y-70649500D01*
X139545252Y-70649500D01*
X139545249Y-70649500D01*
X139486771Y-70661132D01*
X139486768Y-70661133D01*
X139420448Y-70705448D01*
X139376133Y-70771768D01*
X139376132Y-70771771D01*
X139364500Y-70830249D01*
X130625220Y-70830249D01*
X129860566Y-70065595D01*
X129826540Y-70003283D01*
X129831605Y-69932468D01*
X129874152Y-69875632D01*
X129940672Y-69850821D01*
X129949661Y-69850500D01*
X131409747Y-69850500D01*
X131409748Y-69850500D01*
X131468231Y-69838867D01*
X131534552Y-69794552D01*
X131578867Y-69728231D01*
X131590500Y-69669748D01*
X131590500Y-68750000D01*
X131924785Y-68750000D01*
X131943603Y-68953084D01*
X131999416Y-69149245D01*
X131999417Y-69149247D01*
X131999418Y-69149250D01*
X132090327Y-69331821D01*
X132090328Y-69331822D01*
X132090329Y-69331824D01*
X132213234Y-69494578D01*
X132363959Y-69631981D01*
X132363960Y-69631982D01*
X132537351Y-69739341D01*
X132537354Y-69739342D01*
X132537363Y-69739348D01*
X132727544Y-69813024D01*
X132928024Y-69850500D01*
X132928026Y-69850500D01*
X133131974Y-69850500D01*
X133131976Y-69850500D01*
X133332456Y-69813024D01*
X133522637Y-69739348D01*
X133696041Y-69631981D01*
X133846764Y-69494579D01*
X133969673Y-69331821D01*
X134060582Y-69149250D01*
X134116397Y-68953083D01*
X134135215Y-68750000D01*
X134116397Y-68546917D01*
X134060582Y-68350750D01*
X133969673Y-68168179D01*
X133948044Y-68139537D01*
X133846765Y-68005421D01*
X133696040Y-67868018D01*
X133696039Y-67868017D01*
X133635041Y-67830249D01*
X135139500Y-67830249D01*
X135139500Y-69669750D01*
X135150657Y-69725842D01*
X135151133Y-69728231D01*
X135195448Y-69794552D01*
X135261769Y-69838867D01*
X135320252Y-69850500D01*
X135320253Y-69850500D01*
X137159747Y-69850500D01*
X137159748Y-69850500D01*
X137218231Y-69838867D01*
X137284552Y-69794552D01*
X137328867Y-69728231D01*
X137340500Y-69669748D01*
X137340500Y-68750000D01*
X137674785Y-68750000D01*
X137693603Y-68953084D01*
X137749416Y-69149245D01*
X137749417Y-69149247D01*
X137749418Y-69149250D01*
X137840327Y-69331821D01*
X137840328Y-69331822D01*
X137840329Y-69331824D01*
X137963234Y-69494578D01*
X138113959Y-69631981D01*
X138113960Y-69631982D01*
X138287351Y-69739341D01*
X138287354Y-69739342D01*
X138287363Y-69739348D01*
X138477544Y-69813024D01*
X138678024Y-69850500D01*
X138678026Y-69850500D01*
X138881974Y-69850500D01*
X138881976Y-69850500D01*
X139082456Y-69813024D01*
X139272637Y-69739348D01*
X139446041Y-69631981D01*
X139596764Y-69494579D01*
X139719673Y-69331821D01*
X139810582Y-69149250D01*
X139866397Y-68953083D01*
X139885215Y-68750000D01*
X139866397Y-68546917D01*
X139810582Y-68350750D01*
X139719673Y-68168179D01*
X139698044Y-68139537D01*
X139596765Y-68005421D01*
X139446040Y-67868018D01*
X139446039Y-67868017D01*
X139272648Y-67760658D01*
X139272641Y-67760654D01*
X139272637Y-67760652D01*
X139130138Y-67705448D01*
X139082457Y-67686976D01*
X138974919Y-67666874D01*
X138881976Y-67649500D01*
X138678024Y-67649500D01*
X138585081Y-67666874D01*
X138477542Y-67686976D01*
X138330190Y-67744060D01*
X138287363Y-67760652D01*
X138287362Y-67760652D01*
X138287361Y-67760653D01*
X138287351Y-67760658D01*
X138113960Y-67868017D01*
X138113959Y-67868018D01*
X137963234Y-68005421D01*
X137840329Y-68168175D01*
X137749416Y-68350754D01*
X137693603Y-68546915D01*
X137674785Y-68750000D01*
X137340500Y-68750000D01*
X137340500Y-67830252D01*
X137328867Y-67771769D01*
X137284552Y-67705448D01*
X137218231Y-67661133D01*
X137218228Y-67661132D01*
X137159750Y-67649500D01*
X137159748Y-67649500D01*
X135320252Y-67649500D01*
X135320249Y-67649500D01*
X135261771Y-67661132D01*
X135261768Y-67661133D01*
X135195448Y-67705448D01*
X135151133Y-67771768D01*
X135151132Y-67771771D01*
X135139500Y-67830249D01*
X133635041Y-67830249D01*
X133522648Y-67760658D01*
X133522641Y-67760654D01*
X133522637Y-67760652D01*
X133380138Y-67705448D01*
X133332457Y-67686976D01*
X133224919Y-67666874D01*
X133131976Y-67649500D01*
X132928024Y-67649500D01*
X132835081Y-67666874D01*
X132727542Y-67686976D01*
X132580190Y-67744060D01*
X132537363Y-67760652D01*
X132537362Y-67760652D01*
X132537361Y-67760653D01*
X132537351Y-67760658D01*
X132363960Y-67868017D01*
X132363959Y-67868018D01*
X132213234Y-68005421D01*
X132090329Y-68168175D01*
X131999416Y-68350754D01*
X131943603Y-68546915D01*
X131924785Y-68750000D01*
X131590500Y-68750000D01*
X131590500Y-67830252D01*
X131578867Y-67771769D01*
X131534552Y-67705448D01*
X131468231Y-67661133D01*
X131468228Y-67661132D01*
X131409750Y-67649500D01*
X131409748Y-67649500D01*
X129570252Y-67649500D01*
X129570249Y-67649500D01*
X129511771Y-67661132D01*
X129511768Y-67661133D01*
X129445448Y-67705448D01*
X129401133Y-67771768D01*
X129401132Y-67771771D01*
X129389500Y-67830249D01*
X129389500Y-69290338D01*
X129369498Y-69358459D01*
X129315842Y-69404952D01*
X129245568Y-69415056D01*
X129180988Y-69385562D01*
X129174405Y-69379433D01*
X127934517Y-68139545D01*
X127934507Y-68139537D01*
X127916645Y-68129225D01*
X127865989Y-68099979D01*
X127865988Y-68099978D01*
X127865987Y-68099978D01*
X127789565Y-68079500D01*
X127789562Y-68079500D01*
X124306661Y-68079500D01*
X124238540Y-68059498D01*
X124217566Y-68042595D01*
X123809066Y-67634095D01*
X123775040Y-67571783D01*
X123780105Y-67500968D01*
X123809064Y-67455906D01*
X124265460Y-66999511D01*
X124279900Y-66974500D01*
X124305021Y-66930989D01*
X124325500Y-66854562D01*
X124325500Y-66272812D01*
X124345502Y-66204691D01*
X124399158Y-66158198D01*
X124404071Y-66156341D01*
X124404006Y-66156184D01*
X124409723Y-66153815D01*
X124409727Y-66153814D01*
X124583538Y-66060910D01*
X124735883Y-65935883D01*
X124860910Y-65783538D01*
X124953814Y-65609727D01*
X125011024Y-65421132D01*
X125012234Y-65408848D01*
X125030341Y-65225003D01*
X125030341Y-65224996D01*
X125459871Y-65224996D01*
X125459871Y-65225003D01*
X125480335Y-65432789D01*
X125540949Y-65632607D01*
X125639377Y-65816753D01*
X125639379Y-65816755D01*
X125688969Y-65877181D01*
X126164886Y-65401264D01*
X126204920Y-65470606D01*
X126279394Y-65545080D01*
X126348734Y-65585113D01*
X125872817Y-66061029D01*
X125933244Y-66110620D01*
X125933246Y-66110622D01*
X126117392Y-66209050D01*
X126317210Y-66269664D01*
X126524997Y-66290129D01*
X126525003Y-66290129D01*
X126732789Y-66269664D01*
X126932607Y-66209050D01*
X127116754Y-66110621D01*
X127177182Y-66061029D01*
X126701266Y-65585113D01*
X126770606Y-65545080D01*
X126845080Y-65470606D01*
X126885113Y-65401266D01*
X127361029Y-65877182D01*
X127410621Y-65816754D01*
X127509050Y-65632607D01*
X127569664Y-65432789D01*
X127590129Y-65225003D01*
X127590129Y-65224996D01*
X127587667Y-65199996D01*
X129774659Y-65199996D01*
X129774659Y-65200003D01*
X129793974Y-65396124D01*
X129793974Y-65396126D01*
X129851186Y-65584728D01*
X129928202Y-65728813D01*
X129944090Y-65758538D01*
X130069117Y-65910883D01*
X130221462Y-66035910D01*
X130395273Y-66128814D01*
X130583868Y-66186024D01*
X130583872Y-66186024D01*
X130583874Y-66186025D01*
X130779997Y-66205341D01*
X130780000Y-66205341D01*
X130780003Y-66205341D01*
X130976124Y-66186025D01*
X130976126Y-66186025D01*
X130976127Y-66186024D01*
X130976132Y-66186024D01*
X131164727Y-66128814D01*
X131338538Y-66035910D01*
X131490883Y-65910883D01*
X131615910Y-65758538D01*
X131708814Y-65584727D01*
X131766024Y-65396132D01*
X131768087Y-65375188D01*
X131785341Y-65200003D01*
X131785341Y-65199996D01*
X131766025Y-65003875D01*
X131766025Y-65003873D01*
X131766024Y-65003870D01*
X131766024Y-65003868D01*
X131708814Y-64815273D01*
X131615910Y-64641462D01*
X131490883Y-64489117D01*
X131358228Y-64380249D01*
X137399500Y-64380249D01*
X137399500Y-66019750D01*
X137407687Y-66060910D01*
X137411133Y-66078231D01*
X137455448Y-66144552D01*
X137521769Y-66188867D01*
X137580252Y-66200500D01*
X137580253Y-66200500D01*
X139219747Y-66200500D01*
X139219748Y-66200500D01*
X139250263Y-66194430D01*
X139320977Y-66200756D01*
X139363942Y-66228913D01*
X143774892Y-70639863D01*
X143808918Y-70702175D01*
X143803853Y-70772990D01*
X143761306Y-70829826D01*
X143694786Y-70854637D01*
X143625412Y-70839546D01*
X143619467Y-70836085D01*
X143497648Y-70760658D01*
X143497641Y-70760654D01*
X143497637Y-70760652D01*
X143355138Y-70705448D01*
X143307457Y-70686976D01*
X143240629Y-70674484D01*
X143106976Y-70649500D01*
X142903024Y-70649500D01*
X142840793Y-70661133D01*
X142702542Y-70686976D01*
X142595259Y-70728538D01*
X142512363Y-70760652D01*
X142512362Y-70760652D01*
X142512361Y-70760653D01*
X142512351Y-70760658D01*
X142338960Y-70868017D01*
X142338959Y-70868018D01*
X142188234Y-71005421D01*
X142065329Y-71168175D01*
X141974416Y-71350754D01*
X141918603Y-71546915D01*
X141899785Y-71750000D01*
X141918603Y-71953084D01*
X141974416Y-72149245D01*
X141974417Y-72149247D01*
X141974418Y-72149250D01*
X142065327Y-72331821D01*
X142065328Y-72331822D01*
X142065329Y-72331824D01*
X142188234Y-72494578D01*
X142338959Y-72631981D01*
X142338960Y-72631982D01*
X142512351Y-72739341D01*
X142512354Y-72739342D01*
X142512363Y-72739348D01*
X142702544Y-72813024D01*
X142903024Y-72850500D01*
X142903026Y-72850500D01*
X143106974Y-72850500D01*
X143106976Y-72850500D01*
X143307456Y-72813024D01*
X143497637Y-72739348D01*
X143671041Y-72631981D01*
X143821764Y-72494579D01*
X143832167Y-72480804D01*
X143878272Y-72419750D01*
X143944673Y-72331821D01*
X144035582Y-72149250D01*
X144091397Y-71953083D01*
X144110215Y-71750000D01*
X144091397Y-71546917D01*
X144035582Y-71350750D01*
X143944673Y-71168179D01*
X143932759Y-71152402D01*
X143907669Y-71085987D01*
X143922469Y-71016550D01*
X143972460Y-70966137D01*
X144041770Y-70950754D01*
X144108394Y-70975286D01*
X144122404Y-70987375D01*
X145662595Y-72527566D01*
X145696621Y-72589878D01*
X145699500Y-72616661D01*
X145699500Y-73789565D01*
X145719977Y-73865986D01*
X145746042Y-73911131D01*
X145746042Y-73911134D01*
X145759536Y-73934505D01*
X145759538Y-73934507D01*
X145759540Y-73934511D01*
X145759542Y-73934513D01*
X145759546Y-73934518D01*
X150437095Y-78612066D01*
X150471121Y-78674378D01*
X150474000Y-78701161D01*
X150474000Y-78896562D01*
X150453998Y-78964683D01*
X150437095Y-78985657D01*
X150425973Y-78996778D01*
X150425971Y-78996780D01*
X150406336Y-79035317D01*
X150364781Y-79116874D01*
X150343696Y-79250000D01*
X150364781Y-79383126D01*
X150425972Y-79503220D01*
X150521280Y-79598528D01*
X150641374Y-79659719D01*
X150774500Y-79680804D01*
X150907626Y-79659719D01*
X151027720Y-79598528D01*
X151123028Y-79503220D01*
X151184219Y-79383126D01*
X151205304Y-79250000D01*
X151184219Y-79116874D01*
X151123028Y-78996780D01*
X151111905Y-78985657D01*
X151077879Y-78923345D01*
X151075000Y-78896562D01*
X151075000Y-78484939D01*
X151075000Y-78484938D01*
X151066573Y-78453488D01*
X151066573Y-78453487D01*
X151066573Y-78453486D01*
X151054524Y-78408519D01*
X151054523Y-78408518D01*
X151054522Y-78408512D01*
X151014960Y-78339989D01*
X151014958Y-78339987D01*
X151014954Y-78339982D01*
X146337405Y-73662433D01*
X146303379Y-73600121D01*
X146300500Y-73573338D01*
X146300500Y-72400438D01*
X146300499Y-72400434D01*
X146280022Y-72324014D01*
X146280021Y-72324013D01*
X146280021Y-72324011D01*
X146240460Y-72255489D01*
X146184511Y-72199540D01*
X139437405Y-65452434D01*
X139403379Y-65390122D01*
X139400500Y-65363339D01*
X139400500Y-64380253D01*
X139400499Y-64380249D01*
X139392369Y-64339379D01*
X139388867Y-64321769D01*
X139344552Y-64255448D01*
X139278231Y-64211133D01*
X139278228Y-64211132D01*
X139219750Y-64199500D01*
X139219748Y-64199500D01*
X137580252Y-64199500D01*
X137580249Y-64199500D01*
X137521771Y-64211132D01*
X137521768Y-64211133D01*
X137455448Y-64255448D01*
X137411133Y-64321768D01*
X137411132Y-64321771D01*
X137399500Y-64380249D01*
X131358228Y-64380249D01*
X131338538Y-64364090D01*
X131292307Y-64339379D01*
X131164728Y-64271186D01*
X130976125Y-64213974D01*
X130780003Y-64194659D01*
X130779997Y-64194659D01*
X130583875Y-64213974D01*
X130583873Y-64213974D01*
X130395271Y-64271186D01*
X130221461Y-64364090D01*
X130069117Y-64489117D01*
X129944090Y-64641461D01*
X129851186Y-64815271D01*
X129793974Y-65003873D01*
X129793974Y-65003875D01*
X129774659Y-65199996D01*
X127587667Y-65199996D01*
X127569664Y-65017210D01*
X127509050Y-64817392D01*
X127410622Y-64633246D01*
X127410620Y-64633244D01*
X127361029Y-64572817D01*
X126885113Y-65048733D01*
X126845080Y-64979394D01*
X126770606Y-64904920D01*
X126701265Y-64864886D01*
X127177181Y-64388969D01*
X127116755Y-64339379D01*
X127116753Y-64339377D01*
X126932607Y-64240949D01*
X126732789Y-64180335D01*
X126525003Y-64159871D01*
X126524997Y-64159871D01*
X126317210Y-64180335D01*
X126117392Y-64240949D01*
X125933251Y-64339375D01*
X125933245Y-64339379D01*
X125872816Y-64388969D01*
X126348733Y-64864886D01*
X126279394Y-64904920D01*
X126204920Y-64979394D01*
X126164886Y-65048733D01*
X125688969Y-64572816D01*
X125639379Y-64633245D01*
X125639375Y-64633251D01*
X125540949Y-64817392D01*
X125480335Y-65017210D01*
X125459871Y-65224996D01*
X125030341Y-65224996D01*
X125011025Y-65028875D01*
X125011025Y-65028873D01*
X125011024Y-65028870D01*
X125011024Y-65028868D01*
X124953814Y-64840273D01*
X124860910Y-64666462D01*
X124735883Y-64514117D01*
X124583538Y-64389090D01*
X124566998Y-64380249D01*
X124409728Y-64296186D01*
X124262856Y-64251633D01*
X124221132Y-64238976D01*
X124221131Y-64238975D01*
X124221125Y-64238974D01*
X124025003Y-64219659D01*
X124024997Y-64219659D01*
X123828875Y-64238974D01*
X123828873Y-64238974D01*
X123640271Y-64296186D01*
X123466461Y-64389090D01*
X123314117Y-64514117D01*
X123189090Y-64666461D01*
X123096186Y-64840271D01*
X123038974Y-65028873D01*
X123038974Y-65028875D01*
X123019659Y-65224996D01*
X123019659Y-65225003D01*
X123038974Y-65421124D01*
X123038974Y-65421126D01*
X123096186Y-65609728D01*
X123175727Y-65758538D01*
X123189090Y-65783538D01*
X123314117Y-65935883D01*
X123466462Y-66060910D01*
X123622943Y-66144551D01*
X123640273Y-66153814D01*
X123645994Y-66156184D01*
X123644945Y-66158714D01*
X123694433Y-66191125D01*
X123723368Y-66255958D01*
X123724500Y-66272812D01*
X123724500Y-66638339D01*
X123704498Y-66706460D01*
X123687595Y-66727434D01*
X123110489Y-67304540D01*
X121322034Y-69092994D01*
X121259722Y-69127020D01*
X121188906Y-69121955D01*
X121132071Y-69079408D01*
X121107260Y-69012888D01*
X121111750Y-68969415D01*
X121116396Y-68953086D01*
X121116395Y-68953086D01*
X121116397Y-68953083D01*
X121135215Y-68750000D01*
X121116397Y-68546917D01*
X121060582Y-68350750D01*
X120969673Y-68168179D01*
X120948044Y-68139537D01*
X120846765Y-68005421D01*
X120696040Y-67868018D01*
X120696039Y-67868017D01*
X120522648Y-67760658D01*
X120522641Y-67760654D01*
X120522637Y-67760652D01*
X120380138Y-67705448D01*
X120332457Y-67686976D01*
X120224919Y-67666874D01*
X120131976Y-67649500D01*
X119928024Y-67649500D01*
X119835081Y-67666874D01*
X119727542Y-67686976D01*
X119580190Y-67744060D01*
X119537363Y-67760652D01*
X119537362Y-67760652D01*
X119537361Y-67760653D01*
X119537351Y-67760658D01*
X119363960Y-67868017D01*
X119363959Y-67868018D01*
X119213234Y-68005421D01*
X119090329Y-68168175D01*
X118999416Y-68350754D01*
X118943603Y-68546915D01*
X118924785Y-68750000D01*
X118943603Y-68953084D01*
X118999416Y-69149245D01*
X118999417Y-69149247D01*
X118999418Y-69149250D01*
X119090327Y-69331821D01*
X119090328Y-69331822D01*
X119090329Y-69331824D01*
X119213234Y-69494578D01*
X119363957Y-69631980D01*
X119371052Y-69636373D01*
X119418439Y-69689240D01*
X119429722Y-69759334D01*
X119401318Y-69824401D01*
X119342245Y-69863783D01*
X119304721Y-69869500D01*
X119040434Y-69869500D01*
X118964014Y-69889977D01*
X118964011Y-69889979D01*
X118905812Y-69923580D01*
X118900650Y-69926560D01*
X118895490Y-69929539D01*
X118895482Y-69929545D01*
X117112434Y-71712595D01*
X117050122Y-71746620D01*
X117023339Y-71749500D01*
X113803438Y-71749500D01*
X113735317Y-71729498D01*
X113714343Y-71712595D01*
X113703219Y-71701471D01*
X113615179Y-71656613D01*
X113583126Y-71640281D01*
X113450000Y-71619196D01*
X113316874Y-71640281D01*
X113316872Y-71640281D01*
X113316872Y-71640282D01*
X113196780Y-71701471D01*
X113101471Y-71796780D01*
X113054177Y-71889602D01*
X113040281Y-71916874D01*
X113032185Y-71967991D01*
X113026468Y-72004087D01*
X113008982Y-72040969D01*
X113022428Y-72070411D01*
X113040281Y-72183126D01*
X113048645Y-72199541D01*
X113091684Y-72284011D01*
X113101472Y-72303220D01*
X113196780Y-72398528D01*
X113316874Y-72459719D01*
X113450000Y-72480804D01*
X113583126Y-72459719D01*
X113703220Y-72398528D01*
X113714343Y-72387405D01*
X113776655Y-72353379D01*
X113803438Y-72350500D01*
X117239562Y-72350500D01*
X117315989Y-72330021D01*
X117384511Y-72290460D01*
X117440460Y-72234511D01*
X119167566Y-70507405D01*
X119229878Y-70473379D01*
X119256661Y-70470500D01*
X120263500Y-70470500D01*
X120331621Y-70490502D01*
X120378114Y-70544158D01*
X120389500Y-70596500D01*
X120389500Y-72419750D01*
X120397450Y-72459719D01*
X120401133Y-72478231D01*
X120445448Y-72544552D01*
X120511769Y-72588867D01*
X120570252Y-72600500D01*
X120570253Y-72600500D01*
X122409747Y-72600500D01*
X122409748Y-72600500D01*
X122468231Y-72588867D01*
X122534552Y-72544552D01*
X122578867Y-72478231D01*
X122590500Y-72419748D01*
X122590500Y-70580252D01*
X122578867Y-70521769D01*
X122534552Y-70455448D01*
X122468231Y-70411133D01*
X122468228Y-70411132D01*
X122409750Y-70399500D01*
X122409748Y-70399500D01*
X121169661Y-70399500D01*
X121101540Y-70379498D01*
X121055047Y-70325842D01*
X121044943Y-70255568D01*
X121074437Y-70190988D01*
X121080566Y-70184405D01*
X123205905Y-68059066D01*
X123268217Y-68025040D01*
X123339032Y-68030105D01*
X123384095Y-68059066D01*
X123889540Y-68564511D01*
X123945489Y-68620460D01*
X124014011Y-68660021D01*
X124014013Y-68660021D01*
X124014014Y-68660022D01*
X124044441Y-68668175D01*
X124090438Y-68680500D01*
X124169562Y-68680500D01*
X127573339Y-68680500D01*
X127641460Y-68700502D01*
X127662434Y-68717405D01*
X129129434Y-70184405D01*
X129163460Y-70246717D01*
X129158395Y-70317532D01*
X129115848Y-70374368D01*
X129049328Y-70399179D01*
X129040339Y-70399500D01*
X128928024Y-70399500D01*
X128842415Y-70415503D01*
X128727542Y-70436976D01*
X128580190Y-70494060D01*
X128537363Y-70510652D01*
X128537362Y-70510652D01*
X128537361Y-70510653D01*
X128537351Y-70510658D01*
X128363960Y-70618017D01*
X128363959Y-70618018D01*
X128213234Y-70755421D01*
X128090329Y-70918175D01*
X127999416Y-71100754D01*
X127943603Y-71296915D01*
X127924785Y-71500000D01*
X127943603Y-71703084D01*
X127999416Y-71899245D01*
X127999417Y-71899247D01*
X127999418Y-71899250D01*
X128090327Y-72081821D01*
X128090328Y-72081822D01*
X128090329Y-72081824D01*
X128213234Y-72244578D01*
X128363959Y-72381981D01*
X128363960Y-72381982D01*
X128537351Y-72489341D01*
X128537354Y-72489342D01*
X128537363Y-72489348D01*
X128727544Y-72563024D01*
X128928024Y-72600500D01*
X128928026Y-72600500D01*
X129131974Y-72600500D01*
X129131976Y-72600500D01*
X129332456Y-72563024D01*
X129522637Y-72489348D01*
X129696041Y-72381981D01*
X129846764Y-72244579D01*
X129847596Y-72243478D01*
X129893171Y-72183126D01*
X129969673Y-72081821D01*
X130060582Y-71899250D01*
X130116397Y-71703083D01*
X130135215Y-71500000D01*
X130135214Y-71499996D01*
X130135215Y-71499994D01*
X130135215Y-71494376D01*
X130155217Y-71426255D01*
X130208873Y-71379762D01*
X130279147Y-71369658D01*
X130343727Y-71399152D01*
X130350310Y-71405281D01*
X131962595Y-73017566D01*
X131996621Y-73079878D01*
X131999500Y-73106661D01*
X131999500Y-75585106D01*
X131979498Y-75653227D01*
X131925842Y-75699720D01*
X131855568Y-75709824D01*
X131816297Y-75697373D01*
X131816285Y-75697367D01*
X131763126Y-75670281D01*
X131630000Y-75649196D01*
X131496874Y-75670281D01*
X131496872Y-75670281D01*
X131496872Y-75670282D01*
X131376780Y-75731471D01*
X131376778Y-75731473D01*
X131365657Y-75742595D01*
X131303345Y-75776621D01*
X131276562Y-75779500D01*
X130506661Y-75779500D01*
X130438540Y-75759498D01*
X130417566Y-75742595D01*
X129434514Y-74759542D01*
X129434510Y-74759539D01*
X129427376Y-74755420D01*
X129427376Y-74755419D01*
X129365991Y-74719979D01*
X129365988Y-74719978D01*
X129289565Y-74699500D01*
X129289562Y-74699500D01*
X127408830Y-74699500D01*
X127340709Y-74679498D01*
X127294216Y-74625842D01*
X127287640Y-74607983D01*
X127287594Y-74607823D01*
X127285582Y-74600750D01*
X127194673Y-74418179D01*
X127180567Y-74399500D01*
X127071765Y-74255421D01*
X126921040Y-74118018D01*
X126921039Y-74118017D01*
X126747648Y-74010658D01*
X126747641Y-74010654D01*
X126747637Y-74010652D01*
X126605138Y-73955448D01*
X126557457Y-73936976D01*
X126490629Y-73924484D01*
X126356976Y-73899500D01*
X126153024Y-73899500D01*
X126052784Y-73918238D01*
X125952542Y-73936976D01*
X125805190Y-73994060D01*
X125762363Y-74010652D01*
X125762362Y-74010652D01*
X125762361Y-74010653D01*
X125762351Y-74010658D01*
X125588960Y-74118017D01*
X125588953Y-74118022D01*
X125441385Y-74252548D01*
X125377568Y-74283659D01*
X125307062Y-74275329D01*
X125252252Y-74230203D01*
X125230540Y-74162607D01*
X125230500Y-74159433D01*
X125230500Y-72633795D01*
X125250502Y-72565674D01*
X125304158Y-72519181D01*
X125374432Y-72509077D01*
X125439012Y-72538571D01*
X125445405Y-72544523D01*
X125445447Y-72544551D01*
X125445448Y-72544552D01*
X125511769Y-72588867D01*
X125570252Y-72600500D01*
X125570253Y-72600500D01*
X127409747Y-72600500D01*
X127409748Y-72600500D01*
X127468231Y-72588867D01*
X127534552Y-72544552D01*
X127578867Y-72478231D01*
X127590500Y-72419748D01*
X127590500Y-70580252D01*
X127578867Y-70521769D01*
X127534552Y-70455448D01*
X127468231Y-70411133D01*
X127468228Y-70411132D01*
X127409750Y-70399500D01*
X127409748Y-70399500D01*
X125570252Y-70399500D01*
X125570249Y-70399500D01*
X125511771Y-70411132D01*
X125511768Y-70411133D01*
X125445448Y-70455448D01*
X125401133Y-70521768D01*
X125401132Y-70521771D01*
X125389500Y-70580249D01*
X125389500Y-72130338D01*
X125369498Y-72198459D01*
X125315842Y-72244952D01*
X125245568Y-72255056D01*
X125180988Y-72225562D01*
X125174405Y-72219434D01*
X125153430Y-72198459D01*
X125114511Y-72159540D01*
X125056089Y-72101118D01*
X125022063Y-72038806D01*
X125027128Y-71967991D01*
X125032394Y-71955860D01*
X125060578Y-71899258D01*
X125060577Y-71899258D01*
X125060582Y-71899250D01*
X125116397Y-71703083D01*
X125135215Y-71500000D01*
X125116397Y-71296917D01*
X125060582Y-71100750D01*
X124969673Y-70918179D01*
X124969670Y-70918175D01*
X124846765Y-70755421D01*
X124696040Y-70618018D01*
X124696039Y-70618017D01*
X124522648Y-70510658D01*
X124522641Y-70510654D01*
X124522637Y-70510652D01*
X124380138Y-70455448D01*
X124332457Y-70436976D01*
X124244327Y-70420502D01*
X124131976Y-70399500D01*
X123928024Y-70399500D01*
X123842415Y-70415503D01*
X123727542Y-70436976D01*
X123580190Y-70494060D01*
X123537363Y-70510652D01*
X123537362Y-70510652D01*
X123537361Y-70510653D01*
X123537351Y-70510658D01*
X123363960Y-70618017D01*
X123363959Y-70618018D01*
X123213234Y-70755421D01*
X123090329Y-70918175D01*
X122999416Y-71100754D01*
X122943603Y-71296915D01*
X122924785Y-71500000D01*
X122943603Y-71703084D01*
X122999416Y-71899245D01*
X122999417Y-71899247D01*
X122999418Y-71899250D01*
X123090327Y-72081821D01*
X123090328Y-72081822D01*
X123090329Y-72081824D01*
X123213234Y-72244578D01*
X123363959Y-72381981D01*
X123363960Y-72381982D01*
X123537351Y-72489341D01*
X123537354Y-72489342D01*
X123537363Y-72489348D01*
X123727544Y-72563024D01*
X123928024Y-72600500D01*
X123928026Y-72600500D01*
X124131974Y-72600500D01*
X124131976Y-72600500D01*
X124332456Y-72563024D01*
X124457985Y-72514393D01*
X124528730Y-72508438D01*
X124591466Y-72541675D01*
X124626273Y-72603554D01*
X124629500Y-72631886D01*
X124629500Y-73773500D01*
X124609498Y-73841621D01*
X124555842Y-73888114D01*
X124503500Y-73899500D01*
X122795249Y-73899500D01*
X122736771Y-73911132D01*
X122736768Y-73911133D01*
X122670448Y-73955448D01*
X122626133Y-74021768D01*
X122626132Y-74021771D01*
X122614500Y-74080249D01*
X122614500Y-75919750D01*
X122622675Y-75960850D01*
X122626133Y-75978231D01*
X122670448Y-76044552D01*
X122736769Y-76088867D01*
X122795252Y-76100500D01*
X123170338Y-76100500D01*
X123238459Y-76120502D01*
X123284952Y-76174158D01*
X123295056Y-76244432D01*
X123265562Y-76309012D01*
X123259434Y-76315595D01*
X123025489Y-76549540D01*
X123005052Y-76569977D01*
X122969541Y-76605487D01*
X122969539Y-76605490D01*
X122929977Y-76674014D01*
X122909500Y-76750434D01*
X122909500Y-80499565D01*
X122929977Y-80575986D01*
X122955135Y-80619560D01*
X122955135Y-80619563D01*
X122969536Y-80644505D01*
X122969538Y-80644507D01*
X122969540Y-80644511D01*
X122969542Y-80644513D01*
X122969546Y-80644518D01*
X124172595Y-81847566D01*
X124206620Y-81909878D01*
X124209500Y-81936661D01*
X124209500Y-82180339D01*
X124189498Y-82248460D01*
X124135842Y-82294953D01*
X124065568Y-82305057D01*
X124000988Y-82275563D01*
X123994405Y-82269434D01*
X122557054Y-80832083D01*
X122523028Y-80769771D01*
X122522570Y-80718405D01*
X122525686Y-80702741D01*
X122530500Y-80678541D01*
X122530500Y-80481459D01*
X122492051Y-80288165D01*
X122416632Y-80106086D01*
X122307139Y-79942218D01*
X122167782Y-79802861D01*
X122003914Y-79693368D01*
X121966368Y-79677816D01*
X121821838Y-79617950D01*
X121821835Y-79617949D01*
X121628544Y-79579500D01*
X121628541Y-79579500D01*
X120631459Y-79579500D01*
X120631455Y-79579500D01*
X120438164Y-79617949D01*
X120438161Y-79617950D01*
X120256085Y-79693368D01*
X120092222Y-79802858D01*
X120092215Y-79802863D01*
X119952863Y-79942215D01*
X119952858Y-79942222D01*
X119843368Y-80106085D01*
X119792909Y-80227905D01*
X119748361Y-80283186D01*
X119680997Y-80305607D01*
X119612206Y-80288049D01*
X119563828Y-80236087D01*
X119550500Y-80179687D01*
X119550500Y-79103438D01*
X119570502Y-79035317D01*
X119587405Y-79014343D01*
X119598528Y-79003220D01*
X119659719Y-78883126D01*
X119680804Y-78750000D01*
X119659719Y-78616874D01*
X119598528Y-78496780D01*
X119503220Y-78401472D01*
X119503219Y-78401471D01*
X119443173Y-78370876D01*
X119383126Y-78340281D01*
X119250000Y-78319196D01*
X119249999Y-78319196D01*
X119171210Y-78331675D01*
X119100799Y-78322575D01*
X119046485Y-78276853D01*
X119025513Y-78209025D01*
X119025500Y-78207226D01*
X119025500Y-76485438D01*
X119025499Y-76485434D01*
X119005022Y-76409014D01*
X119005021Y-76409013D01*
X119005021Y-76409011D01*
X118965460Y-76340489D01*
X118909511Y-76284540D01*
X118397416Y-75772445D01*
X117884517Y-75259545D01*
X117884513Y-75259542D01*
X117884511Y-75259540D01*
X117862410Y-75246780D01*
X117815989Y-75219979D01*
X117815987Y-75219978D01*
X117815985Y-75219977D01*
X117739565Y-75199500D01*
X117739562Y-75199500D01*
X114853438Y-75199500D01*
X114785317Y-75179498D01*
X114764343Y-75162595D01*
X114753219Y-75151471D01*
X114653680Y-75100754D01*
X114633126Y-75090281D01*
X114500000Y-75069196D01*
X114366874Y-75090281D01*
X114366872Y-75090281D01*
X114366872Y-75090282D01*
X114246780Y-75151471D01*
X114151471Y-75246780D01*
X114108065Y-75331971D01*
X114090281Y-75366874D01*
X114069196Y-75500000D01*
X114090281Y-75633126D01*
X114109213Y-75670282D01*
X114148532Y-75747451D01*
X114151472Y-75753220D01*
X114246780Y-75848528D01*
X114366874Y-75909719D01*
X114500000Y-75930804D01*
X114633126Y-75909719D01*
X114753220Y-75848528D01*
X114764343Y-75837405D01*
X114826655Y-75803379D01*
X114853438Y-75800500D01*
X117523339Y-75800500D01*
X117591460Y-75820502D01*
X117612434Y-75837405D01*
X118387595Y-76612566D01*
X118421621Y-76674878D01*
X118424500Y-76701661D01*
X118424500Y-80757226D01*
X118404498Y-80825347D01*
X118350842Y-80871840D01*
X118280568Y-80881944D01*
X118278790Y-80881675D01*
X118200000Y-80869196D01*
X118066874Y-80890281D01*
X118066872Y-80890281D01*
X118066872Y-80890282D01*
X117946780Y-80951471D01*
X117851471Y-81046780D01*
X117790280Y-81166875D01*
X117774501Y-81266495D01*
X117744088Y-81330648D01*
X117739149Y-81335878D01*
X117215489Y-81859540D01*
X117215488Y-81859540D01*
X117159545Y-81915482D01*
X117159539Y-81915490D01*
X117119977Y-81984014D01*
X117099499Y-82060437D01*
X117099272Y-82062165D01*
X117098675Y-82063513D01*
X117097362Y-82068415D01*
X117096597Y-82068210D01*
X117070545Y-82127090D01*
X117063449Y-82134803D01*
X117051472Y-82146780D01*
X117045641Y-82154806D01*
X117044001Y-82153614D01*
X117003901Y-82196063D01*
X116934983Y-82213120D01*
X116867785Y-82190209D01*
X116851307Y-82176336D01*
X116184511Y-81509540D01*
X116184508Y-81509538D01*
X116184505Y-81509536D01*
X116182861Y-81508587D01*
X116182850Y-81508581D01*
X116115986Y-81469977D01*
X116039565Y-81449500D01*
X116039562Y-81449500D01*
X113926661Y-81449500D01*
X113858540Y-81429498D01*
X113837566Y-81412595D01*
X112531086Y-80106115D01*
X112497060Y-80043803D01*
X112502125Y-79972988D01*
X112544672Y-79916152D01*
X112611192Y-79891341D01*
X112644762Y-79893441D01*
X112680246Y-79900499D01*
X112680249Y-79900499D01*
X112680252Y-79900500D01*
X112680253Y-79900500D01*
X115719747Y-79900500D01*
X115719748Y-79900500D01*
X115778231Y-79888867D01*
X115844552Y-79844552D01*
X115888867Y-79778231D01*
X115900500Y-79719748D01*
X115900500Y-76680252D01*
X115888867Y-76621769D01*
X115844552Y-76555448D01*
X115778231Y-76511133D01*
X115778228Y-76511132D01*
X115719750Y-76499500D01*
X115719748Y-76499500D01*
X112680252Y-76499500D01*
X112680249Y-76499500D01*
X112621771Y-76511132D01*
X112621768Y-76511133D01*
X112555448Y-76555448D01*
X112511133Y-76621768D01*
X112511132Y-76621771D01*
X112499500Y-76680249D01*
X112499500Y-77848502D01*
X112479498Y-77916623D01*
X112425842Y-77963116D01*
X112373500Y-77974502D01*
X103764560Y-77974502D01*
X103685436Y-77974502D01*
X103644482Y-77985475D01*
X103609012Y-77994979D01*
X103609005Y-77994982D01*
X103540490Y-78034539D01*
X103540485Y-78034543D01*
X103524529Y-78050500D01*
X103477989Y-78097040D01*
X101915489Y-79659540D01*
X101715489Y-79859540D01*
X101693010Y-79882019D01*
X101659541Y-79915487D01*
X101659539Y-79915490D01*
X101619977Y-79984014D01*
X101599500Y-80060434D01*
X101599500Y-89773500D01*
X101579498Y-89841621D01*
X101525842Y-89888114D01*
X101473500Y-89899500D01*
X101343384Y-89899500D01*
X101325747Y-89901102D01*
X101272806Y-89905913D01*
X101110397Y-89956520D01*
X101110396Y-89956521D01*
X100964814Y-90044528D01*
X100964809Y-90044532D01*
X100844532Y-90164809D01*
X100844528Y-90164814D01*
X100756521Y-90310396D01*
X100756520Y-90310397D01*
X100705913Y-90472806D01*
X100700761Y-90529505D01*
X100699500Y-90543384D01*
X100699500Y-93656616D01*
X100700551Y-93668179D01*
X100705913Y-93727193D01*
X100756520Y-93889602D01*
X100756521Y-93889603D01*
X100756522Y-93889606D01*
X100834020Y-94017802D01*
X100844528Y-94035185D01*
X100844532Y-94035190D01*
X100964809Y-94155467D01*
X100964814Y-94155471D01*
X100964815Y-94155472D01*
X101110394Y-94243478D01*
X101272804Y-94294086D01*
X101343384Y-94300500D01*
X101343387Y-94300500D01*
X102456608Y-94300500D01*
X102456616Y-94300500D01*
X102459735Y-94300216D01*
X102529385Y-94313970D01*
X102580544Y-94363197D01*
X102596968Y-94432268D01*
X102573442Y-94499253D01*
X102560234Y-94514794D01*
X102509545Y-94565482D01*
X102509539Y-94565490D01*
X102469977Y-94634014D01*
X102449500Y-94710434D01*
X102449500Y-101846562D01*
X102429498Y-101914683D01*
X102412595Y-101935657D01*
X102401473Y-101946778D01*
X102401471Y-101946780D01*
X102340282Y-102066872D01*
X102340281Y-102066874D01*
X102319196Y-102200000D01*
X102340281Y-102333126D01*
X102353653Y-102359370D01*
X102399576Y-102449500D01*
X102401472Y-102453220D01*
X102496780Y-102548528D01*
X102616874Y-102609719D01*
X102750000Y-102630804D01*
X102883126Y-102609719D01*
X103003220Y-102548528D01*
X103098528Y-102453220D01*
X103159719Y-102333126D01*
X103180804Y-102200000D01*
X103159719Y-102066874D01*
X103098528Y-101946780D01*
X103087405Y-101935657D01*
X103053379Y-101873345D01*
X103050500Y-101846562D01*
X103050500Y-94926661D01*
X103070502Y-94858540D01*
X103087400Y-94837570D01*
X103540460Y-94384511D01*
X103551731Y-94364989D01*
X103580021Y-94315989D01*
X103600500Y-94239562D01*
X103600500Y-89560438D01*
X103594207Y-89536952D01*
X103580022Y-89484014D01*
X103580021Y-89484013D01*
X103580021Y-89484011D01*
X103540460Y-89415489D01*
X103484511Y-89359540D01*
X102837405Y-88712434D01*
X102803379Y-88650122D01*
X102800500Y-88623339D01*
X102800500Y-86276661D01*
X102820502Y-86208540D01*
X102837405Y-86187566D01*
X105424405Y-83600566D01*
X105486717Y-83566540D01*
X105557532Y-83571605D01*
X105614368Y-83614152D01*
X105639179Y-83680672D01*
X105639500Y-83689661D01*
X105639500Y-85169750D01*
X105649551Y-85220282D01*
X105651133Y-85228231D01*
X105695448Y-85294552D01*
X105761769Y-85338867D01*
X105820252Y-85350500D01*
X105820253Y-85350500D01*
X107659747Y-85350500D01*
X107659748Y-85350500D01*
X107718231Y-85338867D01*
X107784552Y-85294552D01*
X107828867Y-85228231D01*
X107833869Y-85203085D01*
X107866776Y-85140175D01*
X107928471Y-85105043D01*
X107999366Y-85108843D01*
X108046543Y-85138571D01*
X108709640Y-85801668D01*
X108765589Y-85857617D01*
X108834111Y-85897178D01*
X108834113Y-85897178D01*
X108834114Y-85897179D01*
X108902447Y-85915489D01*
X108910538Y-85917657D01*
X109470496Y-85917657D01*
X109538617Y-85937659D01*
X109559591Y-85954562D01*
X110039434Y-86434405D01*
X110073460Y-86496717D01*
X110068395Y-86567532D01*
X110025848Y-86624368D01*
X109959328Y-86649179D01*
X109950339Y-86649500D01*
X108320249Y-86649500D01*
X108261771Y-86661132D01*
X108261768Y-86661133D01*
X108195448Y-86705448D01*
X108151133Y-86771768D01*
X108151132Y-86771771D01*
X108139500Y-86830249D01*
X108139500Y-88669750D01*
X108147990Y-88712434D01*
X108151133Y-88728231D01*
X108195448Y-88794552D01*
X108261769Y-88838867D01*
X108320252Y-88850500D01*
X108320253Y-88850500D01*
X110159747Y-88850500D01*
X110159748Y-88850500D01*
X110218231Y-88838867D01*
X110284552Y-88794552D01*
X110328867Y-88728231D01*
X110340500Y-88669748D01*
X110340500Y-87039661D01*
X110360502Y-86971540D01*
X110414158Y-86925047D01*
X110484432Y-86914943D01*
X110549012Y-86944437D01*
X110555595Y-86950566D01*
X110753910Y-87148881D01*
X110787936Y-87211193D01*
X110782871Y-87282008D01*
X110777607Y-87294137D01*
X110749416Y-87350753D01*
X110693603Y-87546915D01*
X110674785Y-87750000D01*
X110693603Y-87953084D01*
X110749416Y-88149245D01*
X110749417Y-88149247D01*
X110749418Y-88149250D01*
X110840327Y-88331821D01*
X110840328Y-88331822D01*
X110840329Y-88331824D01*
X110963234Y-88494578D01*
X111113959Y-88631981D01*
X111113960Y-88631982D01*
X111287351Y-88739341D01*
X111287354Y-88739342D01*
X111287363Y-88739348D01*
X111477544Y-88813024D01*
X111678024Y-88850500D01*
X111678026Y-88850500D01*
X111881974Y-88850500D01*
X111881976Y-88850500D01*
X112082456Y-88813024D01*
X112272637Y-88739348D01*
X112446041Y-88631981D01*
X112596764Y-88494579D01*
X112719673Y-88331821D01*
X112810582Y-88149250D01*
X112866397Y-87953083D01*
X112885215Y-87750000D01*
X112866397Y-87546917D01*
X112810582Y-87350750D01*
X112727700Y-87184300D01*
X114216657Y-87184300D01*
X114216657Y-87381385D01*
X114254941Y-87573850D01*
X114255106Y-87574679D01*
X114330526Y-87756757D01*
X114440018Y-87920624D01*
X114579376Y-88059982D01*
X114743243Y-88169474D01*
X114925321Y-88244894D01*
X115118617Y-88283343D01*
X115118618Y-88283343D01*
X115315696Y-88283343D01*
X115315697Y-88283343D01*
X115508993Y-88244894D01*
X115691071Y-88169474D01*
X115854938Y-88059982D01*
X116559982Y-87354938D01*
X116669474Y-87191071D01*
X116744894Y-87008993D01*
X116783343Y-86815697D01*
X116783343Y-86618617D01*
X116744894Y-86425321D01*
X116669474Y-86243243D01*
X116559982Y-86079376D01*
X116420624Y-85940018D01*
X116256757Y-85830526D01*
X116074680Y-85755106D01*
X115881385Y-85716657D01*
X115881383Y-85716657D01*
X115684303Y-85716657D01*
X115684300Y-85716657D01*
X115491005Y-85755106D01*
X115491004Y-85755107D01*
X115308927Y-85830527D01*
X115145063Y-85940017D01*
X115145057Y-85940022D01*
X114440022Y-86645057D01*
X114440017Y-86645063D01*
X114336161Y-86800496D01*
X114330526Y-86808929D01*
X114327723Y-86815697D01*
X114255107Y-86991004D01*
X114255106Y-86991005D01*
X114216657Y-87184300D01*
X112727700Y-87184300D01*
X112719673Y-87168179D01*
X112709785Y-87155085D01*
X112596765Y-87005421D01*
X112446040Y-86868018D01*
X112446039Y-86868017D01*
X112272648Y-86760658D01*
X112272641Y-86760654D01*
X112272637Y-86760652D01*
X112130138Y-86705448D01*
X112082457Y-86686976D01*
X111966579Y-86665315D01*
X111881976Y-86649500D01*
X111678024Y-86649500D01*
X111593426Y-86665314D01*
X111477542Y-86686976D01*
X111331043Y-86743730D01*
X111323169Y-86746781D01*
X111312211Y-86751026D01*
X111241465Y-86756982D01*
X111178729Y-86723745D01*
X111177600Y-86722629D01*
X109843221Y-85388249D01*
X112420606Y-85388249D01*
X112420606Y-85585334D01*
X112449724Y-85731720D01*
X112459055Y-85778628D01*
X112534475Y-85960706D01*
X112643967Y-86124573D01*
X112783325Y-86263931D01*
X112947192Y-86373423D01*
X113129270Y-86448843D01*
X113322566Y-86487292D01*
X113322567Y-86487292D01*
X113519645Y-86487292D01*
X113519646Y-86487292D01*
X113712942Y-86448843D01*
X113895020Y-86373423D01*
X114058887Y-86263931D01*
X114763931Y-85558887D01*
X114873423Y-85395020D01*
X114948843Y-85212942D01*
X114987292Y-85019646D01*
X114987292Y-84822566D01*
X114948843Y-84629270D01*
X114873423Y-84447192D01*
X114763931Y-84283325D01*
X114624573Y-84143967D01*
X114460706Y-84034475D01*
X114278629Y-83959055D01*
X114085334Y-83920606D01*
X114085332Y-83920606D01*
X113888252Y-83920606D01*
X113888249Y-83920606D01*
X113694954Y-83959055D01*
X113694953Y-83959056D01*
X113622352Y-83989129D01*
X113531229Y-84026874D01*
X113512876Y-84034476D01*
X113349012Y-84143966D01*
X113349006Y-84143971D01*
X112643971Y-84849006D01*
X112643966Y-84849012D01*
X112535414Y-85011473D01*
X112534475Y-85012878D01*
X112515163Y-85059500D01*
X112459056Y-85194953D01*
X112459055Y-85194954D01*
X112420606Y-85388249D01*
X109843221Y-85388249D01*
X109836750Y-85381778D01*
X109802724Y-85319466D01*
X109807789Y-85248650D01*
X109850336Y-85191815D01*
X109859506Y-85185560D01*
X109946041Y-85131981D01*
X110096764Y-84994579D01*
X110219673Y-84831821D01*
X110310582Y-84649250D01*
X110366397Y-84453083D01*
X110385215Y-84250000D01*
X110366397Y-84046917D01*
X110310582Y-83850750D01*
X110219673Y-83668179D01*
X110218229Y-83666267D01*
X110162295Y-83592198D01*
X110624554Y-83592198D01*
X110624554Y-83789283D01*
X110660950Y-83972257D01*
X110663003Y-83982577D01*
X110738423Y-84164655D01*
X110847915Y-84328522D01*
X110987273Y-84467880D01*
X111151140Y-84577372D01*
X111333218Y-84652792D01*
X111526514Y-84691241D01*
X111526515Y-84691241D01*
X111723593Y-84691241D01*
X111723594Y-84691241D01*
X111916890Y-84652792D01*
X112098968Y-84577372D01*
X112262835Y-84467880D01*
X112967879Y-83762836D01*
X113077371Y-83598969D01*
X113152791Y-83416891D01*
X113191240Y-83223595D01*
X113191240Y-83026515D01*
X113152791Y-82833219D01*
X113077371Y-82651141D01*
X112967879Y-82487274D01*
X112828521Y-82347916D01*
X112664654Y-82238424D01*
X112482577Y-82163004D01*
X112289282Y-82124555D01*
X112289280Y-82124555D01*
X112092200Y-82124555D01*
X112092197Y-82124555D01*
X111898902Y-82163004D01*
X111898901Y-82163005D01*
X111823031Y-82194432D01*
X111728224Y-82233703D01*
X111716824Y-82238425D01*
X111552960Y-82347915D01*
X111552954Y-82347920D01*
X110847919Y-83052955D01*
X110847914Y-83052961D01*
X110745027Y-83206944D01*
X110738423Y-83216827D01*
X110720267Y-83260658D01*
X110663004Y-83398902D01*
X110663003Y-83398903D01*
X110624554Y-83592198D01*
X110162295Y-83592198D01*
X110096765Y-83505421D01*
X109946040Y-83368018D01*
X109946039Y-83368017D01*
X109772648Y-83260658D01*
X109772641Y-83260654D01*
X109772637Y-83260652D01*
X109601473Y-83194343D01*
X109582457Y-83186976D01*
X109491642Y-83170000D01*
X109381976Y-83149500D01*
X109178024Y-83149500D01*
X109098230Y-83164416D01*
X108977542Y-83186976D01*
X108830190Y-83244060D01*
X108787363Y-83260652D01*
X108787362Y-83260652D01*
X108787361Y-83260653D01*
X108787351Y-83260658D01*
X108613960Y-83368017D01*
X108613959Y-83368018D01*
X108511386Y-83461526D01*
X108447568Y-83492637D01*
X108377062Y-83484307D01*
X108322252Y-83439181D01*
X108300540Y-83371586D01*
X108300500Y-83368411D01*
X108300500Y-83070438D01*
X108300499Y-83070434D01*
X108280022Y-82994014D01*
X108280021Y-82994013D01*
X108280021Y-82994011D01*
X108240460Y-82925489D01*
X108184511Y-82869540D01*
X108124511Y-82809540D01*
X108124510Y-82809539D01*
X108124507Y-82809537D01*
X108107120Y-82799499D01*
X108107119Y-82799499D01*
X108102572Y-82796874D01*
X108055989Y-82769979D01*
X108055986Y-82769977D01*
X107979565Y-82749500D01*
X107979562Y-82749500D01*
X105510438Y-82749500D01*
X105510434Y-82749500D01*
X105434014Y-82769977D01*
X105382879Y-82799500D01*
X105382878Y-82799499D01*
X105365492Y-82809537D01*
X105365482Y-82809545D01*
X102415595Y-85759433D01*
X102353283Y-85793459D01*
X102282468Y-85788394D01*
X102225632Y-85745847D01*
X102200821Y-85679327D01*
X102200500Y-85670338D01*
X102200500Y-81796147D01*
X108828503Y-81796147D01*
X108828503Y-81993232D01*
X108863608Y-82169717D01*
X108866952Y-82186526D01*
X108942372Y-82368604D01*
X109051864Y-82532471D01*
X109191222Y-82671829D01*
X109355089Y-82781321D01*
X109537167Y-82856741D01*
X109730463Y-82895190D01*
X109730464Y-82895190D01*
X109927542Y-82895190D01*
X109927543Y-82895190D01*
X110120839Y-82856741D01*
X110302917Y-82781321D01*
X110466784Y-82671829D01*
X111171828Y-81966785D01*
X111281320Y-81802918D01*
X111356740Y-81620840D01*
X111395189Y-81427544D01*
X111395189Y-81230464D01*
X111356740Y-81037168D01*
X111281320Y-80855090D01*
X111171828Y-80691223D01*
X111032470Y-80551865D01*
X110868603Y-80442373D01*
X110686526Y-80366953D01*
X110493231Y-80328504D01*
X110493229Y-80328504D01*
X110296149Y-80328504D01*
X110296146Y-80328504D01*
X110102851Y-80366953D01*
X110102850Y-80366954D01*
X109920773Y-80442374D01*
X109756909Y-80551864D01*
X109756903Y-80551869D01*
X109051868Y-81256904D01*
X109051863Y-81256910D01*
X108948589Y-81411472D01*
X108942372Y-81420776D01*
X108939569Y-81427544D01*
X108866953Y-81602851D01*
X108866952Y-81602852D01*
X108828503Y-81796147D01*
X102200500Y-81796147D01*
X102200500Y-80276661D01*
X102220502Y-80208540D01*
X102237405Y-80187566D01*
X103812564Y-78612407D01*
X103874876Y-78578381D01*
X103901659Y-78575502D01*
X104046545Y-78575502D01*
X104114666Y-78595504D01*
X104161159Y-78649160D01*
X104171263Y-78719434D01*
X104155640Y-78760205D01*
X104155882Y-78760306D01*
X104152148Y-78769317D01*
X104151312Y-78771499D01*
X104151134Y-78771768D01*
X104151133Y-78771769D01*
X104151132Y-78771771D01*
X104139500Y-78830249D01*
X104139500Y-80669750D01*
X104146062Y-80702741D01*
X104151133Y-80728231D01*
X104195448Y-80794552D01*
X104261769Y-80838867D01*
X104320252Y-80850500D01*
X104320253Y-80850500D01*
X106159747Y-80850500D01*
X106159748Y-80850500D01*
X106218231Y-80838867D01*
X106284552Y-80794552D01*
X106328867Y-80728231D01*
X106340500Y-80669748D01*
X106340500Y-78830252D01*
X106328867Y-78771769D01*
X106328687Y-78771500D01*
X106328477Y-78770831D01*
X106324118Y-78760306D01*
X106325060Y-78759915D01*
X106307475Y-78703748D01*
X106326260Y-78635282D01*
X106379078Y-78587840D01*
X106433455Y-78575502D01*
X107143546Y-78575502D01*
X107211667Y-78595504D01*
X107258160Y-78649160D01*
X107268264Y-78719434D01*
X107238770Y-78784014D01*
X107209876Y-78808629D01*
X107113960Y-78868017D01*
X107113959Y-78868018D01*
X106963234Y-79005421D01*
X106840329Y-79168175D01*
X106749416Y-79350754D01*
X106693603Y-79546915D01*
X106674785Y-79750000D01*
X106693603Y-79953084D01*
X106749416Y-80149245D01*
X106749417Y-80149247D01*
X106749418Y-80149250D01*
X106840327Y-80331821D01*
X106840328Y-80331822D01*
X106840329Y-80331824D01*
X106963234Y-80494578D01*
X107113959Y-80631981D01*
X107113960Y-80631982D01*
X107287351Y-80739341D01*
X107287354Y-80739342D01*
X107287363Y-80739348D01*
X107477544Y-80813024D01*
X107678024Y-80850500D01*
X107678026Y-80850500D01*
X107881974Y-80850500D01*
X107881976Y-80850500D01*
X108082456Y-80813024D01*
X108272637Y-80739348D01*
X108446041Y-80631981D01*
X108596764Y-80494579D01*
X108604456Y-80484394D01*
X108681280Y-80382661D01*
X108719673Y-80331821D01*
X108810582Y-80149250D01*
X108812640Y-80142017D01*
X108850521Y-80081971D01*
X108914852Y-80051937D01*
X108933830Y-80050500D01*
X111573339Y-80050500D01*
X111641460Y-80070502D01*
X111662434Y-80087405D01*
X113509540Y-81934511D01*
X113565489Y-81990460D01*
X113634011Y-82030021D01*
X113634013Y-82030021D01*
X113634014Y-82030022D01*
X113710434Y-82050499D01*
X113710438Y-82050500D01*
X113789562Y-82050500D01*
X114303226Y-82050500D01*
X114371347Y-82070502D01*
X114417840Y-82124158D01*
X114427944Y-82194432D01*
X114415494Y-82233698D01*
X114355281Y-82351874D01*
X114334196Y-82485000D01*
X114355281Y-82618126D01*
X114416472Y-82738220D01*
X114511780Y-82833528D01*
X114631874Y-82894719D01*
X114633329Y-82894949D01*
X114636437Y-82895442D01*
X114700591Y-82925852D01*
X114705825Y-82930796D01*
X119292595Y-87517566D01*
X119326621Y-87579878D01*
X119329500Y-87606661D01*
X119329500Y-88695200D01*
X119349976Y-88771617D01*
X119349981Y-88771629D01*
X119369275Y-88805046D01*
X119369276Y-88805047D01*
X119389539Y-88840144D01*
X119389543Y-88840150D01*
X119659959Y-89110566D01*
X119693985Y-89172878D01*
X119688920Y-89243693D01*
X119646373Y-89300529D01*
X119579853Y-89325340D01*
X119546283Y-89323240D01*
X119473490Y-89308760D01*
X119473485Y-89308760D01*
X119276405Y-89308760D01*
X119276402Y-89308760D01*
X119083107Y-89347209D01*
X119083106Y-89347210D01*
X119026322Y-89370731D01*
X118918013Y-89415595D01*
X118901029Y-89422630D01*
X118737165Y-89532120D01*
X118737164Y-89532121D01*
X118032122Y-90237162D01*
X118028198Y-90241945D01*
X118026874Y-90240859D01*
X117978688Y-90281132D01*
X117928398Y-90291603D01*
X117488831Y-90291603D01*
X117420710Y-90271601D01*
X117374217Y-90217945D01*
X117364113Y-90147671D01*
X117393607Y-90083091D01*
X117440613Y-90049194D01*
X117515305Y-90018254D01*
X117688915Y-89902253D01*
X117688916Y-89902252D01*
X118402251Y-89188916D01*
X118402252Y-89188914D01*
X118518252Y-89015308D01*
X118598157Y-88822402D01*
X118598158Y-88822401D01*
X118638894Y-88617613D01*
X118638895Y-88617610D01*
X118638895Y-88408807D01*
X118638894Y-88408804D01*
X118598158Y-88204016D01*
X118598157Y-88204015D01*
X118518252Y-88011109D01*
X118416750Y-87859200D01*
X118416749Y-87859199D01*
X117656163Y-88619785D01*
X117616131Y-88550446D01*
X117541657Y-88475972D01*
X117472315Y-88435937D01*
X118232902Y-87675351D01*
X118080993Y-87573850D01*
X117888087Y-87493945D01*
X117888086Y-87493944D01*
X117683298Y-87453208D01*
X117474489Y-87453208D01*
X117269701Y-87493944D01*
X117269700Y-87493945D01*
X117076794Y-87573850D01*
X116903188Y-87689850D01*
X116903186Y-87689851D01*
X116189850Y-88403186D01*
X116189849Y-88403187D01*
X116073848Y-88576796D01*
X115993945Y-88769698D01*
X115993943Y-88769703D01*
X115953208Y-88974491D01*
X115953208Y-89183298D01*
X115963409Y-89234579D01*
X115957081Y-89305293D01*
X115913527Y-89361360D01*
X115846575Y-89384980D01*
X115839830Y-89385161D01*
X110817433Y-89385161D01*
X110738309Y-89385161D01*
X110697355Y-89396134D01*
X110661885Y-89405638D01*
X110661878Y-89405641D01*
X110593363Y-89445198D01*
X110593357Y-89445203D01*
X109803767Y-90234793D01*
X109741455Y-90268818D01*
X109670639Y-90263753D01*
X109613804Y-90221206D01*
X109591094Y-90170280D01*
X109560689Y-90017424D01*
X109485269Y-89835346D01*
X109375777Y-89671479D01*
X109236419Y-89532121D01*
X109072552Y-89422629D01*
X108890475Y-89347209D01*
X108697180Y-89308760D01*
X108697178Y-89308760D01*
X108500098Y-89308760D01*
X108500095Y-89308760D01*
X108306800Y-89347209D01*
X108306799Y-89347210D01*
X108250015Y-89370731D01*
X108141706Y-89415595D01*
X108124722Y-89422630D01*
X107960858Y-89532120D01*
X107960852Y-89532125D01*
X107255817Y-90237160D01*
X107255812Y-90237166D01*
X107169145Y-90366874D01*
X107146321Y-90401032D01*
X107130390Y-90439493D01*
X107070902Y-90583107D01*
X107070901Y-90583108D01*
X107032452Y-90776403D01*
X107032452Y-90973488D01*
X107067919Y-91151793D01*
X107070901Y-91166782D01*
X107146321Y-91348860D01*
X107255813Y-91512727D01*
X107395171Y-91652085D01*
X107559038Y-91761577D01*
X107741116Y-91836997D01*
X107893971Y-91867401D01*
X107956880Y-91900308D01*
X107992012Y-91962003D01*
X107988212Y-92032898D01*
X107958484Y-92080075D01*
X107234767Y-92803792D01*
X107172455Y-92837818D01*
X107125962Y-92839146D01*
X107000000Y-92819196D01*
X106866874Y-92840281D01*
X106866872Y-92840281D01*
X106866872Y-92840282D01*
X106746780Y-92901471D01*
X106651471Y-92996780D01*
X106611188Y-93075842D01*
X106590281Y-93116874D01*
X106569196Y-93250000D01*
X106590281Y-93383126D01*
X106616463Y-93434511D01*
X106650307Y-93500935D01*
X106651472Y-93503220D01*
X106746780Y-93598528D01*
X106866874Y-93659719D01*
X107000000Y-93680804D01*
X107133126Y-93659719D01*
X107253220Y-93598528D01*
X107299351Y-93552395D01*
X107325444Y-93532374D01*
X107329518Y-93530021D01*
X107329521Y-93530021D01*
X107398043Y-93490460D01*
X107453992Y-93434511D01*
X108671909Y-92216593D01*
X108734219Y-92182570D01*
X108805034Y-92187634D01*
X108861870Y-92230181D01*
X108886681Y-92296701D01*
X108877412Y-92353906D01*
X108866954Y-92379154D01*
X108866952Y-92379159D01*
X108828503Y-92572454D01*
X108828503Y-92769539D01*
X108863459Y-92945273D01*
X108866952Y-92962833D01*
X108942372Y-93144911D01*
X109051864Y-93308778D01*
X109191222Y-93448136D01*
X109355089Y-93557628D01*
X109537167Y-93633048D01*
X109730463Y-93671497D01*
X109730464Y-93671497D01*
X109927542Y-93671497D01*
X109927543Y-93671497D01*
X110120839Y-93633048D01*
X110302917Y-93557628D01*
X110466784Y-93448136D01*
X111171828Y-92743092D01*
X111281320Y-92579225D01*
X111356740Y-92397147D01*
X111395189Y-92203851D01*
X111396397Y-92197779D01*
X111398354Y-92198168D01*
X111421474Y-92140874D01*
X111479419Y-92099850D01*
X111544884Y-92095454D01*
X111570252Y-92100500D01*
X111570253Y-92100500D01*
X113409747Y-92100500D01*
X113409748Y-92100500D01*
X113468231Y-92088867D01*
X113534552Y-92044552D01*
X113578867Y-91978231D01*
X113590500Y-91919748D01*
X113590500Y-90112161D01*
X113610502Y-90044040D01*
X113664158Y-89997547D01*
X113716500Y-89986161D01*
X114183356Y-89986161D01*
X114251477Y-90006163D01*
X114297970Y-90059819D01*
X114308074Y-90130093D01*
X114278580Y-90194673D01*
X114268242Y-90205276D01*
X114213234Y-90255421D01*
X114090329Y-90418175D01*
X113999416Y-90600754D01*
X113943603Y-90796915D01*
X113924785Y-91000000D01*
X113943603Y-91203084D01*
X113999416Y-91399245D01*
X113999417Y-91399247D01*
X113999418Y-91399250D01*
X114090327Y-91581821D01*
X114090328Y-91581822D01*
X114090329Y-91581824D01*
X114213234Y-91744578D01*
X114363959Y-91881981D01*
X114363960Y-91881982D01*
X114537351Y-91989341D01*
X114537354Y-91989342D01*
X114537363Y-91989348D01*
X114727544Y-92063024D01*
X114928024Y-92100500D01*
X114928026Y-92100500D01*
X115131974Y-92100500D01*
X115131976Y-92100500D01*
X115332456Y-92063024D01*
X115522637Y-91989348D01*
X115696041Y-91881981D01*
X115846764Y-91744579D01*
X115969673Y-91581821D01*
X116054490Y-91411483D01*
X116102757Y-91359422D01*
X116171511Y-91341719D01*
X116238921Y-91363998D01*
X116256374Y-91378553D01*
X117102595Y-92224774D01*
X117136621Y-92287086D01*
X117139500Y-92313869D01*
X117139500Y-93023500D01*
X117119498Y-93091621D01*
X117065842Y-93138114D01*
X117013500Y-93149500D01*
X115320249Y-93149500D01*
X115261771Y-93161132D01*
X115261768Y-93161133D01*
X115195448Y-93205448D01*
X115151133Y-93271768D01*
X115151132Y-93271771D01*
X115139500Y-93330249D01*
X115139500Y-95169750D01*
X115150673Y-95225922D01*
X115151133Y-95228231D01*
X115195448Y-95294552D01*
X115261769Y-95338867D01*
X115320252Y-95350500D01*
X117013500Y-95350500D01*
X117081621Y-95370502D01*
X117128114Y-95424158D01*
X117139500Y-95476500D01*
X117139500Y-95659645D01*
X117119498Y-95727766D01*
X117102595Y-95748741D01*
X116307623Y-96543712D01*
X116245311Y-96577737D01*
X116174495Y-96572672D01*
X116170310Y-96571025D01*
X116074685Y-96531416D01*
X116074679Y-96531414D01*
X115881385Y-96492965D01*
X115881383Y-96492965D01*
X115684303Y-96492965D01*
X115684300Y-96492965D01*
X115491005Y-96531414D01*
X115491004Y-96531415D01*
X115413396Y-96563562D01*
X115316078Y-96603873D01*
X115308927Y-96606835D01*
X115145063Y-96716325D01*
X115145057Y-96716330D01*
X114440022Y-97421365D01*
X114440017Y-97421371D01*
X114339915Y-97571186D01*
X114330526Y-97585237D01*
X114318457Y-97614375D01*
X114255107Y-97767312D01*
X114255106Y-97767313D01*
X114216657Y-97960608D01*
X114216657Y-98157693D01*
X114255106Y-98350987D01*
X114330526Y-98533065D01*
X114440018Y-98696932D01*
X114579376Y-98836290D01*
X114743243Y-98945782D01*
X114925321Y-99021202D01*
X115118617Y-99059651D01*
X115118618Y-99059651D01*
X115315696Y-99059651D01*
X115315697Y-99059651D01*
X115508993Y-99021202D01*
X115691071Y-98945782D01*
X115854938Y-98836290D01*
X116559982Y-98131246D01*
X116669474Y-97967379D01*
X116744894Y-97785301D01*
X116783343Y-97592005D01*
X116783343Y-97394925D01*
X116744894Y-97201629D01*
X116705280Y-97105995D01*
X116697692Y-97035406D01*
X116729471Y-96971919D01*
X116732538Y-96968739D01*
X117680460Y-96020819D01*
X117709070Y-95971264D01*
X117713213Y-95964089D01*
X117713214Y-95964085D01*
X117720021Y-95952297D01*
X117740500Y-95875870D01*
X117740500Y-95075493D01*
X117760502Y-95007372D01*
X117814158Y-94960879D01*
X117884432Y-94950775D01*
X117949012Y-94980269D01*
X117959618Y-94990610D01*
X117963238Y-94994582D01*
X118113959Y-95131981D01*
X118113960Y-95131982D01*
X118287351Y-95239341D01*
X118287354Y-95239342D01*
X118287363Y-95239348D01*
X118477544Y-95313024D01*
X118678024Y-95350500D01*
X118678026Y-95350500D01*
X118881974Y-95350500D01*
X118881976Y-95350500D01*
X119082456Y-95313024D01*
X119272637Y-95239348D01*
X119446041Y-95131981D01*
X119596764Y-94994579D01*
X119607571Y-94980269D01*
X119648053Y-94926661D01*
X119719673Y-94831821D01*
X119810582Y-94649250D01*
X119866397Y-94453083D01*
X119885215Y-94250000D01*
X119866397Y-94046917D01*
X119810582Y-93850750D01*
X119719673Y-93668179D01*
X119710642Y-93656220D01*
X119596765Y-93505421D01*
X119446040Y-93368018D01*
X119446039Y-93368017D01*
X119272648Y-93260658D01*
X119272641Y-93260654D01*
X119272637Y-93260652D01*
X119136127Y-93207768D01*
X119082457Y-93186976D01*
X119015629Y-93174484D01*
X118881976Y-93149500D01*
X118678024Y-93149500D01*
X118577784Y-93168238D01*
X118477542Y-93186976D01*
X118359193Y-93232825D01*
X118287363Y-93260652D01*
X118287362Y-93260652D01*
X118287361Y-93260653D01*
X118287351Y-93260658D01*
X118113960Y-93368017D01*
X118113959Y-93368018D01*
X117963233Y-93505422D01*
X117959613Y-93509394D01*
X117898937Y-93546259D01*
X117827963Y-93544468D01*
X117769224Y-93504590D01*
X117741370Y-93439286D01*
X117740500Y-93424506D01*
X117740500Y-92572454D01*
X119604810Y-92572454D01*
X119604810Y-92769539D01*
X119639766Y-92945273D01*
X119643259Y-92962833D01*
X119718679Y-93144911D01*
X119828171Y-93308778D01*
X119967529Y-93448136D01*
X120131396Y-93557628D01*
X120313474Y-93633048D01*
X120506770Y-93671497D01*
X120506771Y-93671497D01*
X120703849Y-93671497D01*
X120703850Y-93671497D01*
X120897146Y-93633048D01*
X121079224Y-93557628D01*
X121243091Y-93448136D01*
X121948135Y-92743092D01*
X122057627Y-92579225D01*
X122133047Y-92397147D01*
X122171496Y-92203851D01*
X122171496Y-92006771D01*
X122133047Y-91813475D01*
X122057627Y-91631397D01*
X121948135Y-91467530D01*
X121808777Y-91328172D01*
X121644910Y-91218680D01*
X121462833Y-91143260D01*
X121269538Y-91104811D01*
X121269536Y-91104811D01*
X121072456Y-91104811D01*
X121072453Y-91104811D01*
X120879158Y-91143260D01*
X120879157Y-91143261D01*
X120697080Y-91218681D01*
X120533216Y-91328171D01*
X120533210Y-91328176D01*
X119828175Y-92033211D01*
X119828170Y-92033217D01*
X119720049Y-92195033D01*
X119718679Y-92197083D01*
X119715876Y-92203851D01*
X119643260Y-92379158D01*
X119643259Y-92379159D01*
X119604810Y-92572454D01*
X117740500Y-92572454D01*
X117740500Y-92097646D01*
X117740499Y-92097642D01*
X117720022Y-92021222D01*
X117720021Y-92021221D01*
X117720021Y-92021219D01*
X117680460Y-91952697D01*
X117624511Y-91896748D01*
X116835461Y-91107698D01*
X116801436Y-91045386D01*
X116806501Y-90974570D01*
X116849048Y-90917735D01*
X116915568Y-90892924D01*
X116924557Y-90892603D01*
X117689265Y-90892603D01*
X117757386Y-90912605D01*
X117803879Y-90966261D01*
X117812843Y-90994020D01*
X117847208Y-91166782D01*
X117922628Y-91348860D01*
X118032120Y-91512727D01*
X118171478Y-91652085D01*
X118335345Y-91761577D01*
X118517423Y-91836997D01*
X118710719Y-91875446D01*
X118710720Y-91875446D01*
X118907798Y-91875446D01*
X118907799Y-91875446D01*
X119101095Y-91836997D01*
X119283173Y-91761577D01*
X119447040Y-91652085D01*
X120152084Y-90947041D01*
X120261576Y-90783174D01*
X120336996Y-90601096D01*
X120375445Y-90407800D01*
X120375445Y-90210720D01*
X120360964Y-90137919D01*
X120367292Y-90067207D01*
X120410846Y-90011140D01*
X120477798Y-89987520D01*
X120546892Y-90003846D01*
X120573638Y-90024244D01*
X121233905Y-90684511D01*
X121289854Y-90740460D01*
X121358376Y-90780021D01*
X121358378Y-90780021D01*
X121358379Y-90780022D01*
X121421424Y-90796915D01*
X121434803Y-90800500D01*
X122196562Y-90800500D01*
X122264683Y-90820502D01*
X122285657Y-90837405D01*
X122296780Y-90848528D01*
X122416874Y-90909719D01*
X122550000Y-90930804D01*
X122683126Y-90909719D01*
X122803220Y-90848528D01*
X122898528Y-90753220D01*
X122959719Y-90633126D01*
X122980804Y-90500000D01*
X122959719Y-90366874D01*
X122898528Y-90246780D01*
X122803220Y-90151472D01*
X122803219Y-90151471D01*
X122737563Y-90118018D01*
X122683126Y-90090281D01*
X122550000Y-90069196D01*
X122416874Y-90090281D01*
X122416872Y-90090281D01*
X122416872Y-90090282D01*
X122296780Y-90151471D01*
X122296778Y-90151473D01*
X122285657Y-90162595D01*
X122223345Y-90196621D01*
X122196562Y-90199500D01*
X121651026Y-90199500D01*
X121582905Y-90179498D01*
X121561931Y-90162595D01*
X120814931Y-89415595D01*
X120780905Y-89353283D01*
X120785970Y-89282468D01*
X120828517Y-89225632D01*
X120895037Y-89200821D01*
X120904026Y-89200500D01*
X121628541Y-89200500D01*
X121821835Y-89162051D01*
X122003914Y-89086632D01*
X122167782Y-88977139D01*
X122307139Y-88837782D01*
X122416632Y-88673914D01*
X122492051Y-88491835D01*
X122530500Y-88298541D01*
X122530500Y-88101459D01*
X122492051Y-87908165D01*
X122416632Y-87726086D01*
X122307139Y-87562218D01*
X122167782Y-87422861D01*
X122003914Y-87313368D01*
X121968147Y-87298553D01*
X121821838Y-87237950D01*
X121821835Y-87237949D01*
X121628544Y-87199500D01*
X121628541Y-87199500D01*
X120631459Y-87199500D01*
X120631455Y-87199500D01*
X120438164Y-87237949D01*
X120438161Y-87237950D01*
X120256085Y-87313368D01*
X120108625Y-87411898D01*
X120040872Y-87433113D01*
X119972405Y-87414330D01*
X119924962Y-87361512D01*
X119916918Y-87339750D01*
X119910021Y-87314011D01*
X119870460Y-87245489D01*
X119814511Y-87189540D01*
X118257190Y-85632219D01*
X118223164Y-85569907D01*
X118228229Y-85499092D01*
X118270776Y-85442256D01*
X118326572Y-85418676D01*
X118383126Y-85409719D01*
X118503220Y-85348528D01*
X118598528Y-85253220D01*
X118659719Y-85133126D01*
X118680804Y-85000000D01*
X118659719Y-84866874D01*
X118598528Y-84746780D01*
X118587405Y-84735657D01*
X118553379Y-84673345D01*
X118550500Y-84646562D01*
X118550500Y-83960440D01*
X118550500Y-83960438D01*
X118547628Y-83949719D01*
X118530022Y-83884012D01*
X118502971Y-83837158D01*
X118490462Y-83815492D01*
X118490457Y-83815486D01*
X118060442Y-83385471D01*
X117623666Y-82948695D01*
X117589643Y-82886385D01*
X117594707Y-82815570D01*
X117637254Y-82758734D01*
X117650664Y-82750384D01*
X117653214Y-82748530D01*
X117653220Y-82748528D01*
X117748528Y-82653220D01*
X117809719Y-82533126D01*
X117830804Y-82400000D01*
X117809719Y-82266874D01*
X117800100Y-82247996D01*
X117786995Y-82178223D01*
X117813693Y-82112437D01*
X117823262Y-82101707D01*
X118164121Y-81760848D01*
X118226431Y-81726824D01*
X118233458Y-81725504D01*
X118278793Y-81718324D01*
X118349202Y-81727424D01*
X118403515Y-81773147D01*
X118424487Y-81840975D01*
X118424500Y-81842773D01*
X118424500Y-83294565D01*
X118444977Y-83370986D01*
X118479242Y-83430334D01*
X118479243Y-83430336D01*
X118484539Y-83439510D01*
X118484544Y-83439516D01*
X119925558Y-84880529D01*
X119959583Y-84942841D01*
X119954519Y-85013656D01*
X119941229Y-85039625D01*
X119843367Y-85186087D01*
X119767950Y-85368161D01*
X119767949Y-85368164D01*
X119729500Y-85561455D01*
X119729500Y-85758544D01*
X119767949Y-85951835D01*
X119767950Y-85951838D01*
X119814056Y-86063148D01*
X119843368Y-86133914D01*
X119952861Y-86297782D01*
X120092218Y-86437139D01*
X120256086Y-86546632D01*
X120438165Y-86622051D01*
X120631459Y-86660500D01*
X121628541Y-86660500D01*
X121821835Y-86622051D01*
X122003914Y-86546632D01*
X122167782Y-86437139D01*
X122307139Y-86297782D01*
X122416632Y-86133914D01*
X122492051Y-85951835D01*
X122530500Y-85758541D01*
X122530500Y-85561459D01*
X122492051Y-85368165D01*
X122416632Y-85186086D01*
X122413558Y-85181485D01*
X122392343Y-85113735D01*
X122411125Y-85045268D01*
X122463941Y-84997824D01*
X122534023Y-84986466D01*
X122599121Y-85014800D01*
X122607418Y-85022389D01*
X123912595Y-86327566D01*
X123946621Y-86389878D01*
X123949500Y-86416661D01*
X123949500Y-93164704D01*
X123929498Y-93232825D01*
X123875842Y-93279318D01*
X123805568Y-93289422D01*
X123740988Y-93259928D01*
X123734405Y-93253799D01*
X123604833Y-93124227D01*
X123604829Y-93124223D01*
X123440962Y-93014731D01*
X123258885Y-92939311D01*
X123065590Y-92900862D01*
X123065588Y-92900862D01*
X122868508Y-92900862D01*
X122868505Y-92900862D01*
X122675210Y-92939311D01*
X122675209Y-92939312D01*
X122493132Y-93014732D01*
X122329268Y-93124222D01*
X122329262Y-93124227D01*
X121624227Y-93829262D01*
X121624222Y-93829268D01*
X121521129Y-93983559D01*
X121514731Y-93993134D01*
X121501073Y-94026106D01*
X121439312Y-94175209D01*
X121439311Y-94175210D01*
X121400862Y-94368505D01*
X121400862Y-94565590D01*
X121436329Y-94743895D01*
X121439311Y-94758884D01*
X121514731Y-94940962D01*
X121624223Y-95104829D01*
X121763581Y-95244187D01*
X121927448Y-95353679D01*
X122109526Y-95429099D01*
X122302822Y-95467548D01*
X122302823Y-95467548D01*
X122499901Y-95467548D01*
X122499902Y-95467548D01*
X122693198Y-95429099D01*
X122875276Y-95353679D01*
X123039143Y-95244187D01*
X123734405Y-94548925D01*
X123796717Y-94514899D01*
X123867532Y-94519964D01*
X123924368Y-94562511D01*
X123949179Y-94629031D01*
X123949500Y-94638020D01*
X123949500Y-97436868D01*
X123929498Y-97504989D01*
X123912599Y-97525958D01*
X123737293Y-97701265D01*
X123562677Y-97875881D01*
X123500365Y-97909906D01*
X123429549Y-97904841D01*
X123372714Y-97862294D01*
X123347903Y-97795774D01*
X123352391Y-97752306D01*
X123366397Y-97703083D01*
X123385215Y-97500000D01*
X123366397Y-97296917D01*
X123310582Y-97100750D01*
X123219673Y-96918179D01*
X123195087Y-96885622D01*
X123096765Y-96755421D01*
X122946040Y-96618018D01*
X122946039Y-96618017D01*
X122772648Y-96510658D01*
X122772641Y-96510654D01*
X122772637Y-96510652D01*
X122630138Y-96455448D01*
X122582457Y-96436976D01*
X122505064Y-96422509D01*
X122381976Y-96399500D01*
X122178024Y-96399500D01*
X122077784Y-96418238D01*
X121977542Y-96436976D01*
X121833019Y-96492965D01*
X121787363Y-96510652D01*
X121787362Y-96510652D01*
X121787361Y-96510653D01*
X121787351Y-96510658D01*
X121613960Y-96618017D01*
X121613959Y-96618018D01*
X121463234Y-96755421D01*
X121340329Y-96918175D01*
X121249416Y-97100754D01*
X121193603Y-97296915D01*
X121174785Y-97500000D01*
X121193603Y-97703084D01*
X121249417Y-97899247D01*
X121249417Y-97899248D01*
X121277606Y-97955860D01*
X121290064Y-98025755D01*
X121262757Y-98091290D01*
X121253910Y-98101117D01*
X121055593Y-98299434D01*
X120993284Y-98333458D01*
X120922468Y-98328394D01*
X120865632Y-98285847D01*
X120840821Y-98219327D01*
X120840500Y-98210338D01*
X120840500Y-96580253D01*
X120840499Y-96580249D01*
X120839999Y-96577737D01*
X120828867Y-96521769D01*
X120784552Y-96455448D01*
X120718231Y-96411133D01*
X120718228Y-96411132D01*
X120659750Y-96399500D01*
X120659748Y-96399500D01*
X118820252Y-96399500D01*
X118820249Y-96399500D01*
X118761771Y-96411132D01*
X118761768Y-96411133D01*
X118695448Y-96455448D01*
X118651133Y-96521768D01*
X118651132Y-96521771D01*
X118639500Y-96580249D01*
X118639500Y-98419750D01*
X118649877Y-98471921D01*
X118651133Y-98478231D01*
X118695448Y-98544552D01*
X118761769Y-98588867D01*
X118820252Y-98600500D01*
X118820253Y-98600500D01*
X120450338Y-98600500D01*
X120518459Y-98620502D01*
X120564952Y-98674158D01*
X120575056Y-98744432D01*
X120545562Y-98809012D01*
X120539433Y-98815595D01*
X114042434Y-105312595D01*
X113980122Y-105346621D01*
X113953339Y-105349500D01*
X106542347Y-105349500D01*
X106474226Y-105329498D01*
X106453252Y-105312595D01*
X105087405Y-103946748D01*
X105053379Y-103884436D01*
X105050500Y-103857653D01*
X105050500Y-103600000D01*
X106499803Y-103600000D01*
X106516290Y-103798973D01*
X106518560Y-103826357D01*
X106574313Y-104046522D01*
X106574316Y-104046529D01*
X106665549Y-104254520D01*
X106789775Y-104444663D01*
X106943597Y-104611759D01*
X106943602Y-104611763D01*
X106943604Y-104611765D01*
X107122838Y-104751268D01*
X107122839Y-104751269D01*
X107322590Y-104859369D01*
X107322592Y-104859370D01*
X107435377Y-104898088D01*
X107537409Y-104933116D01*
X107761437Y-104970500D01*
X107761441Y-104970500D01*
X107988559Y-104970500D01*
X107988563Y-104970500D01*
X108212591Y-104933116D01*
X108427410Y-104859369D01*
X108627161Y-104751269D01*
X108806396Y-104611765D01*
X108842548Y-104572494D01*
X108960224Y-104444663D01*
X108993101Y-104394341D01*
X109084450Y-104254521D01*
X109175685Y-104046526D01*
X109231441Y-103826350D01*
X109250197Y-103600000D01*
X111499803Y-103600000D01*
X111516290Y-103798973D01*
X111518560Y-103826357D01*
X111574313Y-104046522D01*
X111574316Y-104046529D01*
X111665549Y-104254520D01*
X111789775Y-104444663D01*
X111943597Y-104611759D01*
X111943602Y-104611763D01*
X111943604Y-104611765D01*
X112122838Y-104751268D01*
X112122839Y-104751269D01*
X112322590Y-104859369D01*
X112322592Y-104859370D01*
X112435377Y-104898088D01*
X112537409Y-104933116D01*
X112761437Y-104970500D01*
X112761441Y-104970500D01*
X112988559Y-104970500D01*
X112988563Y-104970500D01*
X113212591Y-104933116D01*
X113427410Y-104859369D01*
X113627161Y-104751269D01*
X113806396Y-104611765D01*
X113842548Y-104572494D01*
X113960224Y-104444663D01*
X113993101Y-104394341D01*
X114084450Y-104254521D01*
X114175685Y-104046526D01*
X114231441Y-103826350D01*
X114250197Y-103600000D01*
X114231441Y-103373650D01*
X114190545Y-103212155D01*
X114175686Y-103153477D01*
X114175683Y-103153470D01*
X114172513Y-103146244D01*
X114084450Y-102945479D01*
X114008928Y-102829884D01*
X113960224Y-102755336D01*
X113806402Y-102588240D01*
X113713738Y-102516117D01*
X113627161Y-102448731D01*
X113627160Y-102448730D01*
X113427409Y-102340630D01*
X113427407Y-102340629D01*
X113212595Y-102266885D01*
X113212588Y-102266883D01*
X113116710Y-102250884D01*
X112988563Y-102229500D01*
X112761437Y-102229500D01*
X112649322Y-102248208D01*
X112537411Y-102266883D01*
X112537404Y-102266885D01*
X112322592Y-102340629D01*
X112322590Y-102340630D01*
X112122839Y-102448730D01*
X112122838Y-102448731D01*
X111943597Y-102588240D01*
X111789775Y-102755336D01*
X111665549Y-102945479D01*
X111574316Y-103153470D01*
X111574313Y-103153477D01*
X111518560Y-103373642D01*
X111518559Y-103373648D01*
X111518559Y-103373650D01*
X111499803Y-103600000D01*
X109250197Y-103600000D01*
X109231441Y-103373650D01*
X109190545Y-103212155D01*
X109175686Y-103153477D01*
X109175683Y-103153470D01*
X109172513Y-103146244D01*
X109084450Y-102945479D01*
X109008928Y-102829884D01*
X108960224Y-102755336D01*
X108806402Y-102588240D01*
X108713738Y-102516117D01*
X108627161Y-102448731D01*
X108627160Y-102448730D01*
X108427409Y-102340630D01*
X108427407Y-102340629D01*
X108212595Y-102266885D01*
X108212588Y-102266883D01*
X108116710Y-102250884D01*
X107988563Y-102229500D01*
X107761437Y-102229500D01*
X107649322Y-102248208D01*
X107537411Y-102266883D01*
X107537404Y-102266885D01*
X107322592Y-102340629D01*
X107322590Y-102340630D01*
X107122839Y-102448730D01*
X107122838Y-102448731D01*
X106943597Y-102588240D01*
X106789775Y-102755336D01*
X106665549Y-102945479D01*
X106574316Y-103153470D01*
X106574313Y-103153477D01*
X106518560Y-103373642D01*
X106518559Y-103373648D01*
X106518559Y-103373650D01*
X106499803Y-103600000D01*
X105050500Y-103600000D01*
X105050500Y-101100000D01*
X108999803Y-101100000D01*
X109018328Y-101323568D01*
X109018560Y-101326357D01*
X109074313Y-101546522D01*
X109074316Y-101546529D01*
X109165549Y-101754520D01*
X109289775Y-101944663D01*
X109443597Y-102111759D01*
X109443602Y-102111763D01*
X109443604Y-102111765D01*
X109622838Y-102251268D01*
X109622839Y-102251269D01*
X109822590Y-102359369D01*
X109822592Y-102359370D01*
X109928821Y-102395838D01*
X110037409Y-102433116D01*
X110261437Y-102470500D01*
X110261441Y-102470500D01*
X110488559Y-102470500D01*
X110488563Y-102470500D01*
X110712591Y-102433116D01*
X110927410Y-102359369D01*
X111127161Y-102251269D01*
X111306396Y-102111765D01*
X111346685Y-102068000D01*
X111460224Y-101944663D01*
X111506818Y-101873345D01*
X111584450Y-101754521D01*
X111675685Y-101546526D01*
X111731441Y-101326350D01*
X111750197Y-101100000D01*
X111731441Y-100873650D01*
X111720849Y-100831824D01*
X111675686Y-100653477D01*
X111675683Y-100653470D01*
X111674211Y-100650115D01*
X111584450Y-100445479D01*
X111472903Y-100274743D01*
X111460224Y-100255336D01*
X111306402Y-100088240D01*
X111292810Y-100077661D01*
X111127161Y-99948731D01*
X111127160Y-99948730D01*
X110954334Y-99855201D01*
X115677410Y-99855201D01*
X115677410Y-99855202D01*
X115692970Y-99933432D01*
X115692971Y-99933433D01*
X115726099Y-99983013D01*
X115726102Y-99983016D01*
X115726105Y-99983020D01*
X116885389Y-101142304D01*
X116885392Y-101142306D01*
X116885397Y-101142311D01*
X116934977Y-101175439D01*
X117013208Y-101191000D01*
X117091440Y-101175439D01*
X117141019Y-101142311D01*
X118866003Y-99417327D01*
X118899131Y-99367748D01*
X118914692Y-99289516D01*
X118914407Y-99288085D01*
X118899131Y-99211285D01*
X118899130Y-99211284D01*
X118898862Y-99210883D01*
X118866003Y-99161705D01*
X118865998Y-99161700D01*
X118865996Y-99161697D01*
X117706712Y-98002413D01*
X117706708Y-98002410D01*
X117706705Y-98002407D01*
X117657125Y-97969279D01*
X117657124Y-97969278D01*
X117578894Y-97953718D01*
X117500660Y-97969279D01*
X117451086Y-98002404D01*
X117451077Y-98002411D01*
X115726103Y-99727385D01*
X115726096Y-99727394D01*
X115692971Y-99776968D01*
X115677410Y-99855201D01*
X110954334Y-99855201D01*
X110927409Y-99840630D01*
X110927407Y-99840629D01*
X110712595Y-99766885D01*
X110712588Y-99766883D01*
X110616710Y-99750884D01*
X110488563Y-99729500D01*
X110261437Y-99729500D01*
X110149322Y-99748208D01*
X110037411Y-99766883D01*
X110037404Y-99766885D01*
X109822592Y-99840629D01*
X109822590Y-99840630D01*
X109622839Y-99948730D01*
X109622838Y-99948731D01*
X109443597Y-100088240D01*
X109289775Y-100255336D01*
X109165549Y-100445479D01*
X109074316Y-100653470D01*
X109074313Y-100653477D01*
X109018560Y-100873642D01*
X109018559Y-100873648D01*
X109018559Y-100873650D01*
X108999803Y-101100000D01*
X105050500Y-101100000D01*
X105050500Y-96778949D01*
X105070502Y-96710828D01*
X105124158Y-96664335D01*
X105158385Y-96657765D01*
X105639886Y-96176264D01*
X105679920Y-96245606D01*
X105754394Y-96320080D01*
X105823734Y-96360113D01*
X105347817Y-96836029D01*
X105408244Y-96885620D01*
X105408246Y-96885622D01*
X105592392Y-96984050D01*
X105792210Y-97044664D01*
X105999997Y-97065129D01*
X106000003Y-97065129D01*
X106207789Y-97044664D01*
X106407607Y-96984050D01*
X106591754Y-96885621D01*
X106652182Y-96836029D01*
X106176266Y-96360113D01*
X106245606Y-96320080D01*
X106320080Y-96245606D01*
X106360113Y-96176266D01*
X106836029Y-96652182D01*
X106885621Y-96591754D01*
X106984050Y-96407607D01*
X107044664Y-96207789D01*
X107065129Y-96000003D01*
X107065129Y-95999996D01*
X107494659Y-95999996D01*
X107494659Y-96000003D01*
X107513974Y-96196124D01*
X107513974Y-96196126D01*
X107571186Y-96384728D01*
X107648588Y-96529536D01*
X107664090Y-96558538D01*
X107789117Y-96710883D01*
X107941462Y-96835910D01*
X108115273Y-96928814D01*
X108303868Y-96986024D01*
X108303872Y-96986024D01*
X108303874Y-96986025D01*
X108499997Y-97005341D01*
X108500000Y-97005341D01*
X108500003Y-97005341D01*
X108696124Y-96986025D01*
X108696126Y-96986025D01*
X108696127Y-96986024D01*
X108696132Y-96986024D01*
X108884727Y-96928814D01*
X109058538Y-96835910D01*
X109210883Y-96710883D01*
X109335910Y-96558538D01*
X109428814Y-96384727D01*
X109486024Y-96196132D01*
X109489134Y-96164557D01*
X112420606Y-96164557D01*
X112420606Y-96361642D01*
X112456073Y-96539946D01*
X112459055Y-96554936D01*
X112534475Y-96737014D01*
X112643967Y-96900881D01*
X112783325Y-97040239D01*
X112947192Y-97149731D01*
X113129270Y-97225151D01*
X113322566Y-97263600D01*
X113322567Y-97263600D01*
X113519645Y-97263600D01*
X113519646Y-97263600D01*
X113712942Y-97225151D01*
X113895020Y-97149731D01*
X114058887Y-97040239D01*
X114763931Y-96335195D01*
X114873423Y-96171328D01*
X114948843Y-95989250D01*
X114987292Y-95795954D01*
X114987292Y-95598874D01*
X114948843Y-95405578D01*
X114873423Y-95223500D01*
X114763931Y-95059633D01*
X114624573Y-94920275D01*
X114460706Y-94810783D01*
X114278629Y-94735363D01*
X114085334Y-94696914D01*
X114085332Y-94696914D01*
X113888252Y-94696914D01*
X113888249Y-94696914D01*
X113694954Y-94735363D01*
X113694953Y-94735364D01*
X113512876Y-94810784D01*
X113349012Y-94920274D01*
X113349006Y-94920279D01*
X112643971Y-95625314D01*
X112643966Y-95625320D01*
X112586158Y-95711837D01*
X112534475Y-95789186D01*
X112524207Y-95813974D01*
X112459056Y-95971261D01*
X112459055Y-95971262D01*
X112420606Y-96164557D01*
X109489134Y-96164557D01*
X109490783Y-96147816D01*
X109505341Y-96000003D01*
X109505341Y-95999996D01*
X109486025Y-95803875D01*
X109486025Y-95803873D01*
X109486024Y-95803870D01*
X109486024Y-95803868D01*
X109428814Y-95615273D01*
X109335910Y-95441462D01*
X109210883Y-95289117D01*
X109058538Y-95164090D01*
X109058312Y-95163969D01*
X108884728Y-95071186D01*
X108696125Y-95013974D01*
X108500003Y-94994659D01*
X108499997Y-94994659D01*
X108303875Y-95013974D01*
X108303873Y-95013974D01*
X108115271Y-95071186D01*
X107941461Y-95164090D01*
X107789117Y-95289117D01*
X107664090Y-95441461D01*
X107571186Y-95615271D01*
X107513974Y-95803873D01*
X107513974Y-95803875D01*
X107494659Y-95999996D01*
X107065129Y-95999996D01*
X107044664Y-95792210D01*
X106984050Y-95592392D01*
X106885622Y-95408246D01*
X106885620Y-95408244D01*
X106836029Y-95347817D01*
X106360113Y-95823733D01*
X106320080Y-95754394D01*
X106245606Y-95679920D01*
X106176265Y-95639886D01*
X106652181Y-95163969D01*
X106591755Y-95114379D01*
X106591753Y-95114377D01*
X106407607Y-95015949D01*
X106207789Y-94955335D01*
X106000003Y-94934871D01*
X105999997Y-94934871D01*
X105792210Y-94955335D01*
X105592392Y-95015949D01*
X105408251Y-95114375D01*
X105408245Y-95114379D01*
X105347816Y-95163969D01*
X105823733Y-95639886D01*
X105754394Y-95679920D01*
X105679920Y-95754394D01*
X105639886Y-95823733D01*
X105156815Y-95340662D01*
X105113662Y-95330261D01*
X105064592Y-95278952D01*
X105050500Y-95221049D01*
X105050500Y-94368505D01*
X110624554Y-94368505D01*
X110624554Y-94565590D01*
X110660021Y-94743895D01*
X110663003Y-94758884D01*
X110738423Y-94940962D01*
X110847915Y-95104829D01*
X110987273Y-95244187D01*
X111151140Y-95353679D01*
X111333218Y-95429099D01*
X111526514Y-95467548D01*
X111526515Y-95467548D01*
X111723593Y-95467548D01*
X111723594Y-95467548D01*
X111916890Y-95429099D01*
X112098968Y-95353679D01*
X112262835Y-95244187D01*
X112967879Y-94539143D01*
X113077371Y-94375276D01*
X113152791Y-94193198D01*
X113191240Y-93999902D01*
X113191240Y-93802822D01*
X113152791Y-93609526D01*
X113077371Y-93427448D01*
X112967879Y-93263581D01*
X112828521Y-93124223D01*
X112664654Y-93014731D01*
X112482577Y-92939311D01*
X112289282Y-92900862D01*
X112289280Y-92900862D01*
X112092200Y-92900862D01*
X112092197Y-92900862D01*
X111898902Y-92939311D01*
X111898901Y-92939312D01*
X111716824Y-93014732D01*
X111552960Y-93124222D01*
X111552954Y-93124227D01*
X110847919Y-93829262D01*
X110847914Y-93829268D01*
X110744821Y-93983559D01*
X110738423Y-93993134D01*
X110724765Y-94026106D01*
X110663004Y-94175209D01*
X110663003Y-94175210D01*
X110624554Y-94368505D01*
X105050500Y-94368505D01*
X105050500Y-90742457D01*
X105070502Y-90674336D01*
X105087400Y-90653366D01*
X105712120Y-90028645D01*
X105774431Y-89994622D01*
X105845246Y-89999686D01*
X105849433Y-90001334D01*
X105945053Y-90040942D01*
X105945061Y-90040944D01*
X105945065Y-90040946D01*
X106138361Y-90079395D01*
X106138362Y-90079395D01*
X106335440Y-90079395D01*
X106335441Y-90079395D01*
X106528737Y-90040946D01*
X106710815Y-89965526D01*
X106874682Y-89856034D01*
X107579726Y-89150990D01*
X107689218Y-88987123D01*
X107764638Y-88805045D01*
X107803087Y-88611749D01*
X107803087Y-88414669D01*
X107764638Y-88221373D01*
X107689218Y-88039295D01*
X107579726Y-87875428D01*
X107440368Y-87736070D01*
X107276501Y-87626578D01*
X107276499Y-87626577D01*
X107239843Y-87611393D01*
X107184563Y-87566844D01*
X107162143Y-87499480D01*
X107179702Y-87430689D01*
X107230859Y-87382719D01*
X107297964Y-87348528D01*
X107393272Y-87253220D01*
X107454463Y-87133126D01*
X107475548Y-87000000D01*
X107454463Y-86866874D01*
X107393272Y-86746780D01*
X107297964Y-86651472D01*
X107297963Y-86651471D01*
X107230058Y-86616872D01*
X107177870Y-86590281D01*
X107044744Y-86569196D01*
X106911618Y-86590281D01*
X106911616Y-86590281D01*
X106911616Y-86590282D01*
X106791524Y-86651471D01*
X106791522Y-86651473D01*
X106780401Y-86662595D01*
X106718089Y-86696621D01*
X106691306Y-86699500D01*
X106460434Y-86699500D01*
X106384014Y-86719977D01*
X106384011Y-86719979D01*
X106337590Y-86746780D01*
X106332013Y-86750000D01*
X106315490Y-86759539D01*
X106315486Y-86759542D01*
X106281630Y-86793398D01*
X106219318Y-86827422D01*
X106148502Y-86822356D01*
X106091667Y-86779809D01*
X106066857Y-86713288D01*
X106066536Y-86704301D01*
X106066536Y-86612755D01*
X106066535Y-86612752D01*
X106025799Y-86407964D01*
X106025798Y-86407963D01*
X105945893Y-86215057D01*
X105844391Y-86063148D01*
X105844390Y-86063147D01*
X105083804Y-86823733D01*
X105043772Y-86754394D01*
X104969298Y-86679920D01*
X104899957Y-86639886D01*
X105660543Y-85879299D01*
X105508634Y-85777798D01*
X105315728Y-85697893D01*
X105315727Y-85697892D01*
X105110939Y-85657156D01*
X104902130Y-85657156D01*
X104697342Y-85697892D01*
X104697341Y-85697893D01*
X104504435Y-85777798D01*
X104330829Y-85893798D01*
X104330827Y-85893799D01*
X103617491Y-86607134D01*
X103617490Y-86607135D01*
X103501489Y-86780744D01*
X103421586Y-86973646D01*
X103421584Y-86973651D01*
X103380849Y-87178439D01*
X103380849Y-87387246D01*
X103421584Y-87592034D01*
X103421586Y-87592039D01*
X103501489Y-87784940D01*
X103602991Y-87936851D01*
X104363578Y-87176265D01*
X104403612Y-87245606D01*
X104478086Y-87320080D01*
X104547425Y-87360113D01*
X103786839Y-88120698D01*
X103786840Y-88120699D01*
X103938751Y-88222202D01*
X104131652Y-88302105D01*
X104131657Y-88302107D01*
X104336445Y-88342842D01*
X104336449Y-88342843D01*
X104427994Y-88342843D01*
X104496115Y-88362845D01*
X104542608Y-88416501D01*
X104552712Y-88486775D01*
X104523218Y-88551355D01*
X104517090Y-88557938D01*
X104165489Y-88909540D01*
X104165488Y-88909540D01*
X104109545Y-88965482D01*
X104109539Y-88965490D01*
X104069977Y-89034014D01*
X104049500Y-89110434D01*
X104049500Y-104239565D01*
X104069976Y-104315982D01*
X104069978Y-104315986D01*
X104069979Y-104315989D01*
X104080846Y-104334811D01*
X104080847Y-104334813D01*
X104109538Y-104384508D01*
X104109546Y-104384518D01*
X105709434Y-105984405D01*
X105743459Y-106046717D01*
X105738395Y-106117532D01*
X105695848Y-106174368D01*
X105629328Y-106199179D01*
X105620339Y-106199500D01*
X101276661Y-106199500D01*
X101208540Y-106179498D01*
X101187566Y-106162595D01*
X99024967Y-103999996D01*
X99969538Y-103999996D01*
X99969538Y-104000003D01*
X99989336Y-104201026D01*
X99989337Y-104201032D01*
X99989338Y-104201033D01*
X100029920Y-104334814D01*
X100047977Y-104394341D01*
X100143203Y-104572497D01*
X100271352Y-104728647D01*
X100427502Y-104856795D01*
X100427502Y-104856796D01*
X100427506Y-104856798D01*
X100605659Y-104952023D01*
X100798967Y-105010662D01*
X100798971Y-105010662D01*
X100798973Y-105010663D01*
X100999997Y-105030462D01*
X101000000Y-105030462D01*
X101000003Y-105030462D01*
X101201026Y-105010663D01*
X101201027Y-105010662D01*
X101201033Y-105010662D01*
X101394341Y-104952023D01*
X101572494Y-104856798D01*
X101572495Y-104856796D01*
X101572497Y-104856796D01*
X101572497Y-104856795D01*
X101728647Y-104728647D01*
X101856798Y-104572494D01*
X101952023Y-104394341D01*
X102010662Y-104201033D01*
X102010925Y-104198368D01*
X102030462Y-104000003D01*
X102030462Y-103999996D01*
X102010663Y-103798973D01*
X102010662Y-103798971D01*
X102010662Y-103798967D01*
X101952023Y-103605659D01*
X101856798Y-103427506D01*
X101856796Y-103427502D01*
X101728647Y-103271352D01*
X101572497Y-103143204D01*
X101572497Y-103143203D01*
X101394341Y-103047977D01*
X101204738Y-102990462D01*
X101201033Y-102989338D01*
X101201032Y-102989337D01*
X101201026Y-102989336D01*
X101000003Y-102969538D01*
X100999997Y-102969538D01*
X100798973Y-102989336D01*
X100605658Y-103047977D01*
X100427502Y-103143203D01*
X100427502Y-103143204D01*
X100271352Y-103271352D01*
X100143204Y-103427502D01*
X100143203Y-103427502D01*
X100047977Y-103605658D01*
X99989336Y-103798973D01*
X99969538Y-103999996D01*
X99024967Y-103999996D01*
X98462405Y-103437434D01*
X98428379Y-103375122D01*
X98425500Y-103348339D01*
X98425500Y-81201661D01*
X98445502Y-81133540D01*
X98462405Y-81112566D01*
X102387566Y-77187405D01*
X102449878Y-77153379D01*
X102476661Y-77150500D01*
X111189562Y-77150500D01*
X111265989Y-77130021D01*
X111334511Y-77090460D01*
X111390460Y-77034511D01*
X112464122Y-75960847D01*
X112526431Y-75926825D01*
X112533452Y-75925505D01*
X112633126Y-75909719D01*
X112753220Y-75848528D01*
X112848528Y-75753220D01*
X112909719Y-75633126D01*
X112930804Y-75500000D01*
X112909719Y-75366874D01*
X112848528Y-75246780D01*
X112753220Y-75151472D01*
X112753219Y-75151471D01*
X112653680Y-75100754D01*
X112633126Y-75090281D01*
X112500000Y-75069196D01*
X112366874Y-75090281D01*
X112366872Y-75090281D01*
X112366872Y-75090282D01*
X112246780Y-75151471D01*
X112151471Y-75246780D01*
X112090280Y-75366875D01*
X112074501Y-75466496D01*
X112044088Y-75530649D01*
X112039148Y-75535879D01*
X111062432Y-76512596D01*
X111000122Y-76546620D01*
X110973339Y-76549500D01*
X108587526Y-76549500D01*
X108519405Y-76529498D01*
X108472912Y-76475842D01*
X108462808Y-76405568D01*
X108492302Y-76340988D01*
X108502640Y-76330385D01*
X108596765Y-76244578D01*
X108643436Y-76182775D01*
X108719673Y-76081821D01*
X108810582Y-75899250D01*
X108866397Y-75703083D01*
X108885215Y-75500000D01*
X108866397Y-75296917D01*
X108810582Y-75100750D01*
X108719673Y-74918179D01*
X108719670Y-74918175D01*
X108596765Y-74755421D01*
X108446040Y-74618018D01*
X108446039Y-74618017D01*
X108272648Y-74510658D01*
X108272641Y-74510654D01*
X108272637Y-74510652D01*
X108130138Y-74455448D01*
X108082457Y-74436976D01*
X107981900Y-74418179D01*
X107881976Y-74399500D01*
X107678024Y-74399500D01*
X107615793Y-74411133D01*
X107477542Y-74436976D01*
X107330190Y-74494060D01*
X107287363Y-74510652D01*
X107287362Y-74510652D01*
X107287361Y-74510653D01*
X107287351Y-74510658D01*
X107113960Y-74618017D01*
X107113959Y-74618018D01*
X106963234Y-74755421D01*
X106840329Y-74918175D01*
X106749416Y-75100754D01*
X106693603Y-75296915D01*
X106674785Y-75500000D01*
X106693603Y-75703084D01*
X106749416Y-75899245D01*
X106749417Y-75899247D01*
X106749418Y-75899250D01*
X106840327Y-76081821D01*
X106840328Y-76081822D01*
X106840329Y-76081824D01*
X106963234Y-76244578D01*
X107057360Y-76330385D01*
X107094226Y-76391059D01*
X107092437Y-76462033D01*
X107052561Y-76520773D01*
X106987257Y-76548630D01*
X106972474Y-76549500D01*
X106466500Y-76549500D01*
X106398379Y-76529498D01*
X106351886Y-76475842D01*
X106340500Y-76423500D01*
X106340500Y-74580253D01*
X106340499Y-74580249D01*
X106328867Y-74521771D01*
X106328867Y-74521769D01*
X106284552Y-74455448D01*
X106218231Y-74411133D01*
X106218228Y-74411132D01*
X106159750Y-74399500D01*
X106159748Y-74399500D01*
X104320252Y-74399500D01*
X104320249Y-74399500D01*
X104261771Y-74411132D01*
X104261768Y-74411133D01*
X104195448Y-74455448D01*
X104151133Y-74521768D01*
X104151132Y-74521771D01*
X104139500Y-74580249D01*
X104139500Y-76423500D01*
X104119498Y-76491621D01*
X104065842Y-76538114D01*
X104013500Y-76549500D01*
X102339562Y-76549500D01*
X102260438Y-76549500D01*
X102232190Y-76557069D01*
X102184014Y-76569977D01*
X102184007Y-76569980D01*
X102115492Y-76609537D01*
X102115482Y-76609545D01*
X98240595Y-80484433D01*
X98178283Y-80518459D01*
X98107468Y-80513394D01*
X98050632Y-80470847D01*
X98025821Y-80404327D01*
X98025500Y-80395338D01*
X98025500Y-67800000D01*
X99669196Y-67800000D01*
X99690281Y-67933126D01*
X99711188Y-67974158D01*
X99751470Y-68053218D01*
X99751472Y-68053220D01*
X99846780Y-68148528D01*
X99966874Y-68209719D01*
X100100000Y-68230804D01*
X100233126Y-68209719D01*
X100353220Y-68148528D01*
X100448528Y-68053220D01*
X100491289Y-67969297D01*
X100540038Y-67917682D01*
X100603556Y-67900500D01*
X100804652Y-67900500D01*
X100872773Y-67920502D01*
X100919266Y-67974158D01*
X100929370Y-68044432D01*
X100899876Y-68109012D01*
X100893747Y-68115595D01*
X100844532Y-68164809D01*
X100844528Y-68164814D01*
X100756521Y-68310396D01*
X100756520Y-68310397D01*
X100705913Y-68472806D01*
X100699500Y-68543386D01*
X100699500Y-71656613D01*
X100705913Y-71727193D01*
X100756520Y-71889602D01*
X100756521Y-71889603D01*
X100756522Y-71889606D01*
X100803908Y-71967991D01*
X100844528Y-72035185D01*
X100844532Y-72035190D01*
X100964809Y-72155467D01*
X100964814Y-72155471D01*
X100964815Y-72155472D01*
X101110394Y-72243478D01*
X101272804Y-72294086D01*
X101343384Y-72300500D01*
X101343387Y-72300500D01*
X102456613Y-72300500D01*
X102456616Y-72300500D01*
X102527196Y-72294086D01*
X102689606Y-72243478D01*
X102835185Y-72155472D01*
X102955472Y-72035185D01*
X103043478Y-71889606D01*
X103094086Y-71727196D01*
X103100500Y-71656616D01*
X103100500Y-70526500D01*
X103120502Y-70458379D01*
X103174158Y-70411886D01*
X103226500Y-70400500D01*
X106271723Y-70400500D01*
X106339844Y-70420502D01*
X106386337Y-70474158D01*
X106396441Y-70544432D01*
X106395302Y-70551081D01*
X106389500Y-70580246D01*
X106389500Y-72419750D01*
X106397450Y-72459719D01*
X106401133Y-72478231D01*
X106445448Y-72544552D01*
X106511769Y-72588867D01*
X106570252Y-72600500D01*
X106570253Y-72600500D01*
X108409747Y-72600500D01*
X108409748Y-72600500D01*
X108468231Y-72588867D01*
X108534552Y-72544552D01*
X108578867Y-72478231D01*
X108590500Y-72419748D01*
X108590500Y-70580252D01*
X108587585Y-70565595D01*
X108584698Y-70551081D01*
X108591026Y-70480367D01*
X108634581Y-70424300D01*
X108701533Y-70400681D01*
X108708277Y-70400500D01*
X109277322Y-70400500D01*
X109345443Y-70420502D01*
X109391936Y-70474158D01*
X109402040Y-70544432D01*
X109372546Y-70609012D01*
X109362208Y-70619615D01*
X109213234Y-70755421D01*
X109090329Y-70918175D01*
X108999416Y-71100754D01*
X108943603Y-71296915D01*
X108924785Y-71500000D01*
X108943603Y-71703084D01*
X108999416Y-71899245D01*
X108999417Y-71899247D01*
X108999418Y-71899250D01*
X109090327Y-72081821D01*
X109090328Y-72081822D01*
X109090329Y-72081824D01*
X109213234Y-72244578D01*
X109363959Y-72381981D01*
X109363960Y-72381982D01*
X109537351Y-72489341D01*
X109537354Y-72489342D01*
X109537363Y-72489348D01*
X109727544Y-72563024D01*
X109928024Y-72600500D01*
X109928026Y-72600500D01*
X110131974Y-72600500D01*
X110131976Y-72600500D01*
X110332456Y-72563024D01*
X110522637Y-72489348D01*
X110696041Y-72381981D01*
X110846764Y-72244579D01*
X110847596Y-72243478D01*
X110893171Y-72183126D01*
X110969673Y-72081821D01*
X111060582Y-71899250D01*
X111116397Y-71703083D01*
X111124601Y-71614538D01*
X111150802Y-71548558D01*
X111208518Y-71507213D01*
X111279424Y-71503636D01*
X111339158Y-71537072D01*
X111909537Y-72107451D01*
X111935087Y-72149143D01*
X111935779Y-72148791D01*
X111940254Y-72157574D01*
X111940275Y-72157608D01*
X111940281Y-72157626D01*
X112001472Y-72277720D01*
X112096780Y-72373028D01*
X112216874Y-72434219D01*
X112350000Y-72455304D01*
X112483126Y-72434219D01*
X112603220Y-72373028D01*
X112698528Y-72277720D01*
X112759719Y-72157626D01*
X112773532Y-72070410D01*
X112791016Y-72033529D01*
X112777571Y-72004088D01*
X112759719Y-71891374D01*
X112698528Y-71771280D01*
X112603220Y-71675972D01*
X112603219Y-71675971D01*
X112533174Y-71640282D01*
X112483126Y-71614781D01*
X112350000Y-71593696D01*
X112349998Y-71593696D01*
X112349997Y-71593696D01*
X112323386Y-71597910D01*
X112252976Y-71588809D01*
X112214584Y-71562556D01*
X111217623Y-70565595D01*
X111183597Y-70503283D01*
X111188662Y-70432468D01*
X111231209Y-70375632D01*
X111297729Y-70350821D01*
X111306718Y-70350500D01*
X112659747Y-70350500D01*
X112659748Y-70350500D01*
X112718231Y-70338867D01*
X112784552Y-70294552D01*
X112828867Y-70228231D01*
X112840500Y-70169748D01*
X112840500Y-69250000D01*
X113174785Y-69250000D01*
X113193603Y-69453084D01*
X113249416Y-69649245D01*
X113249417Y-69649247D01*
X113249418Y-69649250D01*
X113340327Y-69831821D01*
X113340328Y-69831822D01*
X113340329Y-69831824D01*
X113463234Y-69994578D01*
X113613959Y-70131981D01*
X113613960Y-70131982D01*
X113787351Y-70239341D01*
X113787354Y-70239342D01*
X113787363Y-70239348D01*
X113977544Y-70313024D01*
X114178024Y-70350500D01*
X114178026Y-70350500D01*
X114381974Y-70350500D01*
X114381976Y-70350500D01*
X114582456Y-70313024D01*
X114772637Y-70239348D01*
X114946041Y-70131981D01*
X115096764Y-69994579D01*
X115112401Y-69973873D01*
X115175754Y-69889979D01*
X115219673Y-69831821D01*
X115310582Y-69649250D01*
X115366397Y-69453083D01*
X115385215Y-69250000D01*
X115366397Y-69046917D01*
X115310582Y-68850750D01*
X115219673Y-68668179D01*
X115213512Y-68660021D01*
X115096765Y-68505421D01*
X114946040Y-68368018D01*
X114946039Y-68368017D01*
X114772648Y-68260658D01*
X114772641Y-68260654D01*
X114772637Y-68260652D01*
X114630138Y-68205448D01*
X114582457Y-68186976D01*
X114481900Y-68168179D01*
X114381976Y-68149500D01*
X114178024Y-68149500D01*
X114115793Y-68161133D01*
X113977542Y-68186976D01*
X113864410Y-68230804D01*
X113787363Y-68260652D01*
X113787362Y-68260652D01*
X113787361Y-68260653D01*
X113787351Y-68260658D01*
X113613960Y-68368017D01*
X113613959Y-68368018D01*
X113463234Y-68505421D01*
X113340329Y-68668175D01*
X113249416Y-68850754D01*
X113193603Y-69046915D01*
X113174785Y-69250000D01*
X112840500Y-69250000D01*
X112840500Y-68330252D01*
X112828867Y-68271769D01*
X112784552Y-68205448D01*
X112718231Y-68161133D01*
X112718228Y-68161132D01*
X112659750Y-68149500D01*
X112659748Y-68149500D01*
X110820252Y-68149500D01*
X110820249Y-68149500D01*
X110761771Y-68161132D01*
X110761768Y-68161133D01*
X110695448Y-68205448D01*
X110651133Y-68271768D01*
X110651132Y-68271771D01*
X110639500Y-68330249D01*
X110639500Y-69715163D01*
X110619498Y-69783284D01*
X110565842Y-69829777D01*
X110495568Y-69839881D01*
X110450504Y-69824285D01*
X110443046Y-69819979D01*
X110443045Y-69819978D01*
X110443042Y-69819977D01*
X110366622Y-69799500D01*
X110366619Y-69799500D01*
X103226500Y-69799500D01*
X103158379Y-69779498D01*
X103111886Y-69725842D01*
X103100500Y-69673500D01*
X103100500Y-68543386D01*
X103094086Y-68472806D01*
X103094086Y-68472804D01*
X103043478Y-68310394D01*
X102955472Y-68164815D01*
X102955471Y-68164814D01*
X102955467Y-68164809D01*
X102906253Y-68115595D01*
X102872227Y-68053283D01*
X102877292Y-67982468D01*
X102919839Y-67925632D01*
X102986359Y-67900821D01*
X102995348Y-67900500D01*
X103939562Y-67900500D01*
X104015989Y-67880021D01*
X104084511Y-67840460D01*
X104094722Y-67830249D01*
X116389500Y-67830249D01*
X116389500Y-69669750D01*
X116400657Y-69725842D01*
X116401133Y-69728231D01*
X116445448Y-69794552D01*
X116511769Y-69838867D01*
X116570252Y-69850500D01*
X116570253Y-69850500D01*
X118409747Y-69850500D01*
X118409748Y-69850500D01*
X118468231Y-69838867D01*
X118534552Y-69794552D01*
X118578867Y-69728231D01*
X118590500Y-69669748D01*
X118590500Y-67830252D01*
X118578867Y-67771769D01*
X118534552Y-67705448D01*
X118468231Y-67661133D01*
X118468228Y-67661132D01*
X118409750Y-67649500D01*
X118409748Y-67649500D01*
X116570252Y-67649500D01*
X116570249Y-67649500D01*
X116511771Y-67661132D01*
X116511768Y-67661133D01*
X116445448Y-67705448D01*
X116401133Y-67771768D01*
X116401132Y-67771771D01*
X116389500Y-67830249D01*
X104094722Y-67830249D01*
X104140460Y-67784511D01*
X106837566Y-65087405D01*
X106899878Y-65053379D01*
X106926661Y-65050500D01*
X110737021Y-65050500D01*
X110805142Y-65070502D01*
X110851635Y-65124158D01*
X110857595Y-65139924D01*
X110871185Y-65184726D01*
X110871186Y-65184728D01*
X110920860Y-65277661D01*
X110964090Y-65358538D01*
X111089117Y-65510883D01*
X111241462Y-65635910D01*
X111415273Y-65728814D01*
X111603868Y-65786024D01*
X111603872Y-65786024D01*
X111603874Y-65786025D01*
X111799997Y-65805341D01*
X111800000Y-65805341D01*
X111800003Y-65805341D01*
X111996124Y-65786025D01*
X111996126Y-65786025D01*
X111996127Y-65786024D01*
X111996132Y-65786024D01*
X112184727Y-65728814D01*
X112358538Y-65635910D01*
X112510883Y-65510883D01*
X112635910Y-65358538D01*
X112728814Y-65184727D01*
X112786024Y-64996132D01*
X112786693Y-64989338D01*
X112805341Y-64800003D01*
X112805341Y-64799996D01*
X112786025Y-64603875D01*
X112786025Y-64603873D01*
X112786024Y-64603870D01*
X112786024Y-64603868D01*
X112728814Y-64415273D01*
X112635910Y-64241462D01*
X112510883Y-64089117D01*
X112358538Y-63964090D01*
X112279365Y-63921771D01*
X112184728Y-63871186D01*
X111996125Y-63813974D01*
X111800003Y-63794659D01*
X111799997Y-63794659D01*
X111603875Y-63813974D01*
X111603873Y-63813974D01*
X111415271Y-63871186D01*
X111241461Y-63964090D01*
X111089117Y-64089117D01*
X110964090Y-64241461D01*
X110888492Y-64382896D01*
X110838740Y-64433544D01*
X110777370Y-64449500D01*
X106789562Y-64449500D01*
X106710438Y-64449500D01*
X106669484Y-64460473D01*
X106634014Y-64469977D01*
X106634007Y-64469980D01*
X106565492Y-64509537D01*
X106565482Y-64509545D01*
X103812434Y-67262595D01*
X103750122Y-67296621D01*
X103723339Y-67299500D01*
X100339562Y-67299500D01*
X100260438Y-67299500D01*
X100219484Y-67310473D01*
X100184014Y-67319977D01*
X100184012Y-67319977D01*
X100184012Y-67319978D01*
X100166909Y-67329852D01*
X100118518Y-67357790D01*
X100075233Y-67373117D01*
X99966874Y-67390280D01*
X99846780Y-67451471D01*
X99751471Y-67546780D01*
X99693207Y-67661132D01*
X99690281Y-67666874D01*
X99669196Y-67800000D01*
X98025500Y-67800000D01*
X98025500Y-66003293D01*
X98025587Y-65999996D01*
X99969538Y-65999996D01*
X99969538Y-66000003D01*
X99989336Y-66201026D01*
X100047977Y-66394341D01*
X100143203Y-66572497D01*
X100271352Y-66728647D01*
X100427502Y-66856795D01*
X100427502Y-66856796D01*
X100427506Y-66856798D01*
X100605659Y-66952023D01*
X100798967Y-67010662D01*
X100798971Y-67010662D01*
X100798973Y-67010663D01*
X100999997Y-67030462D01*
X101000000Y-67030462D01*
X101000003Y-67030462D01*
X101201026Y-67010663D01*
X101201027Y-67010662D01*
X101201033Y-67010662D01*
X101394341Y-66952023D01*
X101572494Y-66856798D01*
X101572495Y-66856796D01*
X101572497Y-66856796D01*
X101572497Y-66856795D01*
X101728647Y-66728647D01*
X101856798Y-66572494D01*
X101952023Y-66394341D01*
X102010662Y-66201033D01*
X102010690Y-66200756D01*
X102030462Y-66000003D01*
X102030462Y-65999996D01*
X102010663Y-65798973D01*
X102010662Y-65798971D01*
X102010662Y-65798967D01*
X101952023Y-65605659D01*
X101856798Y-65427506D01*
X101856796Y-65427502D01*
X101728647Y-65271352D01*
X101572497Y-65143204D01*
X101572497Y-65143203D01*
X101394341Y-65047977D01*
X101292915Y-65017210D01*
X101201033Y-64989338D01*
X101201032Y-64989337D01*
X101201026Y-64989336D01*
X101000003Y-64969538D01*
X100999997Y-64969538D01*
X100798973Y-64989336D01*
X100605658Y-65047977D01*
X100427502Y-65143203D01*
X100427502Y-65143204D01*
X100271352Y-65271352D01*
X100143204Y-65427502D01*
X100143203Y-65427502D01*
X100047977Y-65605658D01*
X99989336Y-65798973D01*
X99969538Y-65999996D01*
X98025587Y-65999996D01*
X98025673Y-65996699D01*
X98036714Y-65786024D01*
X98041449Y-65695678D01*
X98042827Y-65682563D01*
X98051616Y-65627075D01*
X98089467Y-65388084D01*
X98092209Y-65375188D01*
X98095384Y-65363339D01*
X98169376Y-65087195D01*
X98173445Y-65074672D01*
X98280295Y-64796319D01*
X98285656Y-64784280D01*
X98345687Y-64666462D01*
X98421014Y-64518623D01*
X98427596Y-64507222D01*
X98589994Y-64257151D01*
X98597725Y-64246512D01*
X98785369Y-64014790D01*
X98794175Y-64005011D01*
X99005011Y-63794175D01*
X99014790Y-63785369D01*
X99246512Y-63597725D01*
X99257151Y-63589994D01*
X99507222Y-63427596D01*
X99518623Y-63421014D01*
X99784280Y-63285655D01*
X99796319Y-63280295D01*
X100074672Y-63173445D01*
X100087195Y-63169376D01*
X100375192Y-63092208D01*
X100388084Y-63089467D01*
X100682566Y-63042826D01*
X100695678Y-63041449D01*
X100996699Y-63025672D01*
X101003293Y-63025500D01*
X101008285Y-63025500D01*
X120305339Y-63025500D01*
X120373460Y-63045502D01*
G37*
%TD.AperFunction*%
%TD*%
M02*
