M48
; DRILL file {KiCad 9.0.1} date 2025-04-07T15:46:48+0200
; FORMAT={-:-/ absolute / metric / decimal}
; #@! TF.CreationDate,2025-04-07T15:46:48+02:00
; #@! TF.GenerationSoftware,Kicad,Pcbnew,9.0.1
; #@! TF.FileFunction,Plated,1,2,PTH
FMAT,2
METRIC
; #@! TA.AperFunction,Plated,PTH,ViaDrill
T1C0.200
; #@! TA.AperFunction,Plated,PTH,ComponentDrill
T2C0.762
; #@! TA.AperFunction,Plated,PTH,ComponentDrill
T3C0.800
; #@! TA.AperFunction,Plated,PTH,ComponentDrill
T4C0.900
; #@! TA.AperFunction,Plated,PTH,ComponentDrill
T5C1.300
; #@! TA.AperFunction,Plated,PTH,ComponentDrill
T6C1.500
%
G90
G05
T1
X103.513Y-70.458
X103.53Y-68.955
X104.496Y-78.249
X104.546Y-77.174
X106.231Y-87.274
X107.56Y-78.273
X108.534Y-76.615
X110.16Y-85.242
X111.379Y-67.767
X112.039Y-100.567
X112.039Y-101.617
X116.256Y-72.426
X117.712Y-85.598
X118.085Y-80.58
X118.085Y-82.423
X118.296Y-93.017
X119.194Y-76.327
X119.568Y-85.144
X119.769Y-76.629
X120.856Y-76.107
X122.3Y-100.739
X122.911Y-82.271
X123.155Y-79.715
X123.165Y-81.534
X123.725Y-96.5
X125.455Y-73.0
X125.455Y-73.65
X126.535Y-82.271
X126.725Y-84.416
X127.877Y-91.294
X128.188Y-74.854
X128.188Y-75.611
X129.091Y-95.456
X130.141Y-95.775
X130.404Y-84.941
X131.625Y-102.05
X132.338Y-84.416
X132.69Y-92.227
X134.229Y-89.539
X135.58Y-83.995
X139.141Y-66.844
X139.652Y-66.322
X143.05Y-93.325
X146.423Y-87.075
T2
X137.0Y-103.0
X139.5Y-103.0
X142.0Y-103.0
T3
X104.724Y-87.0
X106.52Y-88.796
X108.316Y-90.592
X110.112Y-81.612
X110.112Y-92.388
X110.5Y-75.25
X110.5Y-77.75
X111.908Y-83.408
X111.908Y-94.184
X113.704Y-85.204
X113.704Y-95.98
X115.5Y-87.0
X115.5Y-97.776
X117.296Y-88.796
X117.296Y-99.572
X119.092Y-90.592
X119.99Y-104.165
X120.888Y-92.388
X121.13Y-80.58
X121.13Y-83.12
X121.13Y-85.66
X121.13Y-88.2
X122.684Y-94.184
X124.025Y-65.225
X124.866Y-92.134
X126.52Y-95.071
X126.525Y-65.225
X126.634Y-90.366
X128.316Y-93.275
X128.75Y-80.58
X128.75Y-83.12
X128.75Y-85.66
X128.75Y-88.2
X130.112Y-91.479
X130.15Y-104.165
X131.908Y-89.683
X131.908Y-100.459
X133.704Y-87.887
X133.704Y-98.663
X135.5Y-86.091
X135.5Y-96.867
X137.296Y-84.295
X137.296Y-95.071
X139.092Y-82.499
X139.092Y-93.275
X140.0Y-98.5
X140.888Y-91.479
X142.5Y-98.5
X142.684Y-89.683
X144.48Y-87.887
X145.4Y-96.8
X148.75Y-70.17
X148.75Y-80.33
X148.768Y-83.16
X148.768Y-93.32
X150.4Y-96.8
T4
X105.24Y-75.5
X105.24Y-79.75
X106.74Y-84.25
X107.49Y-71.5
X107.78Y-75.5
X107.78Y-79.75
X109.24Y-87.75
X109.28Y-84.25
X110.03Y-71.5
X111.38Y-65.0
X111.74Y-69.25
X111.78Y-87.75
X112.49Y-91.0
X114.28Y-69.25
X115.03Y-91.0
X116.24Y-94.25
X117.49Y-68.75
X118.78Y-94.25
X119.0Y-65.0
X119.74Y-97.5
X120.03Y-68.75
X121.49Y-71.5
X122.28Y-97.5
X123.715Y-75.0
X123.99Y-100.25
X124.03Y-71.5
X126.255Y-75.0
X126.49Y-71.5
X126.53Y-100.25
X127.965Y-97.5
X129.03Y-71.5
X130.175Y-64.999
X130.49Y-68.75
X130.505Y-97.5
X131.44Y-94.25
X133.03Y-68.75
X133.98Y-94.25
X135.44Y-91.0
X136.24Y-68.75
X137.795Y-64.999
X137.98Y-91.0
X138.19Y-87.75
X138.78Y-68.75
X140.465Y-71.75
X140.73Y-87.75
X141.475Y-84.25
X142.465Y-75.5
X142.74Y-79.75
X143.005Y-71.75
X144.015Y-84.25
X145.005Y-75.5
X145.28Y-79.75
T5
X107.875Y-103.6
X110.375Y-101.1
X112.875Y-103.6
T6
X114.188Y-78.207
X134.188Y-78.207
M30
