%TF.GenerationSoftware,KiCad,Pcbnew,8.0.6*%
%TF.CreationDate,2024-11-17T17:26:00+01:00*%
%TF.ProjectId,Heart_NE555_THT,48656172-745f-44e4-9535-35355f544854,rev?*%
%TF.SameCoordinates,Original*%
%TF.FileFunction,Legend,Top*%
%TF.FilePolarity,Positive*%
%FSLAX46Y46*%
G04 Gerber Fmt 4.6, Leading zero omitted, Abs format (unit mm)*
G04 Created by KiCad (PCBNEW 8.0.6) date 2024-11-17 17:26:00*
%MOMM*%
%LPD*%
G01*
G04 APERTURE LIST*
%ADD10C,0.150000*%
%ADD11C,0.120000*%
G04 APERTURE END LIST*
D10*
X124188095Y-86954819D02*
X124188095Y-87764342D01*
X124188095Y-87764342D02*
X124235714Y-87859580D01*
X124235714Y-87859580D02*
X124283333Y-87907200D01*
X124283333Y-87907200D02*
X124378571Y-87954819D01*
X124378571Y-87954819D02*
X124569047Y-87954819D01*
X124569047Y-87954819D02*
X124664285Y-87907200D01*
X124664285Y-87907200D02*
X124711904Y-87859580D01*
X124711904Y-87859580D02*
X124759523Y-87764342D01*
X124759523Y-87764342D02*
X124759523Y-86954819D01*
X125759523Y-87954819D02*
X125188095Y-87954819D01*
X125473809Y-87954819D02*
X125473809Y-86954819D01*
X125473809Y-86954819D02*
X125378571Y-87097676D01*
X125378571Y-87097676D02*
X125283333Y-87192914D01*
X125283333Y-87192914D02*
X125188095Y-87240533D01*
X125454819Y-85916666D02*
X124454819Y-85916666D01*
X124454819Y-85916666D02*
X125454819Y-85345238D01*
X125454819Y-85345238D02*
X124454819Y-85345238D01*
X124931009Y-84869047D02*
X124931009Y-84535714D01*
X125454819Y-84392857D02*
X125454819Y-84869047D01*
X125454819Y-84869047D02*
X124454819Y-84869047D01*
X124454819Y-84869047D02*
X124454819Y-84392857D01*
X124454819Y-83488095D02*
X124454819Y-83964285D01*
X124454819Y-83964285D02*
X124931009Y-84011904D01*
X124931009Y-84011904D02*
X124883390Y-83964285D01*
X124883390Y-83964285D02*
X124835771Y-83869047D01*
X124835771Y-83869047D02*
X124835771Y-83630952D01*
X124835771Y-83630952D02*
X124883390Y-83535714D01*
X124883390Y-83535714D02*
X124931009Y-83488095D01*
X124931009Y-83488095D02*
X125026247Y-83440476D01*
X125026247Y-83440476D02*
X125264342Y-83440476D01*
X125264342Y-83440476D02*
X125359580Y-83488095D01*
X125359580Y-83488095D02*
X125407200Y-83535714D01*
X125407200Y-83535714D02*
X125454819Y-83630952D01*
X125454819Y-83630952D02*
X125454819Y-83869047D01*
X125454819Y-83869047D02*
X125407200Y-83964285D01*
X125407200Y-83964285D02*
X125359580Y-84011904D01*
X124454819Y-82535714D02*
X124454819Y-83011904D01*
X124454819Y-83011904D02*
X124931009Y-83059523D01*
X124931009Y-83059523D02*
X124883390Y-83011904D01*
X124883390Y-83011904D02*
X124835771Y-82916666D01*
X124835771Y-82916666D02*
X124835771Y-82678571D01*
X124835771Y-82678571D02*
X124883390Y-82583333D01*
X124883390Y-82583333D02*
X124931009Y-82535714D01*
X124931009Y-82535714D02*
X125026247Y-82488095D01*
X125026247Y-82488095D02*
X125264342Y-82488095D01*
X125264342Y-82488095D02*
X125359580Y-82535714D01*
X125359580Y-82535714D02*
X125407200Y-82583333D01*
X125407200Y-82583333D02*
X125454819Y-82678571D01*
X125454819Y-82678571D02*
X125454819Y-82916666D01*
X125454819Y-82916666D02*
X125407200Y-83011904D01*
X125407200Y-83011904D02*
X125359580Y-83059523D01*
X124454819Y-81583333D02*
X124454819Y-82059523D01*
X124454819Y-82059523D02*
X124931009Y-82107142D01*
X124931009Y-82107142D02*
X124883390Y-82059523D01*
X124883390Y-82059523D02*
X124835771Y-81964285D01*
X124835771Y-81964285D02*
X124835771Y-81726190D01*
X124835771Y-81726190D02*
X124883390Y-81630952D01*
X124883390Y-81630952D02*
X124931009Y-81583333D01*
X124931009Y-81583333D02*
X125026247Y-81535714D01*
X125026247Y-81535714D02*
X125264342Y-81535714D01*
X125264342Y-81535714D02*
X125359580Y-81583333D01*
X125359580Y-81583333D02*
X125407200Y-81630952D01*
X125407200Y-81630952D02*
X125454819Y-81726190D01*
X125454819Y-81726190D02*
X125454819Y-81964285D01*
X125454819Y-81964285D02*
X125407200Y-82059523D01*
X125407200Y-82059523D02*
X125359580Y-82107142D01*
X125454819Y-81107142D02*
X124454819Y-81107142D01*
X124454819Y-81107142D02*
X124454819Y-80869047D01*
X124454819Y-80869047D02*
X124502438Y-80726190D01*
X124502438Y-80726190D02*
X124597676Y-80630952D01*
X124597676Y-80630952D02*
X124692914Y-80583333D01*
X124692914Y-80583333D02*
X124883390Y-80535714D01*
X124883390Y-80535714D02*
X125026247Y-80535714D01*
X125026247Y-80535714D02*
X125216723Y-80583333D01*
X125216723Y-80583333D02*
X125311961Y-80630952D01*
X125311961Y-80630952D02*
X125407200Y-80726190D01*
X125407200Y-80726190D02*
X125454819Y-80869047D01*
X125454819Y-80869047D02*
X125454819Y-81107142D01*
D11*
%TO.C,U1*%
X122690000Y-79250000D02*
X122690000Y-89530000D01*
X122690000Y-89530000D02*
X123940000Y-89530000D01*
X125940000Y-89530000D02*
X127190000Y-89530000D01*
X127190000Y-79250000D02*
X122690000Y-79250000D01*
X127190000Y-89530000D02*
X127190000Y-79250000D01*
X123940000Y-89530000D02*
G75*
G02*
X125940000Y-89530000I1000000J0D01*
G01*
%TO.C,D26*%
X119450000Y-96264000D02*
X119450000Y-96420000D01*
X119450000Y-98580000D02*
X119450000Y-98736000D01*
X119450000Y-96264484D02*
G75*
G02*
X122682335Y-96421392I1560000J-1235516D01*
G01*
X119969039Y-96420000D02*
G75*
G02*
X122051130Y-96420163I1040961J-1080000D01*
G01*
X122051130Y-98579837D02*
G75*
G02*
X119969039Y-98580000I-1041130J1079837D01*
G01*
X122682335Y-98578608D02*
G75*
G02*
X119450000Y-98735516I-1672335J1078608D01*
G01*
%TO.C,D25*%
X115950000Y-93014000D02*
X115950000Y-93170000D01*
X115950000Y-95330000D02*
X115950000Y-95486000D01*
X115950000Y-93014484D02*
G75*
G02*
X119182335Y-93171392I1560000J-1235516D01*
G01*
X116469039Y-93170000D02*
G75*
G02*
X118551130Y-93170163I1040961J-1080000D01*
G01*
X118551130Y-95329837D02*
G75*
G02*
X116469039Y-95330000I-1041130J1079837D01*
G01*
X119182335Y-95328608D02*
G75*
G02*
X115950000Y-95485516I-1672335J1078608D01*
G01*
%TO.C,D24*%
X112200000Y-89764000D02*
X112200000Y-89920000D01*
X112200000Y-92080000D02*
X112200000Y-92236000D01*
X112200000Y-89764484D02*
G75*
G02*
X115432335Y-89921392I1560000J-1235516D01*
G01*
X112719039Y-89920000D02*
G75*
G02*
X114801130Y-89920163I1040961J-1080000D01*
G01*
X114801130Y-92079837D02*
G75*
G02*
X112719039Y-92080000I-1041130J1079837D01*
G01*
X115432335Y-92078608D02*
G75*
G02*
X112200000Y-92235516I-1672335J1078608D01*
G01*
%TO.C,D23*%
X108950000Y-86514000D02*
X108950000Y-86670000D01*
X108950000Y-88830000D02*
X108950000Y-88986000D01*
X108950000Y-86514484D02*
G75*
G02*
X112182335Y-86671392I1560000J-1235516D01*
G01*
X109469039Y-86670000D02*
G75*
G02*
X111551130Y-86670163I1040961J-1080000D01*
G01*
X111551130Y-88829837D02*
G75*
G02*
X109469039Y-88830000I-1041130J1079837D01*
G01*
X112182335Y-88828608D02*
G75*
G02*
X108950000Y-88985516I-1672335J1078608D01*
G01*
%TO.C,D22*%
X106450000Y-83014000D02*
X106450000Y-83170000D01*
X106450000Y-85330000D02*
X106450000Y-85486000D01*
X106450000Y-83014484D02*
G75*
G02*
X109682335Y-83171392I1560000J-1235516D01*
G01*
X106969039Y-83170000D02*
G75*
G02*
X109051130Y-83170163I1040961J-1080000D01*
G01*
X109051130Y-85329837D02*
G75*
G02*
X106969039Y-85330000I-1041130J1079837D01*
G01*
X109682335Y-85328608D02*
G75*
G02*
X106450000Y-85485516I-1672335J1078608D01*
G01*
%TO.C,D21*%
X104950000Y-78514000D02*
X104950000Y-78670000D01*
X104950000Y-80830000D02*
X104950000Y-80986000D01*
X104950000Y-78514484D02*
G75*
G02*
X108182335Y-78671392I1560000J-1235516D01*
G01*
X105469039Y-78670000D02*
G75*
G02*
X107551130Y-78670163I1040961J-1080000D01*
G01*
X107551130Y-80829837D02*
G75*
G02*
X105469039Y-80830000I-1041130J1079837D01*
G01*
X108182335Y-80828608D02*
G75*
G02*
X104950000Y-80985516I-1672335J1078608D01*
G01*
%TO.C,D20*%
X104950000Y-74264000D02*
X104950000Y-74420000D01*
X104950000Y-76580000D02*
X104950000Y-76736000D01*
X104950000Y-74264484D02*
G75*
G02*
X108182335Y-74421392I1560000J-1235516D01*
G01*
X105469039Y-74420000D02*
G75*
G02*
X107551130Y-74420163I1040961J-1080000D01*
G01*
X107551130Y-76579837D02*
G75*
G02*
X105469039Y-76580000I-1041130J1079837D01*
G01*
X108182335Y-76578608D02*
G75*
G02*
X104950000Y-76735516I-1672335J1078608D01*
G01*
%TO.C,D17*%
X117200000Y-67514000D02*
X117200000Y-67670000D01*
X117200000Y-69830000D02*
X117200000Y-69986000D01*
X117200000Y-67514484D02*
G75*
G02*
X120432335Y-67671392I1560000J-1235516D01*
G01*
X117719039Y-67670000D02*
G75*
G02*
X119801130Y-67670163I1040961J-1080000D01*
G01*
X119801130Y-69829837D02*
G75*
G02*
X117719039Y-69830000I-1041130J1079837D01*
G01*
X120432335Y-69828608D02*
G75*
G02*
X117200000Y-69985516I-1672335J1078608D01*
G01*
%TO.C,D16*%
X121200000Y-70264000D02*
X121200000Y-70420000D01*
X121200000Y-72580000D02*
X121200000Y-72736000D01*
X121200000Y-70264484D02*
G75*
G02*
X124432335Y-70421392I1560000J-1235516D01*
G01*
X121719039Y-70420000D02*
G75*
G02*
X123801130Y-70420163I1040961J-1080000D01*
G01*
X123801130Y-72579837D02*
G75*
G02*
X121719039Y-72580000I-1041130J1079837D01*
G01*
X124432335Y-72578608D02*
G75*
G02*
X121200000Y-72735516I-1672335J1078608D01*
G01*
%TO.C,D15*%
X123425000Y-73764000D02*
X123425000Y-73920000D01*
X123425000Y-76080000D02*
X123425000Y-76236000D01*
X123425000Y-73764484D02*
G75*
G02*
X126657335Y-73921392I1560000J-1235516D01*
G01*
X123944039Y-73920000D02*
G75*
G02*
X126026130Y-73920163I1040961J-1080000D01*
G01*
X126026130Y-76079837D02*
G75*
G02*
X123944039Y-76080000I-1041130J1079837D01*
G01*
X126657335Y-76078608D02*
G75*
G02*
X123425000Y-76235516I-1672335J1078608D01*
G01*
%TO.C,D14*%
X126200000Y-70264000D02*
X126200000Y-70420000D01*
X126200000Y-72580000D02*
X126200000Y-72736000D01*
X126200000Y-70264484D02*
G75*
G02*
X129432335Y-70421392I1560000J-1235516D01*
G01*
X126719039Y-70420000D02*
G75*
G02*
X128801130Y-70420163I1040961J-1080000D01*
G01*
X128801130Y-72579837D02*
G75*
G02*
X126719039Y-72580000I-1041130J1079837D01*
G01*
X129432335Y-72578608D02*
G75*
G02*
X126200000Y-72735516I-1672335J1078608D01*
G01*
%TO.C,D13*%
X130200000Y-67514000D02*
X130200000Y-67670000D01*
X130200000Y-69830000D02*
X130200000Y-69986000D01*
X130200000Y-67514484D02*
G75*
G02*
X133432335Y-67671392I1560000J-1235516D01*
G01*
X130719039Y-67670000D02*
G75*
G02*
X132801130Y-67670163I1040961J-1080000D01*
G01*
X132801130Y-69829837D02*
G75*
G02*
X130719039Y-69830000I-1041130J1079837D01*
G01*
X133432335Y-69828608D02*
G75*
G02*
X130200000Y-69985516I-1672335J1078608D01*
G01*
%TO.C,D11*%
X140175000Y-70514000D02*
X140175000Y-70670000D01*
X140175000Y-72830000D02*
X140175000Y-72986000D01*
X140175000Y-70514484D02*
G75*
G02*
X143407335Y-70671392I1560000J-1235516D01*
G01*
X140694039Y-70670000D02*
G75*
G02*
X142776130Y-70670163I1040961J-1080000D01*
G01*
X142776130Y-72829837D02*
G75*
G02*
X140694039Y-72830000I-1041130J1079837D01*
G01*
X143407335Y-72828608D02*
G75*
G02*
X140175000Y-72985516I-1672335J1078608D01*
G01*
%TO.C,D6*%
X135150000Y-89764000D02*
X135150000Y-89920000D01*
X135150000Y-92080000D02*
X135150000Y-92236000D01*
X135150000Y-89764484D02*
G75*
G02*
X138382335Y-89921392I1560000J-1235516D01*
G01*
X135669039Y-89920000D02*
G75*
G02*
X137751130Y-89920163I1040961J-1080000D01*
G01*
X137751130Y-92079837D02*
G75*
G02*
X135669039Y-92080000I-1041130J1079837D01*
G01*
X138382335Y-92078608D02*
G75*
G02*
X135150000Y-92235516I-1672335J1078608D01*
G01*
%TO.C,D10*%
X142175000Y-74264000D02*
X142175000Y-74420000D01*
X142175000Y-76580000D02*
X142175000Y-76736000D01*
X142175000Y-74264484D02*
G75*
G02*
X145407335Y-74421392I1560000J-1235516D01*
G01*
X142694039Y-74420000D02*
G75*
G02*
X144776130Y-74420163I1040961J-1080000D01*
G01*
X144776130Y-76579837D02*
G75*
G02*
X142694039Y-76580000I-1041130J1079837D01*
G01*
X145407335Y-76578608D02*
G75*
G02*
X142175000Y-76735516I-1672335J1078608D01*
G01*
%TO.C,D3*%
X123700000Y-99014000D02*
X123700000Y-99170000D01*
X123700000Y-101330000D02*
X123700000Y-101486000D01*
X123700000Y-99014484D02*
G75*
G02*
X126932335Y-99171392I1560000J-1235516D01*
G01*
X124219039Y-99170000D02*
G75*
G02*
X126301130Y-99170163I1040961J-1080000D01*
G01*
X126301130Y-101329837D02*
G75*
G02*
X124219039Y-101330000I-1041130J1079837D01*
G01*
X126932335Y-101328608D02*
G75*
G02*
X123700000Y-101485516I-1672335J1078608D01*
G01*
%TO.C,D7*%
X137900000Y-86514000D02*
X137900000Y-86670000D01*
X137900000Y-88830000D02*
X137900000Y-88986000D01*
X137900000Y-86514484D02*
G75*
G02*
X141132335Y-86671392I1560000J-1235516D01*
G01*
X138419039Y-86670000D02*
G75*
G02*
X140501130Y-86670163I1040961J-1080000D01*
G01*
X140501130Y-88829837D02*
G75*
G02*
X138419039Y-88830000I-1041130J1079837D01*
G01*
X141132335Y-88828608D02*
G75*
G02*
X137900000Y-88985516I-1672335J1078608D01*
G01*
%TO.C,D5*%
X131150000Y-93014000D02*
X131150000Y-93170000D01*
X131150000Y-95330000D02*
X131150000Y-95486000D01*
X131150000Y-93014484D02*
G75*
G02*
X134382335Y-93171392I1560000J-1235516D01*
G01*
X131669039Y-93170000D02*
G75*
G02*
X133751130Y-93170163I1040961J-1080000D01*
G01*
X133751130Y-95329837D02*
G75*
G02*
X131669039Y-95330000I-1041130J1079837D01*
G01*
X134382335Y-95328608D02*
G75*
G02*
X131150000Y-95485516I-1672335J1078608D01*
G01*
%TO.C,D4*%
X127675000Y-96264000D02*
X127675000Y-96420000D01*
X127675000Y-98580000D02*
X127675000Y-98736000D01*
X127675000Y-96264484D02*
G75*
G02*
X130907335Y-96421392I1560000J-1235516D01*
G01*
X128194039Y-96420000D02*
G75*
G02*
X130276130Y-96420163I1040961J-1080000D01*
G01*
X130276130Y-98579837D02*
G75*
G02*
X128194039Y-98580000I-1041130J1079837D01*
G01*
X130907335Y-98578608D02*
G75*
G02*
X127675000Y-98735516I-1672335J1078608D01*
G01*
%TO.C,D9*%
X142450000Y-78514000D02*
X142450000Y-78670000D01*
X142450000Y-80830000D02*
X142450000Y-80986000D01*
X142450000Y-78514484D02*
G75*
G02*
X145682335Y-78671392I1560000J-1235516D01*
G01*
X142969039Y-78670000D02*
G75*
G02*
X145051130Y-78670163I1040961J-1080000D01*
G01*
X145051130Y-80829837D02*
G75*
G02*
X142969039Y-80830000I-1041130J1079837D01*
G01*
X145682335Y-80828608D02*
G75*
G02*
X142450000Y-80985516I-1672335J1078608D01*
G01*
%TO.C,D8*%
X141185000Y-83014000D02*
X141185000Y-83170000D01*
X141185000Y-85330000D02*
X141185000Y-85486000D01*
X141185000Y-83014484D02*
G75*
G02*
X144417335Y-83171392I1560000J-1235516D01*
G01*
X141704039Y-83170000D02*
G75*
G02*
X143786130Y-83170163I1040961J-1080000D01*
G01*
X143786130Y-85329837D02*
G75*
G02*
X141704039Y-85330000I-1041130J1079837D01*
G01*
X144417335Y-85328608D02*
G75*
G02*
X141185000Y-85485516I-1672335J1078608D01*
G01*
%TO.C,D12*%
X135950000Y-67514000D02*
X135950000Y-67670000D01*
X135950000Y-69830000D02*
X135950000Y-69986000D01*
X135950000Y-67514484D02*
G75*
G02*
X139182335Y-67671392I1560000J-1235516D01*
G01*
X136469039Y-67670000D02*
G75*
G02*
X138551130Y-67670163I1040961J-1080000D01*
G01*
X138551130Y-69829837D02*
G75*
G02*
X136469039Y-69830000I-1041130J1079837D01*
G01*
X139182335Y-69828608D02*
G75*
G02*
X135950000Y-69985516I-1672335J1078608D01*
G01*
%TO.C,D19*%
X107200000Y-70264000D02*
X107200000Y-70420000D01*
X107200000Y-72580000D02*
X107200000Y-72736000D01*
X107200000Y-70264484D02*
G75*
G02*
X110432335Y-70421392I1560000J-1235516D01*
G01*
X107719039Y-70420000D02*
G75*
G02*
X109801130Y-70420163I1040961J-1080000D01*
G01*
X109801130Y-72579837D02*
G75*
G02*
X107719039Y-72580000I-1041130J1079837D01*
G01*
X110432335Y-72578608D02*
G75*
G02*
X107200000Y-72735516I-1672335J1078608D01*
G01*
%TO.C,D18*%
X111450000Y-68014000D02*
X111450000Y-68170000D01*
X111450000Y-70330000D02*
X111450000Y-70486000D01*
X111450000Y-68014484D02*
G75*
G02*
X114682335Y-68171392I1560000J-1235516D01*
G01*
X111969039Y-68170000D02*
G75*
G02*
X114051130Y-68170163I1040961J-1080000D01*
G01*
X114051130Y-70329837D02*
G75*
G02*
X111969039Y-70330000I-1041130J1079837D01*
G01*
X114682335Y-70328608D02*
G75*
G02*
X111450000Y-70485516I-1672335J1078608D01*
G01*
%TD*%
M02*
